<?xml version="1.0" encoding="UTF-8" standalone="no"?><!DOCTYPE svg PUBLIC "-//W3C//DTD SVG 1.1//EN" "http://www.w3.org/Graphics/SVG/1.1/DTD/svg11.dtd"><svg width="100%" height="100%" viewBox="0 0 5000 2292" version="1.1" xmlns="http://www.w3.org/2000/svg" xmlns:xlink="http://www.w3.org/1999/xlink" xml:space="preserve" xmlns:serif="http://www.serif.com/" style="fill-rule:evenodd;clip-rule:evenodd;stroke-linecap:round;stroke-linejoin:round;stroke-miterlimit:1.5;"><g><path d="M4846.36,1490.44l-0.007,-4.246l-4493.59,8.001l0.008,4.246l4493.59,-8.001Z" style="stroke:#ededed;stroke-width:4.17px;"/><path d="M4846.36,1059.98l-0.007,-4.246l-4493.59,8.001l0.008,4.246l4493.59,-8.001Z" style="stroke:#ededed;stroke-width:4.17px;"/><path d="M4846.36,629.516l-0.007,-4.246l-4493.59,8.001l0.008,4.246l4493.59,-8.001Z" style="stroke:#ededed;stroke-width:4.17px;"/><path d="M222.436,218.466l-0,-5.435l-7.134,-0l-0,-42.463l-8.153,0l-29.724,42.463l0,5.435l31.932,0l0,12.909l5.945,-0l-0,-12.909l7.134,0Zm-38.387,-5.435l25.308,-36.178l0,36.178l-25.308,-0Z" style="fill-rule:nonzero;"/><path d="M231.947,200.972c0,18.938 9.087,31.507 24.374,31.507c15.201,-0 24.288,-12.569 24.288,-31.507c0,-18.854 -9.257,-31.593 -24.288,-31.593c-15.117,0 -24.374,12.739 -24.374,31.593Zm6.03,-0c-0,-15.881 6.709,-25.988 18.344,-25.988c11.634,0 18.343,10.107 18.343,25.988c0,15.796 -6.709,25.987 -18.343,25.987c-11.635,-0 -18.344,-10.191 -18.344,-25.987Z" style="fill-rule:nonzero;"/><path d="M254.792,1092.3l-0,-5.69l-30.658,0l14.182,-12.399c12.145,-10.616 16.136,-16.475 16.136,-25.308c0,-11.125 -7.643,-18.513 -19.108,-18.513c-11.974,-0 -20.042,8.407 -20.382,21.146l6.115,0c0.254,-9.427 5.775,-15.541 14.182,-15.541c8.068,-0 12.994,5.01 12.994,13.248c-0,7.219 -2.888,11.465 -14.098,21.231l-19.448,16.985l0,4.841l40.085,0Z" style="fill-rule:nonzero;"/><path d="M263.284,1061.9c0,18.938 9.087,31.507 24.374,31.507c15.201,0 24.288,-12.569 24.288,-31.507c0,-18.853 -9.256,-31.592 -24.288,-31.592c-15.117,-0 -24.374,12.739 -24.374,31.592Zm6.03,-0c0,-15.881 6.709,-25.987 18.344,-25.987c11.635,-0 18.344,10.106 18.344,25.987c-0,15.796 -6.709,25.987 -18.344,25.987c-11.635,-0 -18.344,-10.191 -18.344,-25.987Z" style="fill-rule:nonzero;"/><path d="M195.599,629.228c10.871,-0 16.815,5.18 16.815,13.503c0,8.832 -5.859,14.607 -14.946,14.607c-8.578,-0 -14.013,-5.266 -14.013,-14.013l-6.03,0c0,12.144 8.068,19.533 20.043,19.533c12.314,-0 21.146,-7.898 21.146,-19.957c-0,-11.041 -8.153,-18.259 -19.533,-18.854l18.174,-18.089l0,-4.925l-36.857,-0l-0,5.435l29.129,-0l-18.768,18.513l-0,4.247l4.84,-0Z" style="fill-rule:nonzero;"/><path d="M227.021,631.436c0,18.938 9.087,31.507 24.374,31.507c15.201,-0 24.288,-12.569 24.288,-31.507c0,-18.854 -9.256,-31.592 -24.288,-31.592c-15.117,-0 -24.374,12.738 -24.374,31.592Zm6.03,-0c0,-15.881 6.709,-25.987 18.344,-25.987c11.635,-0 18.344,10.106 18.344,25.987c-0,15.796 -6.709,25.987 -18.344,25.987c-11.635,-0 -18.344,-10.191 -18.344,-25.987Z" style="fill-rule:nonzero;"/><path d="M237.043,1467.48l-0,55.286l5.859,0l0,-60.806l-18.258,0l-0,5.52l12.399,0Z" style="fill-rule:nonzero;"/><path d="M254.707,1492.36c-0,18.938 9.087,31.507 24.373,31.507c15.202,0 24.289,-12.569 24.289,-31.507c-0,-18.853 -9.257,-31.592 -24.289,-31.592c-15.116,0 -24.373,12.739 -24.373,31.592Zm6.03,0c-0,-15.881 6.709,-25.987 18.343,-25.987c11.635,0 18.344,10.106 18.344,25.987c0,15.796 -6.709,25.987 -18.344,25.987c-11.634,0 -18.343,-10.191 -18.343,-25.987Z" style="fill-rule:nonzero;"/><path d="M518.695,282.147c8.025,-0 14.446,3.821 16.739,11.312l5.961,-0c-2.14,-9.937 -11.082,-16.51 -22.624,-16.51c-15.668,0 -26.369,11.771 -26.369,28.51c0,16.891 10.701,28.05 26.217,28.05c8.866,0 15.745,-4.127 18.649,-9.554l0.535,8.714l4.357,-0l-0,-29.656l-24.994,-0l0,4.891l19.796,0l0,2.828c0,13.147 -8.942,17.58 -18.114,17.58c-12.306,-0 -20.713,-8.637 -20.713,-22.853c-0,-13.988 7.949,-23.312 20.56,-23.312Z" style="fill-rule:nonzero;"/><path d="M567.459,333.509c8.713,0 14.446,-4.203 16.433,-12l-5.045,0c-1.375,4.892 -5.273,7.491 -11.312,7.491c-7.949,-0 -12.687,-5.198 -13.07,-14.217l29.427,0l-0,-2.598c-0,-10.472 -6.803,-17.58 -16.815,-17.58c-10.548,0 -17.733,7.949 -17.733,19.49c0,11.618 7.261,19.414 18.115,19.414Zm-0.382,-34.394c6.955,-0 11.541,4.739 11.541,11.847l-24,-0c0.917,-7.261 5.503,-11.847 12.459,-11.847Z" style="fill-rule:nonzero;"/><path d="M599.102,332.592l5.274,0l7.643,-23.235c0.994,-3.058 1.605,-5.274 2.14,-7.261c0.459,2.216 1.07,4.509 1.987,7.261l7.644,23.235l5.121,0l12.535,-36.993l-5.504,-0l-7.337,22.318c-1.299,3.975 -1.452,4.892 -2.217,7.949c-0.688,-2.752 -1.605,-5.962 -2.293,-7.949l-7.261,-22.318l-5.426,-0l-7.338,22.318c-0.382,1.223 -1.605,4.968 -2.216,7.949c-0.765,-2.981 -1.453,-5.503 -2.293,-7.949l-7.262,-22.318l-5.426,-0l12.229,36.993Z" style="fill-rule:nonzero;"/><path d="M661.929,333.509c8.714,0 14.446,-4.203 16.433,-12l-5.044,0c-1.376,4.892 -5.274,7.491 -11.312,7.491c-7.949,-0 -12.688,-5.198 -13.07,-14.217l29.426,0l0,-2.598c0,-10.472 -6.802,-17.58 -16.815,-17.58c-10.547,0 -17.732,7.949 -17.732,19.49c-0,11.618 7.261,19.414 18.114,19.414Zm-0.382,-34.394c6.956,-0 11.542,4.739 11.542,11.847l-24,-0c0.917,-7.261 5.503,-11.847 12.458,-11.847Z" style="fill-rule:nonzero;"/><path d="M706.107,295.14c-1.299,-0.306 -2.293,-0.382 -3.439,-0.382c-5.198,0 -9.096,2.599 -10.548,6.573l-0.382,-5.732l-4.968,-0l-0,36.993l5.274,0l-0,-21.095c-0,-7.032 4.356,-11.618 11.159,-11.618l2.904,0l0,-4.739Z" style="fill-rule:nonzero;"/><path d="M717.725,332.592l0.535,-7.567c2.599,5.733 7.72,8.484 13.911,8.484c10.777,0 17.197,-8.254 17.197,-19.337c0,-11.159 -6.267,-19.567 -17.044,-19.567c-6.268,0 -11.312,2.752 -13.911,8.178l-0,-25.91l-5.274,-0l0,55.719l4.586,0Zm0.764,-18.573c0,-8.484 4.739,-14.675 12.841,-14.675c8.025,-0 12.688,6.191 12.688,14.675c-0,8.56 -4.663,14.675 -12.688,14.675c-8.102,0 -12.841,-6.115 -12.841,-14.675Z" style="fill-rule:nonzero;"/><path d="M773.291,333.509c8.714,0 14.446,-4.203 16.433,-12l-5.044,0c-1.376,4.892 -5.274,7.491 -11.312,7.491c-7.949,-0 -12.688,-5.198 -13.07,-14.217l29.426,0l0,-2.598c0,-10.472 -6.802,-17.58 -16.815,-17.58c-10.547,0 -17.732,7.949 -17.732,19.49c-0,11.618 7.261,19.414 18.114,19.414Zm-0.382,-34.394c6.956,-0 11.542,4.739 11.542,11.847l-24,-0c0.917,-7.261 5.503,-11.847 12.458,-11.847Z" style="fill-rule:nonzero;"/><path d="M833.215,344.592c-6.039,-8.408 -10.013,-21.478 -10.013,-34.93c-0,-13.757 4.127,-26.598 10.013,-34.853l-4.816,0c-6.573,9.096 -10.624,22.242 -10.624,34.853c0,13.147 4.204,26.14 10.624,34.93l4.816,-0Z" style="fill-rule:nonzero;"/><path d="M848.272,282.835l-0,49.757l5.274,0l-0,-54.726l-16.433,0l-0,4.969l11.159,-0Z" style="fill-rule:nonzero;"/><path d="M864.17,305.229c-0,17.045 8.178,28.357 21.936,28.357c13.681,-0 21.859,-11.312 21.859,-28.357c0,-16.968 -8.331,-28.433 -21.859,-28.433c-13.605,0 -21.936,11.465 -21.936,28.433Zm5.426,0c0,-14.293 6.039,-23.388 16.51,-23.388c10.471,-0 16.509,9.095 16.509,23.388c0,14.217 -6.038,23.389 -16.509,23.389c-10.471,-0 -16.51,-9.172 -16.51,-23.389Z" style="fill-rule:nonzero;"/><path d="M918.666,333.433c2.599,-0 4.815,-2.14 4.815,-4.663c0,-2.598 -2.216,-4.815 -4.815,-4.815c-2.599,0 -4.815,2.217 -4.815,4.815c-0,2.523 2.216,4.663 4.815,4.663Z" style="fill-rule:nonzero;"/><path d="M929.367,305.229c-0,17.045 8.178,28.357 21.936,28.357c13.681,-0 21.859,-11.312 21.859,-28.357c0,-16.968 -8.331,-28.433 -21.859,-28.433c-13.605,0 -21.936,11.465 -21.936,28.433Zm5.426,0c0,-14.293 6.038,-23.388 16.51,-23.388c10.471,-0 16.509,9.095 16.509,23.388c0,14.217 -6.038,23.389 -16.509,23.389c-10.472,-0 -16.51,-9.172 -16.51,-23.389Z" style="fill-rule:nonzero;"/><path d="M981.57,305.229c-0,17.045 8.178,28.357 21.936,28.357c13.681,-0 21.86,-11.312 21.86,-28.357c-0,-16.968 -8.331,-28.433 -21.86,-28.433c-13.605,0 -21.936,11.465 -21.936,28.433Zm5.427,0c-0,-14.293 6.038,-23.388 16.509,-23.388c10.471,-0 16.509,9.095 16.509,23.388c0,14.217 -6.038,23.389 -16.509,23.389c-10.471,-0 -16.509,-9.172 -16.509,-23.389Z" style="fill-rule:nonzero;"/><path d="M1033.77,305.229c0,17.045 8.179,28.357 21.936,28.357c13.682,-0 21.86,-11.312 21.86,-28.357c0,-16.968 -8.331,-28.433 -21.86,-28.433c-13.605,0 -21.936,11.465 -21.936,28.433Zm5.427,0c-0,-14.293 6.038,-23.388 16.509,-23.388c10.472,-0 16.51,9.095 16.51,23.388c-0,14.217 -6.038,23.389 -16.51,23.389c-10.471,-0 -16.509,-9.172 -16.509,-23.389Z" style="fill-rule:nonzero;"/><path d="M1113.95,332.592l-0,-11.083l7.185,-7.414l11.77,18.497l6.115,0l-14.293,-22.242l14.216,-14.751l-6.649,-0l-18.344,19.108l-0,-37.834l-5.274,-0l0,55.719l5.274,0Z" style="fill-rule:nonzero;"/><path d="M1156.91,332.592l5.274,0l14.675,-46.471l14.675,46.471l5.197,0l16.433,-54.726l-5.579,0l-11.312,37.682c-0.612,2.063 -1.3,4.738 -2.14,8.942c-0.841,-3.516 -1.606,-6.267 -2.446,-9.019l-11.924,-37.605l-5.732,0l-11.924,37.605c-0.84,2.675 -1.605,5.045 -2.522,9.019c-0.688,-3.592 -1.376,-6.344 -2.14,-9.019l-11.083,-37.605l-5.732,0l16.28,54.726Z" style="fill-rule:nonzero;"/><path d="M1225.08,332.516l-0,-20.102c-0,-7.108 4.127,-12.994 12.076,-12.994c5.732,0 9.783,3.058 9.783,11.695l0,21.477l5.274,0l0,-22.624c0,-9.325 -4.356,-15.363 -14.063,-15.363c-6.191,0 -10.701,2.981 -13.07,7.414l-0,-25.146l-5.274,-0l-0,55.643l5.274,-0Z" style="fill-rule:nonzero;"/><path d="M1262.08,344.592c6.42,-8.79 10.624,-21.783 10.624,-34.93c0,-12.611 -3.974,-25.757 -10.624,-34.853l-4.815,0c5.885,8.255 10.089,21.096 10.089,34.853c-0,13.452 -4.051,26.522 -10.089,34.93l4.815,-0Z" style="fill-rule:nonzero;"/><path d="M1319.55,332.592l5.733,0l20.789,-54.726l-5.656,0l-14.522,37.987c-0.841,2.064 -2.216,5.886 -3.363,9.86c-1.223,-3.821 -2.293,-6.802 -3.439,-9.783l-14.599,-38.064l-5.885,0l20.942,54.726Z" style="fill-rule:nonzero;"/><path d="M1362.2,333.509c8.714,0 14.446,-4.203 16.433,-12l-5.044,0c-1.376,4.892 -5.274,7.491 -11.312,7.491c-7.949,-0 -12.688,-5.198 -13.07,-14.217l29.426,0l0,-2.598c0,-10.472 -6.802,-17.58 -16.815,-17.58c-10.547,0 -17.732,7.949 -17.732,19.49c-0,11.618 7.261,19.414 18.114,19.414Zm-0.382,-34.394c6.956,-0 11.542,4.739 11.542,11.847l-24,-0c0.917,-7.261 5.503,-11.847 12.458,-11.847Z" style="fill-rule:nonzero;"/><path d="M1406.38,295.14c-1.299,-0.306 -2.293,-0.382 -3.439,-0.382c-5.197,0 -9.096,2.599 -10.548,6.573l-0.382,-5.732l-4.968,-0l0,36.993l5.274,0l-0,-21.095c-0,-7.032 4.357,-11.618 11.159,-11.618l2.904,0l0,-4.739Z" style="fill-rule:nonzero;"/><path d="M1418,332.592l0.535,-7.567c2.599,5.733 7.72,8.484 13.911,8.484c10.777,0 17.197,-8.254 17.197,-19.337c0,-11.159 -6.267,-19.567 -17.044,-19.567c-6.268,0 -11.312,2.752 -13.911,8.178l0,-25.91l-5.274,-0l0,55.719l4.586,0Zm0.764,-18.573c0,-8.484 4.739,-14.675 12.841,-14.675c8.026,-0 12.688,6.191 12.688,14.675c-0,8.56 -4.662,14.675 -12.688,14.675c-8.102,0 -12.841,-6.115 -12.841,-14.675Z" style="fill-rule:nonzero;"/><path d="M1477.39,295.14c-1.299,-0.306 -2.293,-0.382 -3.439,-0.382c-5.198,0 -9.096,2.599 -10.548,6.573l-0.382,-5.732l-4.968,-0l-0,36.993l5.274,0l-0,-21.095c-0,-7.032 4.356,-11.618 11.159,-11.618l2.904,0l0,-4.739Z" style="fill-rule:nonzero;"/><path d="M1493.51,333.509c6.268,0 11.312,-2.751 13.605,-7.414l0.688,6.497l4.433,0l0,-23.923c0,-9.784 -6.267,-14.064 -14.828,-14.064c-9.095,0 -15.21,4.815 -15.21,12.306l4.816,-0c-0,-4.968 3.821,-7.873 10.242,-7.873c5.426,0 9.783,2.293 9.783,9.554l-0,1.223l-12.229,0.994c-8.637,0.688 -13.835,4.968 -13.835,11.77c0,6.497 4.663,10.93 12.535,10.93Zm1.223,-4.28c-5.044,0 -8.407,-2.293 -8.407,-6.802c-0,-4.128 2.828,-7.185 9.783,-7.797l10.93,-0.84l-0,1.987c-0,8.025 -4.51,13.452 -12.306,13.452Z" style="fill-rule:nonzero;"/><path d="M1548.78,295.599l0,19.643c0,8.79 -4.204,13.528 -11.312,13.528c-5.885,0 -9.783,-3.133 -9.783,-11.923l-0,-21.325l-5.351,0l0,23.007c0,9.019 4.739,14.98 13.453,14.98c5.808,0 10.929,-2.904 12.993,-7.184l0.688,6.267l4.586,0l-0,-36.993l-5.274,-0Z" style="fill-rule:nonzero;"/><path d="M1561.69,314.172c0,11.618 7.108,19.337 17.58,19.337c8.407,0 14.98,-4.968 16.738,-12.535l-5.35,0c-1.452,4.739 -5.885,7.796 -11.388,7.796c-7.491,0 -12.382,-5.885 -12.382,-14.675c-0,-9.095 5.273,-14.827 12.764,-14.827c5.121,-0 9.554,2.828 10.93,7.949l5.273,-0c-1.452,-7.644 -7.719,-12.612 -16.28,-12.612c-10.777,0 -17.885,7.949 -17.885,19.567Z" style="fill-rule:nonzero;"/><path d="M1609.31,332.516l-0,-20.102c-0,-7.108 4.127,-12.994 12.076,-12.994c5.732,0 9.783,3.058 9.783,11.695l0,21.477l5.274,0l0,-22.624c0,-9.325 -4.357,-15.363 -14.063,-15.363c-6.192,0 -10.701,2.981 -13.07,7.414l-0,-25.146l-5.274,-0l-0,55.643l5.274,-0Z" style="fill-rule:nonzero;"/><path d="M516.631,205.073c10.472,0 17.198,-7.49 17.198,-17.426c-0,-10.319 -6.65,-17.198 -17.198,-17.198l-20.866,0l0,54.726l5.503,0l0,-20.102l15.363,0Zm-0.764,-29.655c7.567,-0 12.229,4.586 12.229,12.152c0,7.491 -4.586,12.535 -12.535,12.535l-14.293,0l0,-24.687l14.599,-0Z" style="fill-rule:nonzero;"/><path d="M560.886,187.723c-1.3,-0.306 -2.293,-0.382 -3.44,-0.382c-5.197,0 -9.095,2.599 -10.547,6.573l-0.383,-5.732l-4.968,-0l0,36.993l5.274,0l0,-21.095c0,-7.032 4.357,-11.618 11.159,-11.618l2.905,0l-0,-4.739Z" style="fill-rule:nonzero;"/><path d="M570.516,178.016c2.14,0 3.975,-1.758 3.975,-3.898c-0,-2.14 -1.835,-3.974 -3.975,-3.974c-2.14,-0 -3.898,1.834 -3.898,3.974c0,2.14 1.758,3.898 3.898,3.898Zm-2.598,47.159l5.273,0l0,-36.993l-5.273,-0l-0,36.993Z" style="fill-rule:nonzero;"/><path d="M594.516,225.175l5.274,0l15.363,-36.993l-5.427,-0l-9.707,23.847c-1.07,2.675 -2.064,5.121 -2.751,7.643c-0.688,-2.446 -1.682,-4.968 -2.676,-7.643l-9.554,-23.847l-5.656,-0l15.134,36.993Z" style="fill-rule:nonzero;"/><path d="M630.363,226.092c6.267,0 11.312,-2.751 13.605,-7.414l0.688,6.497l4.433,0l-0,-23.923c-0,-9.784 -6.268,-14.064 -14.828,-14.064c-9.096,0 -15.21,4.815 -15.21,12.306l4.815,-0c0,-4.968 3.822,-7.873 10.242,-7.873c5.427,0 9.783,2.293 9.783,9.554l0,1.223l-12.229,0.994c-8.637,0.688 -13.834,4.968 -13.834,11.77c-0,6.497 4.662,10.93 12.535,10.93Zm1.223,-4.28c-5.045,0 -8.408,-2.293 -8.408,-6.802c0,-4.128 2.828,-7.185 9.784,-7.797l10.929,-0.84l0,1.987c0,8.025 -4.509,13.452 -12.305,13.452Z" style="fill-rule:nonzero;"/><path d="M667.433,225.175l-0,-32.56l7.413,-0l0,-4.433l-7.413,-0l-0,-11.694l-5.198,-0l0,11.694l-7.414,-0l0,4.433l7.414,-0l0,32.56l5.198,0Z" style="fill-rule:nonzero;"/><circle cx="432.575" cy="312.796" r="29.724" style="fill:#cecece;"/><circle cx="432.575" cy="205.341" r="29.724" style="fill:#4b5563;"/><path d="M393.655,2045.53l-0,-7.729l-28.365,0l12.738,-11.04c10.871,-9.427 15.202,-15.626 15.202,-24.373c-0,-11.805 -7.898,-19.278 -20.212,-19.278c-12.484,-0 -20.807,8.577 -21.062,21.74l8.323,0c0.17,-8.747 5.096,-14.267 12.654,-14.267c7.388,0 11.804,4.586 11.804,12.314c0,6.539 -2.802,10.701 -12.738,19.278l-19.788,17.07l0,6.369l41.444,-0.084Z" style="fill-rule:nonzero;"/><path d="M401.298,2014.96c-0,19.108 9.426,31.761 25.307,31.761c15.796,0 25.223,-12.653 25.223,-31.761c0,-19.024 -9.851,-31.932 -25.223,-31.932c-15.456,-0 -25.307,12.908 -25.307,31.932Zm8.237,-0c0,-15.287 6.285,-24.459 17.07,-24.459c10.786,0 16.985,9.172 16.985,24.459c0,15.116 -6.199,24.288 -16.985,24.288c-10.785,0 -17.07,-9.172 -17.07,-24.288Z" style="fill-rule:nonzero;"/><path d="M460.151,2014.96c-0,19.108 9.426,31.761 25.307,31.761c15.796,0 25.223,-12.653 25.223,-31.761c0,-19.024 -9.851,-31.932 -25.223,-31.932c-15.456,-0 -25.307,12.908 -25.307,31.932Zm8.237,-0c0,-15.287 6.285,-24.459 17.07,-24.459c10.786,0 16.985,9.172 16.985,24.459c0,15.116 -6.199,24.288 -16.985,24.288c-10.785,0 -17.07,-9.172 -17.07,-24.288Z" style="fill-rule:nonzero;"/><path d="M519.004,2014.96c-0,19.108 9.426,31.761 25.307,31.761c15.796,0 25.223,-12.653 25.223,-31.761c0,-19.024 -9.851,-31.932 -25.223,-31.932c-15.456,-0 -25.307,12.908 -25.307,31.932Zm8.237,-0c0,-15.287 6.285,-24.459 17.07,-24.459c10.786,0 16.985,9.172 16.985,24.459c0,15.116 -6.199,24.288 -16.985,24.288c-10.785,0 -17.07,-9.172 -17.07,-24.288Z" style="fill-rule:nonzero;"/><path d="M1848.59,2043.88l-0,-7.728l-28.365,0l12.739,-11.04c10.87,-9.427 15.201,-15.626 15.201,-24.373c0,-11.805 -7.898,-19.278 -20.212,-19.278c-12.484,-0 -20.807,8.577 -21.061,21.74l8.322,0c0.17,-8.747 5.096,-14.267 12.654,-14.267c7.389,0 11.805,4.586 11.805,12.314c-0,6.539 -2.803,10.701 -12.739,19.278l-19.788,17.07l0,6.369l41.444,-0.085Z" style="fill-rule:nonzero;"/><path d="M1856.24,2013.3c0,19.108 9.427,31.761 25.308,31.761c15.796,0 25.222,-12.653 25.222,-31.761c0,-19.024 -9.851,-31.932 -25.222,-31.932c-15.457,-0 -25.308,12.908 -25.308,31.932Zm8.238,-0c-0,-15.287 6.284,-24.459 17.07,-24.459c10.785,0 16.985,9.172 16.985,24.459c-0,15.116 -6.2,24.288 -16.985,24.288c-10.786,0 -17.07,-9.172 -17.07,-24.288Z" style="fill-rule:nonzero;"/><path d="M1926.81,1990.03l-0,53.927l7.983,0l-0,-61.4l-20.892,-0l0,7.473l12.909,0Z" style="fill-rule:nonzero;"/><path d="M1946,2013.3c-0,19.108 9.426,31.761 25.307,31.761c15.796,0 25.223,-12.653 25.223,-31.761c0,-19.024 -9.851,-31.932 -25.223,-31.932c-15.456,-0 -25.307,12.908 -25.307,31.932Zm8.237,-0c0,-15.287 6.285,-24.459 17.07,-24.459c10.786,0 16.985,9.172 16.985,24.459c0,15.116 -6.199,24.288 -16.985,24.288c-10.785,0 -17.07,-9.172 -17.07,-24.288Z" style="fill-rule:nonzero;"/><path d="M3247.31,2043.88l-0,-7.728l-28.365,0l12.739,-11.04c10.87,-9.427 15.201,-15.626 15.201,-24.373c0,-11.805 -7.898,-19.278 -20.212,-19.278c-12.484,-0 -20.807,8.577 -21.061,21.74l8.322,0c0.17,-8.747 5.096,-14.267 12.654,-14.267c7.389,0 11.805,4.586 11.805,12.314c-0,6.539 -2.803,10.701 -12.739,19.278l-19.788,17.07l0,6.369l41.444,-0.085Z" style="fill-rule:nonzero;"/><path d="M3254.95,2013.3c0,19.108 9.427,31.761 25.308,31.761c15.796,0 25.222,-12.653 25.222,-31.761c0,-19.024 -9.851,-31.932 -25.222,-31.932c-15.457,-0 -25.308,12.908 -25.308,31.932Zm8.238,-0c-0,-15.287 6.284,-24.459 17.07,-24.459c10.785,0 16.985,9.172 16.985,24.459c-0,15.116 -6.2,24.288 -16.985,24.288c-10.786,0 -17.07,-9.172 -17.07,-24.288Z" style="fill-rule:nonzero;"/><path d="M3355,2043.88l-0,-7.728l-28.365,0l12.738,-11.04c10.871,-9.427 15.202,-15.626 15.202,-24.373c-0,-11.805 -7.898,-19.278 -20.212,-19.278c-12.484,-0 -20.807,8.577 -21.062,21.74l8.323,0c0.17,-8.747 5.096,-14.267 12.654,-14.267c7.388,0 11.805,4.586 11.805,12.314c-0,6.539 -2.803,10.701 -12.739,19.278l-19.788,17.07l0,6.369l41.444,-0.085Z" style="fill-rule:nonzero;"/><path d="M3362.64,2013.3c-0,19.108 9.427,31.761 25.307,31.761c15.797,0 25.223,-12.653 25.223,-31.761c0,-19.024 -9.851,-31.932 -25.223,-31.932c-15.456,-0 -25.307,12.908 -25.307,31.932Zm8.238,-0c-0,-15.287 6.284,-24.459 17.069,-24.459c10.786,0 16.985,9.172 16.985,24.459c0,15.116 -6.199,24.288 -16.985,24.288c-10.785,0 -17.069,-9.172 -17.069,-24.288Z" style="fill-rule:nonzero;"/><path d="M3590.49,2043.88l-0,-7.728l-28.365,0l12.739,-11.04c10.87,-9.427 15.201,-15.626 15.201,-24.373c0,-11.805 -7.898,-19.278 -20.212,-19.278c-12.484,-0 -20.806,8.577 -21.061,21.74l8.322,0c0.17,-8.747 5.096,-14.267 12.654,-14.267c7.389,0 11.805,4.586 11.805,12.314c-0,6.539 -2.803,10.701 -12.739,19.278l-19.787,17.07l-0,6.369l41.443,-0.085Z" style="fill-rule:nonzero;"/><path d="M3598.13,2013.3c0,19.108 9.427,31.761 25.308,31.761c15.796,0 25.223,-12.653 25.223,-31.761c-0,-19.024 -9.852,-31.932 -25.223,-31.932c-15.457,-0 -25.308,12.908 -25.308,31.932Zm8.238,-0c-0,-15.287 6.284,-24.459 17.07,-24.459c10.785,0 16.985,9.172 16.985,24.459c-0,15.116 -6.2,24.288 -16.985,24.288c-10.786,0 -17.07,-9.172 -17.07,-24.288Z" style="fill-rule:nonzero;"/><path d="M3698.18,2043.88l-0,-7.728l-28.365,0l12.739,-11.04c10.87,-9.427 15.201,-15.626 15.201,-24.373c0,-11.805 -7.898,-19.278 -20.212,-19.278c-12.484,-0 -20.807,8.577 -21.061,21.74l8.322,0c0.17,-8.747 5.096,-14.267 12.654,-14.267c7.389,0 11.805,4.586 11.805,12.314c-0,6.539 -2.803,10.701 -12.739,19.278l-19.788,17.07l0,6.369l41.444,-0.085Z" style="fill-rule:nonzero;"/><path d="M3747.35,2043.88l0,-7.728l-28.365,0l12.739,-11.04c10.871,-9.427 15.202,-15.626 15.202,-24.373c-0,-11.805 -7.898,-19.278 -20.212,-19.278c-12.484,-0 -20.807,8.577 -21.062,21.74l8.323,0c0.17,-8.747 5.095,-14.267 12.654,-14.267c7.388,0 11.804,4.586 11.804,12.314c0,6.539 -2.802,10.701 -12.739,19.278l-19.787,17.07l-0,6.369l41.443,-0.085Z" style="fill-rule:nonzero;"/><path d="M3760.34,1995.81c2.463,0.934 4.416,1.274 6.964,1.614c-1.614,1.443 -3.058,2.887 -4.841,5.435l-3.312,4.756l3.991,2.717l3.397,-4.671c1.699,-2.293 2.633,-4.246 3.312,-6.284c0.765,1.783 1.699,3.737 3.482,6.284l3.312,4.671l3.907,-2.717l-3.312,-4.756c-1.614,-2.548 -2.888,-3.907 -4.671,-5.435c1.953,-0.255 4.161,-0.595 6.964,-1.614l5.605,-1.953l-1.784,-4.501l-5.35,1.868c-2.972,1.019 -4.671,2.038 -6.454,3.142c0.425,-1.953 0.764,-4.161 0.764,-7.133l0,-5.86l-4.756,-0l0,5.86c0,2.972 0.255,5.01 0.765,7.133c-1.784,-1.189 -3.482,-2.123 -6.539,-3.142l-5.266,-1.783l-1.698,4.416l5.52,1.953Z" style="fill-rule:nonzero;"/><path d="M3062.86,2115.43c2.378,0.849 4.586,1.443 7.219,1.868c-1.444,1.444 -2.973,3.057 -4.841,5.775l-3.057,4.416l2.802,1.953l3.142,-4.416c2.039,-2.887 2.888,-4.756 3.567,-6.624c0.765,1.953 1.784,3.992 3.652,6.624l3.142,4.416l2.718,-1.953l-3.057,-4.416c-1.954,-2.803 -3.143,-4.246 -4.756,-5.775c1.953,-0.34 4.246,-0.849 7.218,-1.868l5.266,-1.869l-1.359,-3.142l-5.011,1.784c-3.057,1.104 -4.84,2.038 -6.794,3.227c0.425,-2.123 0.68,-4.331 0.68,-7.559l-0,-5.435l-3.312,0l-0,5.435c-0,3.228 0.254,5.351 0.764,7.559c-1.868,-1.189 -3.822,-2.123 -6.964,-3.227l-5.01,-1.699l-1.189,3.057l5.18,1.869Z" style="fill-rule:nonzero;"/><path d="M3118.74,2141.16c11.38,-0 18.513,-8.323 18.513,-18.938c0,-11.21 -7.048,-18.684 -18.513,-18.684l-22.505,0l-0,60.297l4.076,-0l-0,-22.675l18.429,-0Zm-0.17,-33.885c8.832,-0 14.522,5.69 14.522,14.777c0,9.002 -5.605,15.371 -15.032,15.371l-17.749,0l-0,-30.148l18.259,-0Z" style="fill-rule:nonzero;"/><path d="M3165.7,2122.47c-1.359,-0.339 -2.293,-0.424 -3.567,-0.424c-5.775,-0 -10.276,2.972 -11.889,7.558l-0.34,-6.539l-3.652,-0l0,40.764l3.907,-0l-0,-24.798c-0,-7.643 4.926,-13.164 12.484,-13.164l3.057,0l0,-3.397Z" style="fill-rule:nonzero;"/><path d="M3169.1,2143.45c0,12.314 8.578,21.401 20.212,21.401c11.635,-0 20.212,-9.087 20.212,-21.401c0,-12.314 -8.577,-21.401 -20.212,-21.401c-11.634,-0 -20.212,9.087 -20.212,21.401Zm3.992,-0c-0,-10.446 6.709,-17.834 16.22,-17.834c9.512,-0 16.221,7.388 16.221,17.834c-0,10.446 -6.709,17.834 -16.221,17.834c-9.511,0 -16.22,-7.388 -16.22,-17.834Z" style="fill-rule:nonzero;"/><path d="M3216.32,2142.18c0,10.785 6.879,20.127 18.599,20.127c7.388,0 13.418,-3.821 16.221,-10.361l-0,11.041c-0,9.256 -6.03,15.456 -15.032,15.456c-7.813,-0 -13.333,-4.161 -14.862,-11.295l-3.822,-0c1.699,9.342 8.748,14.862 18.599,14.862c11.38,-0 18.938,-7.643 18.938,-19.023l0,-39.915l-3.142,-0l-0.509,9.512c-2.718,-6.794 -8.408,-10.531 -15.966,-10.531c-12.06,-0 -19.024,9.342 -19.024,20.127Zm3.992,0c-0,-8.917 5.35,-16.56 15.032,-16.56c9.766,-0 15.116,7.048 15.116,16.475c0,9.597 -5.605,16.645 -15.286,16.645c-9.427,0 -14.862,-7.558 -14.862,-16.56Z" style="fill-rule:nonzero;"/><path d="M3271.77,2163.83l0,-21.061c0,-10.276 5.181,-17.155 14.438,-17.155c7.388,-0 12.059,3.397 12.059,14.182l0,24.034l3.907,-0l-0,-24.798c-0,-10.191 -4.332,-16.985 -15.881,-16.985c-6.115,-0 -11.72,3.227 -14.438,8.917l-0.849,-7.898l-3.142,-0l-0,40.764l3.906,-0Z" style="fill-rule:nonzero;"/><path d="M3311.52,2143.45c0,12.314 8.578,21.401 20.212,21.401c11.635,-0 20.213,-9.087 20.213,-21.401c-0,-12.314 -8.578,-21.401 -20.213,-21.401c-11.634,-0 -20.212,9.087 -20.212,21.401Zm3.992,-0c-0,-10.446 6.709,-17.834 16.22,-17.834c9.512,-0 16.221,7.388 16.221,17.834c0,10.446 -6.709,17.834 -16.221,17.834c-9.511,0 -16.22,-7.388 -16.22,-17.834Z" style="fill-rule:nonzero;"/><path d="M3358.14,2152.79c0,7.388 5.52,12.059 14.183,12.059c8.917,-0 14.861,-4.671 14.861,-11.635c0,-5.69 -3.142,-9.002 -10.275,-10.87l-6.794,-1.784c-4.926,-1.273 -7.304,-3.736 -7.304,-7.218c-0,-5.011 3.567,-7.728 10.106,-7.728c6.115,-0 9.851,3.057 10.106,8.322l3.822,0c-0.255,-7.388 -5.52,-11.889 -13.928,-11.889c-8.408,-0 -14.013,4.501 -14.013,11.295c0,5.01 3.312,8.917 10.276,10.7l6.879,1.784c5.266,1.359 7.219,3.397 7.219,7.388c-0,5.011 -4.246,8.068 -11.125,8.068c-6.285,0 -10.191,-3.227 -10.191,-8.492l-3.822,-0Z" style="fill-rule:nonzero;"/><path d="M3414.19,2164.85c9.171,-0 15.031,-4.331 17.409,-12.739l-3.991,0c-1.614,6.03 -6.2,9.172 -13.418,9.172c-9.597,0 -15.372,-6.624 -15.712,-17.749l33.121,-0l0,-2.718c0,-11.125 -7.303,-18.768 -17.919,-18.768c-11.38,-0 -19.108,8.747 -19.108,21.486c-0,12.823 7.813,21.316 19.618,21.316Zm-0.51,-39.235c8.408,-0 13.928,5.859 13.928,14.692l-29.045,-0c0.935,-8.917 6.794,-14.692 15.117,-14.692Z" style="fill-rule:nonzero;"/><path d="M3476.78,2164.85c7.049,-0 12.739,-3.142 15.541,-8.662l0.765,7.643l3.142,-0l0,-27.006c0,-10.531 -6.964,-14.777 -15.711,-14.777c-9.597,-0 -16.051,5.095 -16.051,13.078l3.907,0c-0,-5.944 4.501,-9.511 12.059,-9.511c6.454,-0 11.889,2.632 11.889,11.804l0,1.529l-14.012,1.104c-9.512,0.764 -15.287,5.52 -15.287,12.993c0,6.964 5.011,11.805 13.758,11.805Zm0.51,-3.482c-6.115,0 -10.361,-2.802 -10.361,-8.408c-0,-5.01 3.482,-9.002 11.72,-9.681l13.672,-1.104l0,2.208c0,10.021 -5.435,16.985 -15.031,16.985Z" style="fill-rule:nonzero;"/><path d="M3537.67,2123.07l0,21.741c0,10.53 -5.265,16.475 -13.842,16.475c-6.794,0 -11.72,-3.652 -11.72,-14.097l0,-24.204l-3.991,-0l-0,25.223c-0,9.936 5.01,16.645 14.776,16.645c6.794,-0 12.569,-3.482 14.777,-8.577l0.765,7.558l3.142,-0l-0,-40.764l-3.907,-0Z" style="fill-rule:nonzero;"/><path d="M3549.73,2123.07l-0,3.397l6.369,-0l0,37.367l3.907,-0l-0,-37.367l9.596,-0l0,-3.397l-9.596,-0l-0,-9.172c-0,-5.18 1.443,-7.728 6.539,-7.728l3.482,-0l-0,-3.397c-1.189,-0.17 -2.803,-0.255 -4.162,-0.255c-5.095,0 -9.766,3.057 -9.766,11.38l0,9.172l-6.369,-0Z" style="fill-rule:nonzero;"/><path d="M3573.85,2142.18c0,10.785 6.879,20.127 18.599,20.127c7.388,0 13.418,-3.821 16.221,-10.361l-0,11.041c-0,9.256 -6.03,15.456 -15.032,15.456c-7.813,-0 -13.333,-4.161 -14.862,-11.295l-3.822,-0c1.699,9.342 8.748,14.862 18.599,14.862c11.38,-0 18.938,-7.643 18.938,-19.023l0,-39.915l-3.142,-0l-0.509,9.512c-2.718,-6.794 -8.408,-10.531 -15.966,-10.531c-12.06,-0 -19.024,9.342 -19.024,20.127Zm3.992,0c-0,-8.917 5.35,-16.56 15.032,-16.56c9.766,-0 15.116,7.048 15.116,16.475c0,9.597 -5.605,16.645 -15.286,16.645c-9.427,0 -14.862,-7.558 -14.862,-16.56Z" style="fill-rule:nonzero;"/><path d="M3644.85,2122.47c-1.359,-0.339 -2.293,-0.424 -3.567,-0.424c-5.775,-0 -10.276,2.972 -11.89,7.558l-0.339,-6.539l-3.652,-0l-0,40.764l3.906,-0l0,-24.798c0,-7.643 4.926,-13.164 12.484,-13.164l3.058,0l-0,-3.397Z" style="fill-rule:nonzero;"/><path d="M3682.05,2123.07l-0,21.741c-0,10.53 -5.266,16.475 -13.843,16.475c-6.794,0 -11.72,-3.652 -11.72,-14.097l0,-24.204l-3.991,-0l-0,25.223c-0,9.936 5.011,16.645 14.777,16.645c6.794,-0 12.569,-3.482 14.777,-8.577l0.764,7.558l3.142,-0l0,-40.764l-3.906,-0Z" style="fill-rule:nonzero;"/><path d="M3702.77,2163.83l0,-21.061c0,-10.276 5.181,-17.155 14.438,-17.155c7.388,-0 12.059,3.397 12.059,14.182l0,24.034l3.907,-0l-0,-24.798c-0,-10.191 -4.332,-16.985 -15.881,-16.985c-6.115,-0 -11.72,3.227 -14.438,8.917l-0.849,-7.898l-3.142,-0l-0,40.764l3.906,-0Z" style="fill-rule:nonzero;"/><path d="M3761.28,2164.85c7.049,-0 12.908,-3.227 15.966,-10.191l0.594,9.172l3.142,-0l0,-61.316l-3.906,0l-0,29.384c-2.973,-6.624 -8.578,-9.851 -15.796,-9.851c-11.975,-0 -18.769,9.342 -18.769,21.401c0,12.059 6.794,21.401 18.769,21.401Zm0.424,-3.567c-9.681,0 -15.201,-7.473 -15.201,-17.834c-0,-10.276 5.52,-17.834 15.201,-17.834c9.767,-0 15.287,7.558 15.287,17.834c-0,10.361 -5.52,17.834 -15.287,17.834Z" style="fill-rule:nonzero;"/><rect x="3818.01" y="2102.52" width="3.907" height="61.316" style="fill-rule:nonzero;"/><path d="M3846.72,2164.85c7.049,-0 12.739,-3.142 15.542,-8.662l0.764,7.643l3.142,-0l0,-27.006c0,-10.531 -6.964,-14.777 -15.711,-14.777c-9.597,-0 -16.051,5.095 -16.051,13.078l3.907,0c-0,-5.944 4.501,-9.511 12.059,-9.511c6.454,-0 11.89,2.632 11.89,11.804l-0,1.529l-14.013,1.104c-9.512,0.764 -15.287,5.52 -15.287,12.993c0,6.964 5.011,11.805 13.758,11.805Zm0.51,-3.482c-6.115,0 -10.361,-2.802 -10.361,-8.408c-0,-5.01 3.482,-9.002 11.72,-9.681l13.673,-1.104l-0,2.208c-0,10.021 -5.436,16.985 -15.032,16.985Z" style="fill-rule:nonzero;"/><path d="M3882.47,2163.83l-0,-21.061c-0,-10.276 5.18,-17.155 14.437,-17.155c7.388,-0 12.059,3.397 12.059,14.182l0,24.034l3.907,-0l-0,-24.798c-0,-10.191 -4.331,-16.985 -15.881,-16.985c-6.115,-0 -11.72,3.227 -14.437,8.917l-0.85,-7.898l-3.142,-0l0,40.764l3.907,-0Z" style="fill-rule:nonzero;"/><path d="M3922.21,2142.18c-0,10.785 6.878,20.127 18.598,20.127c7.389,0 13.418,-3.821 16.221,-10.361l-0,11.041c-0,9.256 -6.03,15.456 -15.032,15.456c-7.813,-0 -13.333,-4.161 -14.862,-11.295l-3.821,-0c1.698,9.342 8.747,14.862 18.598,14.862c11.38,-0 18.938,-7.643 18.938,-19.023l0,-39.915l-3.142,-0l-0.509,9.512c-2.718,-6.794 -8.408,-10.531 -15.966,-10.531c-12.06,-0 -19.023,9.342 -19.023,20.127Zm3.991,0c0,-8.917 5.35,-16.56 15.032,-16.56c9.766,-0 15.116,7.048 15.116,16.475c0,9.597 -5.605,16.645 -15.286,16.645c-9.427,0 -14.862,-7.558 -14.862,-16.56Z" style="fill-rule:nonzero;"/><path d="M3969.01,2123.07l0,3.397l6.37,-0l-0,37.367l3.906,-0l0,-37.367l9.597,-0l-0,-3.397l-9.597,-0l0,-9.172c0,-5.18 1.444,-7.728 6.539,-7.728l3.482,-0l0,-3.397c-1.189,-0.17 -2.802,-0.255 -4.161,-0.255c-5.096,0 -9.766,3.057 -9.766,11.38l-0,9.172l-6.37,-0Z" style="fill-rule:nonzero;"/><path d="M4016.91,2122.47c-1.359,-0.339 -2.293,-0.424 -3.567,-0.424c-5.775,-0 -10.276,2.972 -11.889,7.558l-0.34,-6.539l-3.652,-0l0,40.764l3.907,-0l-0,-24.798c-0,-7.643 4.925,-13.164 12.484,-13.164l3.057,0l-0,-3.397Z" style="fill-rule:nonzero;"/><path d="M4027.01,2110.58c1.868,-0 3.567,-1.614 3.567,-3.482c-0,-1.953 -1.699,-3.652 -3.567,-3.652c-1.953,0 -3.567,1.699 -3.567,3.652c0,1.868 1.614,3.482 3.567,3.482Zm-1.953,53.248l3.906,-0l0,-40.764l-3.906,-0l-0,40.764Z" style="fill-rule:nonzero;"/><path d="M4038.22,2152.79c0,7.388 5.52,12.059 14.182,12.059c8.918,-0 14.862,-4.671 14.862,-11.635c0,-5.69 -3.142,-9.002 -10.276,-10.87l-6.794,-1.784c-4.925,-1.273 -7.303,-3.736 -7.303,-7.218c-0,-5.011 3.567,-7.728 10.106,-7.728c6.115,-0 9.851,3.057 10.106,8.322l3.822,0c-0.255,-7.388 -5.52,-11.889 -13.928,-11.889c-8.408,-0 -14.013,4.501 -14.013,11.295c0,5.01 3.312,8.917 10.276,10.7l6.879,1.784c5.266,1.359 7.219,3.397 7.219,7.388c-0,5.011 -4.246,8.068 -11.125,8.068c-6.285,0 -10.191,-3.227 -10.191,-8.492l-3.822,-0Z" style="fill-rule:nonzero;"/><path d="M4085.1,2163.83l-0,-37.367l8.237,-0l0,-3.397l-8.237,-0l-0,-12.909l-3.907,0l0,12.909l-8.238,-0l0,3.397l8.238,-0l0,37.367l3.907,-0Z" style="fill-rule:nonzero;"/><path d="M4103.44,2110.58c1.869,-0 3.567,-1.614 3.567,-3.482c0,-1.953 -1.698,-3.652 -3.567,-3.652c-1.953,0 -3.566,1.699 -3.566,3.652c-0,1.868 1.613,3.482 3.566,3.482Zm-1.953,53.248l3.907,-0l-0,-40.764l-3.907,-0l0,40.764Z" style="fill-rule:nonzero;"/><path d="M4115.25,2142.18c-0,10.785 6.879,20.127 18.598,20.127c7.389,0 13.419,-3.821 16.221,-10.361l0,11.041c0,9.256 -6.03,15.456 -15.032,15.456c-7.813,-0 -13.333,-4.161 -14.861,-11.295l-3.822,-0c1.698,9.342 8.747,14.862 18.599,14.862c11.379,-0 18.938,-7.643 18.938,-19.023l-0,-39.915l-3.142,-0l-0.51,9.512c-2.718,-6.794 -8.408,-10.531 -15.966,-10.531c-12.059,-0 -19.023,9.342 -19.023,20.127Zm3.991,0c0,-8.917 5.351,-16.56 15.032,-16.56c9.766,-0 15.117,7.048 15.117,16.475c-0,9.597 -5.605,16.645 -15.287,16.645c-9.426,0 -14.862,-7.558 -14.862,-16.56Z" style="fill-rule:nonzero;"/><path d="M4183.36,2164.85c9.172,-0 15.031,-4.331 17.409,-12.739l-3.991,0c-1.614,6.03 -6.2,9.172 -13.418,9.172c-9.597,0 -15.372,-6.624 -15.711,-17.749l33.12,-0l0,-2.718c0,-11.125 -7.303,-18.768 -17.919,-18.768c-11.38,-0 -19.108,8.747 -19.108,21.486c0,12.823 7.813,21.316 19.618,21.316Zm-0.51,-39.235c8.408,-0 13.928,5.859 13.928,14.692l-29.044,-0c0.934,-8.917 6.794,-14.692 15.116,-14.692Z" style="fill-rule:nonzero;"/><path d="M4214.52,2163.83l0,-26.157c0,-6.115 4.246,-12.059 11.975,-12.059c6.794,-0 11.04,4.501 11.04,11.974l-0,26.242l3.821,-0l0,-26.072c0,-6.115 4.247,-12.144 11.975,-12.144c6.794,-0 11.04,4.586 11.04,12.059l0,26.157l3.737,-0l-0,-26.667c-0,-9.511 -6.03,-15.116 -14.437,-15.116c-6.794,-0 -11.72,3.567 -13.503,9.172c-1.784,-5.605 -6.794,-9.172 -13.334,-9.172c-5.69,-0 -10.361,2.632 -12.484,7.303l-0.594,-6.284l-3.142,-0l-0,40.764l3.906,-0Z" style="fill-rule:nonzero;"/><path d="M4298.69,2107.27l18.938,-0l0,56.56l4.076,-0l0,-56.56l18.939,-0l-0,-3.737l-41.953,0l-0,3.737Z" style="fill-rule:nonzero;"/><path d="M4362.3,2122.47c-1.359,-0.339 -2.293,-0.424 -3.567,-0.424c-5.775,-0 -10.276,2.972 -11.89,7.558l-0.339,-6.539l-3.652,-0l-0,40.764l3.906,-0l0,-24.798c0,-7.643 4.926,-13.164 12.484,-13.164l3.058,0l-0,-3.397Z" style="fill-rule:nonzero;"/><path d="M4385.31,2164.85c9.172,-0 15.032,-4.331 17.41,-12.739l-3.992,0c-1.613,6.03 -6.199,9.172 -13.418,9.172c-9.596,0 -15.371,-6.624 -15.711,-17.749l33.121,-0l-0,-2.718c-0,-11.125 -7.304,-18.768 -17.919,-18.768c-11.38,-0 -19.108,8.747 -19.108,21.486c-0,12.823 7.813,21.316 19.617,21.316Zm-0.509,-39.235c8.407,-0 13.927,5.859 13.927,14.692l-29.044,-0c0.934,-8.917 6.794,-14.692 15.117,-14.692Z" style="fill-rule:nonzero;"/><path d="M4416.48,2163.83l-0,-21.061c-0,-10.276 5.18,-17.155 14.437,-17.155c7.388,-0 12.059,3.397 12.059,14.182l0,24.034l3.907,-0l-0,-24.798c-0,-10.191 -4.331,-16.985 -15.881,-16.985c-6.115,-0 -11.72,3.227 -14.437,8.917l-0.85,-7.898l-3.142,-0l0,40.764l3.907,-0Z" style="fill-rule:nonzero;"/><path d="M4474.99,2164.85c7.049,-0 12.909,-3.227 15.966,-10.191l0.594,9.172l3.143,-0l-0,-61.316l-3.907,0l-0,29.384c-2.972,-6.624 -8.577,-9.851 -15.796,-9.851c-11.974,-0 -18.768,9.342 -18.768,21.401c-0,12.059 6.794,21.401 18.768,21.401Zm0.425,-3.567c-9.682,0 -15.202,-7.473 -15.202,-17.834c0,-10.276 5.52,-17.834 15.202,-17.834c9.766,-0 15.286,7.558 15.286,17.834c0,10.361 -5.52,17.834 -15.286,17.834Z" style="fill-rule:nonzero;"/><path d="M4542.93,2164.85c7.049,-0 12.739,-3.142 15.541,-8.662l0.764,7.643l3.143,-0l-0,-27.006c-0,-10.531 -6.964,-14.777 -15.711,-14.777c-9.597,-0 -16.051,5.095 -16.051,13.078l3.906,0c0,-5.944 4.501,-9.511 12.06,-9.511c6.454,-0 11.889,2.632 11.889,11.804l0,1.529l-14.012,1.104c-9.512,0.764 -15.287,5.52 -15.287,12.993c0,6.964 5.011,11.805 13.758,11.805Zm0.509,-3.482c-6.114,0 -10.36,-2.802 -10.36,-8.408c-0,-5.01 3.482,-9.002 11.719,-9.681l13.673,-1.104l0,2.208c0,10.021 -5.435,16.985 -15.032,16.985Z" style="fill-rule:nonzero;"/><path d="M4577.92,2163.83l0.594,-9.172c3.058,6.964 8.918,10.191 15.966,10.191c11.975,-0 18.769,-9.342 18.769,-21.401c-0,-12.059 -6.794,-21.401 -18.769,-21.401c-7.218,-0 -12.823,3.227 -15.796,9.851l0,-29.384l-3.906,0l-0,61.316l3.142,-0Zm0.849,-20.382c0,-10.276 5.52,-17.834 15.287,-17.834c9.681,-0 15.201,7.558 15.201,17.834c0,10.361 -5.52,17.834 -15.201,17.834c-9.767,0 -15.287,-7.473 -15.287,-17.834Z" style="fill-rule:nonzero;"/><path d="M4682.97,2163.83l0,-3.737l-32.611,0l15.371,-13.588c13.334,-11.719 16.985,-17.324 16.985,-26.242c0,-10.445 -7.388,-17.749 -18.089,-17.749c-11.465,0 -19.278,8.153 -19.702,20.552l4.076,-0c0.34,-10.106 6.454,-16.73 15.456,-16.73c8.748,-0 14.183,5.435 14.183,14.182c-0,7.728 -2.887,12.06 -15.287,23.015l-19.108,16.9l0,3.397l38.726,-0Z" style="fill-rule:nonzero;"/><path d="M4692.31,2133.68c-0,18.768 8.832,31.252 23.524,31.252c14.692,-0 23.524,-12.484 23.524,-31.252c0,-18.769 -8.832,-31.253 -23.524,-31.253c-14.692,0 -23.524,12.484 -23.524,31.253Zm3.991,-0c0,-16.391 7.134,-27.431 19.533,-27.431c12.399,-0 19.533,11.04 19.533,27.431c-0,16.39 -7.134,27.43 -19.533,27.43c-12.399,0 -19.533,-11.04 -19.533,-27.43Z" style="fill-rule:nonzero;"/><path d="M4787,2163.83l0,-3.737l-32.611,0l15.371,-13.588c13.334,-11.719 16.985,-17.324 16.985,-26.242c0,-10.445 -7.388,-17.749 -18.089,-17.749c-11.464,0 -19.278,8.153 -19.702,20.552l4.076,-0c0.34,-10.106 6.455,-16.73 15.457,-16.73c8.747,-0 14.182,5.435 14.182,14.182c0,7.728 -2.887,12.06 -15.286,23.015l-19.109,16.9l0,3.397l38.726,-0Z" style="fill-rule:nonzero;"/><path d="M4833.8,2163.83l-0,-3.737l-32.611,0l15.371,-13.588c13.333,-11.719 16.985,-17.324 16.985,-26.242c0,-10.445 -7.388,-17.749 -18.089,-17.749c-11.465,0 -19.278,8.153 -19.703,20.552l4.077,-0c0.34,-10.106 6.454,-16.73 15.456,-16.73c8.747,-0 14.183,5.435 14.183,14.182c-0,7.728 -2.888,12.06 -15.287,23.015l-19.108,16.9l0,3.397l38.726,-0Z" style="fill-rule:nonzero;"/><path d="M3968.54,2045.53l-0,-7.729l-28.365,0l12.739,-11.04c10.87,-9.427 15.201,-15.626 15.201,-24.373c0,-11.805 -7.898,-19.278 -20.212,-19.278c-12.484,-0 -20.806,8.577 -21.061,21.74l8.322,0c0.17,-8.747 5.096,-14.267 12.654,-14.267c7.389,0 11.805,4.586 11.805,12.314c-0,6.539 -2.803,10.701 -12.739,19.278l-19.787,17.07l-0,6.369l41.443,-0.084Z" style="fill-rule:nonzero;"/><path d="M3976.18,2014.96c0,19.108 9.427,31.761 25.308,31.761c15.796,0 25.223,-12.653 25.223,-31.761c-0,-19.024 -9.852,-31.932 -25.223,-31.932c-15.456,-0 -25.308,12.908 -25.308,31.932Zm8.238,-0c-0,-15.287 6.284,-24.459 17.07,-24.459c10.785,0 16.985,9.172 16.985,24.459c-0,15.116 -6.2,24.288 -16.985,24.288c-10.786,0 -17.07,-9.172 -17.07,-24.288Z" style="fill-rule:nonzero;"/><path d="M4076.22,2045.53l-0,-7.729l-28.365,0l12.739,-11.04c10.87,-9.427 15.201,-15.626 15.201,-24.373c0,-11.805 -7.898,-19.278 -20.212,-19.278c-12.484,-0 -20.807,8.577 -21.061,21.74l8.322,0c0.17,-8.747 5.096,-14.267 12.654,-14.267c7.389,0 11.805,4.586 11.805,12.314c-0,6.539 -2.803,10.701 -12.739,19.278l-19.788,17.07l0,6.369l41.444,-0.084Z" style="fill-rule:nonzero;"/><path d="M4103.91,2046.64c13.249,-0 22.336,-8.918 22.336,-21.656c-0,-11.805 -8.068,-20.552 -20.552,-20.552c-4.586,-0 -8.663,1.274 -11.89,3.737l4.077,-16.306l24.713,-0l-0,-7.643l-30.743,-0l-7.473,31.507l7.048,1.783c2.803,-3.482 7.559,-5.944 12.739,-5.944c8.578,-0 13.588,5.859 13.588,13.757c0,8.323 -5.35,13.843 -13.673,13.843c-7.813,0 -12.654,-4.841 -12.654,-12.739l-8.237,0c-0,12.23 8.152,20.213 20.721,20.213Z" style="fill-rule:nonzero;"/><path d="M4681.61,2045.66l0,-7.728l-28.365,-0l12.739,-11.041c10.871,-9.426 15.202,-15.626 15.202,-24.373c-0,-11.805 -7.898,-19.278 -20.212,-19.278c-12.484,0 -20.807,8.577 -21.062,21.741l8.323,-0c0.17,-8.747 5.095,-14.268 12.654,-14.268c7.388,0 11.804,4.586 11.804,12.315c0,6.539 -2.802,10.7 -12.739,19.278l-19.787,17.069l-0,6.37l41.443,-0.085Z" style="fill-rule:nonzero;"/><path d="M4689.26,2015.09c-0,19.108 9.426,31.762 25.307,31.762c15.796,-0 25.223,-12.654 25.223,-31.762c-0,-19.023 -9.851,-31.932 -25.223,-31.932c-15.456,0 -25.307,12.909 -25.307,31.932Zm8.237,-0c0,-15.287 6.285,-24.458 17.07,-24.458c10.786,-0 16.985,9.171 16.985,24.458c0,15.117 -6.199,24.288 -16.985,24.288c-10.785,0 -17.07,-9.171 -17.07,-24.288Z" style="fill-rule:nonzero;"/><path d="M4765.18,2013.98c9.767,-0 14.862,4.926 14.862,12.314c0,7.898 -5.18,12.994 -13.163,12.994c-7.728,-0 -12.654,-4.671 -12.654,-12.654l-8.238,-0c0,12.738 8.663,20.127 20.722,20.127c12.484,-0 21.826,-7.898 21.826,-20.297c-0,-11.04 -7.898,-18.089 -18.344,-19.363l16.815,-16.051l0,-6.709l-38.131,0l-0,7.389l27.6,-0l-17.409,16.73l-0,5.52l6.114,-0Z" style="fill-rule:nonzero;"/><path d="M4795.84,2015.09c0,19.108 9.427,31.762 25.308,31.762c15.796,-0 25.223,-12.654 25.223,-31.762c-0,-19.023 -9.852,-31.932 -25.223,-31.932c-15.456,0 -25.308,12.909 -25.308,31.932Zm8.238,-0c0,-15.287 6.285,-24.458 17.07,-24.458c10.785,-0 16.985,9.171 16.985,24.458c-0,15.117 -6.2,24.288 -16.985,24.288c-10.785,0 -17.07,-9.171 -17.07,-24.288Z" style="fill-rule:nonzero;"/><path d="M1124.9,2043.88l-0,-7.728l-28.365,0l12.739,-11.04c10.87,-9.427 15.201,-15.626 15.201,-24.373c0,-11.805 -7.898,-19.278 -20.212,-19.278c-12.484,-0 -20.807,8.577 -21.061,21.74l8.322,0c0.17,-8.747 5.096,-14.267 12.654,-14.267c7.389,0 11.805,4.586 11.805,12.314c-0,6.539 -2.803,10.701 -12.739,19.278l-19.788,17.07l0,6.369l41.444,-0.085Z" style="fill-rule:nonzero;"/><path d="M1132.55,2013.3c0,19.108 9.427,31.761 25.308,31.761c15.796,0 25.222,-12.653 25.222,-31.761c0,-19.024 -9.851,-31.932 -25.222,-31.932c-15.457,-0 -25.308,12.908 -25.308,31.932Zm8.238,-0c-0,-15.287 6.284,-24.459 17.07,-24.459c10.785,0 16.985,9.172 16.985,24.459c-0,15.116 -6.2,24.288 -16.985,24.288c-10.786,0 -17.07,-9.172 -17.07,-24.288Z" style="fill-rule:nonzero;"/><path d="M1191.4,2013.3c0,19.108 9.427,31.761 25.308,31.761c15.796,0 25.222,-12.653 25.222,-31.761c0,-19.024 -9.851,-31.932 -25.222,-31.932c-15.457,-0 -25.308,12.908 -25.308,31.932Zm8.238,-0c-0,-15.287 6.284,-24.459 17.07,-24.459c10.785,0 16.985,9.172 16.985,24.459c-0,15.116 -6.2,24.288 -16.985,24.288c-10.786,0 -17.07,-9.172 -17.07,-24.288Z" style="fill-rule:nonzero;"/><path d="M1270.89,2044.98c13.248,-0 22.335,-8.918 22.335,-21.656c0,-11.805 -8.068,-20.552 -20.552,-20.552c-4.586,-0 -8.662,1.274 -11.889,3.737l4.076,-16.306l24.713,-0l0,-7.643l-30.743,-0l-7.473,31.507l7.049,1.783c2.802,-3.482 7.558,-5.944 12.739,-5.944c8.577,-0 13.588,5.859 13.588,13.757c-0,8.323 -5.351,13.843 -13.673,13.843c-7.813,0 -12.654,-4.841 -12.654,-12.739l-8.238,0c0,12.23 8.153,20.213 20.722,20.213Z" style="fill-rule:nonzero;"/><path d="M2551.9,2043.88l-0,-7.728l-28.365,0l12.739,-11.04c10.87,-9.427 15.201,-15.626 15.201,-24.373c0,-11.805 -7.898,-19.278 -20.212,-19.278c-12.484,-0 -20.807,8.577 -21.061,21.74l8.322,0c0.17,-8.747 5.096,-14.267 12.654,-14.267c7.389,0 11.805,4.586 11.805,12.314c-0,6.539 -2.803,10.701 -12.739,19.278l-19.788,17.07l0,6.369l41.444,-0.085Z" style="fill-rule:nonzero;"/><path d="M2559.54,2013.3c0,19.108 9.427,31.761 25.308,31.761c15.796,0 25.222,-12.653 25.222,-31.761c0,-19.024 -9.851,-31.932 -25.222,-31.932c-15.457,-0 -25.308,12.908 -25.308,31.932Zm8.238,-0c-0,-15.287 6.284,-24.459 17.07,-24.459c10.785,0 16.985,9.172 16.985,24.459c-0,15.116 -6.2,24.288 -16.985,24.288c-10.786,0 -17.07,-9.172 -17.07,-24.288Z" style="fill-rule:nonzero;"/><path d="M2630.12,1990.03l-0,53.927l7.983,0l-0,-61.4l-20.892,-0l0,7.473l12.909,0Z" style="fill-rule:nonzero;"/><path d="M2669.61,2044.98c13.248,-0 22.335,-8.918 22.335,-21.656c0,-11.805 -8.068,-20.552 -20.552,-20.552c-4.586,-0 -8.662,1.274 -11.889,3.737l4.076,-16.306l24.713,-0l0,-7.643l-30.743,-0l-7.473,31.507l7.049,1.783c2.802,-3.482 7.558,-5.944 12.739,-5.944c8.577,-0 13.588,5.859 13.588,13.757c-0,8.323 -5.351,13.843 -13.673,13.843c-7.813,0 -12.654,-4.841 -12.654,-12.739l-8.238,0c0,12.23 8.153,20.213 20.722,20.213Z" style="fill-rule:nonzero;"/><path d="M109.927,669.417c-0,-13.842 -8.153,-24.798 -20.382,-27.43l-0,8.832c7.558,2.293 12.399,9.427 12.399,18.429c-0,12.399 -9.342,20.551 -23.694,20.551c-14.352,0 -23.694,-8.152 -23.694,-20.551c-0,-8.918 4.841,-15.796 12.823,-18.089l0,-8.918c-12.568,2.293 -20.806,12.909 -20.806,26.752c-0,17.579 12.824,29.554 31.762,29.554c19.023,-0 31.592,-11.635 31.592,-29.13Z" style="fill-rule:nonzero;"/><path d="M110.012,615.235c-0,-10.276 -5.011,-17.239 -13.928,-19.278l0,7.474c4.756,1.359 7.304,5.435 7.304,11.635c-0,7.898 -4.841,12.483 -13.588,13.078l-0.085,-32.102l-2.973,0c-12.314,0 -20.467,7.728 -20.467,19.533c0,12.059 9.003,20.297 21.996,20.297c12.909,0 21.741,-8.407 21.741,-20.637Zm-37.027,0.34c-0,-7.049 4.585,-11.55 11.464,-11.55l0,23.949c-7.303,-1.019 -11.464,-5.435 -11.464,-12.399Z" style="fill-rule:nonzero;"/><path d="M108.993,579.142l-21.996,0c-8.068,0 -13.418,-4.331 -13.418,-11.804c0,-6.115 3.397,-10.021 11.805,-10.021l23.609,-0l-0,-7.983l-25.393,-0c-10.615,-0 -17.325,5.01 -17.325,15.965c0,5.86 2.803,11.126 7.559,13.758l-6.37,0.85l0,7.218l41.529,0l-0,-7.983Z" style="fill-rule:nonzero;"/><path d="M108.993,526.574l-34.82,-0l0,-8.153l-6.709,-0l0,8.153l-12.993,-0l-0,7.983l12.993,-0l0,8.152l6.709,0l0,-8.152l34.82,-0l-0,-7.983Z" style="fill-rule:nonzero;"/><path d="M127.591,488.103l0,-7.983l-25.392,-0c5.095,-2.718 7.898,-8.238 7.898,-14.862c-0,-12.314 -9.512,-19.278 -22.166,-19.278c-12.738,-0 -21.656,7.388 -21.656,19.278c0,6.624 2.973,12.229 8.663,15.032l-7.474,0.594l0,7.219l60.127,-0Zm-39.32,-8.068c-8.662,-0 -14.692,-4.926 -14.692,-13.079c0,-8.152 6.115,-12.993 14.692,-12.993c8.493,-0 14.607,4.841 14.607,12.993c0,8.153 -6.114,13.079 -14.607,13.079Z" style="fill-rule:nonzero;"/><path d="M67.125,413.369c-0.34,1.613 -0.51,2.802 -0.51,4.246c0,5.69 2.888,9.851 7.219,11.55l-6.285,0.509l0,7.474l41.444,-0l-0,-7.983l-21.996,-0c-7.983,-0 -12.569,-4.671 -12.569,-12.229l0,-3.567l-7.303,-0Z" style="fill-rule:nonzero;"/><path d="M88.186,410.142c12.824,-0 21.826,-9.172 21.826,-21.656c-0,-12.399 -9.002,-21.571 -21.826,-21.571c-12.824,-0 -21.826,9.172 -21.826,21.571c0,12.484 9.002,21.656 21.826,21.656Zm0,-8.068c-8.662,-0 -14.692,-5.52 -14.692,-13.588c0,-7.983 6.03,-13.588 14.692,-13.588c8.662,-0 14.692,5.605 14.692,13.588c0,8.068 -6.03,13.588 -14.692,13.588Z" style="fill-rule:nonzero;"/><path d="M108.993,326.745l-11.805,0l-7.388,-7.048l19.193,-12.145l-0,-9.172l-24.968,15.796l-16.561,-15.881l0,10.022l19.533,18.428l-40.509,0l-0,7.983l62.505,0l-0,-7.983Z" style="fill-rule:nonzero;"/><path d="M108.993,278.763l-0,-8.153l-48.577,-15.032l48.577,-14.862l-0,-7.983l-61.401,-18.513l-0,8.492l37.622,11.295c2.717,0.85 5.86,1.699 11.04,2.718c-4.586,0.934 -7.813,1.783 -11.125,2.802l-37.537,11.55l-0,9.002l37.537,11.635c3.227,0.934 6.199,1.868 11.125,2.887c-4.671,0.85 -7.898,1.699 -11.125,2.548l-37.537,11.21l-0,8.663l61.401,-18.259Z" style="fill-rule:nonzero;"/><path d="M108.908,199.188l-22.59,0c-7.134,0 -12.739,-4.161 -12.739,-11.889c0,-5.945 3.397,-9.937 11.805,-9.937l23.609,0l-0,-7.983l-25.393,0c-10.615,0 -17.325,5.096 -17.325,15.712c0,6.454 3.058,11.464 7.559,14.097l-27.346,0l-0,7.983l62.42,0l-0,-7.983Z" style="fill-rule:nonzero;"/><rect x="352.763" y="169.379" width="8.326" height="1763.66"/><path d="M365.15,1327.19l208.346,-4.594l208.919,-65.273l187.304,-52.828l129.84,-65.909l134.702,-48.29" style="fill:none;stroke:#4b5563;stroke-width:8.33px;stroke-linecap:butt;"/><path d="M1234.26,1090.3l169.289,-64.987l163.03,-46.324l189.023,-33.734l170.953,-38.756" style="fill:none;stroke:#4b5563;stroke-width:8.33px;stroke-linecap:butt;"/><path d="M1926.56,906.499l153.765,-54.236l173.959,-29.232l135.786,-148.063l189.83,-19.698l175.179,2.571l169.69,-6.178l182.434,6.089" style="fill:none;stroke:#4b5563;stroke-width:8.33px;stroke-linecap:butt;"/><path d="M3107.2,657.752l185.622,-62.782l181.865,-31.247l177.884,-121.811" style="fill:none;stroke:#4b5563;stroke-width:8.33px;stroke-linecap:butt;"/><path d="M368.479,1443.05l328.248,-67.989l274.406,-76.501l175.34,-45.088l152.827,-31.762l141.197,-16.959l360.047,-31.558l220.997,-50.912l177.351,-74.817l173.563,-33.231l135.801,-63.213l99.23,-8.051l118.994,51.586l160.164,-2.215l173.204,-60.44l127.262,-4.766l197.921,-56.294l107.823,-39.529l159.716,-60.254" style="fill:none;stroke:#cecece;stroke-width:8.33px;stroke-linecap:butt;"/><path d="M3649.8,441.912l1187.32,-319.407" style="fill:none;stroke:#515a68;stroke-width:8.33px;stroke-linecap:butt;"/><path d="M3652.57,770.307l1193.79,-243.67" style="fill:none;stroke:#cecece;stroke-width:8.33px;stroke-linecap:butt;"/><path d="M3649.8,1924.79l2.771,-1754.65" style="fill:none;stroke:#f8bcbd;stroke-width:2.08px;stroke-linecap:butt;stroke-dasharray:12.5,4.17,0,2.08;"/><circle cx="4839.32" cy="528.179" r="12.461" style="fill:#cecece;"/><circle cx="4839.32" cy="122.313" r="12.652" style="fill:#515a68;"/><path d="M4839.32,526.637l0,-64.042l-184.099,0" style="fill:none;stroke:#000;stroke-width:0.83px;stroke-linecap:butt;"/><path d="M4839.32,122.505l0,234.031l-184.099,-0" style="fill:none;stroke:#000;stroke-width:0.83px;stroke-linecap:butt;"/><path d="M4303.9,461.094c7.535,0 11.656,3.591 11.656,9.36c0,6.123 -4.062,10.126 -10.361,10.126c-5.946,0 -9.714,-3.65 -9.714,-9.713l-4.179,-0c-0,8.418 5.592,13.54 13.893,13.54c8.536,-0 14.659,-5.475 14.659,-13.835c-0,-7.653 -5.652,-12.657 -13.54,-13.069l12.598,-12.539l-0,-3.415l-25.55,0l0,3.768l20.193,-0l-13.011,12.834l0,2.943l3.356,0Z" style="fill-rule:nonzero;"/><path d="M4337.69,461.094c7.536,0 11.656,3.591 11.656,9.36c0,6.123 -4.062,10.126 -10.361,10.126c-5.946,0 -9.713,-3.65 -9.713,-9.713l-4.18,-0c0,8.418 5.593,13.54 13.893,13.54c8.537,-0 14.659,-5.475 14.659,-13.835c-0,-7.653 -5.652,-12.657 -13.54,-13.069l12.598,-12.539l0,-3.415l-25.55,0l0,3.768l20.193,-0l-13.01,12.834l-0,2.943l3.355,0Z" style="fill-rule:nonzero;"/><path d="M4394.86,484.348c9.066,-0 16.425,-5.357 18.367,-13.305l-4.533,0c-1.825,5.652 -7.123,9.243 -13.775,9.243c-9.243,-0 -15.424,-7.065 -15.424,-17.661c-0,-10.656 6.181,-17.72 15.424,-17.72c6.593,-0 11.774,3.709 13.54,9.772l4.533,0c-1.707,-8.359 -8.831,-13.834 -17.897,-13.834c-11.891,-0 -20.015,8.83 -20.015,21.782c-0,12.951 8.006,21.723 19.78,21.723Z" style="fill-rule:nonzero;"/><path d="M4431.65,484.407c6.711,-0 11.126,-3.238 12.657,-9.243l-3.886,0c-1.059,3.768 -4.062,5.769 -8.712,5.769c-6.123,0 -9.773,-4.003 -10.067,-10.95l22.665,0l-0,-2.001c-0,-8.065 -5.24,-13.54 -12.952,-13.54c-8.124,-0 -13.657,6.122 -13.657,15.012c-0,8.948 5.592,14.953 13.952,14.953Zm-0.295,-26.492c5.358,0 8.89,3.65 8.89,9.125l-18.485,-0c0.706,-5.593 4.238,-9.125 9.595,-9.125Z" style="fill-rule:nonzero;"/><path d="M4454.85,483.7l-0,-14.894c-0,-6.417 3.296,-10.655 9.124,-10.655c4.71,-0 7.712,2.354 7.712,9.007l0,16.542l4.062,0l0,-17.425c0,-7.182 -3.237,-11.833 -11.067,-11.833c-4.121,-0 -7.889,2.06 -9.773,5.71l-0.588,-4.945l-3.532,0l-0,28.493l4.062,0Z" style="fill-rule:nonzero;"/><path d="M4490.4,483.7l0,-25.078l5.71,-0l0,-3.415l-5.71,0l0,-9.007l-4.003,-0l-0,9.007l-5.711,0l0,3.415l5.711,-0l-0,25.078l4.003,0Z" style="fill-rule:nonzero;"/><path d="M4501.18,483.7l16.543,-42.151l-4.121,0l-16.425,42.151l4.003,0Z" style="fill-rule:nonzero;"/><path d="M4542.5,483.7l-0,-8.536l5.534,-5.71l9.066,14.246l4.709,0l-11.008,-17.131l10.949,-11.362l-5.121,0l-14.129,14.718l-0,-29.141l-4.062,-0l-0,42.916l4.062,0Z" style="fill-rule:nonzero;"/><path d="M4575.59,483.7l4.062,0l11.303,-35.793l11.303,35.793l4.003,0l12.657,-42.151l-4.297,0l-8.713,29.023c-0.471,1.59 -1.001,3.65 -1.648,6.888c-0.648,-2.708 -1.237,-4.827 -1.884,-6.947l-9.184,-28.964l-4.415,0l-9.184,28.964c-0.647,2.061 -1.236,3.886 -1.943,6.947c-0.529,-2.767 -1.059,-4.886 -1.648,-6.947l-8.536,-28.964l-4.415,0l12.539,42.151Z" style="fill-rule:nonzero;"/><path d="M4628.1,483.641l-0,-15.482c-0,-5.475 3.179,-10.008 9.301,-10.008c4.416,-0 7.536,2.354 7.536,9.007l-0,16.542l4.062,0l-0,-17.425c-0,-7.182 -3.356,-11.833 -10.832,-11.833c-4.769,-0 -8.242,2.296 -10.067,5.71l-0,-19.368l-4.062,-0l-0,42.857l4.062,0Z" style="fill-rule:nonzero;"/><path d="M4322.57,368.693l-0,-3.768l-4.945,-0l-0,-29.435l-5.652,-0l-20.604,29.435l-0,3.768l22.135,-0l-0,8.948l4.121,-0l-0,-8.948l4.945,-0Zm-26.61,-3.768l17.544,-25.079l-0,25.079l-17.544,-0Z" style="fill-rule:nonzero;"/><path d="M4354.71,377.641l-0,-3.944l-21.252,-0l9.831,-8.595c8.418,-7.359 11.185,-11.421 11.185,-17.544c0,-7.712 -5.298,-12.833 -13.246,-12.833c-8.3,-0 -13.893,5.828 -14.128,14.658l4.238,0c0.177,-6.534 4.003,-10.773 9.832,-10.773c5.592,0 9.007,3.473 9.007,9.184c-0,5.004 -2.002,7.947 -9.773,14.717l-13.481,11.774l0,3.356l27.787,-0Z" style="fill-rule:nonzero;"/><path d="M4395.98,378.288c9.066,0 16.424,-5.357 18.367,-13.304l-4.533,-0c-1.825,5.651 -7.123,9.242 -13.776,9.242c-9.242,0 -15.424,-7.064 -15.424,-17.661c0,-10.655 6.182,-17.719 15.424,-17.719c6.594,-0 11.774,3.708 13.541,9.772l4.532,-0c-1.707,-8.36 -8.83,-13.834 -17.896,-13.834c-11.892,-0 -20.016,8.83 -20.016,21.781c0,12.952 8.007,21.723 19.781,21.723Z" style="fill-rule:nonzero;"/><path d="M4432.77,378.347c6.711,0 11.127,-3.238 12.657,-9.242l-3.885,-0c-1.06,3.767 -4.062,5.769 -8.713,5.769c-6.122,-0 -9.772,-4.003 -10.067,-10.95l22.665,0l0,-2.001c0,-8.066 -5.239,-13.541 -12.951,-13.541c-8.124,0 -13.658,6.123 -13.658,15.012c0,8.949 5.593,14.953 13.952,14.953Zm-0.294,-26.491c5.357,-0 8.889,3.65 8.889,9.125l-18.485,-0c0.707,-5.593 4.239,-9.125 9.596,-9.125Z" style="fill-rule:nonzero;"/><path d="M4455.97,377.641l0,-14.894c0,-6.417 3.297,-10.656 9.125,-10.656c4.71,0 7.712,2.355 7.712,9.007l-0,16.543l4.062,-0l-0,-17.426c-0,-7.182 -3.238,-11.833 -11.068,-11.833c-4.121,0 -7.888,2.061 -9.772,5.711l-0.589,-4.945l-3.532,-0l0,28.493l4.062,-0Z" style="fill-rule:nonzero;"/><path d="M4491.52,377.641l-0,-25.079l5.71,0l-0,-3.414l-5.71,-0l-0,-9.007l-4.004,-0l0,9.007l-5.71,-0l0,3.414l5.71,0l0,25.079l4.004,-0Z" style="fill-rule:nonzero;"/><path d="M4502.3,377.641l16.542,-42.151l-4.121,-0l-16.424,42.151l4.003,-0Z" style="fill-rule:nonzero;"/><path d="M4543.62,377.641l-0,-8.536l5.533,-5.711l9.066,14.247l4.71,-0l-11.009,-17.131l10.95,-11.362l-5.122,-0l-14.128,14.717l-0,-29.14l-4.063,-0l0,42.916l4.063,-0Z" style="fill-rule:nonzero;"/><path d="M4576.71,377.641l4.063,-0l11.303,-35.793l11.303,35.793l4.003,-0l12.657,-42.151l-4.298,-0l-8.712,29.023c-0.471,1.589 -1.001,3.65 -1.649,6.888c-0.647,-2.708 -1.236,-4.828 -1.884,-6.947l-9.183,-28.964l-4.416,-0l-9.183,28.964c-0.648,2.06 -1.237,3.885 -1.943,6.947c-0.53,-2.767 -1.06,-4.887 -1.648,-6.947l-8.537,-28.964l-4.415,-0l12.539,42.151Z" style="fill-rule:nonzero;"/><path d="M4629.22,377.582l-0,-15.483c-0,-5.475 3.179,-10.008 9.301,-10.008c4.415,0 7.535,2.355 7.535,9.007l0,16.543l4.062,-0l0,-17.426c0,-7.182 -3.355,-11.833 -10.832,-11.833c-4.768,0 -8.242,2.296 -10.066,5.711l-0,-19.368l-4.063,-0l0,42.857l4.063,0Z" style="fill-rule:nonzero;"/><path d="M4846.37,1925.04l-0.015,-8.493l-4493.59,8.001l0.015,8.493l4493.59,-8.001Z"/></g></svg>