<?xml version="1.0" encoding="UTF-8" standalone="no"?>
<!DOCTYPE svg PUBLIC "-//W3C//DTD SVG 1.1//EN" "http://www.w3.org/Graphics/SVG/1.1/DTD/svg11.dtd">
<svg width="100%" height="100%" viewBox="0 0 400 500" version="1.1" xmlns="http://www.w3.org/2000/svg" xmlns:xlink="http://www.w3.org/1999/xlink" xml:space="preserve" xmlns:serif="http://www.serif.com/" style="fill-rule:evenodd;clip-rule:evenodd;stroke-linejoin:round;stroke-miterlimit:2;">
    <g transform="matrix(1.10229,0,0,1.10229,-1216.05,-171.142)">
        <g>
            <g>
                <g id="X_00000183943273216081289580000002340314068892279995_" transform="matrix(1,0,0,1,31.5,55)">
                    <g transform="matrix(1,0,0,1,-6,-30.49)">
                        <path d="M1211.4,132.2L1224.9,149.6L1238.6,149.6L1225.2,132.2L1211.4,132.2Z" style="fill:rgb(253,224,71);"/>
                        <path d="M1229,132.2L1242.5,149.6L1256.2,149.6L1242.8,132.2L1229,132.2Z" style="fill:rgb(253,224,71);"/>
                        <path d="M1246.5,132.2L1260,149.6L1273.7,149.6L1260.3,132.2L1246.5,132.2Z" style="fill:rgb(253,224,71);"/>
                        <path d="M1264,132.2L1277.5,149.6L1291.2,149.6L1277.8,132.2L1264,132.2Z" style="fill:rgb(253,224,71);"/>
                        <path d="M1281.6,132.2L1295.1,149.6L1308.8,149.6L1295.4,132.2L1281.6,132.2Z" style="fill:rgb(253,224,71);"/>
                        <path d="M1299.1,132.2L1312.6,149.6L1326.3,149.6L1312.9,132.2L1299.1,132.2Z" style="fill:rgb(253,224,71);"/>
                    </g>
                    <g transform="matrix(1,0,0,1,-6,-30.49)">
                        <path d="M1228.2,154.1L1241.7,171.5L1255.4,171.5L1242,154.1L1228.2,154.1Z" style="fill:rgb(253,224,71);"/>
                        <path d="M1245.8,154.1L1259.3,171.5L1273,171.5L1259.6,154.1L1245.8,154.1Z" style="fill:rgb(253,224,71);"/>
                        <path d="M1263.3,154.1L1276.8,171.5L1290.5,171.5L1277.1,154.1L1263.3,154.1Z" style="fill:rgb(253,224,71);"/>
                        <path d="M1280.9,154.1L1294.4,171.5L1308.1,171.5L1294.7,154.1L1280.9,154.1Z" style="fill:rgb(253,224,71);"/>
                        <path d="M1298.4,154.1L1311.9,171.5L1325.6,171.5L1312.2,154.1L1298.4,154.1Z" style="fill:rgb(253,224,71);"/>
                        <path d="M1316,154.1L1329.5,171.5L1343.2,171.5L1329.8,154.1L1316,154.1Z" style="fill:rgb(253,224,71);"/>
                    </g>
                    <g transform="matrix(1,0,0,1,-6,-30.49)">
                        <path d="M1244.8,175.6L1258.3,193L1272,193L1258.6,175.6L1244.8,175.6Z" style="fill:rgb(253,224,71);"/>
                        <path d="M1262.4,175.6L1275.9,193L1289.6,193L1276.2,175.6L1262.4,175.6Z" style="fill:rgb(253,224,71);"/>
                        <path d="M1279.9,175.6L1293.4,193L1307.1,193L1293.7,175.6L1279.9,175.6Z" style="fill:rgb(253,224,71);"/>
                        <path d="M1297.5,175.6L1311,193L1324.7,193L1311.3,175.6L1297.5,175.6Z" style="fill:rgb(253,224,71);"/>
                        <path d="M1315,175.6L1328.5,193L1342.2,193L1328.8,175.6L1315,175.6Z" style="fill:rgb(253,224,71);"/>
                        <path d="M1332.6,175.6L1346,193L1359.7,193L1346.3,175.6L1332.6,175.6Z" style="fill:rgb(253,224,71);"/>
                    </g>
                    <g transform="matrix(1,0,0,1,-6,-30.49)">
                        <path d="M1261.4,197L1274.9,214.4L1288.6,214.4L1275.2,197L1261.4,197Z" style="fill:rgb(253,224,71);"/>
                        <path d="M1278.9,197L1292.4,214.4L1306.1,214.4L1292.7,197L1278.9,197Z" style="fill:rgb(253,224,71);"/>
                        <path d="M1296.4,197L1309.9,214.4L1323.6,214.4L1310.2,197L1296.4,197Z" style="fill:rgb(253,224,71);"/>
                        <path d="M1313.9,197L1327.4,214.4L1341.1,214.4L1327.7,197L1313.9,197Z" style="fill:rgb(253,224,71);"/>
                        <path d="M1331.5,197L1345,214.4L1358.7,214.4L1345.3,197L1331.5,197Z" style="fill:rgb(253,224,71);"/>
                        <path d="M1349.2,197L1362.7,214.4L1376.4,214.4L1363,197L1349.2,197Z" style="fill:rgb(253,224,71);"/>
                    </g>
                    <g transform="matrix(1,0,0,1,-6,-30.49)">
                        <path d="M1278,218.5L1291.5,235.9L1305.2,235.9L1291.8,218.5L1278,218.5Z" style="fill:rgb(253,224,71);"/>
                        <path d="M1295.5,218.5L1309,235.9L1322.7,235.9L1309.3,218.5L1295.5,218.5Z" style="fill:rgb(253,224,71);"/>
                        <path d="M1313,218.5L1326.5,235.9L1340.2,235.9L1326.8,218.5L1313,218.5Z" style="fill:rgb(253,224,71);"/>
                        <path d="M1330.5,218.5L1344,235.9L1357.7,235.9L1344.3,218.5L1330.5,218.5Z" style="fill:rgb(253,224,71);"/>
                        <path d="M1348.1,218.5L1361.6,235.9L1375.3,235.9L1361.9,218.5L1348.1,218.5Z" style="fill:rgb(253,224,71);"/>
                        <path d="M1365.7,218.5L1379.2,235.9L1392.9,235.9L1379.5,218.5L1365.7,218.5Z" style="fill:rgb(253,224,71);"/>
                    </g>
                    <g transform="matrix(1,0,0,1,-6,-30.49)">
                        <path d="M1294.5,240L1308,257.4L1321.7,257.4L1308.3,240L1294.5,240Z" style="fill:rgb(253,224,71);"/>
                        <path d="M1312,240L1325.5,257.4L1339.2,257.4L1325.8,240L1312,240Z" style="fill:rgb(253,224,71);"/>
                        <path d="M1329.6,240L1343.1,257.4L1356.8,257.4L1343.4,240L1329.6,240Z" style="fill:rgb(253,224,71);"/>
                        <path d="M1347.1,240L1360.6,257.4L1374.3,257.4L1360.9,240L1347.1,240Z" style="fill:rgb(253,224,71);"/>
                        <path d="M1364.6,240L1378.1,257.4L1391.8,257.4L1378.4,240L1364.6,240Z" style="fill:rgb(253,224,71);"/>
                        <path d="M1382.3,240L1395.8,257.4L1409.5,257.4L1396,240L1382.3,240Z" style="fill:rgb(253,224,71);"/>
                    </g>
                    <g transform="matrix(1,0,0,1,-6,-30.49)">
                        <path d="M1294.1,303.8L1307.6,286.4L1321.3,286.4L1307.9,303.8L1294.1,303.8Z" style="fill:rgb(253,224,71);"/>
                        <path d="M1311.6,303.8L1325.1,286.4L1338.8,286.4L1325.4,303.8L1311.6,303.8Z" style="fill:rgb(253,224,71);"/>
                        <path d="M1329.1,303.8L1342.6,286.4L1356.3,286.4L1342.9,303.8L1329.1,303.8Z" style="fill:rgb(253,224,71);"/>
                        <path d="M1346.6,303.8L1360.1,286.4L1373.8,286.4L1360.4,303.8L1346.6,303.8Z" style="fill:rgb(253,224,71);"/>
                        <path d="M1364.2,303.8L1377.7,286.4L1391.4,286.4L1378,303.8L1364.2,303.8Z" style="fill:rgb(253,224,71);"/>
                        <path d="M1381.9,303.8L1395.4,286.4L1409.1,286.4L1395.7,303.8L1381.9,303.8Z" style="fill:rgb(253,224,71);"/>
                    </g>
                    <g transform="matrix(1,0,0,1,-6,-30.49)">
                        <path d="M1277.4,325.2L1290.9,307.8L1304.6,307.8L1291.2,325.2L1277.4,325.2Z" style="fill:rgb(253,224,71);"/>
                        <path d="M1294.9,325.2L1308.4,307.8L1322.1,307.8L1308.7,325.2L1294.9,325.2Z" style="fill:rgb(253,224,71);"/>
                        <path d="M1312.4,325.2L1325.9,307.8L1339.6,307.8L1326.2,325.2L1312.4,325.2Z" style="fill:rgb(253,224,71);"/>
                        <path d="M1329.9,325.2L1343.4,307.8L1357.1,307.8L1343.7,325.2L1329.9,325.2Z" style="fill:rgb(253,224,71);"/>
                        <path d="M1347.5,325.2L1361,307.8L1374.7,307.8L1361.3,325.2L1347.5,325.2Z" style="fill:rgb(253,224,71);"/>
                        <path d="M1365.2,325.2L1378.7,307.8L1392.4,307.8L1379,325.2L1365.2,325.2Z" style="fill:rgb(253,224,71);"/>
                    </g>
                    <g transform="matrix(1,0,0,1,-6,-30.49)">
                        <path d="M1260.8,346.7L1274.3,329.3L1288,329.3L1274.6,346.7L1260.8,346.7Z" style="fill:rgb(253,224,71);"/>
                        <path d="M1278.3,346.7L1291.8,329.3L1305.5,329.3L1292.1,346.7L1278.3,346.7Z" style="fill:rgb(253,224,71);"/>
                        <path d="M1295.8,346.7L1309.3,329.3L1323,329.3L1309.6,346.7L1295.8,346.7Z" style="fill:rgb(253,224,71);"/>
                        <path d="M1313.4,346.7L1326.9,329.3L1340.6,329.3L1327.2,346.7L1313.4,346.7Z" style="fill:rgb(253,224,71);"/>
                        <path d="M1330.9,346.7L1344.4,329.3L1358.1,329.3L1344.7,346.7L1330.9,346.7Z" style="fill:rgb(253,224,71);"/>
                        <path d="M1348.6,346.7L1362.1,329.3L1375.8,329.3L1362.4,346.7L1348.6,346.7Z" style="fill:rgb(253,224,71);"/>
                    </g>
                    <g transform="matrix(1,0,0,1,-6,-30.49)">
                        <path d="M1244.1,368.2L1257.6,350.8L1271.3,350.8L1257.9,368.2L1244.1,368.2Z" style="fill:rgb(253,224,71);"/>
                        <path d="M1261.6,368.2L1275.1,350.8L1288.8,350.8L1275.4,368.2L1261.6,368.2Z" style="fill:rgb(253,224,71);"/>
                        <path d="M1279.1,368.2L1292.6,350.8L1306.3,350.8L1292.9,368.2L1279.1,368.2Z" style="fill:rgb(253,224,71);"/>
                        <path d="M1296.6,368.2L1310.1,350.8L1323.8,350.8L1310.4,368.2L1296.6,368.2Z" style="fill:rgb(253,224,71);"/>
                        <path d="M1314.2,368.2L1327.7,350.8L1341.4,350.8L1328,368.2L1314.2,368.2Z" style="fill:rgb(253,224,71);"/>
                        <path d="M1331.8,368.2L1345.3,350.8L1359,350.8L1345.6,368.2L1331.8,368.2Z" style="fill:rgb(253,224,71);"/>
                    </g>
                    <g transform="matrix(1,0,0,1,-6,-30.49)">
                        <path d="M1227.5,389.7L1241,372.3L1254.7,372.3L1241.3,389.7L1227.5,389.7Z" style="fill:rgb(253,224,71);"/>
                        <path d="M1245,389.7L1258.5,372.3L1272.2,372.3L1258.8,389.7L1245,389.7Z" style="fill:rgb(253,224,71);"/>
                        <path d="M1262.5,389.7L1276,372.3L1289.7,372.3L1276.3,389.7L1262.5,389.7Z" style="fill:rgb(253,224,71);"/>
                        <path d="M1280.1,389.7L1293.6,372.3L1307.3,372.3L1293.9,389.7L1280.1,389.7Z" style="fill:rgb(253,224,71);"/>
                        <path d="M1297.6,389.7L1311.1,372.3L1324.8,372.3L1311.4,389.7L1297.6,389.7Z" style="fill:rgb(253,224,71);"/>
                        <path d="M1315.3,389.7L1328.8,372.3L1342.5,372.3L1329.1,389.7L1315.3,389.7Z" style="fill:rgb(253,224,71);"/>
                    </g>
                    <g transform="matrix(1,0,0,1,-6,-30.49)">
                        <path d="M1210.9,411.1L1224.4,393.7L1238.1,393.7L1224.7,411.1L1210.9,411.1Z" style="fill:rgb(253,224,71);"/>
                        <path d="M1228.4,411.1L1241.9,393.7L1255.6,393.7L1242.2,411.1L1228.4,411.1Z" style="fill:rgb(253,224,71);"/>
                        <path d="M1245.9,411.1L1259.4,393.7L1273.1,393.7L1259.7,411.1L1245.9,411.1Z" style="fill:rgb(253,224,71);"/>
                        <path d="M1263.4,411.1L1276.9,393.7L1290.6,393.7L1277.2,411.1L1263.4,411.1Z" style="fill:rgb(253,224,71);"/>
                        <path d="M1281,411.1L1294.5,393.7L1308.2,393.7L1294.8,411.1L1281,411.1Z" style="fill:rgb(253,224,71);"/>
                        <path d="M1298.7,411.1L1312.2,393.7L1325.9,393.7L1312.5,411.1L1298.7,411.1Z" style="fill:rgb(253,224,71);"/>
                    </g>
                    <g transform="matrix(1,0,0,1,-6,-30.49)">
                        <path d="M1194.2,432.6L1207.7,415.2L1221.4,415.2L1208,432.6L1194.2,432.6Z" style="fill:rgb(253,224,71);"/>
                        <path d="M1211.7,432.6L1225.2,415.2L1238.9,415.2L1225.5,432.6L1211.7,432.6Z" style="fill:rgb(253,224,71);"/>
                        <path d="M1229.3,432.6L1242.8,415.2L1256.5,415.2L1243.1,432.6L1229.3,432.6Z" style="fill:rgb(253,224,71);"/>
                        <path d="M1246.8,432.6L1260.3,415.2L1274,415.2L1260.6,432.6L1246.8,432.6Z" style="fill:rgb(253,224,71);"/>
                        <path d="M1264.3,432.6L1277.8,415.2L1291.5,415.2L1278.1,432.6L1264.3,432.6Z" style="fill:rgb(253,224,71);"/>
                        <path d="M1282,432.6L1295.5,415.2L1309.2,415.2L1295.8,432.6L1282,432.6Z" style="fill:rgb(253,224,71);"/>
                    </g>
                    <g transform="matrix(1,0,0,1,-6,-30.49)">
                        <path d="M1177.6,454.1L1191.1,436.7L1204.8,436.7L1191.4,454.1L1177.6,454.1Z" style="fill:rgb(253,224,71);"/>
                        <path d="M1195.1,454.1L1208.6,436.7L1222.3,436.7L1208.9,454.1L1195.1,454.1Z" style="fill:rgb(253,224,71);"/>
                        <path d="M1212.6,454.1L1226.1,436.7L1239.8,436.7L1226.4,454.1L1212.6,454.1Z" style="fill:rgb(253,224,71);"/>
                        <path d="M1230.1,454.1L1243.6,436.7L1257.3,436.7L1243.9,454.1L1230.1,454.1Z" style="fill:rgb(253,224,71);"/>
                        <path d="M1247.7,454.1L1261.2,436.7L1274.9,436.7L1261.5,454.1L1247.7,454.1Z" style="fill:rgb(253,224,71);"/>
                        <path d="M1265.4,454.1L1278.9,436.7L1292.6,436.7L1279.2,454.1L1265.4,454.1Z" style="fill:rgb(253,224,71);"/>
                    </g>
                    <g transform="matrix(1,0,0,1,-6,-30.49)">
                        <path d="M1160.9,475.5L1174.4,458.1L1188.1,458.1L1174.7,475.5L1160.9,475.5Z" style="fill:rgb(253,224,71);"/>
                        <path d="M1178.5,475.5L1192,458.1L1205.7,458.1L1192.3,475.5L1178.5,475.5Z" style="fill:rgb(253,224,71);"/>
                        <path d="M1196,475.5L1209.5,458.1L1223.2,458.1L1209.8,475.5L1196,475.5Z" style="fill:rgb(253,224,71);"/>
                        <path d="M1213.5,475.5L1227,458.1L1240.7,458.1L1227.3,475.5L1213.5,475.5Z" style="fill:rgb(253,224,71);"/>
                        <path d="M1231.1,475.5L1244.6,458.1L1258.3,458.1L1244.9,475.5L1231.1,475.5Z" style="fill:rgb(253,224,71);"/>
                        <path d="M1248.7,475.5L1262.2,458.1L1275.9,458.1L1262.5,475.5L1248.7,475.5Z" style="fill:rgb(253,224,71);"/>
                    </g>
                    <g transform="matrix(1,0,0,1,-6,-30.49)">
                        <path d="M1144.3,497L1157.8,479.6L1171.5,479.6L1158,497L1144.3,497Z" style="fill:rgb(253,224,71);"/>
                        <path d="M1161.8,497L1175.3,479.6L1189,479.6L1175.6,497L1161.8,497Z" style="fill:rgb(253,224,71);"/>
                        <path d="M1179.3,497L1192.8,479.6L1206.5,479.6L1193,497L1179.3,497Z" style="fill:rgb(253,224,71);"/>
                        <path d="M1196.9,497L1210.4,479.6L1224.1,479.6L1210.7,497L1196.9,497Z" style="fill:rgb(253,224,71);"/>
                        <path d="M1214.4,497L1227.9,479.6L1241.6,479.6L1228.2,497L1214.4,497Z" style="fill:rgb(253,224,71);"/>
                        <path d="M1232.1,497L1245.6,479.6L1259.3,479.6L1245.9,497L1232.1,497Z" style="fill:rgb(253,224,71);"/>
                    </g>
                    <g transform="matrix(1,0,0,1,-6,-30.49)">
                        <path d="M1127.7,518.5L1141.2,501.1L1154.9,501.1L1141.5,518.5L1127.7,518.5Z" style="fill:rgb(253,224,71);"/>
                        <path d="M1145.2,518.5L1158.7,501.1L1172.4,501.1L1159,518.5L1145.2,518.5Z" style="fill:rgb(253,224,71);"/>
                        <path d="M1162.7,518.5L1176.2,501.1L1189.9,501.1L1176.5,518.5L1162.7,518.5Z" style="fill:rgb(253,224,71);"/>
                        <path d="M1180.2,518.5L1193.7,501.1L1207.4,501.1L1194,518.5L1180.2,518.5Z" style="fill:rgb(253,224,71);"/>
                        <path d="M1197.8,518.5L1211.3,501.1L1225,501.1L1211.6,518.5L1197.8,518.5Z" style="fill:rgb(253,224,71);"/>
                        <path d="M1215.4,518.5L1228.9,501.1L1242.6,501.1L1229.2,518.5L1215.4,518.5Z" style="fill:rgb(253,224,71);"/>
                    </g>
                    <g transform="matrix(1,0,0,1,-6,-30.49)">
                        <path d="M1111,540L1124.5,522.6L1138.2,522.6L1124.8,540L1111,540Z" style="fill:rgb(253,224,71);"/>
                        <path d="M1128.5,540L1142,522.6L1155.7,522.6L1142.3,540L1128.5,540Z" style="fill:rgb(253,224,71);"/>
                        <path d="M1146,540L1159.5,522.6L1173.2,522.6L1159.8,540L1146,540Z" style="fill:rgb(253,224,71);"/>
                        <path d="M1163.6,540L1177.1,522.6L1190.8,522.6L1177.4,540L1163.6,540Z" style="fill:rgb(253,224,71);"/>
                        <path d="M1181.1,540L1194.6,522.6L1208.3,522.6L1194.9,540L1181.1,540Z" style="fill:rgb(253,224,71);"/>
                        <path d="M1198.8,540L1212.3,522.6L1226,522.6L1212.6,540L1198.8,540Z" style="fill:rgb(253,224,71);"/>
                    </g>
                    <g transform="matrix(1,0,0,1,-6,-30.49)">
                        <path d="M1094.4,561.4L1107.9,544L1121.6,544L1108.2,561.4L1094.4,561.4Z" style="fill:rgb(253,224,71);"/>
                        <path d="M1111.9,561.4L1125.4,544L1139.1,544L1125.7,561.4L1111.9,561.4Z" style="fill:rgb(253,224,71);"/>
                        <path d="M1129.4,561.4L1142.9,544L1156.6,544L1143.2,561.4L1129.4,561.4Z" style="fill:rgb(253,224,71);"/>
                        <path d="M1146.9,561.4L1160.4,544L1174.1,544L1160.7,561.4L1146.9,561.4Z" style="fill:rgb(253,224,71);"/>
                        <path d="M1164.5,561.4L1178,544L1191.7,544L1178.3,561.4L1164.5,561.4Z" style="fill:rgb(253,224,71);"/>
                        <path d="M1182.1,561.4L1195.6,544L1209.3,544L1195.9,561.4L1182.1,561.4Z" style="fill:rgb(253,224,71);"/>
                    </g>
                    <g transform="matrix(1,0,0,1,-6,-30.49)">
                        <path d="M1077.7,582.9L1091.2,565.5L1104.9,565.5L1091.5,582.9L1077.7,582.9Z" style="fill:rgb(253,224,71);"/>
                        <path d="M1095.2,582.9L1108.7,565.5L1122.4,565.5L1109,582.9L1095.2,582.9Z" style="fill:rgb(253,224,71);"/>
                        <path d="M1112.8,582.9L1126.3,565.5L1140,565.5L1126.5,582.9L1112.8,582.9Z" style="fill:rgb(253,224,71);"/>
                        <path d="M1130.3,582.9L1143.8,565.5L1157.5,565.5L1144,582.9L1130.3,582.9Z" style="fill:rgb(253,224,71);"/>
                        <path d="M1147.8,582.9L1161.3,565.5L1175,565.5L1161.6,582.9L1147.8,582.9Z" style="fill:rgb(253,224,71);"/>
                        <path d="M1165.5,582.9L1179,565.5L1192.7,565.5L1179.3,582.9L1165.5,582.9Z" style="fill:rgb(253,224,71);"/>
                    </g>
                    <g transform="matrix(1,0,0,1,-6,-30.49)">
                        <path d="M1311.2,261.4L1319,271.5L1311,281.8L1324.6,281.8L1332.6,271.5L1324.8,261.4L1311.2,261.4Z" style="fill:rgb(253,224,71);"/>
                        <path d="M1328.7,261.4L1336.5,271.5L1328.5,281.8L1342.1,281.8L1350.1,271.5L1342.3,261.4L1328.7,261.4Z" style="fill:rgb(253,224,71);"/>
                        <path d="M1346.2,261.4L1354,271.5L1346,281.8L1359.6,281.8L1367.6,271.5L1359.8,261.4L1346.2,261.4Z" style="fill:rgb(253,224,71);"/>
                        <path d="M1363.8,261.4L1371.6,271.5L1363.6,281.8L1377.2,281.8L1385.2,271.5L1377.4,261.4L1363.8,261.4Z" style="fill:rgb(253,224,71);"/>
                        <path d="M1381.3,261.4L1389.1,271.5L1381.1,281.8L1394.7,281.8L1402.7,271.5L1394.9,261.4L1381.3,261.4Z" style="fill:rgb(253,224,71);"/>
                        <path d="M1398.9,261.4L1406.7,271.5L1398.7,281.8L1412.3,281.8L1420.3,271.5L1412.5,261.4L1398.9,261.4Z" style="fill:rgb(253,224,71);"/>
                    </g>
                </g>
                <g transform="matrix(1,0,0,1,25.5,24.51)">
                    <path d="M1382.4,193.6C1381,195.4 1381,197.9 1382.4,199.7C1390.5,210.1 1416.7,244.1 1426.9,257.3C1427.9,258.5 1429.3,259.3 1430.9,259.3C1432.5,259.3 1434,258.6 1434.9,257.3C1453.6,233 1531.3,132.3 1531.3,132.3L1430.2,132.3C1430.3,132.3 1392.4,180.8 1382.4,193.6Z" style="fill:white;"/>
                </g>
                <g transform="matrix(1,0,0,1,25.5,24.51)">
                    <path d="M1382.6,350.5C1381.1,348.5 1381.1,345.8 1382.6,343.8C1391.1,332.8 1418.1,297.9 1427.6,285.6C1428.4,284.6 1429.6,284 1430.9,284C1432.2,284 1433.4,284.6 1434.2,285.6C1451.6,308.1 1531.3,411.5 1531.3,411.5L1430.2,411.5C1430.3,411.5 1393,363.7 1382.6,350.5Z" style="fill:white;"/>
                </g>
            </g>
        </g>
    </g>
</svg>
