<?xml version="1.0" encoding="UTF-8" standalone="no"?><!DOCTYPE svg PUBLIC "-//W3C//DTD SVG 1.1//EN" "http://www.w3.org/Graphics/SVG/1.1/DTD/svg11.dtd"><svg width="100%" height="100%" viewBox="0 0 5689 3334" version="1.1" xmlns="http://www.w3.org/2000/svg" xmlns:xlink="http://www.w3.org/1999/xlink" xml:space="preserve" xmlns:serif="http://www.serif.com/" style="fill-rule:evenodd;clip-rule:evenodd;stroke-linejoin:round;stroke-miterlimit:2;"><g><g><path d="M986.961,43.747l94.593,125.743l96.066,-0l-94.432,-125.615l-96.227,-0.128Z" style="fill:#fcde32;"/><path d="M1110.63,43.747l94.592,125.743l96.067,-0l-94.433,-125.615l-96.226,-0.128Z" style="fill:#fcde32;"/><path d="M1233.68,43.747l94.593,125.743l96.066,-0l-94.432,-125.615l-96.227,-0.128Z" style="fill:#fcde32;"/><path d="M1356.89,43.747l94.592,125.743l96.067,-0l-94.433,-125.615l-96.226,-0.128Z" style="fill:#fcde32;"/><path d="M1480.29,43.747l94.591,125.743l96.066,-0l-94.432,-125.615l-96.225,-0.128Z" style="fill:#fcde32;"/><path d="M1603.63,43.747l94.59,125.743l96.066,-0l-94.43,-125.615l-96.226,-0.128Z" style="fill:#fcde32;"/></g><g><path d="M1105.55,201.495l94.59,125.743l96.066,-0l-94.43,-125.613l-96.226,-0.13Z" style="fill:#fcde32;"/><path d="M1229.21,201.495l94.593,125.743l96.066,-0l-94.432,-125.613l-96.227,-0.13Z" style="fill:#fcde32;"/><path d="M1352.27,201.495l94.593,125.743l96.066,-0l-94.433,-125.613l-96.226,-0.13Z" style="fill:#fcde32;"/><path d="M1475.47,201.495l94.593,125.743l96.066,-0l-94.432,-125.613l-96.227,-0.13Z" style="fill:#fcde32;"/><path d="M1598.89,201.495l94.591,125.743l96.066,-0l-94.43,-125.613l-96.227,-0.13Z" style="fill:#fcde32;"/><path d="M1722.22,201.495l94.591,125.743l96.066,-0l-94.43,-125.613l-96.227,-0.13Z" style="fill:#fcde32;"/></g><g><path d="M1222.02,356.405l94.593,125.743l96.064,-0l-94.43,-125.615l-96.227,-0.128Z" style="fill:#fcde32;"/><path d="M1345.66,356.405l94.591,125.743l96.066,-0l-94.43,-125.615l-96.227,-0.128Z" style="fill:#fcde32;"/><path d="M1468.74,356.405l94.591,125.743l96.066,-0l-94.43,-125.615l-96.227,-0.128Z" style="fill:#fcde32;"/><path d="M1591.94,356.405l94.59,125.743l96.066,-0l-94.43,-125.615l-96.226,-0.128Z" style="fill:#fcde32;"/><path d="M1715.34,356.405l94.593,125.743l96.066,-0l-94.432,-125.615l-96.227,-0.128Z" style="fill:#fcde32;"/><path d="M1838.69,356.405l94.593,125.743l96.066,-0l-94.433,-125.615l-96.226,-0.128Z" style="fill:#fcde32;"/></g><g><path d="M1338.44,511.268l94.593,125.743l96.066,-0l-94.432,-125.616l-96.227,-0.127Z" style="fill:#fcde32;"/><path d="M1461.52,511.268l94.593,125.743l96.064,-0l-94.43,-125.616l-96.227,-0.127Z" style="fill:#fcde32;"/><path d="M1584.6,511.268l94.593,125.743l96.064,-0l-94.431,-125.616l-96.226,-0.127Z" style="fill:#fcde32;"/><path d="M1707.78,511.268l94.593,125.743l96.064,-0l-94.43,-125.616l-96.227,-0.127Z" style="fill:#fcde32;"/><path d="M1831.2,511.268l94.593,125.743l96.066,-0l-94.432,-125.616l-96.227,-0.127Z" style="fill:#fcde32;"/><path d="M1955.26,511.268l94.59,125.743l96.066,-0l-94.432,-125.616l-96.224,-0.127Z" style="fill:#fcde32;"/></g><g><path d="M1454.93,666.223l94.593,125.743l96.066,-0l-94.432,-125.616l-96.227,-0.127Z" style="fill:#fcde32;"/><path d="M1578.01,666.223l94.59,125.743l96.066,-0l-94.43,-125.616l-96.226,-0.127Z" style="fill:#fcde32;"/><path d="M1701.07,666.223l94.591,125.743l96.066,-0l-94.43,-125.616l-96.227,-0.127Z" style="fill:#fcde32;"/><path d="M1824.27,666.223l94.59,125.743l96.066,-0l-94.43,-125.616l-96.226,-0.127Z" style="fill:#fcde32;"/><path d="M1947.69,666.223l94.593,125.743l96.066,-0l-94.432,-125.616l-96.227,-0.127Z" style="fill:#fcde32;"/><path d="M2071.75,666.223l94.593,125.743l96.066,-0l-94.432,-125.616l-96.227,-0.127Z" style="fill:#fcde32;"/></g><g><path d="M1571.38,821.131l94.593,125.742l96.064,0l-94.43,-125.612l-96.227,-0.13Z" style="fill:#fcde32;"/><path d="M1694.48,821.131l94.591,125.742l96.066,0l-94.43,-125.612l-96.227,-0.13Z" style="fill:#fcde32;"/><path d="M1817.54,821.131l94.59,125.742l96.067,0l-94.43,-125.612l-96.227,-0.13Z" style="fill:#fcde32;"/><path d="M1940.74,821.131l94.591,125.742l96.066,0l-94.43,-125.612l-96.227,-0.13Z" style="fill:#fcde32;"/><path d="M2064.14,821.131l94.593,125.742l96.064,0l-94.43,-125.612l-96.227,-0.13Z" style="fill:#fcde32;"/><path d="M2188.2,821.131l94.593,125.742l96.066,0l-94.433,-125.612l-96.226,-0.13Z" style="fill:#fcde32;"/></g><g><path d="M1568.26,1281.36l94.59,-125.745l96.066,0l-94.43,125.616l-96.226,0.129Z" style="fill:#fcde32;"/><path d="M1691.35,1281.36l94.593,-125.745l96.066,0l-94.432,125.616l-96.227,0.129Z" style="fill:#fcde32;"/><path d="M1814.43,1281.36l94.593,-125.745l96.066,0l-94.432,125.616l-96.227,0.129Z" style="fill:#fcde32;"/><path d="M1937.61,1281.36l94.593,-125.745l96.066,0l-94.432,125.616l-96.227,0.129Z" style="fill:#fcde32;"/><path d="M2061.03,1281.36l94.59,-125.745l96.066,0l-94.43,125.616l-96.226,0.129Z" style="fill:#fcde32;"/><path d="M2185.08,1281.36l94.593,-125.745l96.066,0l-94.433,125.616l-96.226,0.129Z" style="fill:#fcde32;"/></g><g><path d="M1450.89,1436.27l94.59,-125.743l96.066,0l-94.432,125.613l-96.224,0.13Z" style="fill:#fcde32;"/><path d="M1574,1436.27l94.593,-125.743l96.066,0l-94.433,125.613l-96.226,0.13Z" style="fill:#fcde32;"/><path d="M1697.06,1436.27l94.593,-125.743l96.066,0l-94.432,125.613l-96.227,0.13Z" style="fill:#fcde32;"/><path d="M1820.26,1436.27l94.593,-125.743l96.066,0l-94.433,125.613l-96.226,0.13Z" style="fill:#fcde32;"/><path d="M1943.66,1436.27l94.59,-125.743l96.066,0l-94.432,125.613l-96.224,0.13Z" style="fill:#fcde32;"/><path d="M2067.71,1436.27l94.59,-125.743l96.066,0l-94.43,125.613l-96.226,0.13Z" style="fill:#fcde32;"/></g><g><path d="M1334.35,1591.18l94.591,-125.745l96.066,-0l-94.433,125.615l-96.224,0.13Z" style="fill:#fcde32;"/><path d="M1457.43,1591.18l94.593,-125.745l96.066,-0l-94.432,125.615l-96.227,0.13Z" style="fill:#fcde32;"/><path d="M1580.49,1591.18l94.592,-125.745l96.067,-0l-94.433,125.615l-96.226,0.13Z" style="fill:#fcde32;"/><path d="M1703.69,1591.18l94.593,-125.745l96.066,-0l-94.432,125.615l-96.227,0.13Z" style="fill:#fcde32;"/><path d="M1827.09,1591.18l94.59,-125.745l96.066,-0l-94.432,125.615l-96.224,0.13Z" style="fill:#fcde32;"/><path d="M1951.15,1591.18l94.593,-125.745l96.064,-0l-94.43,125.615l-96.227,0.13Z" style="fill:#fcde32;"/></g><g><path d="M1216.76,1746.09l94.593,-125.743l96.066,0l-94.432,125.616l-96.227,0.127Z" style="fill:#fcde32;"/><path d="M1339.87,1746.09l94.593,-125.743l96.066,0l-94.432,125.616l-96.227,0.127Z" style="fill:#fcde32;"/><path d="M1462.93,1746.09l94.593,-125.743l96.066,0l-94.432,125.616l-96.227,0.127Z" style="fill:#fcde32;"/><path d="M1586.13,1746.09l94.593,-125.743l96.066,0l-94.432,125.616l-96.227,0.127Z" style="fill:#fcde32;"/><path d="M1709.53,1746.09l94.593,-125.743l96.066,0l-94.432,125.616l-96.227,0.127Z" style="fill:#fcde32;"/><path d="M1833.58,1746.09l94.59,-125.743l96.066,0l-94.43,125.616l-96.226,0.127Z" style="fill:#fcde32;"/></g><g><path d="M1100.46,1901l94.593,-125.742l96.066,-0l-94.433,125.612l-96.226,0.13Z" style="fill:#fcde32;"/><path d="M1223.55,1901l94.593,-125.742l96.066,-0l-94.433,125.612l-96.226,0.13Z" style="fill:#fcde32;"/><path d="M1346.6,1901l94.593,-125.742l96.066,-0l-94.432,125.612l-96.227,0.13Z" style="fill:#fcde32;"/><path d="M1469.81,1901l94.593,-125.742l96.066,-0l-94.433,125.612l-96.226,0.13Z" style="fill:#fcde32;"/><path d="M1593.21,1901l94.593,-125.742l96.066,-0l-94.433,125.612l-96.226,0.13Z" style="fill:#fcde32;"/><path d="M1717.26,1901l94.59,-125.742l96.067,-0l-94.43,125.612l-96.227,0.13Z" style="fill:#fcde32;"/></g><g><path d="M983.558,2055.91l94.593,-125.742l96.066,-0l-94.433,125.615l-96.226,0.127Z" style="fill:#fcde32;"/><path d="M1106.64,2055.91l94.593,-125.742l96.066,-0l-94.433,125.615l-96.226,0.127Z" style="fill:#fcde32;"/><path d="M1229.72,2055.91l94.592,-125.742l96.067,-0l-94.433,125.615l-96.226,0.127Z" style="fill:#fcde32;"/><path d="M1352.9,2055.91l94.593,-125.742l96.066,-0l-94.433,125.615l-96.226,0.127Z" style="fill:#fcde32;"/><path d="M1476.32,2055.91l94.593,-125.742l96.066,-0l-94.433,125.615l-96.226,0.127Z" style="fill:#fcde32;"/><path d="M1600.38,2055.91l94.591,-125.742l96.066,-0l-94.43,125.615l-96.227,0.127Z" style="fill:#fcde32;"/></g><g><path d="M866.578,2210.82l94.593,-125.742l96.063,-0l-94.43,125.613l-96.226,0.129Z" style="fill:#fcde32;"/><path d="M989.66,2210.82l94.59,-125.742l96.066,-0l-94.432,125.613l-96.224,0.129Z" style="fill:#fcde32;"/><path d="M1112.72,2210.82l94.591,-125.742l96.066,-0l-94.433,125.613l-96.224,0.129Z" style="fill:#fcde32;"/><path d="M1235.92,2210.82l94.59,-125.742l96.066,-0l-94.432,125.613l-96.224,0.129Z" style="fill:#fcde32;"/><path d="M1359.32,2210.82l94.592,-125.742l96.064,-0l-94.43,125.613l-96.226,0.129Z" style="fill:#fcde32;"/><path d="M1483.37,2210.82l94.593,-125.742l96.066,-0l-94.433,125.613l-96.226,0.129Z" style="fill:#fcde32;"/></g><g><path d="M749.646,2365.73l94.591,-125.742l96.066,-0l-94.43,125.615l-96.227,0.127Z" style="fill:#fcde32;"/><path d="M872.728,2365.73l94.593,-125.742l96.066,-0l-94.432,125.615l-96.227,0.127Z" style="fill:#fcde32;"/><path d="M995.786,2365.73l94.593,-125.742l96.066,-0l-94.433,125.615l-96.226,0.127Z" style="fill:#fcde32;"/><path d="M1118.99,2365.73l94.593,-125.742l96.066,-0l-94.432,125.615l-96.227,0.127Z" style="fill:#fcde32;"/><path d="M1242.39,2365.73l94.591,-125.742l96.066,-0l-94.43,125.615l-96.227,0.127Z" style="fill:#fcde32;"/><path d="M1366.44,2365.73l94.593,-125.742l96.064,-0l-94.43,125.615l-96.227,0.127Z" style="fill:#fcde32;"/></g><g><path d="M632.666,2520.64l94.593,-125.743l96.066,0l-94.432,125.613l-96.227,0.13Z" style="fill:#fcde32;"/><path d="M755.772,2520.64l94.591,-125.743l96.066,0l-94.43,125.613l-96.227,0.13Z" style="fill:#fcde32;"/><path d="M878.83,2520.64l94.591,-125.743l96.066,0l-94.43,125.613l-96.227,0.13Z" style="fill:#fcde32;"/><path d="M1002.03,2520.64l94.591,-125.743l96.066,0l-94.43,125.613l-96.227,0.13Z" style="fill:#fcde32;"/><path d="M1125.43,2520.64l94.593,-125.743l96.066,0l-94.432,125.613l-96.227,0.13Z" style="fill:#fcde32;"/><path d="M1249.49,2520.64l94.593,-125.743l96.066,0l-94.433,125.613l-96.226,0.13Z" style="fill:#fcde32;"/></g><g><path d="M515.735,2675.53l94.59,-125.743l96.066,0l-94.43,125.616l-96.226,0.127Z" style="fill:#fcde32;"/><path d="M638.817,2675.53l94.593,-125.743l96.066,0l-94.433,125.616l-96.226,0.127Z" style="fill:#fcde32;"/><path d="M761.874,2675.53l94.593,-125.743l96.066,0l-94.432,125.616l-96.227,0.127Z" style="fill:#fcde32;"/><path d="M885.078,2675.53l94.593,-125.743l96.066,0l-94.433,125.616l-96.226,0.127Z" style="fill:#fcde32;"/><path d="M1008.5,2675.53l94.59,-125.743l96.067,0l-94.431,125.616l-96.226,0.127Z" style="fill:#fcde32;"/><path d="M1132.53,2675.53l94.593,-125.743l96.066,0l-94.433,125.616l-96.226,0.127Z" style="fill:#fcde32;"/></g><g><path d="M398.731,2830.46l94.592,-125.743l96.067,0l-94.433,125.613l-96.226,0.13Z" style="fill:#fcde32;"/><path d="M521.837,2830.46l94.59,-125.743l96.066,0l-94.43,125.613l-96.226,0.13Z" style="fill:#fcde32;"/><path d="M644.894,2830.46l94.591,-125.743l96.066,0l-94.43,125.613l-96.227,0.13Z" style="fill:#fcde32;"/><path d="M768.098,2830.46l94.59,-125.743l96.066,0l-94.43,125.613l-96.226,0.13Z" style="fill:#fcde32;"/><path d="M891.496,2830.46l94.592,-125.743l96.067,0l-94.433,125.613l-96.226,0.13Z" style="fill:#fcde32;"/><path d="M1015.55,2830.46l94.593,-125.743l96.066,0l-94.433,125.613l-96.226,0.13Z" style="fill:#fcde32;"/></g><g><path d="M281.799,2985.37l94.591,-125.745l96.066,0l-94.433,125.615l-96.224,0.13Z" style="fill:#fcde32;"/><path d="M404.881,2985.37l94.593,-125.745l96.066,0l-94.433,125.615l-96.226,0.13Z" style="fill:#fcde32;"/><path d="M527.939,2985.37l94.592,-125.745l96.067,0l-94.433,125.615l-96.226,0.13Z" style="fill:#fcde32;"/><path d="M651.142,2985.37l94.593,-125.745l96.066,0l-94.433,125.615l-96.226,0.13Z" style="fill:#fcde32;"/><path d="M774.54,2985.37l94.59,-125.745l96.066,0l-94.432,125.615l-96.224,0.13Z" style="fill:#fcde32;"/><path d="M898.594,2985.37l94.593,-125.745l96.064,0l-94.43,125.615l-96.227,0.13Z" style="fill:#fcde32;"/></g><g><path d="M164.843,3140.26l94.591,-125.742l96.066,-0l-94.433,125.615l-96.224,0.127Z" style="fill:#fcde32;"/><path d="M287.925,3140.26l94.593,-125.742l96.066,-0l-94.432,125.615l-96.227,0.127Z" style="fill:#fcde32;"/><path d="M410.983,3140.26l94.593,-125.742l96.066,-0l-94.433,125.615l-96.226,0.127Z" style="fill:#fcde32;"/><path d="M534.186,3140.26l94.593,-125.742l96.066,-0l-94.432,125.615l-96.227,0.127Z" style="fill:#fcde32;"/><path d="M657.584,3140.26l94.591,-125.742l96.066,-0l-94.433,125.615l-96.224,0.127Z" style="fill:#fcde32;"/><path d="M781.638,3140.26l94.593,-125.742l96.064,-0l-94.43,125.615l-96.227,0.127Z" style="fill:#fcde32;"/></g><g><path d="M47.839,3295.17l94.593,-125.742l96.066,-0l-94.432,125.613l-96.227,0.129Z" style="fill:#fcde32;"/><path d="M170.921,3295.17l94.593,-125.742l96.066,-0l-94.433,125.613l-96.226,0.129Z" style="fill:#fcde32;"/><path d="M294.003,3295.17l94.593,-125.742l96.066,-0l-94.433,125.613l-96.226,0.129Z" style="fill:#fcde32;"/><path d="M417.206,3295.17l94.593,-125.742l96.066,-0l-94.432,125.613l-96.227,0.129Z" style="fill:#fcde32;"/><path d="M540.604,3295.17l94.593,-125.742l96.066,-0l-94.432,125.613l-96.227,0.129Z" style="fill:#fcde32;"/><path d="M664.658,3295.17l94.591,-125.742l96.066,-0l-94.43,125.613l-96.227,0.129Z" style="fill:#fcde32;"/></g><g><path d="M1688.28,976.041l55.026,73.147l-56.19,74.423l95.692,0l56.175,-74.35l-55.045,-73.22l-95.658,-0Z" style="fill:#fcde32;"/><path d="M1811.49,976.041l55.026,73.147l-56.191,74.423l95.692,0l56.176,-74.35l-55.046,-73.22l-95.657,-0Z" style="fill:#fcde32;"/><path d="M1934.54,976.041l55.029,73.147l-56.193,74.423l95.692,0l56.175,-74.35l-55.045,-73.22l-95.658,-0Z" style="fill:#fcde32;"/><path d="M2057.92,976.041l55.026,73.147l-56.19,74.423l95.691,0l56.176,-74.35l-55.045,-73.22l-95.658,-0Z" style="fill:#fcde32;"/><path d="M2181.44,976.041l55.029,73.147l-56.193,74.423l95.692,0l56.175,-74.35l-55.045,-73.22l-95.658,-0Z" style="fill:#fcde32;"/><path d="M2304.81,976.041l55.026,73.147l-56.19,74.423l95.691,0l56.176,-74.35l-55.045,-73.22l-95.658,-0Z" style="fill:#fcde32;"/></g></g><path d="M2169.35,485.402c-9.887,13.011 -9.928,31.249 -0.097,44.307c56.577,75.159 241.38,320.654 312.567,415.22c6.773,8.997 17.223,14.263 28.299,14.256c11.076,-0.005 21.522,-5.281 28.285,-14.286c131.556,-175.138 677.429,-901.838 677.429,-901.838l-710.296,-0.077c-0,-0 -266.011,350.066 -336.187,442.418Z"/><path d="M2170.96,1617.04c-10.828,-14.249 -10.872,-34.219 -0.107,-48.52c59.807,-79.452 249.509,-331.453 315.994,-419.775c5.575,-7.402 14.173,-11.735 23.287,-11.73c9.111,0.005 17.707,4.348 23.272,11.755c122.007,162.422 682.439,908.507 682.439,908.507l-710.296,0.077c-0,0 -262.07,-344.88 -334.589,-440.314Z"/><g><path d="M1997.41,3282.37c-68.331,0 -129.376,-14.952 -183.14,-44.855c-53.764,-29.902 -92.884,-72.971 -117.357,-129.205l103.768,-52.293c15.789,35.412 40.639,62.546 74.549,81.401c33.913,18.853 74.639,28.282 122.18,28.282c31.944,-0 60.479,-4.844 85.603,-14.535c25.125,-9.689 45.127,-24.009 60.002,-42.959c14.878,-18.951 22.315,-41.971 22.315,-69.057c-0,-30.371 -8.122,-53.426 -24.366,-69.165c-16.242,-15.74 -37.931,-27.54 -65.064,-35.397c-27.13,-7.856 -56.871,-14.817 -89.22,-20.881c-30.791,-6.025 -62.215,-13.734 -94.272,-23.131c-32.056,-9.396 -61.877,-22.713 -89.456,-39.954c-27.583,-17.238 -49.707,-39.892 -66.374,-67.956c-16.67,-28.067 -25.003,-63.806 -25.003,-107.222c-0,-45.6 12.386,-86.375 37.155,-122.331c24.772,-35.953 58.14,-64.377 100.104,-85.267c41.964,-20.891 88.608,-31.336 139.936,-31.336c62.657,0 119.489,14.53 170.492,43.59c51.005,29.061 88.617,71.703 112.837,127.922l-102.933,53.156c-15.787,-33.879 -39.4,-60.354 -70.837,-79.419c-31.436,-19.065 -69.532,-28.598 -114.287,-28.598c-27.286,-0 -52.147,4.921 -74.588,14.764c-22.441,9.843 -40.379,23.692 -53.813,41.552c-13.431,17.859 -20.148,38.392 -20.148,61.599c-0,29.542 8.453,52.373 25.363,68.496c16.907,16.122 39.316,28.384 67.227,36.784c27.91,8.399 58.3,16.041 91.167,22.921c30.792,6.025 62.025,13.734 93.704,23.131c31.676,9.396 60.775,22.713 87.292,39.954c26.518,17.238 47.981,39.969 64.39,68.186c16.407,28.219 24.612,64.158 24.612,107.816c-0,47.858 -12.977,90.046 -38.933,126.561c-25.953,36.515 -60.928,65.218 -104.925,86.11c-43.996,20.892 -93.323,31.336 -147.98,31.336Z" style="fill-rule:nonzero;"/><path d="M2852.98,3283.66c-58.797,0 -113.557,-10.684 -164.283,-32.055c-50.725,-21.369 -95.181,-51.317 -133.367,-89.844c-38.184,-38.527 -67.874,-83.717 -89.068,-135.571c-21.193,-51.854 -31.79,-107.855 -31.79,-168.007c0,-59.591 10.597,-115.034 31.79,-166.334c21.194,-51.297 50.884,-96.21 89.068,-134.737c38.186,-38.526 82.642,-68.475 133.367,-89.844c50.726,-21.371 105.486,-32.055 164.283,-32.055c59.061,0 113.888,10.684 164.482,32.055c50.591,21.369 94.841,51.318 132.747,89.844c37.907,38.527 67.456,83.44 88.652,134.737c21.193,51.3 31.79,106.743 31.79,166.334c0,60.152 -10.597,116.153 -31.79,168.007c-21.196,51.854 -50.884,97.044 -89.07,135.571c-38.184,38.527 -82.433,68.475 -132.747,89.844c-50.315,21.371 -105.003,32.055 -164.064,32.055Zm-0,-118.567c40.046,-0 77.707,-7.899 112.986,-23.695c35.281,-15.798 66.208,-37.565 92.781,-65.306c26.576,-27.74 47.288,-60.212 62.139,-97.418c14.851,-37.206 22.278,-77.37 22.278,-120.491c0,-42.83 -7.427,-82.642 -22.278,-119.439c-14.851,-36.797 -35.563,-69.064 -62.139,-96.804c-26.573,-27.74 -57.362,-49.366 -92.363,-64.874c-34.999,-15.511 -72.802,-23.266 -113.404,-23.266c-40.591,0 -78.527,7.755 -113.805,23.266c-35.279,15.508 -66.206,37.134 -92.782,64.874c-26.574,27.74 -47.291,60.007 -62.149,96.804c-14.856,36.797 -22.285,76.609 -22.285,119.439c0,43.121 7.429,83.285 22.285,120.491c14.858,37.206 35.575,69.678 62.149,97.418c26.576,27.741 57.503,49.508 92.782,65.306c35.278,15.796 73.214,23.695 113.805,23.695Z" style="fill-rule:nonzero;"/><path d="M3569.98,2448.14l-0,705.523l404.741,0l-0,115.81l-414.273,-0c-41.072,-0 -70.404,-10.15 -87.995,-30.448c-17.593,-20.295 -26.389,-47.674 -26.389,-82.127l0,-708.758l123.916,-0Z" style="fill-rule:nonzero;"/><path d="M4681.39,3068.38l-476.203,0.841l-0,-113.051l476.203,-0l-0,112.21Zm-617.877,201.116l223.164,-721.321c12.053,-38.871 31.98,-67.62 59.776,-86.245c27.796,-18.626 58.589,-27.938 92.38,-27.938c34.603,0 65.601,9.312 92.991,27.938c27.393,18.625 47.116,47.374 59.169,86.245l223.164,721.321l-126.272,0l-202.238,-684.577c-7.988,-25.556 -23.466,-38.334 -46.432,-38.334c-22.953,-0 -38.155,12.778 -45.598,38.334l-203.833,684.577l-126.271,0Z" style="fill-rule:nonzero;"/><path d="M5125.36,3269.49l-122.323,0l-0,-821.333l283.9,0c57.593,0 109.541,8.952 155.84,26.854c46.301,17.905 83.048,45.255 110.244,82.052c27.195,36.797 40.794,83.31 40.794,139.544c0,46.314 -10.621,86.947 -31.858,121.899c-21.24,34.953 -50.874,62.209 -88.907,81.773c-38.033,19.564 -83.174,29.345 -135.426,29.345l-34.071,-27.765c47.504,-0 85.79,8.383 114.86,25.152c29.068,16.766 54.032,41.307 74.89,73.617c20.86,32.309 42.506,71.492 64.942,117.551l73.856,151.311l-134.191,0l-68.236,-137.984c-15.585,-32.247 -31.829,-60.394 -48.732,-84.445c-16.901,-24.049 -37.209,-42.732 -60.924,-56.047c-23.712,-13.315 -54.68,-19.971 -92.903,-19.971l-116.282,0l-0,-112.67l174.432,0c35.223,0 66.488,-5.703 93.798,-17.111c27.31,-11.405 48.819,-28.181 64.531,-50.331c15.711,-22.147 23.568,-49.752 23.568,-82.816c0,-34.134 -7.995,-61.664 -23.986,-82.586c-15.989,-20.924 -37.574,-36.41 -64.75,-46.466c-27.176,-10.053 -57.418,-15.079 -90.73,-15.079l-160.741,0l-1.595,705.506Z" style="fill-rule:nonzero;"/></g></svg>