<?xml version="1.0" encoding="UTF-8" standalone="no"?>
<!DOCTYPE svg PUBLIC "-//W3C//DTD SVG 1.1//EN" "http://www.w3.org/Graphics/SVG/1.1/DTD/svg11.dtd">
<svg width="100%" height="100%" viewBox="0 0 5689 3334" version="1.1" xmlns="http://www.w3.org/2000/svg" xmlns:xlink="http://www.w3.org/1999/xlink" xml:space="preserve" xmlns:serif="http://www.serif.com/" style="fill-rule:evenodd;clip-rule:evenodd;stroke-linejoin:round;stroke-miterlimit:2;">
    <g transform="matrix(5.55556,0,0,5.55556,0,0)">
        <g transform="matrix(0.437581,0,0,0.449232,-1384.46,-183.795)">
            <g transform="matrix(1,0,0,1,-6,-26.038)">
                <path d="M3575.88,452.698L3614.79,503.081L3654.31,503.081L3615.46,452.749L3575.88,452.698Z" style="fill:rgb(253,224,71);"/>
                <path d="M3626.75,452.698L3665.66,503.081L3705.18,503.081L3666.33,452.749L3626.75,452.698Z" style="fill:rgb(253,224,71);"/>
                <path d="M3677.37,452.698L3716.28,503.081L3755.8,503.081L3716.95,452.749L3677.37,452.698Z" style="fill:rgb(253,224,71);"/>
                <path d="M3728.05,452.698L3766.96,503.081L3806.48,503.081L3767.63,452.749L3728.05,452.698Z" style="fill:rgb(253,224,71);"/>
                <path d="M3778.81,452.698L3817.72,503.081L3857.24,503.081L3818.39,452.749L3778.81,452.698Z" style="fill:rgb(253,224,71);"/>
                <path d="M3829.55,452.698L3868.46,503.081L3907.98,503.081L3869.13,452.749L3829.55,452.698Z" style="fill:rgb(253,224,71);"/>
            </g>
            <g transform="matrix(1,0,0,1,-6,-26.038)">
                <path d="M3624.66,515.905L3663.57,566.288L3703.09,566.288L3664.24,515.957L3624.66,515.905Z" style="fill:rgb(253,224,71);"/>
                <path d="M3675.53,515.905L3714.44,566.288L3753.96,566.288L3715.11,515.957L3675.53,515.905Z" style="fill:rgb(253,224,71);"/>
                <path d="M3726.15,515.905L3765.06,566.288L3804.58,566.288L3765.73,515.957L3726.15,515.905Z" style="fill:rgb(253,224,71);"/>
                <path d="M3776.83,515.905L3815.74,566.288L3855.26,566.288L3816.41,515.957L3776.83,515.905Z" style="fill:rgb(253,224,71);"/>
                <path d="M3827.6,515.905L3866.51,566.288L3906.03,566.288L3867.18,515.957L3827.6,515.905Z" style="fill:rgb(253,224,71);"/>
                <path d="M3878.33,515.905L3917.24,566.288L3956.76,566.288L3917.91,515.957L3878.33,515.905Z" style="fill:rgb(253,224,71);"/>
            </g>
            <g transform="matrix(1,0,0,1,-6,-26.038)">
                <path d="M3672.57,577.975L3711.48,628.358L3751,628.358L3712.15,578.026L3672.57,577.975Z" style="fill:rgb(253,224,71);"/>
                <path d="M3723.43,577.975L3762.34,628.358L3801.86,628.358L3763.01,578.026L3723.43,577.975Z" style="fill:rgb(253,224,71);"/>
                <path d="M3774.06,577.975L3812.97,628.358L3852.49,628.358L3813.64,578.026L3774.06,577.975Z" style="fill:rgb(253,224,71);"/>
                <path d="M3824.74,577.975L3863.65,628.358L3903.17,628.358L3864.32,578.026L3824.74,577.975Z" style="fill:rgb(253,224,71);"/>
                <path d="M3875.5,577.975L3914.41,628.358L3953.93,628.358L3915.08,578.026L3875.5,577.975Z" style="fill:rgb(253,224,71);"/>
                <path d="M3926.24,577.975L3965.15,628.358L4004.67,628.358L3965.82,578.026L3926.24,577.975Z" style="fill:rgb(253,224,71);"/>
            </g>
            <g transform="matrix(1,0,0,1,-6,-26.038)">
                <path d="M3720.46,640.026L3759.37,690.409L3798.89,690.409L3760.04,640.077L3720.46,640.026Z" style="fill:rgb(253,224,71);"/>
                <path d="M3771.09,640.026L3810,690.409L3849.52,690.409L3810.67,640.077L3771.09,640.026Z" style="fill:rgb(253,224,71);"/>
                <path d="M3821.72,640.026L3860.63,690.409L3900.15,690.409L3861.3,640.077L3821.72,640.026Z" style="fill:rgb(253,224,71);"/>
                <path d="M3872.39,640.026L3911.3,690.409L3950.82,690.409L3911.97,640.077L3872.39,640.026Z" style="fill:rgb(253,224,71);"/>
                <path d="M3923.16,640.026L3962.07,690.409L4001.59,690.409L3962.74,640.077L3923.16,640.026Z" style="fill:rgb(253,224,71);"/>
                <path d="M3974.19,640.026L4013.1,690.409L4052.62,690.409L4013.77,640.077L3974.19,640.026Z" style="fill:rgb(253,224,71);"/>
            </g>
            <g transform="matrix(1,0,0,1,-6,-26.038)">
                <path d="M3768.38,702.114L3807.29,752.497L3846.81,752.497L3807.96,702.165L3768.38,702.114Z" style="fill:rgb(253,224,71);"/>
                <path d="M3819.01,702.114L3857.92,752.497L3897.44,752.497L3858.59,702.165L3819.01,702.114Z" style="fill:rgb(253,224,71);"/>
                <path d="M3869.63,702.114L3908.54,752.497L3948.06,752.497L3909.21,702.165L3869.63,702.114Z" style="fill:rgb(253,224,71);"/>
                <path d="M3920.31,702.114L3959.22,752.497L3998.74,752.497L3959.89,702.165L3920.31,702.114Z" style="fill:rgb(253,224,71);"/>
                <path d="M3971.08,702.114L4009.99,752.497L4049.51,752.497L4010.66,702.165L3971.08,702.114Z" style="fill:rgb(253,224,71);"/>
                <path d="M4022.11,702.114L4061.02,752.497L4100.54,752.497L4061.69,702.165L4022.11,702.114Z" style="fill:rgb(253,224,71);"/>
            </g>
            <g transform="matrix(1,0,0,1,-6,-26.038)">
                <path d="M3816.28,764.183L3855.19,814.566L3894.71,814.566L3855.86,764.235L3816.28,764.183Z" style="fill:rgb(253,224,71);"/>
                <path d="M3866.92,764.183L3905.83,814.566L3945.35,814.566L3906.5,764.235L3866.92,764.183Z" style="fill:rgb(253,224,71);"/>
                <path d="M3917.54,764.183L3956.45,814.566L3995.97,814.566L3957.12,764.235L3917.54,764.183Z" style="fill:rgb(253,224,71);"/>
                <path d="M3968.22,764.183L4007.13,814.566L4046.65,814.566L4007.8,764.235L3968.22,764.183Z" style="fill:rgb(253,224,71);"/>
                <path d="M4018.98,764.183L4057.89,814.566L4097.41,814.566L4058.56,764.235L4018.98,764.183Z" style="fill:rgb(253,224,71);"/>
                <path d="M4070.01,764.183L4108.92,814.566L4148.44,814.566L4109.59,764.235L4070.01,764.183Z" style="fill:rgb(253,224,71);"/>
            </g>
            <g transform="matrix(1,0,0,1,-6,-26.038)">
                <path d="M3815,948.59L3853.91,898.206L3893.43,898.206L3854.58,948.538L3815,948.59Z" style="fill:rgb(253,224,71);"/>
                <path d="M3865.63,948.59L3904.54,898.206L3944.06,898.206L3905.21,948.538L3865.63,948.59Z" style="fill:rgb(253,224,71);"/>
                <path d="M3916.26,948.59L3955.17,898.206L3994.69,898.206L3955.84,948.538L3916.26,948.59Z" style="fill:rgb(253,224,71);"/>
                <path d="M3966.93,948.59L4005.84,898.206L4045.36,898.206L4006.51,948.538L3966.93,948.59Z" style="fill:rgb(253,224,71);"/>
                <path d="M4017.7,948.59L4056.61,898.206L4096.13,898.206L4057.28,948.538L4017.7,948.59Z" style="fill:rgb(253,224,71);"/>
                <path d="M4068.73,948.59L4107.64,898.206L4147.16,898.206L4108.31,948.538L4068.73,948.59Z" style="fill:rgb(253,224,71);"/>
            </g>
            <g transform="matrix(1,0,0,1,-6,-26.038)">
                <path d="M3766.72,1010.66L3805.63,960.277L3845.15,960.277L3806.3,1010.61L3766.72,1010.66Z" style="fill:rgb(253,224,71);"/>
                <path d="M3817.36,1010.66L3856.27,960.277L3895.79,960.277L3856.94,1010.61L3817.36,1010.66Z" style="fill:rgb(253,224,71);"/>
                <path d="M3867.98,1010.66L3906.89,960.277L3946.41,960.277L3907.56,1010.61L3867.98,1010.66Z" style="fill:rgb(253,224,71);"/>
                <path d="M3918.66,1010.66L3957.57,960.277L3997.09,960.277L3958.24,1010.61L3918.66,1010.66Z" style="fill:rgb(253,224,71);"/>
                <path d="M3969.42,1010.66L4008.33,960.277L4047.85,960.277L4009,1010.61L3969.42,1010.66Z" style="fill:rgb(253,224,71);"/>
                <path d="M4020.45,1010.66L4059.36,960.277L4098.88,960.277L4060.03,1010.61L4020.45,1010.66Z" style="fill:rgb(253,224,71);"/>
            </g>
            <g transform="matrix(1,0,0,1,-6,-26.038)">
                <path d="M3718.78,1072.73L3757.69,1022.35L3797.21,1022.35L3758.36,1072.68L3718.78,1072.73Z" style="fill:rgb(253,224,71);"/>
                <path d="M3769.41,1072.73L3808.32,1022.35L3847.84,1022.35L3808.99,1072.68L3769.41,1072.73Z" style="fill:rgb(253,224,71);"/>
                <path d="M3820.03,1072.73L3858.94,1022.35L3898.46,1022.35L3859.61,1072.68L3820.03,1072.73Z" style="fill:rgb(253,224,71);"/>
                <path d="M3870.71,1072.73L3909.62,1022.35L3949.14,1022.35L3910.29,1072.68L3870.71,1072.73Z" style="fill:rgb(253,224,71);"/>
                <path d="M3921.47,1072.73L3960.38,1022.35L3999.9,1022.35L3961.05,1072.68L3921.47,1072.73Z" style="fill:rgb(253,224,71);"/>
                <path d="M3972.5,1072.73L4011.41,1022.35L4050.93,1022.35L4012.08,1072.68L3972.5,1072.73Z" style="fill:rgb(253,224,71);"/>
            </g>
            <g transform="matrix(1,0,0,1,-6,-26.038)">
                <path d="M3670.41,1134.8L3709.32,1084.42L3748.84,1084.42L3709.99,1134.75L3670.41,1134.8Z" style="fill:rgb(253,224,71);"/>
                <path d="M3721.05,1134.8L3759.96,1084.42L3799.48,1084.42L3760.63,1134.75L3721.05,1134.8Z" style="fill:rgb(253,224,71);"/>
                <path d="M3771.67,1134.8L3810.58,1084.42L3850.1,1084.42L3811.25,1134.75L3771.67,1134.8Z" style="fill:rgb(253,224,71);"/>
                <path d="M3822.35,1134.8L3861.26,1084.42L3900.78,1084.42L3861.93,1134.75L3822.35,1134.8Z" style="fill:rgb(253,224,71);"/>
                <path d="M3873.11,1134.8L3912.02,1084.42L3951.54,1084.42L3912.69,1134.75L3873.11,1134.8Z" style="fill:rgb(253,224,71);"/>
                <path d="M3924.14,1134.8L3963.05,1084.42L4002.57,1084.42L3963.72,1134.75L3924.14,1134.8Z" style="fill:rgb(253,224,71);"/>
            </g>
            <g transform="matrix(1,0,0,1,-6,-26.038)">
                <path d="M3622.57,1196.87L3661.48,1146.49L3701,1146.49L3662.15,1196.82L3622.57,1196.87Z" style="fill:rgb(253,224,71);"/>
                <path d="M3673.2,1196.87L3712.11,1146.49L3751.63,1146.49L3712.78,1196.82L3673.2,1196.87Z" style="fill:rgb(253,224,71);"/>
                <path d="M3723.82,1196.87L3762.73,1146.49L3802.25,1146.49L3763.4,1196.82L3723.82,1196.87Z" style="fill:rgb(253,224,71);"/>
                <path d="M3774.5,1196.87L3813.41,1146.49L3852.93,1146.49L3814.08,1196.82L3774.5,1196.87Z" style="fill:rgb(253,224,71);"/>
                <path d="M3825.26,1196.87L3864.17,1146.49L3903.69,1146.49L3864.84,1196.82L3825.26,1196.87Z" style="fill:rgb(253,224,71);"/>
                <path d="M3876.29,1196.87L3915.2,1146.49L3954.72,1146.49L3915.87,1196.82L3876.29,1196.87Z" style="fill:rgb(253,224,71);"/>
            </g>
            <g transform="matrix(1,0,0,1,-6,-26.038)">
                <path d="M3574.48,1258.94L3613.39,1208.56L3652.91,1208.56L3614.06,1258.89L3574.48,1258.94Z" style="fill:rgb(253,224,71);"/>
                <path d="M3625.11,1258.94L3664.02,1208.56L3703.54,1208.56L3664.69,1258.89L3625.11,1258.94Z" style="fill:rgb(253,224,71);"/>
                <path d="M3675.74,1258.94L3714.65,1208.56L3754.17,1208.56L3715.32,1258.89L3675.74,1258.94Z" style="fill:rgb(253,224,71);"/>
                <path d="M3726.41,1258.94L3765.32,1208.56L3804.84,1208.56L3765.99,1258.89L3726.41,1258.94Z" style="fill:rgb(253,224,71);"/>
                <path d="M3777.18,1258.94L3816.09,1208.56L3855.61,1208.56L3816.76,1258.89L3777.18,1258.94Z" style="fill:rgb(253,224,71);"/>
                <path d="M3828.21,1258.94L3867.12,1208.56L3906.64,1208.56L3867.79,1258.89L3828.21,1258.94Z" style="fill:rgb(253,224,71);"/>
            </g>
            <g transform="matrix(1,0,0,1,-6,-26.038)">
                <path d="M3526.36,1321.01L3565.27,1270.63L3604.79,1270.63L3565.94,1320.96L3526.36,1321.01Z" style="fill:rgb(253,224,71);"/>
                <path d="M3576.99,1321.01L3615.9,1270.63L3655.42,1270.63L3616.57,1320.96L3576.99,1321.01Z" style="fill:rgb(253,224,71);"/>
                <path d="M3627.61,1321.01L3666.52,1270.63L3706.04,1270.63L3667.19,1320.96L3627.61,1321.01Z" style="fill:rgb(253,224,71);"/>
                <path d="M3678.29,1321.01L3717.2,1270.63L3756.72,1270.63L3717.87,1320.96L3678.29,1321.01Z" style="fill:rgb(253,224,71);"/>
                <path d="M3729.05,1321.01L3767.96,1270.63L3807.48,1270.63L3768.63,1320.96L3729.05,1321.01Z" style="fill:rgb(253,224,71);"/>
                <path d="M3780.08,1321.01L3818.99,1270.63L3858.51,1270.63L3819.66,1320.96L3780.08,1321.01Z" style="fill:rgb(253,224,71);"/>
            </g>
            <g transform="matrix(1,0,0,1,-6,-26.038)">
                <path d="M3478.26,1383.08L3517.17,1332.7L3556.69,1332.7L3517.84,1383.03L3478.26,1383.08Z" style="fill:rgb(253,224,71);"/>
                <path d="M3528.89,1383.08L3567.8,1332.7L3607.32,1332.7L3568.47,1383.03L3528.89,1383.08Z" style="fill:rgb(253,224,71);"/>
                <path d="M3579.51,1383.08L3618.42,1332.7L3657.94,1332.7L3619.09,1383.03L3579.51,1383.08Z" style="fill:rgb(253,224,71);"/>
                <path d="M3630.19,1383.08L3669.1,1332.7L3708.62,1332.7L3669.77,1383.03L3630.19,1383.08Z" style="fill:rgb(253,224,71);"/>
                <path d="M3680.95,1383.08L3719.86,1332.7L3759.38,1332.7L3720.53,1383.03L3680.95,1383.08Z" style="fill:rgb(253,224,71);"/>
                <path d="M3731.98,1383.08L3770.89,1332.7L3810.41,1332.7L3771.56,1383.03L3731.98,1383.08Z" style="fill:rgb(253,224,71);"/>
            </g>
            <g transform="matrix(1,0,0,1,-6,-26.038)">
                <path d="M3430.14,1445.15L3469.05,1394.77L3508.57,1394.77L3469.72,1445.1L3430.14,1445.15Z" style="fill:rgb(253,224,71);"/>
                <path d="M3480.78,1445.15L3519.69,1394.77L3559.21,1394.77L3520.36,1445.1L3480.78,1445.15Z" style="fill:rgb(253,224,71);"/>
                <path d="M3531.4,1445.15L3570.31,1394.77L3609.83,1394.77L3570.98,1445.1L3531.4,1445.15Z" style="fill:rgb(253,224,71);"/>
                <path d="M3582.08,1445.15L3620.99,1394.77L3660.51,1394.77L3621.66,1445.1L3582.08,1445.15Z" style="fill:rgb(253,224,71);"/>
                <path d="M3632.84,1445.15L3671.75,1394.77L3711.27,1394.77L3672.42,1445.1L3632.84,1445.15Z" style="fill:rgb(253,224,71);"/>
                <path d="M3683.87,1445.15L3722.78,1394.77L3762.3,1394.77L3723.45,1445.1L3683.87,1445.15Z" style="fill:rgb(253,224,71);"/>
            </g>
            <g transform="matrix(1,0,0,1,-6,-26.038)">
                <path d="M3382.04,1507.21L3420.95,1456.83L3460.47,1456.83L3421.62,1507.16L3382.04,1507.21Z" style="fill:rgb(253,224,71);"/>
                <path d="M3432.67,1507.21L3471.58,1456.83L3511.1,1456.83L3472.25,1507.16L3432.67,1507.21Z" style="fill:rgb(253,224,71);"/>
                <path d="M3483.29,1507.21L3522.2,1456.83L3561.72,1456.83L3522.87,1507.16L3483.29,1507.21Z" style="fill:rgb(253,224,71);"/>
                <path d="M3533.97,1507.21L3572.88,1456.83L3612.4,1456.83L3573.55,1507.16L3533.97,1507.21Z" style="fill:rgb(253,224,71);"/>
                <path d="M3584.74,1507.21L3623.65,1456.83L3663.17,1456.83L3624.32,1507.16L3584.74,1507.21Z" style="fill:rgb(253,224,71);"/>
                <path d="M3635.76,1507.21L3674.67,1456.83L3714.19,1456.83L3675.34,1507.16L3635.76,1507.21Z" style="fill:rgb(253,224,71);"/>
            </g>
            <g transform="matrix(1,0,0,1,-6,-26.038)">
                <path d="M3333.91,1569.29L3372.82,1518.91L3412.34,1518.91L3373.49,1569.24L3333.91,1569.29Z" style="fill:rgb(253,224,71);"/>
                <path d="M3384.55,1569.29L3423.46,1518.91L3462.98,1518.91L3424.13,1569.24L3384.55,1569.29Z" style="fill:rgb(253,224,71);"/>
                <path d="M3435.17,1569.29L3474.08,1518.91L3513.6,1518.91L3474.75,1569.24L3435.17,1569.29Z" style="fill:rgb(253,224,71);"/>
                <path d="M3485.85,1569.29L3524.76,1518.91L3564.28,1518.91L3525.43,1569.24L3485.85,1569.29Z" style="fill:rgb(253,224,71);"/>
                <path d="M3536.61,1569.29L3575.52,1518.91L3615.04,1518.91L3576.19,1569.24L3536.61,1569.29Z" style="fill:rgb(253,224,71);"/>
                <path d="M3587.64,1569.29L3626.55,1518.91L3666.07,1518.91L3627.22,1569.24L3587.64,1569.29Z" style="fill:rgb(253,224,71);"/>
            </g>
            <g transform="matrix(1,0,0,1,-6,-26.038)">
                <path d="M3285.81,1631.36L3324.72,1580.98L3364.24,1580.98L3325.39,1631.31L3285.81,1631.36Z" style="fill:rgb(253,224,71);"/>
                <path d="M3336.44,1631.36L3375.35,1580.98L3414.87,1580.98L3376.02,1631.31L3336.44,1631.36Z" style="fill:rgb(253,224,71);"/>
                <path d="M3387.06,1631.36L3425.97,1580.98L3465.49,1580.98L3426.64,1631.31L3387.06,1631.36Z" style="fill:rgb(253,224,71);"/>
                <path d="M3437.74,1631.36L3476.65,1580.98L3516.17,1580.98L3477.32,1631.31L3437.74,1631.36Z" style="fill:rgb(253,224,71);"/>
                <path d="M3488.5,1631.36L3527.41,1580.98L3566.93,1580.98L3528.08,1631.31L3488.5,1631.36Z" style="fill:rgb(253,224,71);"/>
                <path d="M3539.53,1631.36L3578.44,1580.98L3617.96,1580.98L3579.11,1631.31L3539.53,1631.36Z" style="fill:rgb(253,224,71);"/>
            </g>
            <g transform="matrix(1,0,0,1,-6,-26.038)">
                <path d="M3237.7,1693.42L3276.61,1643.04L3316.13,1643.04L3277.28,1693.37L3237.7,1693.42Z" style="fill:rgb(253,224,71);"/>
                <path d="M3288.33,1693.42L3327.24,1643.04L3366.76,1643.04L3327.91,1693.37L3288.33,1693.42Z" style="fill:rgb(253,224,71);"/>
                <path d="M3338.95,1693.42L3377.86,1643.04L3417.38,1643.04L3378.53,1693.37L3338.95,1693.42Z" style="fill:rgb(253,224,71);"/>
                <path d="M3389.63,1693.42L3428.54,1643.04L3468.06,1643.04L3429.21,1693.37L3389.63,1693.42Z" style="fill:rgb(253,224,71);"/>
                <path d="M3440.39,1693.42L3479.3,1643.04L3518.82,1643.04L3479.97,1693.37L3440.39,1693.42Z" style="fill:rgb(253,224,71);"/>
                <path d="M3491.42,1693.42L3530.33,1643.04L3569.85,1643.04L3531,1693.37L3491.42,1693.42Z" style="fill:rgb(253,224,71);"/>
            </g>
            <g transform="matrix(1,0,0,1,-6,-26.038)">
                <path d="M3189.57,1755.49L3228.48,1705.11L3268,1705.11L3229.15,1755.44L3189.57,1755.49Z" style="fill:rgb(253,224,71);"/>
                <path d="M3240.2,1755.49L3279.11,1705.11L3318.63,1705.11L3279.78,1755.44L3240.2,1755.49Z" style="fill:rgb(253,224,71);"/>
                <path d="M3290.83,1755.49L3329.74,1705.11L3369.26,1705.11L3330.41,1755.44L3290.83,1755.49Z" style="fill:rgb(253,224,71);"/>
                <path d="M3341.51,1755.49L3380.42,1705.11L3419.94,1705.11L3381.09,1755.44L3341.51,1755.49Z" style="fill:rgb(253,224,71);"/>
                <path d="M3392.27,1755.49L3431.18,1705.11L3470.7,1705.11L3431.85,1755.44L3392.27,1755.49Z" style="fill:rgb(253,224,71);"/>
                <path d="M3443.3,1755.49L3482.21,1705.11L3521.73,1705.11L3482.88,1755.44L3443.3,1755.49Z" style="fill:rgb(253,224,71);"/>
            </g>
            <g transform="matrix(1,0,0,1,-6,-26.038)">
                <path d="M3864.37,826.253L3887.01,855.562L3863.89,885.382L3903.25,885.382L3926.36,855.591L3903.72,826.253L3864.37,826.253Z" style="fill:rgb(253,224,71);"/>
                <path d="M3915.05,826.253L3937.68,855.562L3914.57,885.382L3953.93,885.382L3977.04,855.591L3954.4,826.253L3915.05,826.253Z" style="fill:rgb(253,224,71);"/>
                <path d="M3965.67,826.253L3988.31,855.562L3965.19,885.382L4004.55,885.382L4027.66,855.591L4005.02,826.253L3965.67,826.253Z" style="fill:rgb(253,224,71);"/>
                <path d="M4016.42,826.253L4039.06,855.562L4015.94,885.382L4055.3,885.382L4078.41,855.591L4055.77,826.253L4016.42,826.253Z" style="fill:rgb(253,224,71);"/>
                <path d="M4067.23,826.253L4089.87,855.562L4066.75,885.382L4106.11,885.382L4129.22,855.591L4106.58,826.253L4067.23,826.253Z" style="fill:rgb(253,224,71);"/>
                <path d="M4117.98,826.253L4140.61,855.562L4117.5,885.382L4156.86,885.382L4179.97,855.591L4157.33,826.253L4117.98,826.253Z" style="fill:rgb(253,224,71);"/>
            </g>
        </g>
        <g transform="matrix(0.437581,0,0,0.449232,-1387.08,-195.492)">
            <path d="M4062.26,629.662C4058.19,634.875 4058.18,642.183 4062.22,647.415C4085.49,677.53 4161.51,775.896 4190.8,813.787C4193.58,817.392 4197.88,819.502 4202.44,819.499C4206.99,819.497 4211.29,817.383 4214.07,813.775C4268.19,743.6 4492.73,452.423 4492.73,452.423L4200.55,452.392C4200.55,452.392 4091.13,592.658 4062.26,629.662Z"/>
        </g>
        <g transform="matrix(0.437581,0,0,0.449232,-1387.08,-195.492)">
            <path d="M4062.92,1083.09C4058.47,1077.38 4058.45,1069.38 4062.88,1063.65C4087.48,1031.81 4165.51,930.841 4192.86,895.452C4195.15,892.486 4198.69,890.75 4202.44,890.752C4206.19,890.754 4209.72,892.494 4212.01,895.462C4262.2,960.542 4492.74,1259.49 4492.74,1259.49L4200.55,1259.52C4200.55,1259.52 4092.75,1121.33 4062.92,1083.09Z"/>
        </g>
        <g transform="matrix(0.437581,0,0,0.449232,-1384.46,-183.795)">
            <g transform="matrix(1,0,0,1,-6,-26.038)">
                <path d="M3991.53,1750.36C3963.42,1750.36 3938.31,1744.37 3916.2,1732.39C3894.08,1720.41 3877.99,1703.15 3867.92,1680.62L3910.61,1659.66C3917.1,1673.85 3927.32,1684.73 3941.27,1692.28C3955.22,1699.83 3971.97,1703.61 3991.53,1703.61C4004.67,1703.61 4016.41,1701.67 4026.74,1697.79C4037.08,1693.91 4045.31,1688.17 4051.43,1680.58C4057.55,1672.98 4060.6,1663.76 4060.6,1652.9C4060.6,1640.74 4057.26,1631.5 4050.58,1625.19C4043.9,1618.88 4034.98,1614.16 4023.82,1611.01C4012.66,1607.86 4000.42,1605.07 3987.12,1602.64C3974.45,1600.23 3961.52,1597.14 3948.34,1593.37C3935.15,1589.61 3922.88,1584.27 3911.54,1577.37C3900.19,1570.46 3891.09,1561.38 3884.24,1550.14C3877.38,1538.89 3873.95,1524.57 3873.95,1507.17C3873.95,1488.9 3879.05,1472.57 3889.24,1458.16C3899.43,1443.75 3913.15,1432.36 3930.41,1423.99C3947.68,1415.62 3966.86,1411.44 3987.98,1411.44C4013.75,1411.44 4037.13,1417.26 4058.11,1428.9C4079.09,1440.55 4094.56,1457.63 4104.52,1480.16L4062.18,1501.46C4055.69,1487.88 4045.97,1477.28 4033.04,1469.64C4020.11,1462 4004.44,1458.18 3986.03,1458.18C3974.81,1458.18 3964.58,1460.15 3955.35,1464.09C3946.12,1468.04 3938.74,1473.59 3933.21,1480.74C3927.69,1487.9 3924.93,1496.12 3924.93,1505.42C3924.93,1517.26 3928.4,1526.41 3935.36,1532.87C3942.31,1539.33 3951.53,1544.24 3963.01,1547.61C3974.49,1550.97 3986.99,1554.04 4000.51,1556.79C4013.18,1559.21 4026.03,1562.3 4039.06,1566.06C4052.09,1569.83 4064.06,1575.16 4074.97,1582.07C4085.88,1588.98 4094.7,1598.08 4101.45,1609.39C4108.2,1620.7 4111.58,1635.1 4111.58,1652.59C4111.58,1671.77 4106.24,1688.67 4095.56,1703.3C4084.89,1717.93 4070.5,1729.43 4052.4,1737.8C4034.3,1746.17 4014.01,1750.36 3991.53,1750.36Z" style="fill-rule:nonzero;"/>
            </g>
            <g transform="matrix(1,0,0,1,-6,-26.038)">
                <path d="M4343.47,1750.88C4319.28,1750.88 4296.76,1746.6 4275.89,1738.04C4255.03,1729.47 4236.74,1717.47 4221.03,1702.04C4205.32,1686.6 4193.11,1668.49 4184.39,1647.72C4175.68,1626.94 4171.32,1604.5 4171.32,1580.4C4171.32,1556.52 4175.68,1534.31 4184.39,1513.75C4193.11,1493.2 4205.32,1475.2 4221.03,1459.76C4236.74,1444.33 4255.03,1432.33 4275.89,1423.77C4296.76,1415.2 4319.28,1410.92 4343.47,1410.92C4367.77,1410.92 4390.32,1415.2 4411.13,1423.77C4431.94,1432.33 4450.14,1444.33 4465.74,1459.76C4481.33,1475.2 4493.48,1493.2 4502.2,1513.75C4510.92,1534.31 4515.28,1556.52 4515.28,1580.4C4515.28,1604.5 4510.92,1626.94 4502.2,1647.72C4493.48,1668.49 4481.27,1686.6 4465.56,1702.04C4449.86,1717.47 4431.65,1729.47 4410.96,1738.04C4390.26,1746.6 4367.77,1750.88 4343.47,1750.88ZM4343.47,1703.37C4359.94,1703.37 4375.44,1700.21 4389.95,1693.88C4404.46,1687.55 4417.18,1678.83 4428.11,1667.71C4439.05,1656.6 4447.57,1643.59 4453.67,1628.68C4459.78,1613.77 4462.84,1597.68 4462.84,1580.4C4462.84,1563.24 4459.78,1547.29 4453.67,1532.54C4447.57,1517.8 4439.05,1504.87 4428.11,1493.75C4417.18,1482.64 4404.52,1473.97 4390.12,1467.76C4375.72,1461.54 4360.17,1458.44 4343.47,1458.44C4326.77,1458.44 4311.17,1461.54 4296.66,1467.76C4282.14,1473.97 4269.42,1482.64 4258.49,1493.75C4247.56,1504.87 4239.04,1517.8 4232.93,1532.54C4226.81,1547.29 4223.76,1563.24 4223.76,1580.4C4223.76,1597.68 4226.81,1613.77 4232.93,1628.68C4239.04,1643.59 4247.56,1656.6 4258.49,1667.71C4269.42,1678.83 4282.14,1687.55 4296.66,1693.88C4311.17,1700.21 4326.77,1703.37 4343.47,1703.37Z" style="fill-rule:nonzero;"/>
            </g>
            <g transform="matrix(1,0,0,1,-6,-26.038)">
                <path d="M4638.41,1416.1L4638.41,1698.79L4804.9,1698.79L4804.9,1745.19L4634.49,1745.19C4617.59,1745.19 4605.53,1741.13 4598.29,1733C4591.06,1724.86 4587.44,1713.89 4587.44,1700.09L4587.44,1416.1L4638.41,1416.1Z" style="fill-rule:nonzero;"/>
            </g>
            <g transform="matrix(1,0,0,1,-6,-26.038)">
                <path d="M5095.59,1664.62L4899.7,1664.96L4899.7,1619.66L5095.59,1619.66L5095.59,1664.62ZM4841.43,1745.2L4933.22,1456.18C4938.18,1440.61 4946.38,1429.09 4957.81,1421.62C4969.25,1414.16 4981.91,1410.43 4995.81,1410.43C5010.05,1410.43 5022.8,1414.16 5034.07,1421.62C5045.33,1429.09 5053.45,1440.61 5058.4,1456.18L5150.2,1745.2L5098.26,1745.2L5015.07,1470.9C5011.78,1460.66 5005.42,1455.55 4995.97,1455.55C4986.53,1455.55 4980.28,1460.66 4977.21,1470.9L4893.37,1745.2L4841.43,1745.2Z" style="fill-rule:nonzero;"/>
            </g>
            <g transform="matrix(1,0,0,1,-6,-26.038)">
                <path d="M5278.22,1745.2L5227.9,1745.2L5227.9,1416.11L5344.69,1416.11C5368.38,1416.11 5389.74,1419.69 5408.79,1426.87C5427.84,1434.04 5442.95,1445 5454.14,1459.74C5465.33,1474.49 5470.92,1493.12 5470.92,1515.65C5470.92,1534.21 5466.55,1550.49 5457.82,1564.5C5449.08,1578.5 5436.89,1589.42 5421.24,1597.26C5405.6,1605.1 5387.03,1609.02 5365.53,1609.02L5351.52,1597.9C5371.06,1597.9 5386.81,1601.26 5398.77,1607.97C5410.73,1614.69 5420.99,1624.53 5429.57,1637.47C5438.15,1650.42 5447.06,1666.12 5456.29,1684.57L5486.67,1745.2L5431.47,1745.2L5403.4,1689.91C5396.99,1676.99 5390.31,1665.71 5383.35,1656.08C5376.4,1646.44 5368.05,1638.95 5358.29,1633.62C5348.54,1628.28 5335.8,1625.62 5320.08,1625.62L5272.24,1625.62L5272.24,1580.47L5344,1580.47C5358.49,1580.47 5371.35,1578.19 5382.58,1573.62C5393.82,1569.05 5402.66,1562.32 5409.13,1553.45C5415.59,1544.58 5418.82,1533.51 5418.82,1520.27C5418.82,1506.59 5415.53,1495.56 5408.95,1487.17C5402.38,1478.79 5393.5,1472.59 5382.32,1468.56C5371.14,1464.53 5358.7,1462.52 5345,1462.52L5278.88,1462.52L5278.22,1745.2Z" style="fill-rule:nonzero;"/>
            </g>
        </g>
    </g>
</svg>
