<?xml version="1.0" encoding="UTF-8" standalone="no"?><!DOCTYPE svg PUBLIC "-//W3C//DTD SVG 1.1//EN" "http://www.w3.org/Graphics/SVG/1.1/DTD/svg11.dtd"><svg width="100%" height="100%" viewBox="0 0 30834 10000" version="1.1" xmlns="http://www.w3.org/2000/svg" xmlns:xlink="http://www.w3.org/1999/xlink" xml:space="preserve" xmlns:serif="http://www.serif.com/" style="fill-rule:evenodd;clip-rule:evenodd;stroke-linejoin:round;stroke-miterlimit:2;"><g><path d="M1059.06,136.167c-0,-0 -6.65,6881.5 -7.495,7751.78c-0.022,23.889 9.45,46.806 26.339,63.706c16.883,16.9 39.789,26.4 63.678,26.4l17334.3,0l-658.428,852.922l-8688.17,-8.366l-8148.95,-0c-302.261,-0 -517.105,-74.084 -644.528,-222.256c-127.427,-148.167 -191.138,-346.711 -191.138,-595.633l-2.678,-7868.06l917.044,-0.505l-0.016,0.011Z" style="fill-rule:nonzero;"/><path d="M5271.58,6387.22c272.628,0 502.289,-69.639 688.983,-208.916c186.689,-139.278 327.45,-324.489 422.278,-555.628c94.828,-231.145 142.239,-480.067 142.239,-746.767l-0,-2098.05l880.116,-0l0,2204.74c0,420.795 -82.972,801.584 -248.922,1142.37c-165.944,340.783 -407.461,611.933 -724.539,813.439c-317.077,201.511 -703.794,302.266 -1160.15,302.266c-450.428,0 -832.7,-102.239 -1146.82,-306.711c-314.117,-204.472 -554.15,-477.1 -720.094,-817.883c-165.95,-340.789 -248.923,-721.578 -248.923,-1142.38l0,-2195.84l880.117,-0l0,2106.94c0,260.778 47.411,506.733 142.239,737.878c94.828,231.139 234.106,416.35 417.833,555.628c183.728,139.277 408.945,208.916 675.645,208.916Z" style="fill-rule:nonzero;"/><path d="M13983.8,2653.38c438.578,0 807.517,97.789 1106.82,293.373c299.294,195.583 527.472,459.322 684.533,791.216c157.056,331.895 235.584,699.35 235.584,1102.37l-0,2293.64l-880.117,-0l-0,-2151.39c-0,-266.705 -42.967,-512.661 -128.906,-737.877c-85.933,-225.217 -219.283,-405.978 -400.05,-542.295c-180.766,-136.311 -407.461,-204.472 -680.088,-204.472c-260.778,-0 -480.067,66.678 -657.867,200.028c-177.8,133.35 -311.15,311.15 -400.056,533.405c-88.9,222.25 -133.35,466.728 -133.35,733.428l0,2169.18l-880.116,-0l-0,-2169.18c-0,-266.7 -42.967,-511.178 -128.906,-733.428c-85.939,-222.255 -219.289,-400.055 -400.05,-533.405c-180.767,-133.35 -407.461,-200.028 -680.094,-200.028c-272.628,-0 -496.361,68.161 -671.2,204.472c-174.834,136.317 -303.745,317.078 -386.717,542.295c-82.972,225.216 -124.461,471.172 -124.461,737.877l-0,2151.39l-880.117,-0l0,-2284.75c0,-408.939 75.567,-779.361 226.7,-1111.26c151.128,-331.894 376.345,-595.633 675.645,-791.216c299.3,-195.584 665.272,-293.373 1097.92,-293.373c367.455,0 686.017,71.123 955.683,213.361c269.661,142.245 480.061,337.823 631.195,586.745c151.127,248.922 229.661,536.367 235.583,862.339l-195.578,-0c11.85,-325.972 93.345,-613.417 244.478,-862.339c151.128,-248.922 358.561,-444.5 622.3,-586.745c263.739,-142.238 567.483,-213.361 911.233,-213.361Z" style="fill-rule:nonzero;"/><rect x="17593.2" y="2777.84" width="880.117" height="4356.13"/></g><g><g><path d="M20007.7,2651.16l216.172,279.905l219.539,0l-215.806,-279.622l-219.905,-0.283Z" style="fill:#fcde32;"/><path d="M20290.3,2651.16l216.172,279.905l219.539,0l-215.806,-279.622l-219.905,-0.283Z" style="fill:#fcde32;"/><path d="M20571.5,2651.16l216.172,279.905l219.539,0l-215.805,-279.622l-219.906,-0.283Z" style="fill:#fcde32;"/><path d="M20853.1,2651.16l216.172,279.905l219.539,0l-215.806,-279.622l-219.905,-0.283Z" style="fill:#fcde32;"/><path d="M21135.1,2651.16l216.166,279.905l219.539,0l-215.805,-279.622l-219.9,-0.283Z" style="fill:#fcde32;"/><path d="M21416.9,2651.16l216.167,279.905l219.539,0l-215.8,-279.622l-219.906,-0.283Z" style="fill:#fcde32;"/></g><g><path d="M20278.7,3002.31l216.166,279.905l219.539,0l-215.8,-279.617l-219.905,-0.288Z" style="fill:#fcde32;"/><path d="M20561.3,3002.31l216.172,279.905l219.539,0l-215.806,-279.617l-219.905,-0.288Z" style="fill:#fcde32;"/><path d="M20842.5,3002.31l216.172,279.905l219.539,0l-215.805,-279.617l-219.906,-0.288Z" style="fill:#fcde32;"/><path d="M21124.1,3002.31l216.172,279.905l219.539,0l-215.806,-279.617l-219.905,-0.288Z" style="fill:#fcde32;"/><path d="M21406.1,3002.31l216.167,279.905l219.539,0l-215.8,-279.617l-219.906,-0.288Z" style="fill:#fcde32;"/><path d="M21687.9,3002.31l216.167,279.905l219.539,0l-215.8,-279.617l-219.906,-0.288Z" style="fill:#fcde32;"/></g><g><path d="M20544.8,3347.14l216.173,279.905l219.533,0l-215.8,-279.622l-219.906,-0.283Z" style="fill:#fcde32;"/><path d="M20827.4,3347.14l216.167,279.905l219.538,0l-215.8,-279.622l-219.905,-0.283Z" style="fill:#fcde32;"/><path d="M21108.7,3347.14l216.166,279.905l219.539,0l-215.8,-279.622l-219.905,-0.283Z" style="fill:#fcde32;"/><path d="M21390.2,3347.14l216.167,279.905l219.539,0l-215.8,-279.622l-219.906,-0.283Z" style="fill:#fcde32;"/><path d="M21672.2,3347.14l216.172,279.905l219.539,0l-215.805,-279.622l-219.906,-0.283Z" style="fill:#fcde32;"/><path d="M21954.1,3347.14l216.172,279.905l219.539,0l-215.805,-279.622l-219.906,-0.283Z" style="fill:#fcde32;"/></g><g><path d="M20810.9,3691.87l216.172,279.905l219.539,0l-215.806,-279.622l-219.905,-0.283Z" style="fill:#fcde32;"/><path d="M21092.2,3691.87l216.172,279.905l219.533,0l-215.8,-279.622l-219.905,-0.283Z" style="fill:#fcde32;"/><path d="M21373.4,3691.87l216.173,279.905l219.533,0l-215.8,-279.622l-219.906,-0.283Z" style="fill:#fcde32;"/><path d="M21654.9,3691.87l216.173,279.905l219.533,0l-215.8,-279.622l-219.906,-0.283Z" style="fill:#fcde32;"/><path d="M21937,3691.87l216.172,279.905l219.539,0l-215.805,-279.622l-219.906,-0.283Z" style="fill:#fcde32;"/><path d="M22220.5,3691.87l216.167,279.905l219.539,0l-215.806,-279.622l-219.9,-0.283Z" style="fill:#fcde32;"/></g><g><path d="M21077.1,4036.8l216.172,279.906l219.539,-0l-215.805,-279.623l-219.906,-0.283Z" style="fill:#fcde32;"/><path d="M21358.4,4036.8l216.167,279.906l219.538,-0l-215.8,-279.623l-219.905,-0.283Z" style="fill:#fcde32;"/><path d="M21639.6,4036.8l216.167,279.906l219.539,-0l-215.8,-279.623l-219.906,-0.283Z" style="fill:#fcde32;"/><path d="M21921.2,4036.8l216.166,279.906l219.539,-0l-215.8,-279.623l-219.905,-0.283Z" style="fill:#fcde32;"/><path d="M22203.2,4036.8l216.172,279.906l219.539,-0l-215.805,-279.623l-219.906,-0.283Z" style="fill:#fcde32;"/><path d="M22486.7,4036.8l216.172,279.906l219.539,-0l-215.805,-279.623l-219.906,-0.283Z" style="fill:#fcde32;"/></g><g><path d="M21343.2,4381.63l216.172,279.905l219.534,0l-215.8,-279.616l-219.906,-0.289Z" style="fill:#fcde32;"/><path d="M21624.6,4381.63l216.166,279.905l219.539,0l-215.8,-279.616l-219.905,-0.289Z" style="fill:#fcde32;"/><path d="M21905.8,4381.63l216.166,279.905l219.539,0l-215.8,-279.616l-219.905,-0.289Z" style="fill:#fcde32;"/><path d="M22187.3,4381.63l216.167,279.905l219.539,0l-215.8,-279.616l-219.906,-0.289Z" style="fill:#fcde32;"/><path d="M22469.3,4381.63l216.173,279.905l219.533,0l-215.8,-279.616l-219.906,-0.289Z" style="fill:#fcde32;"/><path d="M22752.8,4381.63l216.173,279.905l219.538,0l-215.805,-279.616l-219.906,-0.289Z" style="fill:#fcde32;"/></g><g><path d="M21336.1,5406.11l216.167,-279.911l219.539,0l-215.8,279.622l-219.906,0.289Z" style="fill:#fcde32;"/><path d="M21617.4,5406.11l216.172,-279.911l219.539,0l-215.806,279.622l-219.905,0.289Z" style="fill:#fcde32;"/><path d="M21898.7,5406.11l216.172,-279.911l219.539,0l-215.806,279.622l-219.905,0.289Z" style="fill:#fcde32;"/><path d="M22180.2,5406.11l216.172,-279.911l219.539,0l-215.806,279.622l-219.905,0.289Z" style="fill:#fcde32;"/><path d="M22462.2,5406.11l216.167,-279.911l219.539,0l-215.8,279.622l-219.906,0.289Z" style="fill:#fcde32;"/><path d="M22745.7,5406.11l216.172,-279.911l219.539,0l-215.805,279.622l-219.906,0.289Z" style="fill:#fcde32;"/></g><g><path d="M21067.9,5750.94l216.167,-279.905l219.538,-0l-215.805,279.617l-219.9,0.288Z" style="fill:#fcde32;"/><path d="M21349.2,5750.94l216.172,-279.905l219.539,-0l-215.805,279.617l-219.906,0.288Z" style="fill:#fcde32;"/><path d="M21630.4,5750.94l216.173,-279.905l219.539,-0l-215.806,279.617l-219.906,0.288Z" style="fill:#fcde32;"/><path d="M21912,5750.94l216.172,-279.905l219.539,-0l-215.805,279.617l-219.906,0.288Z" style="fill:#fcde32;"/><path d="M22194,5750.94l216.167,-279.905l219.539,-0l-215.806,279.617l-219.9,0.288Z" style="fill:#fcde32;"/><path d="M22477.5,5750.94l216.167,-279.905l219.539,-0l-215.8,279.617l-219.906,0.288Z" style="fill:#fcde32;"/></g><g><path d="M20801.6,6095.78l216.166,-279.911l219.539,-0l-215.805,279.622l-219.9,0.289Z" style="fill:#fcde32;"/><path d="M21082.8,6095.78l216.173,-279.911l219.538,-0l-215.805,279.622l-219.906,0.289Z" style="fill:#fcde32;"/><path d="M21364.1,6095.78l216.172,-279.911l219.539,-0l-215.806,279.622l-219.905,0.289Z" style="fill:#fcde32;"/><path d="M21645.6,6095.78l216.172,-279.911l219.539,-0l-215.805,279.622l-219.906,0.289Z" style="fill:#fcde32;"/><path d="M21927.6,6095.78l216.167,-279.911l219.539,-0l-215.806,279.622l-219.9,0.289Z" style="fill:#fcde32;"/><path d="M22211.1,6095.78l216.172,-279.911l219.534,-0l-215.8,279.622l-219.906,0.289Z" style="fill:#fcde32;"/></g><g><path d="M20532.8,6440.61l216.173,-279.905l219.538,-0l-215.805,279.622l-219.906,0.283Z" style="fill:#fcde32;"/><path d="M20814.2,6440.61l216.172,-279.905l219.539,-0l-215.806,279.622l-219.905,0.283Z" style="fill:#fcde32;"/><path d="M21095.4,6440.61l216.172,-279.905l219.539,-0l-215.806,279.622l-219.905,0.283Z" style="fill:#fcde32;"/><path d="M21376.9,6440.61l216.173,-279.905l219.539,-0l-215.806,279.622l-219.906,0.283Z" style="fill:#fcde32;"/><path d="M21658.9,6440.61l216.173,-279.905l219.539,-0l-215.806,279.622l-219.906,0.283Z" style="fill:#fcde32;"/><path d="M21942.4,6440.61l216.167,-279.905l219.539,-0l-215.8,279.622l-219.906,0.283Z" style="fill:#fcde32;"/></g><g><path d="M20267.1,6785.44l216.172,-279.905l219.539,-0l-215.806,279.617l-219.905,0.288Z" style="fill:#fcde32;"/><path d="M20548.3,6785.44l216.173,-279.905l219.538,-0l-215.805,279.617l-219.906,0.288Z" style="fill:#fcde32;"/><path d="M20829.6,6785.44l216.172,-279.905l219.539,-0l-215.806,279.617l-219.905,0.288Z" style="fill:#fcde32;"/><path d="M21111.1,6785.44l216.172,-279.905l219.539,-0l-215.805,279.617l-219.906,0.288Z" style="fill:#fcde32;"/><path d="M21393.1,6785.44l216.172,-279.905l219.539,-0l-215.805,279.617l-219.906,0.288Z" style="fill:#fcde32;"/><path d="M21676.6,6785.44l216.167,-279.905l219.539,-0l-215.8,279.617l-219.906,0.288Z" style="fill:#fcde32;"/></g><g><path d="M19999.9,7130.28l216.172,-279.906l219.539,0l-215.806,279.622l-219.905,0.284Z" style="fill:#fcde32;"/><path d="M20281.2,7130.28l216.172,-279.906l219.539,0l-215.806,279.622l-219.905,0.284Z" style="fill:#fcde32;"/><path d="M20562.4,7130.28l216.173,-279.906l219.539,0l-215.806,279.622l-219.906,0.284Z" style="fill:#fcde32;"/><path d="M20843.9,7130.28l216.173,-279.906l219.539,0l-215.806,279.622l-219.906,0.284Z" style="fill:#fcde32;"/><path d="M21126,7130.28l216.172,-279.906l219.539,0l-215.805,279.622l-219.906,0.284Z" style="fill:#fcde32;"/><path d="M21409.5,7130.28l216.167,-279.906l219.539,0l-215.8,279.622l-219.906,0.284Z" style="fill:#fcde32;"/></g><g><path d="M19732.6,7475.11l216.172,-279.905l219.533,-0l-215.8,279.616l-219.905,0.289Z" style="fill:#fcde32;"/><path d="M20013.8,7475.11l216.167,-279.905l219.539,-0l-215.806,279.616l-219.9,0.289Z" style="fill:#fcde32;"/><path d="M20295.1,7475.11l216.166,-279.905l219.539,-0l-215.805,279.616l-219.9,0.289Z" style="fill:#fcde32;"/><path d="M20576.6,7475.11l216.167,-279.905l219.539,-0l-215.806,279.616l-219.9,0.289Z" style="fill:#fcde32;"/><path d="M20858.6,7475.11l216.172,-279.905l219.534,-0l-215.8,279.616l-219.906,0.289Z" style="fill:#fcde32;"/><path d="M21142.1,7475.11l216.172,-279.905l219.539,-0l-215.805,279.616l-219.906,0.289Z" style="fill:#fcde32;"/></g><g><path d="M19465.3,7819.94l216.167,-279.905l219.539,-0l-215.8,279.622l-219.906,0.283Z" style="fill:#fcde32;"/><path d="M19746.6,7819.94l216.172,-279.905l219.539,-0l-215.805,279.622l-219.906,0.283Z" style="fill:#fcde32;"/><path d="M20027.8,7819.94l216.173,-279.905l219.538,-0l-215.805,279.622l-219.906,0.283Z" style="fill:#fcde32;"/><path d="M20309.4,7819.94l216.172,-279.905l219.539,-0l-215.806,279.622l-219.905,0.283Z" style="fill:#fcde32;"/><path d="M20591.4,7819.94l216.167,-279.905l219.538,-0l-215.8,279.622l-219.905,0.283Z" style="fill:#fcde32;"/><path d="M20874.9,7819.94l216.172,-279.905l219.533,-0l-215.8,279.622l-219.905,0.283Z" style="fill:#fcde32;"/></g><g><path d="M19198,8164.78l216.172,-279.906l219.539,0l-215.805,279.617l-219.906,0.289Z" style="fill:#fcde32;"/><path d="M19479.3,8164.78l216.167,-279.906l219.539,0l-215.8,279.617l-219.906,0.289Z" style="fill:#fcde32;"/><path d="M19760.6,8164.78l216.166,-279.906l219.539,0l-215.8,279.617l-219.905,0.289Z" style="fill:#fcde32;"/><path d="M20042.1,8164.78l216.167,-279.906l219.539,0l-215.8,279.617l-219.906,0.289Z" style="fill:#fcde32;"/><path d="M20324.1,8164.78l216.172,-279.906l219.539,0l-215.805,279.617l-219.906,0.289Z" style="fill:#fcde32;"/><path d="M20607.6,8164.78l216.172,-279.906l219.539,0l-215.805,279.617l-219.906,0.289Z" style="fill:#fcde32;"/></g><g><path d="M18930.8,8509.56l216.166,-279.906l219.539,0l-215.8,279.622l-219.905,0.284Z" style="fill:#fcde32;"/><path d="M19212.1,8509.56l216.172,-279.906l219.539,0l-215.806,279.622l-219.905,0.284Z" style="fill:#fcde32;"/><path d="M19493.3,8509.56l216.172,-279.906l219.539,0l-215.806,279.622l-219.905,0.284Z" style="fill:#fcde32;"/><path d="M19774.8,8509.56l216.173,-279.906l219.538,0l-215.805,279.622l-219.906,0.284Z" style="fill:#fcde32;"/><path d="M20056.9,8509.56l216.167,-279.906l219.538,0l-215.8,279.622l-219.905,0.284Z" style="fill:#fcde32;"/><path d="M20340.3,8509.56l216.173,-279.906l219.538,0l-215.805,279.622l-219.906,0.284Z" style="fill:#fcde32;"/></g><g><path d="M18663.4,8854.44l216.172,-279.905l219.539,-0l-215.806,279.617l-219.905,0.288Z" style="fill:#fcde32;"/><path d="M18944.7,8854.44l216.167,-279.905l219.539,-0l-215.8,279.617l-219.906,0.288Z" style="fill:#fcde32;"/><path d="M19225.9,8854.44l216.167,-279.905l219.539,-0l-215.8,279.617l-219.906,0.288Z" style="fill:#fcde32;"/><path d="M19507.5,8854.44l216.167,-279.905l219.539,-0l-215.8,279.617l-219.906,0.288Z" style="fill:#fcde32;"/><path d="M19789.5,8854.44l216.172,-279.905l219.539,-0l-215.805,279.617l-219.906,0.288Z" style="fill:#fcde32;"/><path d="M20073,8854.44l216.172,-279.905l219.539,-0l-215.805,279.617l-219.906,0.288Z" style="fill:#fcde32;"/></g><g><path d="M18396.2,9199.28l216.166,-279.911l219.539,-0l-215.805,279.622l-219.9,0.289Z" style="fill:#fcde32;"/><path d="M18677.4,9199.28l216.173,-279.911l219.539,-0l-215.806,279.622l-219.906,0.289Z" style="fill:#fcde32;"/><path d="M18958.7,9199.28l216.172,-279.911l219.539,-0l-215.806,279.622l-219.905,0.289Z" style="fill:#fcde32;"/><path d="M19240.2,9199.28l216.172,-279.911l219.539,-0l-215.805,279.622l-219.906,0.289Z" style="fill:#fcde32;"/><path d="M19522.2,9199.28l216.167,-279.911l219.539,-0l-215.806,279.622l-219.9,0.289Z" style="fill:#fcde32;"/><path d="M19805.7,9199.28l216.172,-279.911l219.534,-0l-215.8,279.622l-219.906,0.289Z" style="fill:#fcde32;"/></g><g><path d="M18128.9,9544.06l216.167,-279.906l219.538,0l-215.805,279.622l-219.9,0.284Z" style="fill:#fcde32;"/><path d="M18410.2,9544.06l216.172,-279.906l219.539,0l-215.806,279.622l-219.905,0.284Z" style="fill:#fcde32;"/><path d="M18691.4,9544.06l216.172,-279.906l219.539,0l-215.806,279.622l-219.905,0.284Z" style="fill:#fcde32;"/><path d="M18972.9,9544.06l216.173,-279.906l219.539,0l-215.806,279.622l-219.906,0.284Z" style="fill:#fcde32;"/><path d="M19254.9,9544.06l216.167,-279.906l219.539,0l-215.806,279.622l-219.9,0.284Z" style="fill:#fcde32;"/><path d="M19538.4,9544.06l216.173,-279.906l219.533,0l-215.8,279.622l-219.906,0.284Z" style="fill:#fcde32;"/></g><g><path d="M17861.5,9888.89l216.172,-279.906l219.539,0l-215.805,279.617l-219.906,0.289Z" style="fill:#fcde32;"/><path d="M18142.8,9888.89l216.172,-279.906l219.539,0l-215.806,279.617l-219.905,0.289Z" style="fill:#fcde32;"/><path d="M18424.1,9888.89l216.172,-279.906l219.539,0l-215.806,279.617l-219.905,0.289Z" style="fill:#fcde32;"/><path d="M18705.6,9888.89l216.172,-279.906l219.539,0l-215.805,279.617l-219.906,0.289Z" style="fill:#fcde32;"/><path d="M18987.6,9888.89l216.172,-279.906l219.539,0l-215.805,279.617l-219.906,0.289Z" style="fill:#fcde32;"/><path d="M19271.1,9888.89l216.167,-279.906l219.539,0l-215.8,279.617l-219.906,0.289Z" style="fill:#fcde32;"/></g><g><path d="M21610.4,4726.46l125.75,162.828l-128.411,165.667l218.683,-0l128.378,-165.506l-125.795,-162.989l-218.605,0Z" style="fill:#fcde32;"/><path d="M21891.9,4726.46l125.75,162.828l-128.411,165.667l218.684,-0l128.377,-165.506l-125.794,-162.989l-218.606,0Z" style="fill:#fcde32;"/><path d="M22173.2,4726.46l125.755,162.828l-128.416,165.667l218.683,-0l128.378,-165.506l-125.795,-162.989l-218.605,0Z" style="fill:#fcde32;"/><path d="M22455.1,4726.46l125.75,162.828l-128.411,165.667l218.683,-0l128.378,-165.506l-125.794,-162.989l-218.606,0Z" style="fill:#fcde32;"/><path d="M22737.4,4726.46l125.755,162.828l-128.416,165.667l218.683,-0l128.378,-165.506l-125.795,-162.989l-218.605,0Z" style="fill:#fcde32;"/><path d="M23019.3,4726.46l125.75,162.828l-128.411,165.667l218.684,-0l128.377,-165.506l-125.794,-162.989l-218.606,0Z" style="fill:#fcde32;"/></g></g><path d="M22709.8,3634.29c-22.595,28.961 -22.689,69.561 -0.222,98.628c129.294,167.305 551.622,713.783 714.305,924.289c15.478,20.027 39.361,31.75 64.672,31.733c25.311,-0.011 49.184,-11.756 64.639,-31.8c300.645,-389.861 1548.12,-2007.51 1548.12,-2007.51l-1623.23,-0.172c0,-0 -607.911,779.255 -768.283,984.833Z"/><path d="M22713.4,6153.33c-24.744,-31.716 -24.844,-76.172 -0.244,-108.005c136.678,-176.861 570.2,-737.822 722.139,-934.428c12.739,-16.478 32.389,-26.122 53.217,-26.111c20.822,0.011 40.466,9.678 53.183,26.167c278.822,361.555 1559.57,2022.36 1559.57,2022.36l-1623.23,0.172c-0,0 -598.906,-767.711 -764.634,-980.15Z"/><g><path d="M22316.8,9860.39c-156.155,-0 -295.661,-33.283 -418.527,-99.85c-122.867,-66.561 -212.267,-162.433 -268.195,-287.611l237.139,-116.406c36.083,78.828 92.872,139.228 170.367,181.2c77.5,41.967 170.572,62.956 279.216,62.956c73,-0 138.211,-10.784 195.628,-32.356c57.417,-21.566 103.128,-53.444 137.122,-95.628c34,-42.183 50.995,-93.427 50.995,-153.722c-0,-67.605 -18.561,-118.928 -55.684,-153.961c-37.116,-35.039 -86.683,-61.305 -148.688,-78.794c-62,-17.489 -129.967,-32.984 -203.895,-46.484c-70.367,-13.411 -142.178,-30.572 -215.439,-51.489c-73.255,-20.916 -141.405,-50.561 -204.433,-88.938c-63.033,-38.373 -113.595,-88.8 -151.683,-151.273c-38.095,-62.477 -57.139,-142.033 -57.139,-238.677c-0,-101.506 28.305,-192.273 84.911,-272.312c56.611,-80.033 132.866,-143.305 228.766,-189.805c95.9,-46.506 202.495,-69.756 319.795,-69.756c143.189,0 273.067,32.345 389.622,97.034c116.561,64.689 202.517,159.611 257.867,284.755l-235.234,118.328c-36.077,-75.417 -90.038,-134.35 -161.883,-176.789c-71.839,-42.439 -158.9,-63.661 -261.178,-63.661c-62.355,0 -119.172,10.956 -170.455,32.867c-51.284,21.911 -92.278,52.739 -122.978,92.494c-30.694,39.756 -46.044,85.461 -46.044,137.122c-0,65.761 19.316,116.584 57.961,152.473c38.639,35.888 89.85,63.183 153.633,81.883c63.783,18.694 133.233,35.705 208.344,51.022c70.367,13.411 141.745,30.572 214.139,51.489c72.389,20.917 138.889,50.561 199.489,88.939c60.6,38.372 109.65,88.972 147.15,151.783c37.495,62.817 56.245,142.817 56.245,240c-0,106.534 -29.656,200.445 -88.973,281.728c-59.311,81.283 -139.238,145.178 -239.783,191.683c-100.544,46.506 -213.272,69.756 -338.178,69.756Z" style="fill-rule:nonzero;"/><path d="M24272.1,9863.28c-134.367,-0 -259.512,-23.784 -375.434,-71.356c-115.922,-47.566 -217.516,-114.233 -304.783,-199.994c-87.261,-85.761 -155.111,-186.356 -203.545,-301.784c-48.433,-115.427 -72.65,-240.088 -72.65,-373.988c0,-132.65 24.217,-256.067 72.65,-370.262c48.434,-114.188 116.284,-214.166 203.545,-299.927c87.267,-85.761 188.861,-152.428 304.783,-199.995c115.922,-47.572 241.067,-71.355 375.434,-71.355c134.972,-0 260.266,23.783 375.888,71.355c115.617,47.567 216.739,114.234 303.367,199.995c86.628,85.761 154.156,185.739 202.595,299.927c48.433,114.195 72.65,237.612 72.65,370.262c-0,133.9 -24.217,258.561 -72.65,373.988c-48.439,115.428 -116.284,216.023 -203.55,301.784c-87.262,85.761 -188.384,152.428 -303.367,199.994c-114.983,47.572 -239.961,71.356 -374.933,71.356Zm-0,-263.934c91.516,0 177.583,-17.583 258.205,-52.744c80.628,-35.167 151.306,-83.622 212.033,-145.372c60.734,-61.75 108.067,-134.034 142.006,-216.856c33.939,-82.822 50.911,-172.228 50.911,-268.216c0,-95.339 -16.972,-183.962 -50.911,-265.873c-33.939,-81.911 -81.272,-153.739 -142.006,-215.489c-60.727,-61.75 -131.088,-109.888 -211.077,-144.411c-79.984,-34.527 -166.373,-51.789 -259.161,-51.789c-92.762,0 -179.456,17.262 -260.078,51.789c-80.622,34.523 -151.3,82.661 -212.034,144.411c-60.727,61.75 -108.072,133.578 -142.027,215.489c-33.95,81.911 -50.928,170.534 -50.928,265.873c-0,95.988 16.978,185.394 50.928,268.216c33.955,82.822 81.3,155.106 142.027,216.856c60.734,61.75 131.412,110.205 212.034,145.372c80.622,35.161 167.316,52.744 260.078,52.744Z" style="fill-rule:nonzero;"/><path d="M25910.6,8003.39l0,1570.51l924.95,-0l0,257.794l-946.733,0c-93.861,0 -160.895,-22.594 -201.095,-67.777c-40.205,-45.178 -60.305,-106.123 -60.305,-182.817l-0,-1577.71l283.183,-0Z" style="fill-rule:nonzero;"/><path d="M28450.5,9384.06l-1088.26,1.872l-0,-251.656l1088.26,0l0,249.784Zm-1412.03,447.688l509.995,-1605.68c27.544,-86.528 73.083,-150.523 136.605,-191.984c63.522,-41.461 133.895,-62.189 211.117,-62.189c79.078,0 149.917,20.728 212.511,62.189c62.6,41.461 107.672,105.456 135.217,191.984l509.994,1605.68l-288.567,0l-462.172,-1523.88c-18.255,-56.889 -53.628,-85.333 -106.111,-85.333c-52.455,-0 -87.194,28.444 -104.205,85.333l-465.817,1523.88l-288.567,0Z" style="fill-rule:nonzero;"/><path d="M29465.1,9831.72l-279.544,0l-0,-1828.31l648.794,-0c131.617,-0 250.333,19.927 356.139,59.777c105.811,39.856 189.789,100.739 251.939,182.65c62.15,81.912 93.228,185.45 93.228,310.628c-0,103.095 -24.273,193.545 -72.806,271.35c-48.539,77.806 -116.261,138.478 -203.178,182.028c-86.916,43.55 -190.077,65.322 -309.489,65.322l-77.861,-61.805c108.561,-0 196.056,18.661 262.489,55.989c66.428,37.322 123.478,91.95 171.145,163.872c47.672,71.922 97.139,159.144 148.411,261.672l168.783,336.822l-306.667,0l-155.938,-307.155c-35.617,-71.784 -72.739,-134.439 -111.367,-187.978c-38.622,-53.533 -85.033,-95.122 -139.228,-124.761c-54.189,-29.639 -124.961,-44.456 -212.311,-44.456l-265.739,0l0,-250.805l398.628,-0c80.494,-0 151.944,-12.695 214.355,-38.089c62.412,-25.389 111.567,-62.734 147.473,-112.039c35.905,-49.3 53.861,-110.75 53.861,-184.35c-0,-75.983 -18.272,-137.267 -54.817,-183.839c-36.539,-46.578 -85.867,-81.05 -147.972,-103.433c-62.106,-22.378 -131.217,-33.567 -207.345,-33.567l-367.338,0l-3.645,1570.47Z" style="fill-rule:nonzero;"/></g></svg>