<?xml version="1.0" encoding="UTF-8" standalone="no"?><!DOCTYPE svg PUBLIC "-//W3C//DTD SVG 1.1//EN" "http://www.w3.org/Graphics/SVG/1.1/DTD/svg11.dtd"><svg width="100%" height="100%" viewBox="0 0 5000 2292" version="1.1" xmlns="http://www.w3.org/2000/svg" xmlns:xlink="http://www.w3.org/1999/xlink" xml:space="preserve" xmlns:serif="http://www.serif.com/" style="fill-rule:evenodd;clip-rule:evenodd;stroke-linecap:round;stroke-linejoin:round;stroke-miterlimit:1.5;"><g><path d="M4934.29,1450.17l-0.008,-4.232l-4478.68,7.974l0.007,4.232l4478.68,-7.974Z" style="stroke:#ededed;stroke-width:4.17px;"/><path d="M4934.29,1021.14l-0.008,-4.232l-4478.68,7.974l0.007,4.232l4478.68,-7.974Z" style="stroke:#ededed;stroke-width:4.17px;"/><path d="M4934.29,592.1l-0.008,-4.232l-4478.68,7.975l0.007,4.232l4478.68,-7.975Z" style="stroke:#ededed;stroke-width:4.17px;"/><path d="M197.137,140.177l-0,55.103l5.84,0l0,-60.604l-18.198,-0l-0,5.501l12.358,0Z" style="fill-rule:nonzero;"/><path d="M214.743,164.978c-0,18.875 9.056,31.402 24.292,31.402c15.151,0 24.208,-12.527 24.208,-31.402c0,-18.791 -9.226,-31.487 -24.208,-31.487c-15.066,-0 -24.292,12.696 -24.292,31.487Zm6.009,-0c0,-15.828 6.687,-25.901 18.283,-25.901c11.596,0 18.283,10.073 18.283,25.901c0,15.743 -6.687,25.901 -18.283,25.901c-11.596,-0 -18.283,-10.158 -18.283,-25.901Z" style="fill-rule:nonzero;"/><path d="M272.554,164.978c-0,18.875 9.057,31.402 24.292,31.402c15.151,0 24.208,-12.527 24.208,-31.402c0,-18.791 -9.226,-31.487 -24.208,-31.487c-15.066,-0 -24.292,12.696 -24.292,31.487Zm6.009,-0c0,-15.828 6.687,-25.901 18.283,-25.901c11.596,0 18.283,10.073 18.283,25.901c0,15.743 -6.687,25.901 -18.283,25.901c-11.596,-0 -18.283,-10.158 -18.283,-25.901Z" style="fill-rule:nonzero;"/><path d="M359.482,148.557c0,-8.718 -6.179,-15.066 -14.812,-15.066c-8.634,-0 -14.897,6.348 -14.897,15.066c-0,8.718 6.263,14.982 14.897,14.982c8.633,-0 14.812,-6.264 14.812,-14.982Zm30.726,-13.881l-6.179,-0l-45.961,60.604l6.094,0l46.046,-60.604Zm-35.804,13.881c-0,5.925 -4.063,10.157 -9.734,10.157c-5.756,0 -9.819,-4.232 -9.819,-10.157c0,-6.01 3.978,-10.157 9.819,-10.157c5.755,-0 9.734,4.147 9.734,10.157Zm44.183,32.842c0,-8.719 -6.179,-15.067 -14.812,-15.067c-8.634,0 -14.897,6.348 -14.897,15.067c-0,8.718 6.263,14.981 14.897,14.981c8.633,0 14.812,-6.263 14.812,-14.981Zm-5.078,-0c-0,5.925 -4.063,10.072 -9.734,10.072c-5.756,0 -9.819,-4.147 -9.819,-10.072c0,-6.01 3.978,-10.158 9.819,-10.158c5.756,0 9.734,4.148 9.734,10.158Z" style="fill-rule:nonzero;"/><path d="M243.098,1054.37c12.696,0 21.33,-8.633 21.33,-20.822c0,-11.342 -7.787,-20.399 -20.399,-20.399c-4.74,0 -9.141,1.524 -12.527,4.232l4.571,-19.044l24.885,-0l-0,-5.587l-29.287,0l-7.279,30.472l4.825,1.523c3.301,-3.639 8.379,-6.179 13.966,-6.179c9.564,0 15.066,6.687 15.066,15.151c0,8.973 -5.925,15.067 -15.066,15.067c-8.634,-0 -13.966,-5.248 -13.966,-13.966l-6.095,-0c0,11.935 7.787,19.552 19.976,19.552Z" style="fill-rule:nonzero;"/><path d="M272.554,1023.05c-0,18.876 9.057,31.403 24.292,31.403c15.151,0 24.208,-12.527 24.208,-31.403c0,-18.79 -9.226,-31.487 -24.208,-31.487c-15.066,0 -24.292,12.697 -24.292,31.487Zm6.009,0c0,-15.828 6.687,-25.9 18.283,-25.9c11.596,-0 18.283,10.072 18.283,25.9c0,15.744 -6.687,25.901 -18.283,25.901c-11.596,0 -18.283,-10.157 -18.283,-25.901Z" style="fill-rule:nonzero;"/><path d="M359.482,1006.63c0,-8.719 -6.179,-15.067 -14.812,-15.067c-8.634,0 -14.897,6.348 -14.897,15.067c-0,8.718 6.263,14.981 14.897,14.981c8.633,0 14.812,-6.263 14.812,-14.981Zm30.726,-13.882l-6.179,0l-45.961,60.605l6.094,-0l46.046,-60.605Zm-35.804,13.882c-0,5.925 -4.063,10.157 -9.734,10.157c-5.756,-0 -9.819,-4.232 -9.819,-10.157c0,-6.01 3.978,-10.158 9.819,-10.158c5.755,0 9.734,4.148 9.734,10.158Zm44.183,32.841c0,-8.718 -6.179,-15.066 -14.812,-15.066c-8.634,-0 -14.897,6.348 -14.897,15.066c-0,8.718 6.263,14.982 14.897,14.982c8.633,0 14.812,-6.264 14.812,-14.982Zm-5.078,0c-0,5.925 -4.063,10.073 -9.734,10.073c-5.756,-0 -9.819,-4.148 -9.819,-10.073c0,-6.009 3.978,-10.157 9.819,-10.157c5.756,0 9.734,4.148 9.734,10.157Z" style="fill-rule:nonzero;"/><path d="M235.988,563.711l-0,5.587l35.042,-0l-23.954,55.018l6.264,-0l23.869,-55.018l0,-5.587l-41.221,0Z" style="fill-rule:nonzero;"/><path d="M300.909,625.332c12.697,-0 21.33,-8.634 21.33,-20.823c0,-11.342 -7.787,-20.399 -20.399,-20.399c-4.74,0 -9.141,1.524 -12.527,4.233l4.571,-19.045l24.885,-0l-0,-5.587l-29.287,0l-7.279,30.472l4.825,1.523c3.301,-3.639 8.379,-6.178 13.966,-6.178c9.565,-0 15.066,6.686 15.066,15.151c0,8.972 -5.925,15.066 -15.066,15.066c-8.634,0 -13.966,-5.248 -13.966,-13.966l-6.095,0c0,11.935 7.788,19.553 19.976,19.553Z" style="fill-rule:nonzero;"/><path d="M359.482,577.593c0,-8.718 -6.179,-15.067 -14.812,-15.067c-8.634,0 -14.897,6.349 -14.897,15.067c-0,8.718 6.263,14.982 14.897,14.982c8.633,-0 14.812,-6.264 14.812,-14.982Zm30.726,-13.882l-6.179,0l-45.961,60.605l6.094,-0l46.046,-60.605Zm-35.804,13.882c-0,5.925 -4.063,10.157 -9.734,10.157c-5.756,0 -9.819,-4.232 -9.819,-10.157c0,-6.01 3.978,-10.157 9.819,-10.157c5.755,-0 9.734,4.147 9.734,10.157Zm44.183,32.841c0,-8.718 -6.179,-15.066 -14.812,-15.066c-8.634,-0 -14.897,6.348 -14.897,15.066c-0,8.719 6.263,14.982 14.897,14.982c8.633,0 14.812,-6.263 14.812,-14.982Zm-5.078,0c-0,5.925 -4.063,10.073 -9.734,10.073c-5.756,-0 -9.819,-4.148 -9.819,-10.073c0,-6.009 3.978,-10.157 9.819,-10.157c5.756,0 9.734,4.148 9.734,10.157Z" style="fill-rule:nonzero;"/><path d="M273.062,1482.39l-0,-5.671l-30.557,0l14.136,-12.358c12.104,-10.58 16.082,-16.42 16.082,-25.223c0,-11.088 -7.618,-18.452 -19.045,-18.452c-11.934,-0 -19.975,8.379 -20.314,21.076l6.094,-0c0.254,-9.396 5.756,-15.49 14.136,-15.49c8.041,0 12.95,4.994 12.95,13.204c0,7.195 -2.878,11.427 -14.051,21.161l-19.383,16.929l0,4.824l39.952,0Z" style="fill-rule:nonzero;"/><path d="M300.909,1483.4c12.697,0 21.33,-8.633 21.33,-20.822c0,-11.342 -7.787,-20.399 -20.399,-20.399c-4.74,-0 -9.141,1.524 -12.527,4.232l4.571,-19.045l24.885,0l-0,-5.586l-29.287,-0l-7.279,30.472l4.825,1.523c3.301,-3.64 8.379,-6.179 13.966,-6.179c9.565,0 15.066,6.687 15.066,15.151c0,8.972 -5.925,15.067 -15.066,15.067c-8.634,-0 -13.966,-5.248 -13.966,-13.966l-6.095,-0c0,11.934 7.788,19.552 19.976,19.552Z" style="fill-rule:nonzero;"/><path d="M359.482,1435.66c0,-8.718 -6.179,-15.066 -14.812,-15.066c-8.634,-0 -14.897,6.348 -14.897,15.066c-0,8.719 6.263,14.982 14.897,14.982c8.633,0 14.812,-6.263 14.812,-14.982Zm30.726,-13.881l-6.179,-0l-45.961,60.604l6.094,0l46.046,-60.604Zm-35.804,13.881c-0,5.925 -4.063,10.158 -9.734,10.158c-5.756,-0 -9.819,-4.233 -9.819,-10.158c0,-6.009 3.978,-10.157 9.819,-10.157c5.755,0 9.734,4.148 9.734,10.157Zm44.183,32.842c0,-8.718 -6.179,-15.066 -14.812,-15.066c-8.634,-0 -14.897,6.348 -14.897,15.066c-0,8.718 6.263,14.982 14.897,14.982c8.633,-0 14.812,-6.264 14.812,-14.982Zm-5.078,0c-0,5.925 -4.063,10.073 -9.734,10.073c-5.756,-0 -9.819,-4.148 -9.819,-10.073c0,-6.01 3.978,-10.157 9.819,-10.157c5.756,-0 9.734,4.147 9.734,10.157Z" style="fill-rule:nonzero;"/><g><path d="M630.889,403.222l0,-5.104l-27.5,0l12.722,-11.122c10.893,-9.522 14.474,-14.779 14.474,-22.701c-0,-9.98 -6.856,-16.607 -17.141,-16.607c-10.741,-0 -17.978,7.542 -18.283,18.968l5.485,0c0.229,-8.455 5.181,-13.94 12.722,-13.94c7.237,-0 11.656,4.494 11.656,11.884c-0,6.475 -2.591,10.284 -12.646,19.044l-17.445,15.236l-0,4.342l35.956,0Z" style="fill-rule:nonzero;"/><path d="M666.389,403.222l-0,-11.046l7.16,-7.389l11.732,18.435l6.094,0l-14.245,-22.168l14.169,-14.702l-6.627,-0l-18.283,19.044l-0,-37.708l-5.257,-0l0,55.534l5.257,0Z" style="fill-rule:nonzero;"/><path d="M709.201,403.222l5.256,0l14.627,-46.317l14.626,46.317l5.18,0l16.379,-54.544l-5.561,0l-11.275,37.556c-0.609,2.057 -1.295,4.723 -2.133,8.913c-0.838,-3.504 -1.6,-6.246 -2.437,-8.989l-11.884,-37.48l-5.714,0l-11.884,37.48c-0.838,2.666 -1.599,5.028 -2.514,8.989c-0.685,-3.58 -1.371,-6.323 -2.133,-8.989l-11.046,-37.48l-5.713,0l16.226,54.544Z" style="fill-rule:nonzero;"/><path d="M777.153,403.146l-0,-20.035c-0,-7.085 4.113,-12.95 12.036,-12.95c5.713,-0 9.751,3.047 9.751,11.655l-0,21.406l5.256,0l0,-22.549c0,-9.294 -4.342,-15.312 -14.017,-15.312c-6.17,0 -10.665,2.971 -13.026,7.39l-0,-25.063l-5.257,-0l0,55.458l5.257,0Z" style="fill-rule:nonzero;"/><path d="M836.953,403.222l21.102,0c10.36,0 16.911,-5.561 16.911,-14.321c0,-6.704 -3.199,-11.123 -9.522,-13.179c5.637,-2.21 8.456,-6.552 8.456,-12.951c-0,-8.76 -6.475,-14.093 -16.988,-14.093l-19.959,0l0,54.544Zm19.883,-49.668c7.313,-0 11.427,3.58 11.427,9.674c-0,6.476 -3.886,10.284 -10.742,10.284l-15.083,0l-0,-19.958l14.398,-0Zm1.219,24.758c7.084,-0 11.35,3.732 11.35,9.903c0,6.323 -4.19,10.056 -11.35,10.056l-15.617,-0l-0,-19.959l15.617,-0Z" style="fill-rule:nonzero;"/><path d="M894.316,404.136c6.246,0 11.274,-2.742 13.56,-7.389l0.685,6.475l4.418,0l0,-23.844c0,-9.751 -6.246,-14.017 -14.778,-14.017c-9.065,0 -15.16,4.8 -15.16,12.265l4.799,0c0,-4.952 3.809,-7.846 10.208,-7.846c5.409,-0 9.751,2.285 9.751,9.522l0,1.219l-12.188,0.99c-8.608,0.686 -13.789,4.952 -13.789,11.732c0,6.475 4.647,10.893 12.494,10.893Zm1.219,-4.266c-5.028,0 -8.38,-2.285 -8.38,-6.78c-0,-4.113 2.818,-7.16 9.751,-7.77l10.893,-0.838l0,1.981c0,7.999 -4.494,13.407 -12.264,13.407Z" style="fill-rule:nonzero;"/><path d="M931.262,403.222l0,-32.452l7.39,0l-0,-4.418l-7.39,-0l0,-11.656l-5.18,0l0,11.656l-7.389,-0l-0,4.418l7.389,0l0,32.452l5.18,0Z" style="fill-rule:nonzero;"/><path d="M954.268,403.222l0,-32.452l7.39,0l-0,-4.418l-7.39,-0l0,-11.656l-5.18,0l0,11.656l-7.389,-0l-0,4.418l7.389,0l0,32.452l5.18,0Z" style="fill-rule:nonzero;"/><path d="M983.597,404.136c8.685,0 14.398,-4.189 16.379,-11.96l-5.028,0c-1.371,4.876 -5.256,7.466 -11.275,7.466c-7.922,-0 -12.645,-5.18 -13.026,-14.169l29.329,-0l-0,-2.591c-0,-10.436 -6.78,-17.521 -16.76,-17.521c-10.512,0 -17.673,7.923 -17.673,19.426c-0,11.579 7.237,19.349 18.054,19.349Zm-0.381,-34.28c6.933,-0 11.503,4.723 11.503,11.808l-23.92,-0c0.914,-7.237 5.485,-11.808 12.417,-11.808Z" style="fill-rule:nonzero;"/><path d="M1027.63,365.895c-1.295,-0.305 -2.286,-0.381 -3.428,-0.381c-5.181,-0 -9.066,2.59 -10.513,6.551l-0.381,-5.713l-4.952,-0l0,36.87l5.257,0l-0,-21.025c-0,-7.009 4.342,-11.579 11.122,-11.579l2.895,-0l-0,-4.723Z" style="fill-rule:nonzero;"/><path d="M1037.23,356.22c2.133,-0 3.961,-1.752 3.961,-3.885c0,-2.133 -1.828,-3.962 -3.961,-3.962c-2.133,0 -3.885,1.829 -3.885,3.962c0,2.133 1.752,3.885 3.885,3.885Zm-2.59,47.002l5.256,0l0,-36.87l-5.256,-0l0,36.87Z" style="fill-rule:nonzero;"/><path d="M1066.33,404.136c8.685,0 14.398,-4.189 16.379,-11.96l-5.028,0c-1.371,4.876 -5.256,7.466 -11.274,7.466c-7.923,-0 -12.646,-5.18 -13.027,-14.169l29.329,-0l-0,-2.591c-0,-10.436 -6.78,-17.521 -16.759,-17.521c-10.513,0 -17.674,7.923 -17.674,19.426c0,11.579 7.237,19.349 18.054,19.349Zm-0.38,-34.28c6.932,-0 11.503,4.723 11.503,11.808l-23.921,-0c0.915,-7.237 5.485,-11.808 12.418,-11.808Z" style="fill-rule:nonzero;"/><path d="M1087.96,392.862c0,6.856 5.18,11.274 13.484,11.274c8.38,0 14.017,-4.342 14.017,-10.969c-0,-5.333 -2.895,-8.304 -9.294,-9.904l-6.323,-1.599c-4.037,-0.991 -6.018,-2.971 -6.018,-5.79c0,-3.961 2.895,-6.17 8.075,-6.17c4.952,-0 7.923,2.513 8.075,6.779l5.104,0c-0.229,-6.856 -5.256,-11.122 -13.027,-11.122c-7.922,0 -13.331,4.114 -13.331,10.589c0,5.028 3.123,8.38 9.522,9.98l6.323,1.599c4.342,1.067 5.866,2.819 5.866,5.866c-0,3.961 -3.352,6.399 -9.065,6.399c-5.18,0 -8.38,-2.666 -8.38,-6.932l-5.028,-0Z" style="fill-rule:nonzero;"/><path d="M1124.15,419.296l5.257,-0l-0,-23.158c2.59,5.332 7.541,7.998 13.788,7.998c10.893,0 17.064,-8.379 17.064,-19.501c-0,-11.123 -6.399,-19.274 -17.064,-19.274c-6.171,0 -11.351,2.743 -13.941,8.456l-0.533,-7.465l-4.571,-0l0,52.944Zm5.333,-34.509c-0,-8.532 4.723,-14.626 12.798,-14.626c7.999,-0 12.645,6.094 12.645,14.626c0,8.456 -4.646,14.626 -12.645,14.626c-8.075,0 -12.798,-6.17 -12.798,-14.626Z" style="fill-rule:nonzero;"/><path d="M1184.1,404.136c8.684,0 14.398,-4.189 16.378,-11.96l-5.027,0c-1.372,4.876 -5.257,7.466 -11.275,7.466c-7.923,-0 -12.646,-5.18 -13.026,-14.169l29.328,-0l0,-2.591c0,-10.436 -6.78,-17.521 -16.759,-17.521c-10.513,0 -17.673,7.923 -17.673,19.426c-0,11.579 7.237,19.349 18.054,19.349Zm-0.381,-34.28c6.932,-0 11.503,4.723 11.503,11.808l-23.92,-0c0.914,-7.237 5.485,-11.808 12.417,-11.808Z" style="fill-rule:nonzero;"/><path d="M1211.45,356.22c2.133,-0 3.961,-1.752 3.961,-3.885c0,-2.133 -1.828,-3.962 -3.961,-3.962c-2.133,0 -3.885,1.829 -3.885,3.962c-0,2.133 1.752,3.885 3.885,3.885Zm-2.59,47.002l5.256,0l0,-36.87l-5.256,-0l0,36.87Z" style="fill-rule:nonzero;"/><path d="M1222.49,384.863c0,11.579 7.085,19.273 17.521,19.273c8.38,0 14.931,-4.951 16.683,-12.493l-5.332,0c-1.448,4.723 -5.866,7.77 -11.351,7.77c-7.465,0 -12.341,-5.866 -12.341,-14.626c0,-9.065 5.257,-14.779 12.722,-14.779c5.104,0 9.522,2.819 10.894,7.923l5.256,-0c-1.447,-7.618 -7.694,-12.57 -16.226,-12.57c-10.741,0 -17.826,7.923 -17.826,19.502Z" style="fill-rule:nonzero;"/><path d="M1269.95,403.146l0,-20.035c0,-7.085 4.114,-12.95 12.037,-12.95c5.713,-0 9.751,3.047 9.751,11.655l-0,21.406l5.256,0l-0,-22.549c-0,-9.294 -4.342,-15.312 -14.017,-15.312c-6.17,0 -10.665,2.971 -13.027,7.39l0,-25.063l-5.256,-0l0,55.458l5.256,0Z" style="fill-rule:nonzero;"/><path d="M1322.97,404.136c8.684,0 14.398,-4.189 16.378,-11.96l-5.027,0c-1.372,4.876 -5.257,7.466 -11.275,7.466c-7.923,-0 -12.646,-5.18 -13.027,-14.169l29.329,-0l0,-2.591c0,-10.436 -6.78,-17.521 -16.759,-17.521c-10.513,0 -17.673,7.923 -17.673,19.426c-0,11.579 7.236,19.349 18.054,19.349Zm-0.381,-34.28c6.932,-0 11.503,4.723 11.503,11.808l-23.92,-0c0.914,-7.237 5.485,-11.808 12.417,-11.808Z" style="fill-rule:nonzero;"/><path d="M1367.01,365.895c-1.295,-0.305 -2.285,-0.381 -3.428,-0.381c-5.18,-0 -9.065,2.59 -10.512,6.551l-0.381,-5.713l-4.952,-0l0,36.87l5.256,0l0,-21.025c0,-7.009 4.343,-11.579 11.122,-11.579l2.895,-0l0,-4.723Z" style="fill-rule:nonzero;"/><path d="M601.865,259.977c-5.104,7.008 -6.856,11.427 -6.856,17.749c0,10.894 8.608,19.35 19.578,19.35c10.894,-0 19.349,-8.151 19.349,-19.35c0,-10.665 -7.541,-18.968 -18.892,-18.968c-2.514,-0 -4.875,0.533 -7.465,1.828l14.321,-18.968l-6.399,-0l-13.636,18.359Zm-1.295,17.826c0,-8.304 5.714,-14.246 14.017,-14.246c8.075,0 13.865,5.942 13.865,14.246c-0,8.303 -5.79,14.321 -13.865,14.321c-8.303,0 -14.017,-6.018 -14.017,-14.321Z" style="fill-rule:nonzero;"/><path d="M669.512,296.162l-0,-11.046l7.161,-7.39l11.731,18.436l6.095,-0l-14.246,-22.168l14.169,-14.703l-6.627,0l-18.283,19.045l-0,-37.709l-5.256,0l-0,55.535l5.256,-0Z" style="fill-rule:nonzero;"/><path d="M712.324,296.162l5.257,-0l14.626,-46.317l14.626,46.317l5.181,-0l16.378,-54.544l-5.561,-0l-11.274,37.556c-0.61,2.057 -1.295,4.723 -2.133,8.913c-0.838,-3.505 -1.6,-6.247 -2.438,-8.989l-11.884,-37.48l-5.713,-0l-11.884,37.48c-0.838,2.666 -1.6,5.027 -2.514,8.989c-0.686,-3.581 -1.371,-6.323 -2.133,-8.989l-11.046,-37.48l-5.714,-0l16.226,54.544Z" style="fill-rule:nonzero;"/><path d="M780.276,296.085l-0,-20.035c-0,-7.084 4.114,-12.95 12.036,-12.95c5.714,0 9.751,3.047 9.751,11.655l0,21.407l5.256,-0l0,-22.549c0,-9.294 -4.342,-15.312 -14.016,-15.312c-6.171,-0 -10.665,2.971 -13.027,7.389l-0,-25.063l-5.256,0l-0,55.458l5.256,0Z" style="fill-rule:nonzero;"/><path d="M840.076,296.162l21.102,-0c10.36,-0 16.912,-5.561 16.912,-14.322c-0,-6.704 -3.2,-11.122 -9.523,-13.179c5.637,-2.209 8.456,-6.551 8.456,-12.95c0,-8.761 -6.475,-14.093 -16.988,-14.093l-19.959,-0l0,54.544Zm19.883,-49.669c7.313,0 11.427,3.58 11.427,9.675c-0,6.475 -3.885,10.284 -10.741,10.284l-15.084,-0l0,-19.959l14.398,0Zm1.219,24.758c7.085,0 11.351,3.733 11.351,9.903c-0,6.323 -4.19,10.056 -11.351,10.056l-15.617,0l0,-19.959l15.617,0Z" style="fill-rule:nonzero;"/><path d="M897.439,297.076c6.247,-0 11.274,-2.743 13.56,-7.39l0.685,6.476l4.419,-0l-0,-23.844c-0,-9.751 -6.247,-14.017 -14.779,-14.017c-9.065,-0 -15.159,4.799 -15.159,12.265l4.799,-0c-0,-4.952 3.809,-7.847 10.208,-7.847c5.408,0 9.751,2.286 9.751,9.522l-0,1.219l-12.189,0.991c-8.608,0.685 -13.788,4.951 -13.788,11.731c-0,6.475 4.647,10.894 12.493,10.894Zm1.219,-4.266c-5.028,-0 -8.38,-2.286 -8.38,-6.78c0,-4.114 2.819,-7.161 9.751,-7.77l10.894,-0.838l-0,1.98c-0,7.999 -4.495,13.408 -12.265,13.408Z" style="fill-rule:nonzero;"/><path d="M934.386,296.162l-0,-32.453l7.389,0l0,-4.418l-7.389,0l-0,-11.655l-5.18,-0l-0,11.655l-7.39,0l0,4.418l7.39,0l-0,32.453l5.18,-0Z" style="fill-rule:nonzero;"/><path d="M957.392,296.162l-0,-32.453l7.389,0l0,-4.418l-7.389,0l-0,-11.655l-5.18,-0l-0,11.655l-7.39,0l0,4.418l7.39,0l-0,32.453l5.18,-0Z" style="fill-rule:nonzero;"/><path d="M986.721,297.076c8.684,-0 14.397,-4.19 16.378,-11.96l-5.028,-0c-1.371,4.875 -5.256,7.465 -11.274,7.465c-7.923,0 -12.646,-5.18 -13.027,-14.169l29.329,-0l0,-2.59c0,-10.437 -6.78,-17.521 -16.759,-17.521c-10.513,-0 -17.674,7.922 -17.674,19.425c0,11.58 7.237,19.35 18.055,19.35Zm-0.381,-34.281c6.932,0 11.503,4.723 11.503,11.808l-23.92,0c0.914,-7.237 5.484,-11.808 12.417,-11.808Z" style="fill-rule:nonzero;"/><path d="M1030.75,258.834c-1.295,-0.305 -2.285,-0.381 -3.428,-0.381c-5.18,0 -9.065,2.59 -10.513,6.552l-0.381,-5.714l-4.951,0l-0,36.871l5.256,-0l0,-21.026c0,-7.008 4.342,-11.579 11.122,-11.579l2.895,0l-0,-4.723Z" style="fill-rule:nonzero;"/><path d="M1040.35,249.159c2.133,0 3.962,-1.752 3.962,-3.885c-0,-2.133 -1.829,-3.961 -3.962,-3.961c-2.133,-0 -3.885,1.828 -3.885,3.961c0,2.133 1.752,3.885 3.885,3.885Zm-2.59,47.003l5.257,-0l-0,-36.871l-5.257,0l0,36.871Z" style="fill-rule:nonzero;"/><path d="M1069.45,297.076c8.684,-0 14.398,-4.19 16.378,-11.96l-5.028,-0c-1.371,4.875 -5.256,7.465 -11.274,7.465c-7.923,0 -12.646,-5.18 -13.027,-14.169l29.329,-0l0,-2.59c0,-10.437 -6.78,-17.521 -16.759,-17.521c-10.513,-0 -17.674,7.922 -17.674,19.425c0,11.58 7.237,19.35 18.055,19.35Zm-0.381,-34.281c6.932,0 11.503,4.723 11.503,11.808l-23.92,0c0.914,-7.237 5.485,-11.808 12.417,-11.808Z" style="fill-rule:nonzero;"/><path d="M1091.09,285.801c-0,6.856 5.18,11.275 13.483,11.275c8.38,-0 14.017,-4.342 14.017,-10.97c0,-5.332 -2.895,-8.303 -9.294,-9.903l-6.323,-1.6c-4.037,-0.99 -6.018,-2.971 -6.018,-5.79c0,-3.961 2.895,-6.17 8.075,-6.17c4.952,-0 7.923,2.514 8.075,6.78l5.104,-0c-0.228,-6.856 -5.256,-11.122 -13.026,-11.122c-7.923,-0 -13.332,4.113 -13.332,10.589c0,5.027 3.124,8.379 9.523,9.979l6.323,1.6c4.342,1.066 5.865,2.818 5.865,5.866c0,3.961 -3.352,6.399 -9.065,6.399c-5.18,-0 -8.38,-2.667 -8.38,-6.933l-5.027,0Z" style="fill-rule:nonzero;"/><path d="M1127.27,312.235l5.256,0l-0,-23.158c2.59,5.333 7.542,7.999 13.788,7.999c10.894,-0 17.064,-8.38 17.064,-19.502c0,-11.122 -6.399,-19.273 -17.064,-19.273c-6.17,-0 -11.35,2.742 -13.941,8.456l-0.533,-7.466l-4.57,0l-0,52.944Zm5.332,-34.509c0,-8.532 4.723,-14.626 12.798,-14.626c7.999,0 12.646,6.094 12.646,14.626c-0,8.456 -4.647,14.627 -12.646,14.627c-8.075,-0 -12.798,-6.171 -12.798,-14.627Z" style="fill-rule:nonzero;"/><path d="M1187.22,297.076c8.685,-0 14.398,-4.19 16.379,-11.96l-5.028,-0c-1.371,4.875 -5.256,7.465 -11.275,7.465c-7.922,0 -12.645,-5.18 -13.026,-14.169l29.329,-0l-0,-2.59c-0,-10.437 -6.78,-17.521 -16.76,-17.521c-10.512,-0 -17.673,7.922 -17.673,19.425c-0,11.58 7.237,19.35 18.054,19.35Zm-0.381,-34.281c6.933,0 11.503,4.723 11.503,11.808l-23.92,0c0.914,-7.237 5.485,-11.808 12.417,-11.808Z" style="fill-rule:nonzero;"/><path d="M1214.57,249.159c2.133,0 3.962,-1.752 3.962,-3.885c-0,-2.133 -1.829,-3.961 -3.962,-3.961c-2.133,-0 -3.885,1.828 -3.885,3.961c0,2.133 1.752,3.885 3.885,3.885Zm-2.59,47.003l5.257,-0l-0,-36.871l-5.257,0l0,36.871Z" style="fill-rule:nonzero;"/><path d="M1225.62,277.803c0,11.579 7.085,19.273 17.521,19.273c8.38,-0 14.932,-4.952 16.684,-12.494l-5.333,0c-1.447,4.724 -5.866,7.771 -11.351,7.771c-7.465,-0 -12.34,-5.866 -12.34,-14.627c-0,-9.065 5.256,-14.778 12.721,-14.778c5.104,-0 9.523,2.818 10.894,7.922l5.256,0c-1.447,-7.618 -7.694,-12.569 -16.226,-12.569c-10.741,-0 -17.826,7.922 -17.826,19.502Z" style="fill-rule:nonzero;"/><path d="M1273.08,296.085l-0,-20.035c-0,-7.084 4.113,-12.95 12.036,-12.95c5.713,0 9.751,3.047 9.751,11.655l-0,21.407l5.256,-0l0,-22.549c0,-9.294 -4.342,-15.312 -14.017,-15.312c-6.17,-0 -10.665,2.971 -13.026,7.389l-0,-25.063l-5.257,0l0,55.458l5.257,0Z" style="fill-rule:nonzero;"/><path d="M1326.1,297.076c8.685,-0 14.398,-4.19 16.379,-11.96l-5.028,-0c-1.371,4.875 -5.256,7.465 -11.275,7.465c-7.922,0 -12.645,-5.18 -13.026,-14.169l29.329,-0l-0,-2.59c-0,-10.437 -6.78,-17.521 -16.76,-17.521c-10.512,-0 -17.673,7.922 -17.673,19.425c-0,11.58 7.237,19.35 18.054,19.35Zm-0.381,-34.281c6.933,0 11.503,4.723 11.503,11.808l-23.92,0c0.914,-7.237 5.485,-11.808 12.417,-11.808Z" style="fill-rule:nonzero;"/><path d="M1370.13,258.834c-1.295,-0.305 -2.286,-0.381 -3.428,-0.381c-5.181,0 -9.066,2.59 -10.513,6.552l-0.381,-5.714l-4.952,0l0,36.871l5.257,-0l-0,-21.026c-0,-7.008 4.342,-11.579 11.122,-11.579l2.895,0l-0,-4.723Z" style="fill-rule:nonzero;"/><path d="M605.293,139.509l0,49.592l5.257,0l-0,-54.544l-16.379,0l0,4.952l11.122,-0Z" style="fill-rule:nonzero;"/><path d="M621.138,161.829c0,16.988 8.152,28.262 21.864,28.262c13.636,0 21.787,-11.274 21.787,-28.262c-0,-16.912 -8.304,-28.338 -21.787,-28.338c-13.56,-0 -21.864,11.426 -21.864,28.338Zm5.409,0c0,-14.245 6.018,-23.311 16.455,-23.311c10.436,0 16.454,9.066 16.454,23.311c0,14.169 -6.018,23.311 -16.454,23.311c-10.437,-0 -16.455,-9.142 -16.455,-23.311Z" style="fill-rule:nonzero;"/><path d="M701.05,189.101l0,-11.046l7.161,-7.389l11.731,18.435l6.095,0l-14.246,-22.168l14.169,-14.702l-6.627,-0l-18.283,19.044l0,-37.708l-5.256,-0l-0,55.534l5.256,0Z" style="fill-rule:nonzero;"/><path d="M743.863,189.101l5.256,0l14.626,-46.317l14.627,46.317l5.18,0l16.378,-54.544l-5.561,0l-11.274,37.556c-0.61,2.057 -1.295,4.723 -2.133,8.913c-0.838,-3.504 -1.6,-6.247 -2.438,-8.989l-11.884,-37.48l-5.713,0l-11.884,37.48c-0.838,2.666 -1.6,5.028 -2.514,8.989c-0.686,-3.58 -1.371,-6.323 -2.133,-8.989l-11.046,-37.48l-5.714,0l16.227,54.544Z" style="fill-rule:nonzero;"/><path d="M811.814,189.025l0,-20.035c0,-7.085 4.114,-12.951 12.036,-12.951c5.714,0 9.751,3.048 9.751,11.656l0,21.406l5.257,0l-0,-22.549c-0,-9.294 -4.343,-15.312 -14.017,-15.312c-6.171,0 -10.665,2.971 -13.027,7.39l0,-25.063l-5.256,-0l-0,55.458l5.256,-0Z" style="fill-rule:nonzero;"/><path d="M871.614,189.101l21.102,0c10.36,0 16.912,-5.561 16.912,-14.322c-0,-6.703 -3.2,-11.122 -9.523,-13.178c5.638,-2.21 8.456,-6.552 8.456,-12.951c0,-8.76 -6.475,-14.093 -16.988,-14.093l-19.959,0l0,54.544Zm19.883,-49.668c7.313,-0 11.427,3.58 11.427,9.674c-0,6.475 -3.885,10.284 -10.741,10.284l-15.084,0l0,-19.958l14.398,-0Zm1.219,24.758c7.085,-0 11.351,3.732 11.351,9.903c-0,6.323 -4.19,10.055 -11.351,10.055l-15.617,0l0,-19.958l15.617,-0Z" style="fill-rule:nonzero;"/><path d="M928.977,190.015c6.247,0 11.275,-2.742 13.56,-7.389l0.685,6.475l4.419,0l-0,-23.844c-0,-9.751 -6.247,-14.017 -14.779,-14.017c-9.065,0 -15.159,4.799 -15.159,12.265l4.799,0c-0,-4.952 3.809,-7.846 10.208,-7.846c5.409,-0 9.751,2.285 9.751,9.522l-0,1.219l-12.189,0.99c-8.608,0.686 -13.788,4.952 -13.788,11.732c-0,6.475 4.647,10.893 12.493,10.893Zm1.219,-4.266c-5.028,0 -8.38,-2.285 -8.38,-6.78c0,-4.113 2.819,-7.16 9.751,-7.77l10.894,-0.838l-0,1.981c-0,7.999 -4.495,13.407 -12.265,13.407Z" style="fill-rule:nonzero;"/><path d="M965.924,189.101l-0,-32.452l7.389,-0l0,-4.418l-7.389,-0l-0,-11.656l-5.18,0l-0,11.656l-7.39,-0l0,4.418l7.39,-0l-0,32.452l5.18,0Z" style="fill-rule:nonzero;"/><path d="M988.93,189.101l-0,-32.452l7.389,-0l0,-4.418l-7.389,-0l-0,-11.656l-5.18,0l-0,11.656l-7.39,-0l0,4.418l7.39,-0l-0,32.452l5.18,0Z" style="fill-rule:nonzero;"/><path d="M1018.26,190.015c8.684,0 14.397,-4.19 16.378,-11.96l-5.028,0c-1.371,4.876 -5.256,7.466 -11.274,7.466c-7.923,-0 -12.646,-5.18 -13.027,-14.17l29.329,0l0,-2.59c0,-10.436 -6.78,-17.521 -16.759,-17.521c-10.513,0 -17.674,7.923 -17.674,19.426c0,11.579 7.237,19.349 18.055,19.349Zm-0.381,-34.28c6.932,-0 11.503,4.723 11.503,11.807l-23.92,0c0.914,-7.236 5.484,-11.807 12.417,-11.807Z" style="fill-rule:nonzero;"/><path d="M1062.29,151.773c-1.295,-0.304 -2.285,-0.38 -3.428,-0.38c-5.18,-0 -9.065,2.59 -10.513,6.551l-0.381,-5.713l-4.951,-0l-0,36.87l5.256,0l0,-21.025c0,-7.009 4.342,-11.579 11.122,-11.579l2.895,-0l-0,-4.724Z" style="fill-rule:nonzero;"/><path d="M1071.89,142.099c2.133,-0 3.961,-1.752 3.961,-3.885c-0,-2.133 -1.828,-3.962 -3.961,-3.962c-2.134,0 -3.886,1.829 -3.886,3.962c0,2.133 1.752,3.885 3.886,3.885Zm-2.591,47.002l5.257,0l-0,-36.87l-5.257,-0l0,36.87Z" style="fill-rule:nonzero;"/><path d="M1100.99,190.015c8.684,0 14.398,-4.19 16.378,-11.96l-5.028,0c-1.371,4.876 -5.256,7.466 -11.274,7.466c-7.923,-0 -12.646,-5.18 -13.027,-14.17l29.329,0l0,-2.59c0,-10.436 -6.78,-17.521 -16.759,-17.521c-10.513,0 -17.674,7.923 -17.674,19.426c0,11.579 7.237,19.349 18.055,19.349Zm-0.381,-34.28c6.932,-0 11.503,4.723 11.503,11.807l-23.92,0c0.914,-7.236 5.485,-11.807 12.417,-11.807Z" style="fill-rule:nonzero;"/><path d="M1122.62,178.741c-0,6.856 5.18,11.274 13.483,11.274c8.38,0 14.017,-4.342 14.017,-10.97c0,-5.332 -2.895,-8.303 -9.294,-9.903l-6.323,-1.6c-4.037,-0.99 -6.018,-2.97 -6.018,-5.789c0,-3.961 2.895,-6.171 8.075,-6.171c4.952,0 7.923,2.514 8.075,6.78l5.104,0c-0.228,-6.856 -5.256,-11.122 -13.026,-11.122c-7.923,0 -13.332,4.114 -13.332,10.589c0,5.028 3.124,8.38 9.523,9.98l6.323,1.599c4.342,1.067 5.865,2.819 5.865,5.866c0,3.961 -3.352,6.399 -9.065,6.399c-5.18,0 -8.38,-2.666 -8.38,-6.932l-5.027,-0Z" style="fill-rule:nonzero;"/><path d="M1158.81,205.175l5.256,-0l-0,-23.159c2.59,5.333 7.542,7.999 13.788,7.999c10.894,0 17.064,-8.379 17.064,-19.502c0,-11.122 -6.399,-19.273 -17.064,-19.273c-6.17,0 -11.35,2.743 -13.94,8.456l-0.534,-7.465l-4.57,-0l-0,52.944Zm5.332,-34.509c0,-8.532 4.723,-14.627 12.798,-14.627c7.999,0 12.646,6.095 12.646,14.627c-0,8.456 -4.647,14.626 -12.646,14.626c-8.075,0 -12.798,-6.17 -12.798,-14.626Z" style="fill-rule:nonzero;"/><path d="M1218.76,190.015c8.685,0 14.398,-4.19 16.379,-11.96l-5.028,0c-1.371,4.876 -5.256,7.466 -11.275,7.466c-7.922,-0 -12.645,-5.18 -13.026,-14.17l29.329,0l-0,-2.59c-0,-10.436 -6.78,-17.521 -16.76,-17.521c-10.512,0 -17.673,7.923 -17.673,19.426c-0,11.579 7.237,19.349 18.054,19.349Zm-0.381,-34.28c6.933,-0 11.503,4.723 11.503,11.807l-23.92,0c0.914,-7.236 5.485,-11.807 12.417,-11.807Z" style="fill-rule:nonzero;"/><path d="M1246.11,142.099c2.133,-0 3.962,-1.752 3.962,-3.885c-0,-2.133 -1.829,-3.962 -3.962,-3.962c-2.133,0 -3.885,1.829 -3.885,3.962c0,2.133 1.752,3.885 3.885,3.885Zm-2.59,47.002l5.257,0l-0,-36.87l-5.257,-0l0,36.87Z" style="fill-rule:nonzero;"/><path d="M1257.15,170.742c0,11.579 7.085,19.273 17.522,19.273c8.379,0 14.931,-4.951 16.683,-12.493l-5.333,-0c-1.447,4.723 -5.866,7.77 -11.35,7.77c-7.466,0 -12.341,-5.866 -12.341,-14.626c-0,-9.065 5.256,-14.779 12.721,-14.779c5.104,0 9.523,2.819 10.894,7.923l5.256,-0c-1.447,-7.618 -7.694,-12.57 -16.226,-12.57c-10.741,0 -17.826,7.923 -17.826,19.502Z" style="fill-rule:nonzero;"/><path d="M1304.62,189.025l-0,-20.035c-0,-7.085 4.113,-12.951 12.036,-12.951c5.713,0 9.751,3.048 9.751,11.656l-0,21.406l5.256,0l0,-22.549c0,-9.294 -4.342,-15.312 -14.017,-15.312c-6.17,0 -10.665,2.971 -13.026,7.39l-0,-25.063l-5.257,-0l0,55.458l5.257,-0Z" style="fill-rule:nonzero;"/><path d="M1357.63,190.015c8.685,0 14.398,-4.19 16.379,-11.96l-5.028,0c-1.371,4.876 -5.256,7.466 -11.275,7.466c-7.922,-0 -12.645,-5.18 -13.026,-14.17l29.329,0l-0,-2.59c-0,-10.436 -6.78,-17.521 -16.76,-17.521c-10.512,0 -17.673,7.923 -17.673,19.426c-0,11.579 7.237,19.349 18.054,19.349Zm-0.381,-34.28c6.933,-0 11.503,4.723 11.503,11.807l-23.92,0c0.914,-7.236 5.485,-11.807 12.417,-11.807Z" style="fill-rule:nonzero;"/><path d="M1401.67,151.773c-1.295,-0.304 -2.286,-0.38 -3.428,-0.38c-5.181,-0 -9.066,2.59 -10.513,6.551l-0.381,-5.713l-4.952,-0l0,36.87l5.257,0l-0,-21.025c-0,-7.009 4.342,-11.579 11.122,-11.579l2.895,-0l-0,-4.724Z" style="fill-rule:nonzero;"/><path d="M646.887,482.31c-0,-16.607 -10.665,-28.262 -25.977,-28.262c-15.236,-0 -25.977,11.732 -25.977,28.262c-0,16.531 10.665,28.186 25.977,28.186c15.236,0 25.977,-11.655 25.977,-28.186Zm-5.637,0c-0,13.56 -8.304,22.93 -20.34,22.93c-12.036,0 -20.264,-9.294 -20.264,-22.93c0,-13.636 8.228,-22.93 20.264,-22.93c12.036,0 20.34,9.294 20.34,22.93Z" style="fill-rule:nonzero;"/><path d="M660.98,509.506l-0,-20.035c-0,-7.085 4.114,-12.95 12.036,-12.95c5.714,-0 9.751,3.047 9.751,11.655l0,21.406l5.256,0l0,-22.549c0,-9.293 -4.342,-15.312 -14.016,-15.312c-6.171,0 -10.665,2.971 -13.027,7.39l-0,-25.063l-5.256,-0l-0,55.458l5.256,0Z" style="fill-rule:nonzero;"/><path d="M703.792,509.582l0,-19.273c0,-8.303 4.266,-13.788 11.808,-13.788c6.094,-0 9.98,3.047 9.98,11.655l-0,21.406l5.256,0l-0,-22.549c-0,-9.293 -4.19,-15.312 -14.322,-15.312c-5.332,0 -10.208,2.667 -12.645,7.39l-0.762,-6.399l-4.571,-0l0,36.87l5.256,0Z" style="fill-rule:nonzero;"/><path d="M756.813,510.496c8.684,0 14.398,-4.189 16.378,-11.96l-5.027,0c-1.372,4.876 -5.257,7.466 -11.275,7.466c-7.922,-0 -12.646,-5.18 -13.026,-14.169l29.328,-0l0,-2.59c0,-10.437 -6.78,-17.522 -16.759,-17.522c-10.513,0 -17.673,7.923 -17.673,19.426c-0,11.579 7.237,19.349 18.054,19.349Zm-0.381,-34.28c6.932,-0 11.503,4.723 11.503,11.808l-23.92,-0c0.914,-7.237 5.485,-11.808 12.417,-11.808Z" style="fill-rule:nonzero;"/><path d="M803.815,509.582l21.102,0c10.36,0 16.911,-5.561 16.911,-14.321c0,-6.704 -3.199,-11.122 -9.522,-13.179c5.637,-2.209 8.456,-6.552 8.456,-12.951c-0,-8.76 -6.475,-14.093 -16.988,-14.093l-19.959,0l0,54.544Zm19.883,-49.668c7.313,-0 11.427,3.58 11.427,9.674c-0,6.476 -3.885,10.285 -10.741,10.285l-15.084,-0l0,-19.959l14.398,-0Zm1.219,24.758c7.084,-0 11.35,3.733 11.35,9.903c0,6.323 -4.189,10.056 -11.35,10.056l-15.617,-0l0,-19.959l15.617,-0Z" style="fill-rule:nonzero;"/><path d="M861.178,510.496c6.247,0 11.274,-2.742 13.56,-7.389l0.685,6.475l4.419,0l-0,-23.844c-0,-9.751 -6.247,-14.017 -14.779,-14.017c-9.065,0 -15.16,4.8 -15.16,12.265l4.8,0c-0,-4.951 3.809,-7.846 10.208,-7.846c5.408,-0 9.751,2.285 9.751,9.522l-0,1.219l-12.189,0.99c-8.608,0.686 -13.788,4.952 -13.788,11.732c-0,6.475 4.646,10.893 12.493,10.893Zm1.219,-4.266c-5.028,0 -8.38,-2.285 -8.38,-6.779c0,-4.114 2.819,-7.161 9.751,-7.771l10.894,-0.838l-0,1.981c-0,7.999 -4.495,13.407 -12.265,13.407Z" style="fill-rule:nonzero;"/><path d="M898.125,509.582l-0,-32.452l7.389,0l-0,-4.418l-7.389,-0l-0,-11.656l-5.181,0l0,11.656l-7.389,-0l0,4.418l7.389,0l0,32.452l5.181,0Z" style="fill-rule:nonzero;"/><path d="M921.131,509.582l-0,-32.452l7.389,0l-0,-4.418l-7.389,-0l-0,-11.656l-5.181,0l0,11.656l-7.389,-0l0,4.418l7.389,0l0,32.452l5.181,0Z" style="fill-rule:nonzero;"/><path d="M950.459,510.496c8.685,0 14.398,-4.189 16.379,-11.96l-5.028,0c-1.371,4.876 -5.256,7.466 -11.274,7.466c-7.923,-0 -12.646,-5.18 -13.027,-14.169l29.329,-0l-0,-2.59c-0,-10.437 -6.78,-17.522 -16.759,-17.522c-10.513,0 -17.674,7.923 -17.674,19.426c0,11.579 7.237,19.349 18.054,19.349Zm-0.38,-34.28c6.932,-0 11.503,4.723 11.503,11.808l-23.921,-0c0.915,-7.237 5.485,-11.808 12.418,-11.808Z" style="fill-rule:nonzero;"/><path d="M994.491,472.255c-1.295,-0.305 -2.286,-0.381 -3.428,-0.381c-5.18,-0 -9.065,2.59 -10.513,6.551l-0.381,-5.713l-4.951,-0l-0,36.87l5.256,0l-0,-21.025c-0,-7.008 4.342,-11.579 11.122,-11.579l2.895,-0l-0,-4.723Z" style="fill-rule:nonzero;"/><path d="M1004.09,462.58c2.133,-0 3.962,-1.752 3.962,-3.885c-0,-2.133 -1.829,-3.961 -3.962,-3.961c-2.133,-0 -3.885,1.828 -3.885,3.961c0,2.133 1.752,3.885 3.885,3.885Zm-2.59,47.002l5.257,0l-0,-36.87l-5.257,-0l0,36.87Z" style="fill-rule:nonzero;"/><path d="M1033.19,510.496c8.684,0 14.397,-4.189 16.378,-11.96l-5.028,0c-1.371,4.876 -5.256,7.466 -11.274,7.466c-7.923,-0 -12.646,-5.18 -13.027,-14.169l29.329,-0l0,-2.59c0,-10.437 -6.78,-17.522 -16.759,-17.522c-10.513,0 -17.674,7.923 -17.674,19.426c0,11.579 7.237,19.349 18.055,19.349Zm-0.381,-34.28c6.932,-0 11.503,4.723 11.503,11.808l-23.92,-0c0.914,-7.237 5.485,-11.808 12.417,-11.808Z" style="fill-rule:nonzero;"/><path d="M1054.82,499.222c0,6.856 5.181,11.274 13.484,11.274c8.38,0 14.017,-4.342 14.017,-10.969c0,-5.333 -2.895,-8.304 -9.294,-9.904l-6.323,-1.599c-4.037,-0.991 -6.018,-2.971 -6.018,-5.79c0,-3.961 2.895,-6.17 8.075,-6.17c4.952,-0 7.923,2.514 8.075,6.78l5.104,-0c-0.228,-6.857 -5.256,-11.123 -13.026,-11.123c-7.923,0 -13.332,4.114 -13.332,10.589c0,5.028 3.124,8.38 9.523,9.98l6.322,1.599c4.343,1.067 5.866,2.819 5.866,5.866c0,3.962 -3.352,6.399 -9.065,6.399c-5.18,0 -8.38,-2.666 -8.38,-6.932l-5.028,0Z" style="fill-rule:nonzero;"/><path d="M1091.01,525.656l5.257,0l-0,-23.158c2.59,5.332 7.541,7.998 13.788,7.998c10.894,0 17.064,-8.379 17.064,-19.501c0,-11.122 -6.399,-19.274 -17.064,-19.274c-6.17,0 -11.351,2.743 -13.941,8.456l-0.533,-7.465l-4.571,-0l0,52.944Zm5.333,-34.509c-0,-8.532 4.723,-14.626 12.798,-14.626c7.999,-0 12.646,6.094 12.646,14.626c-0,8.456 -4.647,14.626 -12.646,14.626c-8.075,0 -12.798,-6.17 -12.798,-14.626Z" style="fill-rule:nonzero;"/><path d="M1150.96,510.496c8.685,0 14.398,-4.189 16.379,-11.96l-5.028,0c-1.371,4.876 -5.257,7.466 -11.275,7.466c-7.922,-0 -12.645,-5.18 -13.026,-14.169l29.329,-0l-0,-2.59c-0,-10.437 -6.78,-17.522 -16.76,-17.522c-10.512,0 -17.673,7.923 -17.673,19.426c-0,11.579 7.237,19.349 18.054,19.349Zm-0.381,-34.28c6.932,-0 11.503,4.723 11.503,11.808l-23.92,-0c0.914,-7.237 5.485,-11.808 12.417,-11.808Z" style="fill-rule:nonzero;"/><path d="M1178.31,462.58c2.133,-0 3.962,-1.752 3.962,-3.885c-0,-2.133 -1.829,-3.961 -3.962,-3.961c-2.133,-0 -3.885,1.828 -3.885,3.961c0,2.133 1.752,3.885 3.885,3.885Zm-2.59,47.002l5.257,0l-0,-36.87l-5.257,-0l0,36.87Z" style="fill-rule:nonzero;"/><path d="M1189.36,491.223c0,11.579 7.085,19.273 17.521,19.273c8.38,0 14.931,-4.951 16.684,-12.493l-5.333,0c-1.447,4.723 -5.866,7.77 -11.351,7.77c-7.465,0 -12.341,-5.865 -12.341,-14.626c0,-9.065 5.257,-14.779 12.722,-14.779c5.104,0 9.523,2.819 10.894,7.923l5.256,-0c-1.447,-7.618 -7.694,-12.57 -16.226,-12.57c-10.741,0 -17.826,7.923 -17.826,19.502Z" style="fill-rule:nonzero;"/><path d="M1236.82,509.506l-0,-20.035c-0,-7.085 4.113,-12.95 12.036,-12.95c5.713,-0 9.751,3.047 9.751,11.655l-0,21.406l5.256,0l0,-22.549c0,-9.293 -4.342,-15.312 -14.017,-15.312c-6.17,0 -10.665,2.971 -13.026,7.39l-0,-25.063l-5.257,-0l0,55.458l5.257,0Z" style="fill-rule:nonzero;"/><path d="M1289.84,510.496c8.684,0 14.398,-4.189 16.379,-11.96l-5.028,0c-1.371,4.876 -5.257,7.466 -11.275,7.466c-7.922,-0 -12.645,-5.18 -13.026,-14.169l29.329,-0l-0,-2.59c-0,-10.437 -6.78,-17.522 -16.76,-17.522c-10.512,0 -17.673,7.923 -17.673,19.426c-0,11.579 7.237,19.349 18.054,19.349Zm-0.381,-34.28c6.932,-0 11.503,4.723 11.503,11.808l-23.92,-0c0.914,-7.237 5.485,-11.808 12.417,-11.808Z" style="fill-rule:nonzero;"/><path d="M1333.87,472.255c-1.295,-0.305 -2.285,-0.381 -3.428,-0.381c-5.18,-0 -9.065,2.59 -10.512,6.551l-0.381,-5.713l-4.952,-0l0,36.87l5.257,0l-0,-21.025c-0,-7.008 4.342,-11.579 11.122,-11.579l2.894,-0l0,-4.723Z" style="fill-rule:nonzero;"/><circle cx="535.152" cy="383.492" r="29.625" style="fill:#215250;"/><circle cx="535.152" cy="276.431" r="29.625" style="fill:#cecece;"/><circle cx="535.152" cy="169.333" r="29.625" style="fill:#4b5563;"/><circle cx="535.152" cy="489.852" r="29.625" style="fill:#facc15;"/></g><path d="M466.989,1948.1l0,53.748l7.957,0l-0,-61.197l-20.822,0l-0,7.449l12.865,-0Z" style="fill-rule:nonzero;"/><path d="M947.566,2003.42l0,-7.703l-28.271,0l12.697,-11.003c10.834,-9.396 15.151,-15.575 15.151,-24.293c0,-11.765 -7.872,-19.214 -20.145,-19.214c-12.443,0 -20.738,8.549 -20.992,21.669l8.295,-0c0.17,-8.718 5.079,-14.22 12.612,-14.22c7.364,-0 11.766,4.571 11.766,12.273c-0,6.518 -2.794,10.665 -12.697,19.214l-19.722,17.013l0,6.349l41.306,-0.085Z" style="fill-rule:nonzero;"/><path d="M1924.63,1989.49l-0,-7.364l-7.279,0l-0,-41.475l-10.75,0l-28.863,41.475l-0,7.364l31.656,0l0,12.358l7.957,0l-0,-12.358l7.279,0Zm-37.92,-7.364l22.684,-32.672l0,32.672l-22.684,0Z" style="fill-rule:nonzero;"/><path d="M2865.64,1960.04c-6.264,8.549 -8.465,13.628 -8.465,20.907c0,12.358 9.819,21.923 22.515,21.923c12.612,-0 22.262,-9.142 22.262,-21.923c-0,-12.104 -8.549,-21.245 -21.246,-21.245c-2.116,-0 -4.317,0.423 -6.433,1.269l15.321,-20.314l-9.65,0l-14.304,19.383Zm-0,20.992c-0,-8.38 5.755,-14.305 14.05,-14.305c8.126,0 13.882,5.925 13.882,14.305c-0,8.38 -5.756,14.389 -13.882,14.389c-8.295,0 -14.05,-6.009 -14.05,-14.389Z" style="fill-rule:nonzero;"/><path d="M3834.12,1986.49c0,10.835 8.888,18.029 22.515,18.029c13.543,0 22.515,-7.194 22.515,-17.944c0,-7.533 -4.401,-13.628 -11.257,-15.828c5.755,-2.286 8.972,-7.11 8.972,-13.374c-0,-9.649 -8.126,-16.167 -20.145,-16.167c-12.189,0 -20.399,6.518 -20.399,16.082c-0,6.179 3.132,11.004 8.887,13.459c-6.771,2.454 -11.088,8.379 -11.088,15.743Zm9.819,-28.694c-0,-5.671 4.994,-9.395 12.611,-9.395c7.703,-0 12.528,3.724 12.528,9.565c-0,5.925 -4.825,9.734 -12.528,9.734c-7.617,-0 -12.611,-3.894 -12.611,-9.904Zm-1.693,28.102c-0,-6.772 5.586,-11.088 14.304,-11.088c8.803,-0 14.39,4.316 14.39,11.088c-0,6.856 -5.671,11.257 -14.305,11.257c-8.718,0 -14.389,-4.401 -14.389,-11.257Z" style="fill-rule:nonzero;"/><path d="M4827.98,1949.88l0,53.749l7.957,-0l-0,-61.197l-20.822,-0l-0,7.448l12.865,0Z" style="fill-rule:nonzero;"/><path d="M4847.11,1973.07c-0,19.045 9.395,31.657 25.223,31.657c15.744,-0 25.139,-12.612 25.139,-31.657c0,-18.96 -9.818,-31.825 -25.139,-31.825c-15.405,-0 -25.223,12.865 -25.223,31.825Zm8.21,0c0,-15.235 6.264,-24.377 17.013,-24.377c10.75,0 16.929,9.142 16.929,24.377c0,15.067 -6.179,24.208 -16.929,24.208c-10.749,0 -17.013,-9.141 -17.013,-24.208Z" style="fill-rule:nonzero;"/><path d="M1409.9,1970.2c9.733,-0 14.812,4.909 14.812,12.273c0,7.872 -5.163,12.95 -13.12,12.95c-7.702,0 -12.611,-4.655 -12.611,-12.612l-8.211,0c0,12.697 8.634,20.061 20.653,20.061c12.443,-0 21.753,-7.872 21.753,-20.23c0,-11.004 -7.871,-18.029 -18.283,-19.299l16.76,-15.997l-0,-6.687l-38.005,0l0,7.364l27.509,0l-17.352,16.675l0,5.502l6.095,-0Z" style="fill-rule:nonzero;"/><path d="M2390.27,2002.87c13.205,-0 22.261,-8.888 22.261,-21.584c0,-11.766 -8.041,-20.484 -20.483,-20.484c-4.571,0 -8.634,1.27 -11.85,3.724l4.063,-16.251l24.631,-0l-0,-7.618l-30.641,0l-7.449,31.403l7.026,1.777c2.793,-3.47 7.533,-5.925 12.696,-5.925c8.549,0 13.543,5.841 13.543,13.712c0,8.295 -5.332,13.797 -13.627,13.797c-7.788,0 -12.612,-4.824 -12.612,-12.696l-8.211,-0c0,12.188 8.126,20.145 20.653,20.145Z" style="fill-rule:nonzero;"/><path d="M3349.14,1940.65l-0,7.618l34.365,-0l-23.446,53.579l8.633,0l23.192,-53.579l0,-7.618l-42.744,0Z" style="fill-rule:nonzero;"/><path d="M4360.49,1984.12c6.263,-8.549 8.464,-13.712 8.464,-20.907c0,-12.442 -9.818,-22.007 -22.515,-22.007c-12.612,0 -22.261,9.226 -22.261,21.923c-0,12.188 8.549,21.33 21.245,21.33c2.116,-0 4.317,-0.423 6.433,-1.27l-15.32,20.315l9.649,-0l14.305,-19.384Zm-0,-20.991c-0,8.38 -5.756,14.305 -14.051,14.305c-8.126,-0 -13.881,-5.925 -13.881,-14.305c-0,-8.38 5.755,-14.474 13.881,-14.474c8.295,-0 14.051,6.094 14.051,14.474Z" style="fill-rule:nonzero;"/><path d="M128,608.085l-15.236,-5.418l0,-25.731l15.236,-5.502l0,-8.718l-61.197,22.43l0,9.226l61.197,22.346l0,-8.633Zm-47.992,-17.268c-1.27,-0.423 -2.709,-0.846 -3.555,-1.015c0.931,-0.17 2.37,-0.593 3.555,-1.016l25.562,-9.395l-0,20.737l-25.562,-9.311Z" style="fill-rule:nonzero;"/><path d="M86.61,528.52l21.838,0c8.887,0 13.543,3.978 13.543,11.258c-0,6.094 -3.386,9.903 -12.274,9.903l-23.107,-0l-0,7.956l25.731,0c10.157,0 16.675,-5.417 16.675,-15.066c-0,-6.094 -2.963,-11.596 -7.279,-13.966l6.263,-0.847l0,-7.11l-41.39,0l-0,7.872Z" style="fill-rule:nonzero;"/><path d="M128,497.456l-34.703,0l-0,-8.126l-6.687,0l-0,8.126l-12.951,0l0,7.956l12.951,0l-0,8.126l6.687,0l-0,-8.126l34.703,0l0,-7.956Z" style="fill-rule:nonzero;"/><path d="M129.016,470.624c-0,-6.687 -2.963,-12.358 -7.703,-14.474l6.687,-0.846l0,-6.772l-25.985,0c-11.173,0 -16.59,6.941 -16.59,17.183c-0,10.665 5.671,17.775 14.304,17.775l0,-6.941c-4.994,0 -7.956,-3.809 -7.956,-10.496c-0,-5.586 2.455,-9.734 9.395,-9.734l1.185,0l1.016,13.036c0.762,9.733 5.502,15.405 13.12,15.405c7.533,-0 12.527,-5.248 12.527,-14.136Zm-6.179,-2.285c-0,5.163 -2.201,8.379 -6.602,8.379c-4.063,0 -6.772,-2.877 -7.449,-9.903l-0.846,-10.58l2.2,-0c7.788,-0 12.697,4.571 12.697,12.104Z" style="fill-rule:nonzero;"/><path d="M86.271,413.829c-0.338,1.608 -0.508,2.793 -0.508,4.232c0,5.671 2.878,9.818 7.195,11.511l-6.264,0.508l0,7.449l41.306,-0l0,-7.957l-21.922,0c-7.957,0 -12.528,-4.655 -12.528,-12.188l0,-3.555l-7.279,-0Z" style="fill-rule:nonzero;"/><path d="M128,398.254l-11.765,0l-7.364,-7.025l19.129,-12.104l0,-9.142l-24.885,15.744l-16.505,-15.828l-0,9.988l19.468,18.367l-40.375,0l-0,7.957l62.297,-0l0,-7.957Z" style="fill-rule:nonzero;"/><path d="M76.791,359.488c0,-2.878 -2.37,-5.248 -5.248,-5.248c-2.962,-0 -5.248,2.37 -5.248,5.248c0,2.878 2.286,5.248 5.248,5.248c2.878,-0 5.248,-2.37 5.248,-5.248Zm51.209,3.893l0,-7.956l-41.39,-0l-0,7.956l41.39,0Z" style="fill-rule:nonzero;"/><path d="M129.016,326.054c-0,-10.242 -4.994,-17.183 -13.882,-19.214l0,7.448c4.74,1.355 7.28,5.417 7.28,11.596c-0,7.872 -4.825,12.443 -13.543,13.035l-0.085,-31.995l-2.962,0c-12.274,0 -20.399,7.703 -20.399,19.468c-0,12.02 8.972,20.23 21.922,20.23c12.866,-0 21.669,-8.38 21.669,-20.568Zm-36.905,0.338c0,-7.025 4.571,-11.511 11.427,-11.511l0,23.869c-7.279,-1.016 -11.427,-5.417 -11.427,-12.358Z" style="fill-rule:nonzero;"/><path d="M106.247,300.661c11.596,-0 20.653,-7.449 20.653,-19.214c-0,-6.518 -2.878,-11.935 -7.703,-14.644l8.295,0c7.872,0 12.951,5.079 12.951,12.866c-0,6.941 -3.555,11.512 -9.65,12.527l0,7.957c10.496,-1.524 16.844,-9.226 16.844,-20.484c0,-12.696 -8.295,-20.737 -21.33,-20.737l-39.697,-0l-0,7.11l7.025,0.592c-5.163,2.624 -8.21,7.787 -8.21,14.474c-0,12.02 9.141,19.553 20.822,19.553Zm-0.169,-7.957c-7.618,0 -13.713,-4.74 -13.713,-12.696c0,-8.126 5.756,-12.866 13.713,-12.866c8.125,0 13.881,4.909 13.881,12.95c0,7.788 -6.094,12.612 -13.881,12.612Z" style="fill-rule:nonzero;"/><path d="M86.271,223.72c-0.338,1.608 -0.508,2.793 -0.508,4.232c0,5.671 2.878,9.819 7.195,11.512l-6.264,0.508l0,7.448l41.306,0l0,-7.956l-21.922,-0c-7.957,-0 -12.528,-4.656 -12.528,-12.189l0,-3.555l-7.279,0Z" style="fill-rule:nonzero;"/><path d="M129.016,205.86c-0,-6.686 -2.963,-12.357 -7.703,-14.474l6.687,-0.846l0,-6.771l-25.985,-0c-11.173,-0 -16.59,6.94 -16.59,17.182c-0,10.665 5.671,17.775 14.304,17.775l0,-6.941c-4.994,0 -7.956,-3.808 -7.956,-10.495c-0,-5.587 2.455,-9.734 9.395,-9.734l1.185,-0l1.016,13.035c0.762,9.734 5.502,15.405 13.12,15.405c7.533,-0 12.527,-5.248 12.527,-14.136Zm-6.179,-2.285c-0,5.163 -2.201,8.38 -6.602,8.38c-4.063,-0 -6.772,-2.878 -7.449,-9.904l-0.846,-10.58l2.2,0c7.788,0 12.697,4.571 12.697,12.104Z" style="fill-rule:nonzero;"/><path d="M129.016,156.175c-0,-6.602 -2.878,-12.189 -8.549,-14.897l7.533,-0.677l0,-7.11l-62.297,-0l-0,7.871l27.594,0c-5.079,2.794 -7.872,8.126 -7.872,14.474c-0,12.274 9.31,19.638 22.007,19.638c12.612,-0 21.584,-7.28 21.584,-19.299Zm-7.195,-1.608c0,8.125 -6.094,12.865 -14.643,12.865c-8.464,0 -14.559,-4.74 -14.559,-12.865c0,-8.126 6.095,-13.12 14.559,-13.12c8.634,0 14.643,4.994 14.643,13.12Z" style="fill-rule:nonzero;"/><path d="M4218.13,2116.7c11.934,-0 19.721,-8.295 19.721,-19.722c0,-11.765 -7.702,-19.637 -19.721,-19.637l-23.785,-0l-0,61.197l8.295,-0l-0,-21.838l15.49,-0Zm-1.439,-31.91c7.787,-0 12.442,4.401 12.442,12.103c0,7.534 -4.57,12.358 -12.781,12.358l-13.712,0l-0,-24.461l14.051,-0Z" style="fill-rule:nonzero;"/><path d="M4264.26,2138.54l8.634,-0l23.023,-61.197l-8.634,-0l-14.812,39.02c-1.016,2.709 -2.455,6.772 -3.894,11.597c-1.27,-4.571 -2.455,-8.042 -3.809,-11.512l-14.897,-39.105l-8.888,-0l23.277,61.197Z" style="fill-rule:nonzero;"/><rect x="4296.26" y="2112.55" width="25.816" height="7.11" style="fill-rule:nonzero;"/><path d="M4342.81,2077.34l-8.295,-0l-0,61.197l35.211,-0l0,-7.703l-26.916,0l-0,-53.494Z" style="fill-rule:nonzero;"/><path d="M4394.36,2139.55c10.241,-0 17.182,-4.994 19.214,-13.882l-7.449,0c-1.354,4.74 -5.417,7.279 -11.596,7.279c-7.872,0 -12.443,-4.824 -13.035,-13.542l31.995,-0.085l-0,-2.963c-0,-12.273 -7.703,-20.399 -19.468,-20.399c-12.019,0 -20.23,8.973 -20.23,21.923c0,12.866 8.38,21.669 20.569,21.669Zm-0.339,-36.905c7.025,0 11.512,4.571 11.512,11.427l-23.87,0c1.016,-7.279 5.417,-11.427 12.358,-11.427Z" style="fill-rule:nonzero;"/><path d="M4426.27,2087.33c2.878,-0 5.248,-2.37 5.248,-5.248c-0,-2.963 -2.37,-5.248 -5.248,-5.248c-2.878,0 -5.248,2.285 -5.248,5.248c0,2.878 2.37,5.248 5.248,5.248Zm-3.893,51.209l7.956,-0l-0,-41.391l-7.956,0l-0,41.391Z" style="fill-rule:nonzero;"/><path d="M4438.46,2126.52c-0,7.871 6.179,13.035 15.913,13.035c9.818,-0 16.59,-4.994 16.59,-12.866c-0,-6.179 -3.471,-9.396 -10.496,-11.088l-7.279,-1.778c-4.063,-1.016 -6.095,-2.878 -6.095,-5.671c0,-3.809 2.794,-6.01 7.787,-6.01c4.825,0 7.618,2.624 7.788,6.772l7.618,-0c-0.17,-7.872 -6.095,-12.951 -15.152,-12.951c-9.141,0 -15.574,4.825 -15.574,12.443c0,6.094 3.47,9.734 10.834,11.511l7.28,1.693c4.316,1.101 5.671,2.793 5.671,5.587c-0,3.809 -3.217,6.094 -8.803,6.094c-5.248,0 -8.464,-2.539 -8.464,-6.771l-7.618,-0Z" style="fill-rule:nonzero;"/><path d="M4491.44,2138.54l0,-34.704l8.126,0l0,-6.687l-8.126,0l0,-12.95l-7.956,0l-0,12.95l-8.126,0l0,6.687l8.126,0l-0,34.704l7.956,-0Z" style="fill-rule:nonzero;"/><path d="M4535.29,2097.15l0,21.838c0,8.888 -3.978,13.543 -11.257,13.543c-6.094,0 -9.903,-3.385 -9.903,-12.273l-0,-23.108l-7.957,0l0,25.732c0,10.157 5.417,16.675 15.067,16.675c6.094,-0 11.596,-2.963 13.966,-7.28l0.846,6.264l7.11,-0l0,-41.391l-7.872,0Z" style="fill-rule:nonzero;"/><path d="M4562.63,2138.54l0,-21.923c0,-8.041 4.317,-13.373 11.766,-13.373c6.094,-0 9.987,3.385 9.987,11.765l0,23.531l7.957,-0l-0,-25.308c-0,-10.581 -4.994,-17.268 -15.913,-17.268c-5.84,0 -11.088,2.794 -13.712,7.534l-0.847,-6.349l-7.194,0l-0,41.391l7.956,-0Z" style="fill-rule:nonzero;"/><path d="M4600.72,2116.79c-0,11.596 7.448,20.653 19.214,20.653c6.517,-0 11.934,-2.878 14.643,-7.703l-0,8.295c-0,7.872 -5.079,12.95 -12.866,12.95c-6.941,0 -11.511,-3.555 -12.527,-9.649l-7.957,0c1.524,10.496 9.227,16.844 20.484,16.844c12.697,0 20.738,-8.295 20.738,-21.33l-0,-39.698l-7.11,0l-0.593,7.026c-2.624,-5.163 -7.787,-8.211 -14.474,-8.211c-12.019,0 -19.552,9.142 -19.552,20.823Zm7.956,-0.17c0,-7.618 4.74,-13.712 12.697,-13.712c8.125,0 12.865,5.756 12.865,13.712c0,8.126 -4.909,13.882 -12.95,13.882c-7.787,-0 -12.612,-6.095 -12.612,-13.882Z" style="fill-rule:nonzero;"/><path d="M4680.96,2087.33c2.878,-0 5.248,-2.37 5.248,-5.248c0,-2.963 -2.37,-5.248 -5.248,-5.248c-2.878,0 -5.248,2.285 -5.248,5.248c0,2.878 2.37,5.248 5.248,5.248Zm-3.893,51.209l7.956,-0l0,-41.391l-7.956,0l-0,41.391Z" style="fill-rule:nonzero;"/><path d="M4704.49,2138.54l0,-21.923c0,-8.041 4.317,-13.373 11.765,-13.373c6.095,-0 9.988,3.385 9.988,11.765l0,23.531l7.957,-0l-0,-25.308c-0,-10.581 -4.994,-17.268 -15.913,-17.268c-5.84,0 -11.088,2.794 -13.712,7.534l-0.847,-6.349l-7.194,0l-0,41.391l7.956,-0Z" style="fill-rule:nonzero;"/><path d="M4776.44,2138.54l-0,-11.765l7.025,-7.364l12.104,19.129l9.142,-0l-15.744,-24.885l15.828,-16.506l-9.988,0l-18.367,19.468l-0,-40.374l-7.957,-0l0,62.297l7.957,-0Z" style="fill-rule:nonzero;"/><path d="M4824.26,2138.54l8.126,-0l14.982,-48.416l14.812,48.416l7.957,-0l18.452,-61.197l-8.464,-0l-11.258,37.497c-0.846,2.708 -1.693,5.84 -2.709,11.003c-0.931,-4.57 -1.777,-7.787 -2.793,-11.088l-11.511,-37.412l-8.972,-0l-11.597,37.412c-0.931,3.217 -1.862,6.179 -2.877,11.088c-0.847,-4.655 -1.693,-7.871 -2.54,-11.088l-11.173,-37.412l-8.633,-0l18.198,61.197Z" style="fill-rule:nonzero;"/><path d="M4892.31,2157.08l7.957,-0l-0,-25.309c2.708,5.079 8.21,7.872 14.812,7.872c12.273,0 19.214,-9.48 19.214,-22.092c0,-12.696 -7.364,-21.584 -19.214,-21.584c-6.602,0 -12.188,2.963 -14.982,8.634l-0.592,-7.449l-7.195,0l0,59.928Zm8.041,-39.19c0,-8.634 4.91,-14.643 13.035,-14.643c8.126,-0 12.951,6.094 12.951,14.643c-0,8.464 -4.825,14.559 -12.951,14.559c-8.125,-0 -13.035,-6.095 -13.035,-14.559Z" style="fill-rule:nonzero;"/><path d="M4934.3,1883.33l-0.015,-8.464l-4478.68,7.974l0.015,8.465l4478.68,-7.975Z"/><path d="M463.903,649.293l7.56,-0" style="fill:none;stroke:#facc15;stroke-width:10.42px;stroke-linecap:butt;"/><path d="M468.244,1574.28c-0,-0 54.685,-49.44 105.287,-95.188c56.006,-50.633 115.488,-97.283 178.01,-139.607c18.788,-12.719 38.724,-26.215 58.12,-39.345c76.345,-51.681 154.857,-100.084 235.325,-145.076c15.401,-8.612 30.843,-17.246 45.353,-25.36c52.792,-29.518 106.252,-57.826 160.338,-84.902c21.968,-10.997 46.449,-23.252 70.847,-35.466c98.102,-49.11 199.698,-90.905 303.959,-125.042c14.775,-4.837 29.685,-9.72 44.283,-14.499c92.804,-30.386 186.99,-56.377 282.244,-77.885c65.877,-14.875 141.125,-31.866 194.639,-43.95c47.194,-10.656 94.661,-20.068 142.35,-28.226c109.612,-18.749 318.933,-54.555 438.455,-75c59.671,-10.206 119.68,-18.319 179.919,-24.323c129.786,-12.934 364.476,-36.324 466.133,-46.455c32.762,-3.265 65.589,-5.845 98.459,-7.737c147.746,-8.506 580.995,-33.449 651.997,-37.537c6.597,-0.38 13.196,-0.731 19.797,-1.054c91.769,-4.491 790.531,-38.685 790.531,-38.685" style="fill:none;stroke:#4b5563;stroke-width:8.33px;"/><path d="M468.244,1588.86c-0,-0 65.853,-57.025 124.792,-108.063c60.561,-52.443 124.554,-100.785 191.553,-144.706c0.656,-0.43 1.312,-0.86 1.968,-1.291c66.257,-43.434 134.699,-83.443 205.054,-119.869c11.894,-6.158 24.14,-12.498 36.364,-18.827c91.648,-47.449 186.503,-88.427 283.871,-122.635c56.402,-19.815 120.978,-42.502 178.124,-62.579c102.834,-36.128 207.469,-66.907 313.485,-92.215c78.682,-18.782 172.787,-41.246 248.675,-59.361c93.175,-22.242 187.475,-39.469 282.496,-51.607c79.858,-10.201 172.544,-22.041 219.39,-28.025c20.309,-2.594 40.649,-4.937 61.016,-7.027c107.826,-11.066 471.3,-48.368 605.979,-62.19c33.834,-3.472 67.74,-6.19 101.695,-8.153c149.485,-8.64 583.36,-33.719 693.544,-40.088c17.121,-0.99 34.253,-1.781 51.392,-2.373c146.233,-5.053 866.648,-29.944 866.648,-29.944" style="fill:none;stroke:#cecece;stroke-width:8.33px;"/><path d="M459.754,1605.05l4.149,1.35c0,0 47.818,-32.268 89.183,-60.183c39.483,-26.645 80.957,-50.213 124.055,-70.496c15.886,-7.476 33.348,-15.695 50.755,-23.887c74.529,-35.076 151.778,-64.053 230.989,-86.648c56.163,-16.021 122.403,-34.916 175.769,-50.139c65.957,-18.814 132.614,-35.081 199.823,-48.762c49.552,-10.088 109.21,-22.233 159.239,-32.417c69.602,-14.169 139.776,-25.376 210.329,-33.591c110.433,-12.859 280.779,-32.693 378.365,-44.055c50.387,-5.867 100.964,-9.967 151.637,-12.292c155.444,-7.133 501.065,-22.993 573.268,-26.306c8.921,-0.409 17.844,-0.737 26.771,-0.982c93.561,-2.573 646.387,-17.775 666.791,-18.336c0.386,-0.011 0.773,-0.021 1.159,-0.032c25.841,-0.725 907.613,-25.469 1006.6,-28.247c6.007,-0.169 12.015,-0.309 18.024,-0.422c60.715,-1.135 407.626,-7.623 407.626,-7.623" style="fill:none;stroke:#215250;stroke-width:8.33px;stroke-linecap:butt;"/><path d="M461.914,1661.08c-0,-0 386.108,-74.881 606.746,-117.671c99.977,-19.389 200.757,-34.379 302.049,-44.925c199.291,-20.751 540.797,-56.309 688.025,-71.639c47.302,-4.925 94.721,-8.675 142.21,-11.245c184.757,-10 675.437,-36.558 826.901,-44.756c30.114,-1.63 60.253,-2.733 90.405,-3.307c257.983,-4.915 1534.4,-29.235 1603.61,-30.553c1.95,-0.037 3.9,-0.068 5.85,-0.092c25.328,-0.311 206.583,-2.538 206.583,-2.538" style="fill:none;stroke:#facc15;stroke-width:8.33px;stroke-linecap:butt;"/><rect x="455.605" y="133.491" width="8.299" height="1757.81"/></g></svg>