<?xml version="1.0" encoding="UTF-8" standalone="no"?><!DOCTYPE svg PUBLIC "-//W3C//DTD SVG 1.1//EN" "http://www.w3.org/Graphics/SVG/1.1/DTD/svg11.dtd"><svg width="100%" height="100%" viewBox="0 0 5000 2292" version="1.1" xmlns="http://www.w3.org/2000/svg" xmlns:xlink="http://www.w3.org/1999/xlink" xml:space="preserve" xmlns:serif="http://www.serif.com/" style="fill-rule:evenodd;clip-rule:evenodd;stroke-linecap:round;stroke-linejoin:round;stroke-miterlimit:1.5;"><g><path d="M4925.36,1447.62l-0.007,-4.197l-4441.19,7.908l0.008,4.197l4441.19,-7.908Z" style="stroke:#ededed;stroke-width:4.17px;"/><path d="M4925.36,1022.18l-0.007,-4.197l-4441.19,7.908l0.008,4.197l4441.19,-7.908Z" style="stroke:#ededed;stroke-width:4.17px;"/><path d="M4925.36,596.735l-0.007,-4.196l-4441.19,7.908l0.008,4.196l4441.19,-7.908Z" style="stroke:#ededed;stroke-width:4.17px;"/><path d="M974.735,152.063c-0,-0 259.563,85.615 353.3,116.533c22.158,7.309 43.941,15.712 65.267,25.179c65.265,28.971 210.439,93.413 244.624,108.588c4.873,2.163 9.764,4.285 14.673,6.366c32.963,13.973 168.219,71.307 233.749,99.084c23.935,10.146 48.257,19.355 72.909,27.607c50.707,16.972 139.584,46.719 175.355,58.692c10.376,3.473 20.814,6.759 31.309,9.857c53.972,15.932 229.944,67.875 261.701,77.249c3.29,0.971 6.585,1.923 9.886,2.856c37.663,10.65 279.153,78.932 341.115,96.452c9.647,2.728 19.34,5.291 29.075,7.687c66.651,16.409 342.55,84.332 431.638,106.264c18.577,4.573 37.287,8.591 56.105,12.047c81.544,14.976 315.371,57.919 374.606,68.798c9.179,1.686 18.382,3.233 27.607,4.64c99.477,15.178 704.247,107.451 796.963,121.597c7.948,1.213 15.909,2.341 23.881,3.385c68.867,9.016 411.81,53.915 411.81,53.915" style="fill:none;stroke:#cecece;stroke-width:10.42px;stroke-linecap:butt;"/><path d="M488.277,152.063c-0,-0 281.54,123.156 363.098,158.833c14.589,6.381 28.939,13.296 43.021,20.73c73.571,38.839 314.731,166.148 327.516,172.898c0.353,0.186 0.705,0.372 1.058,0.557c6.888,3.62 79.444,41.756 124.276,65.319c23.428,12.314 47.635,23.085 72.467,32.243c21.47,7.918 49.034,18.084 73.844,27.234c42.346,15.617 82.76,36.043 120.449,60.877c10.683,7.039 21.971,14.477 33.007,21.748c46.553,30.675 96.97,55.039 149.931,72.456c71.776,23.605 171.411,56.371 208.122,68.444c9.544,3.139 19.176,6.002 28.885,8.586c60.197,16.025 289.254,77.002 349.982,93.168c9.9,2.635 19.858,5.045 29.867,7.227c92.094,20.08 580.134,126.49 688.287,150.071c14.154,3.086 28.397,5.754 42.709,7.999c99.993,15.689 519.447,81.501 621.483,97.51c14.96,2.347 29.984,4.268 45.053,5.758c98.134,9.71 485.081,47.995 548.342,54.254c5.845,0.578 11.696,1.1 17.551,1.566c71.334,5.678 553.083,44.025 553.083,44.025" style="fill:none;stroke:#215250;stroke-width:10.42px;stroke-linecap:butt;"/><path d="M227.858,148.596l-0,54.641l5.791,0l0,-60.097l-18.046,0l0,5.456l12.255,-0Z" style="fill-rule:nonzero;"/><path d="M245.316,173.189c0,18.717 8.981,31.139 24.089,31.139c15.025,0 24.006,-12.422 24.006,-31.139c-0,-18.634 -9.149,-31.224 -24.006,-31.224c-14.94,0 -24.089,12.59 -24.089,31.224Zm5.959,-0c0,-15.696 6.631,-25.684 18.13,-25.684c11.499,-0 18.13,9.988 18.13,25.684c0,15.611 -6.631,25.684 -18.13,25.684c-11.499,-0 -18.13,-10.073 -18.13,-25.684Z" style="fill-rule:nonzero;"/><path d="M302.643,173.189c0,18.717 8.981,31.139 24.09,31.139c15.024,0 24.005,-12.422 24.005,-31.139c-0,-18.634 -9.149,-31.224 -24.005,-31.224c-14.941,0 -24.09,12.59 -24.09,31.224Zm5.96,-0c-0,-15.696 6.631,-25.684 18.13,-25.684c11.499,-0 18.13,9.988 18.13,25.684c-0,15.611 -6.631,25.684 -18.13,25.684c-11.499,-0 -18.13,-10.073 -18.13,-25.684Z" style="fill-rule:nonzero;"/><path d="M388.844,156.905c0,-8.645 -6.127,-14.94 -14.688,-14.94c-8.562,0 -14.773,6.295 -14.773,14.94c0,8.646 6.211,14.857 14.773,14.857c8.561,-0 14.688,-6.211 14.688,-14.857Zm30.468,-13.765l-6.127,0l-45.576,60.097l6.043,0l45.66,-60.097Zm-35.504,13.765c0,5.876 -4.029,10.073 -9.652,10.073c-5.708,-0 -9.737,-4.197 -9.737,-10.073c0,-5.959 3.945,-10.072 9.737,-10.072c5.707,0 9.652,4.113 9.652,10.072Zm43.814,32.567c0,-8.645 -6.127,-14.94 -14.689,-14.94c-8.561,-0 -14.772,6.295 -14.772,14.94c-0,8.645 6.211,14.856 14.772,14.856c8.562,0 14.689,-6.211 14.689,-14.856Zm-5.036,-0c-0,5.875 -4.029,9.988 -9.653,9.988c-5.707,0 -9.736,-4.113 -9.736,-9.988c0,-5.959 3.945,-10.072 9.736,-10.072c5.708,-0 9.653,4.113 9.653,10.072Z" style="fill-rule:nonzero;"/><path d="M273.434,1055.13c12.59,0 21.152,-8.561 21.152,-20.648c-0,-11.247 -7.722,-20.228 -20.229,-20.228c-4.7,-0 -9.064,1.511 -12.422,4.197l4.533,-18.886l24.676,0l0,-5.539l-29.041,-0l-7.218,30.216l4.784,1.511c3.273,-3.609 8.309,-6.127 13.849,-6.127c9.485,-0 14.94,6.631 14.94,15.024c0,8.897 -5.875,14.94 -14.94,14.94c-8.561,0 -13.849,-5.204 -13.849,-13.849l-6.043,0c-0,11.835 7.722,19.389 19.808,19.389Z" style="fill-rule:nonzero;"/><path d="M302.643,1024.08c0,18.718 8.981,31.14 24.09,31.14c15.024,-0 24.005,-12.422 24.005,-31.14c-0,-18.633 -9.149,-31.223 -24.005,-31.223c-14.941,-0 -24.09,12.59 -24.09,31.223Zm5.96,0c-0,-15.696 6.631,-25.684 18.13,-25.684c11.499,0 18.13,9.988 18.13,25.684c-0,15.612 -6.631,25.684 -18.13,25.684c-11.499,0 -18.13,-10.072 -18.13,-25.684Z" style="fill-rule:nonzero;"/><path d="M388.844,1007.79c0,-8.645 -6.127,-14.94 -14.688,-14.94c-8.562,-0 -14.773,6.295 -14.773,14.94c0,8.645 6.211,14.856 14.773,14.856c8.561,0 14.688,-6.211 14.688,-14.856Zm30.468,-13.765l-6.127,-0l-45.576,60.097l6.043,-0l45.66,-60.097Zm-35.504,13.765c0,5.875 -4.029,10.072 -9.652,10.072c-5.708,0 -9.737,-4.197 -9.737,-10.072c0,-5.959 3.945,-10.072 9.737,-10.072c5.707,-0 9.652,4.113 9.652,10.072Zm43.814,32.567c0,-8.646 -6.127,-14.941 -14.689,-14.941c-8.561,0 -14.772,6.295 -14.772,14.941c-0,8.645 6.211,14.856 14.772,14.856c8.562,-0 14.689,-6.211 14.689,-14.856Zm-5.036,-0c-0,5.875 -4.029,9.988 -9.653,9.988c-5.707,-0 -9.736,-4.113 -9.736,-9.988c0,-5.96 3.945,-10.073 9.736,-10.073c5.708,0 9.653,4.113 9.653,10.073Z" style="fill-rule:nonzero;"/><path d="M266.384,568.584l-0,5.54l34.749,0l-23.754,54.558l6.211,-0l23.67,-54.558l-0,-5.54l-40.876,0Z" style="fill-rule:nonzero;"/><path d="M330.762,629.689c12.59,-0 21.151,-8.562 21.151,-20.648c0,-11.247 -7.722,-20.228 -20.228,-20.228c-4.701,-0 -9.065,1.51 -12.423,4.196l4.533,-18.885l24.677,0l-0,-5.54l-29.042,0l-7.218,30.217l4.784,1.511c3.274,-3.61 8.31,-6.128 13.849,-6.128c9.485,0 14.941,6.631 14.941,15.025c-0,8.897 -5.876,14.94 -14.941,14.94c-8.561,0 -13.849,-5.204 -13.849,-13.849l-6.043,-0c-0,11.835 7.722,19.389 19.809,19.389Z" style="fill-rule:nonzero;"/><path d="M388.844,582.35c0,-8.646 -6.127,-14.941 -14.688,-14.941c-8.562,0 -14.773,6.295 -14.773,14.941c0,8.645 6.211,14.856 14.773,14.856c8.561,0 14.688,-6.211 14.688,-14.856Zm30.468,-13.766l-6.127,0l-45.576,60.098l6.043,-0l45.66,-60.098Zm-35.504,13.766c0,5.875 -4.029,10.072 -9.652,10.072c-5.708,-0 -9.737,-4.197 -9.737,-10.072c0,-5.96 3.945,-10.072 9.737,-10.072c5.707,-0 9.652,4.112 9.652,10.072Zm43.814,32.566c0,-8.645 -6.127,-14.94 -14.689,-14.94c-8.561,-0 -14.772,6.295 -14.772,14.94c-0,8.646 6.211,14.857 14.772,14.857c8.562,-0 14.689,-6.211 14.689,-14.857Zm-5.036,0c-0,5.876 -4.029,9.988 -9.653,9.988c-5.707,0 -9.736,-4.112 -9.736,-9.988c0,-5.959 3.945,-10.072 9.736,-10.072c5.708,0 9.653,4.113 9.653,10.072Z" style="fill-rule:nonzero;"/><path d="M303.147,1479.57l0,-5.623l-30.3,-0l14.017,-12.255c12.002,-10.492 15.947,-16.283 15.947,-25.012c0,-10.996 -7.554,-18.298 -18.885,-18.298c-11.835,-0 -19.809,8.309 -20.144,20.9l6.043,-0c0.252,-9.317 5.708,-15.36 14.017,-15.36c7.974,-0 12.842,4.952 12.842,13.093c0,7.135 -2.854,11.331 -13.933,20.984l-19.221,16.787l-0,4.784l39.617,0Z" style="fill-rule:nonzero;"/><path d="M330.762,1480.58c12.59,0 21.151,-8.561 21.151,-20.648c0,-11.247 -7.722,-20.228 -20.228,-20.228c-4.701,0 -9.065,1.511 -12.423,4.197l4.533,-18.885l24.677,-0l-0,-5.54l-29.042,-0l-7.218,30.216l4.784,1.511c3.274,-3.609 8.31,-6.127 13.849,-6.127c9.485,0 14.941,6.631 14.941,15.024c-0,8.897 -5.876,14.941 -14.941,14.941c-8.561,-0 -13.849,-5.204 -13.849,-13.85l-6.043,0c-0,11.835 7.722,19.389 19.809,19.389Z" style="fill-rule:nonzero;"/><path d="M388.844,1433.24c0,-8.645 -6.127,-14.94 -14.688,-14.94c-8.562,-0 -14.773,6.295 -14.773,14.94c0,8.646 6.211,14.857 14.773,14.857c8.561,-0 14.688,-6.211 14.688,-14.857Zm30.468,-13.765l-6.127,-0l-45.576,60.097l6.043,0l45.66,-60.097Zm-35.504,13.765c0,5.876 -4.029,10.072 -9.652,10.072c-5.708,0 -9.737,-4.196 -9.737,-10.072c0,-5.959 3.945,-10.072 9.737,-10.072c5.707,0 9.652,4.113 9.652,10.072Zm43.814,32.567c0,-8.645 -6.127,-14.94 -14.689,-14.94c-8.561,-0 -14.772,6.295 -14.772,14.94c-0,8.645 6.211,14.856 14.772,14.856c8.562,0 14.689,-6.211 14.689,-14.856Zm-5.036,-0c-0,5.875 -4.029,9.988 -9.653,9.988c-5.707,0 -9.736,-4.113 -9.736,-9.988c0,-5.959 3.945,-10.072 9.736,-10.072c5.708,-0 9.653,4.113 9.653,10.072Z" style="fill-rule:nonzero;"/><g><path d="M4161.04,409.439l-0,-5.062l-27.271,0l12.616,-11.029c10.802,-9.442 14.353,-14.655 14.353,-22.511c-0,-9.896 -6.799,-16.468 -16.997,-16.468c-10.651,0 -17.828,7.479 -18.13,18.81l5.439,-0c0.227,-8.385 5.137,-13.824 12.615,-13.824c7.177,-0 11.558,4.457 11.558,11.784c0,6.421 -2.568,10.198 -12.54,18.886l-17.299,15.108l0,4.306l35.656,-0Z" style="fill-rule:nonzero;"/><path d="M4196.24,409.439l-0,-10.954l7.101,-7.327l11.633,18.281l6.043,-0l-14.126,-21.983l14.051,-14.579l-6.572,-0l-18.13,18.885l-0,-37.393l-5.212,0l-0,55.07l5.212,-0Z" style="fill-rule:nonzero;"/><path d="M4238.69,409.439l5.212,-0l14.504,-45.929l14.504,45.929l5.137,-0l16.241,-54.088l-5.514,0l-11.18,37.242c-0.605,2.04 -1.284,4.684 -2.115,8.838c-0.831,-3.475 -1.587,-6.194 -2.418,-8.914l-11.784,-37.166l-5.666,0l-11.784,37.166c-0.831,2.644 -1.586,4.986 -2.493,8.914c-0.68,-3.55 -1.36,-6.27 -2.115,-8.914l-10.954,-37.166l-5.665,0l16.09,54.088Z" style="fill-rule:nonzero;"/><path d="M4306.08,409.363l-0,-19.867c-0,-7.026 4.079,-12.842 11.935,-12.842c5.666,-0 9.67,3.021 9.67,11.558l-0,21.227l5.212,-0l-0,-22.36c-0,-9.217 -4.306,-15.184 -13.9,-15.184c-6.119,-0 -10.575,2.946 -12.917,7.327l-0,-24.853l-5.213,0l0,54.994l5.213,0Z" style="fill-rule:nonzero;"/><path d="M4365.38,409.439l20.924,-0c10.274,-0 16.771,-5.515 16.771,-14.202c-0,-6.648 -3.173,-11.029 -9.443,-13.069c5.59,-2.19 8.385,-6.496 8.385,-12.842c-0,-8.687 -6.421,-13.975 -16.846,-13.975l-19.791,0l-0,54.088Zm19.716,-49.253c7.252,-0 11.331,3.55 11.331,9.594c-0,6.421 -3.853,10.198 -10.651,10.198l-14.958,-0l0,-19.792l14.278,-0Zm1.208,24.551c7.026,-0 11.256,3.701 11.256,9.82c0,6.27 -4.155,9.972 -11.256,9.972l-15.486,-0l0,-19.792l15.486,-0Z" style="fill-rule:nonzero;"/><path d="M4422.26,410.345c6.194,0 11.18,-2.719 13.446,-7.327l0.68,6.421l4.382,-0l-0,-23.645c-0,-9.669 -6.195,-13.899 -14.655,-13.899c-8.99,-0 -15.033,4.759 -15.033,12.162l4.759,-0c-0,-4.91 3.777,-7.781 10.122,-7.781c5.364,0 9.67,2.266 9.67,9.443l-0,1.208l-12.087,0.982c-8.536,0.68 -13.673,4.911 -13.673,11.634c0,6.421 4.608,10.802 12.389,10.802Zm1.209,-4.23c-4.986,-0 -8.31,-2.266 -8.31,-6.723c0,-4.08 2.795,-7.101 9.669,-7.705l10.803,-0.831l-0,1.964c-0,7.931 -4.457,13.295 -12.162,13.295Z" style="fill-rule:nonzero;"/><path d="M4458.9,409.439l0,-32.181l7.328,0l-0,-4.381l-7.328,-0l0,-11.558l-5.136,-0l-0,11.558l-7.328,-0l0,4.381l7.328,0l-0,32.181l5.136,-0Z" style="fill-rule:nonzero;"/><path d="M4481.71,409.439l-0,-32.181l7.327,0l0,-4.381l-7.327,-0l-0,-11.558l-5.137,-0l0,11.558l-7.327,-0l-0,4.381l7.327,0l0,32.181l5.137,-0Z" style="fill-rule:nonzero;"/><path d="M4510.79,410.345c8.612,0 14.277,-4.155 16.242,-11.86l-4.986,0c-1.36,4.835 -5.213,7.403 -11.18,7.403c-7.857,0 -12.54,-5.137 -12.918,-14.05l29.084,-0l-0,-2.569c-0,-10.349 -6.724,-17.374 -16.62,-17.374c-10.424,-0 -17.525,7.856 -17.525,19.263c-0,11.482 7.176,19.187 17.903,19.187Zm-0.378,-33.993c6.875,-0 11.407,4.683 11.407,11.709l-23.72,-0c0.907,-7.177 5.439,-11.709 12.313,-11.709Z" style="fill-rule:nonzero;"/><path d="M4554.46,372.424c-1.284,-0.303 -2.266,-0.378 -3.399,-0.378c-5.137,-0 -8.99,2.568 -10.425,6.496l-0.378,-5.665l-4.91,-0l0,36.562l5.212,-0l0,-20.85c0,-6.949 4.306,-11.482 11.029,-11.482l2.871,0l-0,-4.683Z" style="fill-rule:nonzero;"/><path d="M4563.97,362.83c2.115,-0 3.928,-1.738 3.928,-3.853c0,-2.115 -1.813,-3.928 -3.928,-3.928c-2.115,0 -3.852,1.813 -3.852,3.928c-0,2.115 1.737,3.853 3.852,3.853Zm-2.568,46.609l5.212,-0l0,-36.562l-5.212,-0l-0,36.562Z" style="fill-rule:nonzero;"/><path d="M4592.83,410.345c8.612,0 14.277,-4.155 16.241,-11.86l-4.986,0c-1.359,4.835 -5.212,7.403 -11.18,7.403c-7.856,0 -12.539,-5.137 -12.917,-14.05l29.083,-0l0,-2.569c0,-10.349 -6.723,-17.374 -16.619,-17.374c-10.425,-0 -17.525,7.856 -17.525,19.263c-0,11.482 7.176,19.187 17.903,19.187Zm-0.378,-33.993c6.874,-0 11.407,4.683 11.407,11.709l-23.72,-0c0.906,-7.177 5.439,-11.709 12.313,-11.709Z" style="fill-rule:nonzero;"/><path d="M4614.28,399.165c0,6.799 5.137,11.18 13.371,11.18c8.31,0 13.9,-4.306 13.9,-10.878c-0,-5.288 -2.871,-8.234 -9.216,-9.82l-6.27,-1.586c-4.004,-0.982 -5.968,-2.947 -5.968,-5.742c0,-3.928 2.871,-6.118 8.008,-6.118c4.91,-0 7.856,2.492 8.007,6.723l5.061,-0c-0.226,-6.799 -5.212,-11.029 -12.917,-11.029c-7.857,-0 -13.22,4.079 -13.22,10.5c-0,4.986 3.097,8.309 9.443,9.896l6.269,1.586c4.306,1.058 5.817,2.795 5.817,5.817c0,3.928 -3.324,6.345 -8.989,6.345c-5.137,0 -8.31,-2.644 -8.31,-6.874l-4.986,0Z" style="fill-rule:nonzero;"/><path d="M4650.17,425.378l5.212,-0l-0,-22.965c2.568,5.288 7.478,7.932 13.673,7.932c10.802,0 16.921,-8.309 16.921,-19.338c0,-11.029 -6.345,-19.112 -16.921,-19.112c-6.119,-0 -11.256,2.719 -13.824,8.385l-0.529,-7.403l-4.532,-0l-0,52.501Zm5.287,-34.22c0,-8.461 4.684,-14.504 12.691,-14.504c7.932,-0 12.54,6.043 12.54,14.504c0,8.385 -4.608,14.504 -12.54,14.504c-8.007,-0 -12.691,-6.119 -12.691,-14.504Z" style="fill-rule:nonzero;"/><path d="M4709.62,410.345c8.612,0 14.278,-4.155 16.242,-11.86l-4.986,0c-1.36,4.835 -5.212,7.403 -11.18,7.403c-7.856,0 -12.54,-5.137 -12.918,-14.05l29.084,-0l-0,-2.569c-0,-10.349 -6.723,-17.374 -16.619,-17.374c-10.425,-0 -17.526,7.856 -17.526,19.263c0,11.482 7.177,19.187 17.903,19.187Zm-0.377,-33.993c6.874,-0 11.406,4.683 11.406,11.709l-23.72,-0c0.907,-7.177 5.439,-11.709 12.314,-11.709Z" style="fill-rule:nonzero;"/><path d="M4736.74,362.83c2.115,-0 3.928,-1.738 3.928,-3.853c-0,-2.115 -1.813,-3.928 -3.928,-3.928c-2.116,0 -3.853,1.813 -3.853,3.928c0,2.115 1.737,3.853 3.853,3.853Zm-2.569,46.609l5.213,-0l-0,-36.562l-5.213,-0l0,36.562Z" style="fill-rule:nonzero;"/><path d="M4747.69,391.233c0,11.483 7.025,19.112 17.375,19.112c8.309,0 14.806,-4.91 16.543,-12.389l-5.288,0c-1.435,4.684 -5.816,7.706 -11.255,7.706c-7.403,-0 -12.238,-5.817 -12.238,-14.504c-0,-8.99 5.212,-14.655 12.615,-14.655c5.062,-0 9.443,2.795 10.803,7.856l5.212,0c-1.435,-7.554 -7.63,-12.464 -16.09,-12.464c-10.652,-0 -17.677,7.856 -17.677,19.338Z" style="fill-rule:nonzero;"/><path d="M4794.75,409.363l0,-19.867c0,-7.026 4.079,-12.842 11.936,-12.842c5.665,-0 9.669,3.021 9.669,11.558l-0,21.227l5.212,-0l0,-22.36c0,-9.217 -4.306,-15.184 -13.899,-15.184c-6.119,-0 -10.576,2.946 -12.918,7.327l0,-24.853l-5.212,0l-0,54.994l5.212,0Z" style="fill-rule:nonzero;"/><path d="M4847.33,410.345c8.612,0 14.277,-4.155 16.241,-11.86l-4.986,0c-1.359,4.835 -5.212,7.403 -11.18,7.403c-7.856,0 -12.539,-5.137 -12.917,-14.05l29.083,-0l0,-2.569c0,-10.349 -6.723,-17.374 -16.619,-17.374c-10.425,-0 -17.525,7.856 -17.525,19.263c-0,11.482 7.176,19.187 17.903,19.187Zm-0.378,-33.993c6.874,-0 11.407,4.683 11.407,11.709l-23.72,-0c0.906,-7.177 5.439,-11.709 12.313,-11.709Z" style="fill-rule:nonzero;"/><path d="M4890.99,372.424c-1.285,-0.303 -2.267,-0.378 -3.4,-0.378c-5.137,-0 -8.989,2.568 -10.424,6.496l-0.378,-5.665l-4.91,-0l-0,36.562l5.212,-0l0,-20.85c0,-6.949 4.306,-11.482 11.029,-11.482l2.871,0l-0,-4.683Z" style="fill-rule:nonzero;"/><path d="M4132.26,267.392c-5.062,6.95 -6.799,11.331 -6.799,17.601c-0,10.803 8.536,19.188 19.414,19.188c10.802,-0 19.187,-8.083 19.187,-19.188c0,-10.575 -7.478,-18.809 -18.734,-18.809c-2.493,-0 -4.834,0.528 -7.403,1.813l14.202,-18.81l-6.345,-0l-13.522,18.205Zm-1.285,17.677c0,-8.234 5.666,-14.126 13.9,-14.126c8.007,-0 13.748,5.892 13.748,14.126c0,8.234 -5.741,14.202 -13.748,14.202c-8.234,-0 -13.9,-5.968 -13.9,-14.202Z" style="fill-rule:nonzero;"/><path d="M4199.34,303.274l0,-10.953l7.101,-7.328l11.633,18.281l6.044,0l-14.127,-21.982l14.051,-14.58l-6.572,0l-18.13,18.886l0,-37.393l-5.212,-0l-0,55.069l5.212,0Z" style="fill-rule:nonzero;"/><path d="M4241.79,303.274l5.213,0l14.503,-45.929l14.504,45.929l5.137,0l16.242,-54.087l-5.515,-0l-11.18,37.242c-0.604,2.039 -1.284,4.683 -2.115,8.838c-0.831,-3.475 -1.587,-6.194 -2.418,-8.914l-11.784,-37.166l-5.666,-0l-11.784,37.166c-0.831,2.644 -1.586,4.986 -2.493,8.914c-0.68,-3.55 -1.36,-6.27 -2.115,-8.914l-10.953,-37.166l-5.666,-0l16.09,54.087Z" style="fill-rule:nonzero;"/><path d="M4309.17,303.199l-0,-19.868c-0,-7.025 4.079,-12.841 11.935,-12.841c5.666,-0 9.67,3.021 9.67,11.557l-0,21.227l5.212,0l0,-22.36c0,-9.216 -4.306,-15.184 -13.9,-15.184c-6.118,0 -10.575,2.947 -12.917,7.328l-0,-24.853l-5.212,-0l-0,54.994l5.212,-0Z" style="fill-rule:nonzero;"/><path d="M4368.47,303.274l20.925,0c10.273,0 16.77,-5.514 16.77,-14.201c-0,-6.648 -3.173,-11.029 -9.443,-13.069c5.59,-2.191 8.385,-6.497 8.385,-12.842c0,-8.687 -6.421,-13.975 -16.846,-13.975l-19.791,-0l-0,54.087Zm19.716,-49.252c7.252,-0 11.331,3.55 11.331,9.593c0,6.421 -3.852,10.198 -10.651,10.198l-14.957,0l-0,-19.791l14.277,-0Zm1.209,24.55c7.025,0 11.255,3.702 11.255,9.821c0,6.27 -4.155,9.971 -11.255,9.971l-15.486,0l-0,-19.792l15.486,0Z" style="fill-rule:nonzero;"/><path d="M4425.36,304.181c6.195,-0 11.18,-2.72 13.446,-7.328l0.68,6.421l4.382,0l-0,-23.644c-0,-9.669 -6.195,-13.9 -14.655,-13.9c-8.99,0 -15.033,4.76 -15.033,12.163l4.759,-0c0,-4.911 3.777,-7.781 10.123,-7.781c5.363,-0 9.669,2.266 9.669,9.442l-0,1.209l-12.087,0.982c-8.536,0.68 -13.673,4.91 -13.673,11.633c0,6.421 4.608,10.803 12.389,10.803Zm1.209,-4.23c-4.986,-0 -8.31,-2.267 -8.31,-6.724c0,-4.079 2.795,-7.1 9.67,-7.705l10.802,-0.831l-0,1.964c-0,7.932 -4.457,13.296 -12.162,13.296Z" style="fill-rule:nonzero;"/><path d="M4461.99,303.274l-0,-32.18l7.327,-0l0,-4.382l-7.327,0l-0,-11.557l-5.137,-0l-0,11.557l-7.328,0l0,4.382l7.328,-0l-0,32.18l5.137,0Z" style="fill-rule:nonzero;"/><path d="M4484.81,303.274l0,-32.18l7.328,-0l-0,-4.382l-7.328,0l0,-11.557l-5.137,-0l0,11.557l-7.327,0l-0,4.382l7.327,-0l0,32.18l5.137,0Z" style="fill-rule:nonzero;"/><path d="M4513.89,304.181c8.612,-0 14.278,-4.155 16.242,-11.86l-4.986,-0c-1.36,4.835 -5.212,7.403 -11.18,7.403c-7.856,-0 -12.54,-5.137 -12.918,-14.051l29.084,0l-0,-2.568c-0,-10.349 -6.723,-17.375 -16.619,-17.375c-10.425,0 -17.526,7.857 -17.526,19.263c0,11.483 7.177,19.188 17.903,19.188Zm-0.377,-33.994c6.874,0 11.406,4.684 11.406,11.709l-23.72,0c0.907,-7.176 5.439,-11.709 12.314,-11.709Z" style="fill-rule:nonzero;"/><path d="M4557.55,266.259c-1.284,-0.302 -2.266,-0.378 -3.399,-0.378c-5.137,0 -8.99,2.569 -10.425,6.497l-0.378,-5.666l-4.91,0l0,36.562l5.213,0l-0,-20.849c-0,-6.95 4.305,-11.482 11.029,-11.482l2.87,-0l0,-4.684Z" style="fill-rule:nonzero;"/><path d="M4567.07,256.665c2.115,0 3.928,-1.737 3.928,-3.852c0,-2.115 -1.813,-3.928 -3.928,-3.928c-2.115,-0 -3.852,1.813 -3.852,3.928c-0,2.115 1.737,3.852 3.852,3.852Zm-2.568,46.609l5.212,0l0,-36.562l-5.212,0l-0,36.562Z" style="fill-rule:nonzero;"/><path d="M4595.93,304.181c8.612,-0 14.277,-4.155 16.241,-11.86l-4.985,-0c-1.36,4.835 -5.213,7.403 -11.18,7.403c-7.857,-0 -12.54,-5.137 -12.918,-14.051l29.083,0l0,-2.568c0,-10.349 -6.723,-17.375 -16.619,-17.375c-10.424,0 -17.525,7.857 -17.525,19.263c-0,11.483 7.176,19.188 17.903,19.188Zm-0.378,-33.994c6.875,0 11.407,4.684 11.407,11.709l-23.72,0c0.907,-7.176 5.439,-11.709 12.313,-11.709Z" style="fill-rule:nonzero;"/><path d="M4617.38,293.001c-0,6.798 5.136,11.18 13.37,11.18c8.31,-0 13.9,-4.306 13.9,-10.878c0,-5.288 -2.871,-8.234 -9.216,-9.82l-6.27,-1.587c-4.004,-0.982 -5.968,-2.946 -5.968,-5.741c0,-3.928 2.871,-6.119 8.008,-6.119c4.91,0 7.856,2.493 8.007,6.723l5.061,0c-0.226,-6.798 -5.212,-11.029 -12.917,-11.029c-7.856,0 -13.22,4.08 -13.22,10.501c0,4.985 3.097,8.309 9.443,9.896l6.27,1.586c4.305,1.057 5.816,2.795 5.816,5.817c0,3.928 -3.323,6.345 -8.989,6.345c-5.137,-0 -8.31,-2.644 -8.31,-6.874l-4.985,-0Z" style="fill-rule:nonzero;"/><path d="M4653.26,319.214l5.212,-0l0,-22.965c2.568,5.288 7.479,7.932 13.673,7.932c10.802,-0 16.921,-8.31 16.921,-19.339c0,-11.029 -6.345,-19.112 -16.921,-19.112c-6.119,0 -11.256,2.72 -13.824,8.385l-0.529,-7.403l-4.532,0l-0,52.502Zm5.288,-34.221c-0,-8.46 4.683,-14.503 12.69,-14.503c7.932,-0 12.54,6.043 12.54,14.503c0,8.385 -4.608,14.504 -12.54,14.504c-8.007,0 -12.69,-6.119 -12.69,-14.504Z" style="fill-rule:nonzero;"/><path d="M4712.72,304.181c8.611,-0 14.277,-4.155 16.241,-11.86l-4.986,-0c-1.36,4.835 -5.212,7.403 -11.18,7.403c-7.856,-0 -12.54,-5.137 -12.917,-14.051l29.083,0l-0,-2.568c-0,-10.349 -6.723,-17.375 -16.619,-17.375c-10.425,0 -17.526,7.857 -17.526,19.263c0,11.483 7.177,19.188 17.904,19.188Zm-0.378,-33.994c6.874,0 11.407,4.684 11.407,11.709l-23.72,0c0.906,-7.176 5.439,-11.709 12.313,-11.709Z" style="fill-rule:nonzero;"/><path d="M4739.83,256.665c2.115,0 3.928,-1.737 3.928,-3.852c-0,-2.115 -1.813,-3.928 -3.928,-3.928c-2.115,-0 -3.853,1.813 -3.853,3.928c0,2.115 1.738,3.852 3.853,3.852Zm-2.569,46.609l5.213,0l-0,-36.562l-5.213,0l0,36.562Z" style="fill-rule:nonzero;"/><path d="M4750.79,285.069c0,11.482 7.026,19.112 17.375,19.112c8.309,-0 14.806,-4.91 16.543,-12.389l-5.288,0c-1.435,4.684 -5.816,7.705 -11.255,7.705c-7.403,0 -12.238,-5.816 -12.238,-14.504c0,-8.989 5.212,-14.655 12.615,-14.655c5.062,0 9.443,2.795 10.803,7.857l5.212,-0c-1.435,-7.554 -7.629,-12.465 -16.09,-12.465c-10.651,0 -17.677,7.857 -17.677,19.339Z" style="fill-rule:nonzero;"/><path d="M4797.85,303.199l0,-19.868c0,-7.025 4.08,-12.841 11.936,-12.841c5.665,-0 9.669,3.021 9.669,11.557l0,21.227l5.213,0l-0,-22.36c-0,-9.216 -4.306,-15.184 -13.9,-15.184c-6.119,0 -10.576,2.947 -12.918,7.328l0,-24.853l-5.212,-0l0,54.994l5.212,-0Z" style="fill-rule:nonzero;"/><path d="M4850.43,304.181c8.612,-0 14.277,-4.155 16.241,-11.86l-4.985,-0c-1.36,4.835 -5.213,7.403 -11.18,7.403c-7.857,-0 -12.54,-5.137 -12.918,-14.051l29.083,0l0,-2.568c0,-10.349 -6.723,-17.375 -16.619,-17.375c-10.424,0 -17.525,7.857 -17.525,19.263c-0,11.483 7.176,19.188 17.903,19.188Zm-0.378,-33.994c6.875,0 11.407,4.684 11.407,11.709l-23.72,0c0.907,-7.176 5.439,-11.709 12.313,-11.709Z" style="fill-rule:nonzero;"/><path d="M4894.09,266.259c-1.284,-0.302 -2.266,-0.378 -3.4,-0.378c-5.136,0 -8.989,2.569 -10.424,6.497l-0.378,-5.666l-4.91,0l-0,36.562l5.212,0l0,-20.849c0,-6.95 4.306,-11.482 11.029,-11.482l2.871,-0l-0,-4.684Z" style="fill-rule:nonzero;"/><path d="M4135.66,147.933l-0,49.177l5.212,0l0,-54.087l-16.241,-0l-0,4.91l11.029,-0Z" style="fill-rule:nonzero;"/><path d="M4151.37,170.066c-0,16.846 8.082,28.026 21.68,28.026c13.522,0 21.605,-11.18 21.605,-28.026c-0,-16.77 -8.234,-28.101 -21.605,-28.101c-13.446,0 -21.68,11.331 -21.68,28.101Zm5.363,0c-0,-14.126 5.968,-23.115 16.317,-23.115c10.349,-0 16.317,8.989 16.317,23.115c-0,14.051 -5.968,23.116 -16.317,23.116c-10.349,-0 -16.317,-9.065 -16.317,-23.116Z" style="fill-rule:nonzero;"/><path d="M4230.61,197.11l0,-10.953l7.101,-7.328l11.633,18.281l6.044,0l-14.127,-21.982l14.051,-14.58l-6.572,0l-18.13,18.885l0,-37.392l-5.212,-0l-0,55.069l5.212,0Z" style="fill-rule:nonzero;"/><path d="M4273.07,197.11l5.213,0l14.504,-45.929l14.503,45.929l5.137,0l16.242,-54.087l-5.515,-0l-11.18,37.241c-0.604,2.04 -1.284,4.684 -2.115,8.839c-0.831,-3.475 -1.587,-6.195 -2.418,-8.914l-11.784,-37.166l-5.666,-0l-11.784,37.166c-0.831,2.644 -1.586,4.986 -2.493,8.914c-0.68,-3.551 -1.36,-6.27 -2.115,-8.914l-10.953,-37.166l-5.666,-0l16.09,54.087Z" style="fill-rule:nonzero;"/><path d="M4340.45,197.034l-0,-19.867c-0,-7.025 4.079,-12.842 11.935,-12.842c5.666,0 9.67,3.022 9.67,11.558l-0,21.227l5.212,0l0,-22.36c0,-9.216 -4.306,-15.184 -13.9,-15.184c-6.118,0 -10.575,2.946 -12.917,7.328l-0,-24.853l-5.212,-0l-0,54.993l5.212,0Z" style="fill-rule:nonzero;"/><path d="M4399.75,197.11l20.925,0c10.273,0 16.77,-5.514 16.77,-14.202c-0,-6.647 -3.173,-11.029 -9.443,-13.068c5.59,-2.191 8.385,-6.497 8.385,-12.842c0,-8.688 -6.421,-13.975 -16.845,-13.975l-19.792,-0l-0,54.087Zm19.716,-49.253c7.252,0 11.331,3.551 11.331,9.594c0,6.421 -3.852,10.198 -10.651,10.198l-14.957,-0l-0,-19.792l14.277,0Zm1.209,24.551c7.025,0 11.255,3.702 11.255,9.82c0,6.27 -4.155,9.972 -11.255,9.972l-15.486,-0l-0,-19.792l15.486,0Z" style="fill-rule:nonzero;"/><path d="M4456.63,198.017c6.195,-0 11.18,-2.72 13.447,-7.328l0.679,6.421l4.382,0l-0,-23.644c-0,-9.67 -6.195,-13.9 -14.655,-13.9c-8.99,0 -15.033,4.759 -15.033,12.162l4.759,0c0,-4.91 3.777,-7.781 10.123,-7.781c5.363,0 9.669,2.267 9.669,9.443l-0,1.209l-12.087,0.982c-8.536,0.68 -13.673,4.91 -13.673,11.633c0,6.421 4.608,10.803 12.389,10.803Zm1.209,-4.231c-4.986,0 -8.31,-2.266 -8.31,-6.723c0,-4.079 2.795,-7.101 9.67,-7.705l10.802,-0.831l-0,1.964c-0,7.932 -4.457,13.295 -12.162,13.295Z" style="fill-rule:nonzero;"/><path d="M4493.27,197.11l-0,-32.18l7.327,-0l0,-4.382l-7.327,0l-0,-11.558l-5.137,0l-0,11.558l-7.328,0l0,4.382l7.328,-0l-0,32.18l5.137,0Z" style="fill-rule:nonzero;"/><path d="M4516.08,197.11l0,-32.18l7.328,-0l-0,-4.382l-7.328,0l0,-11.558l-5.137,0l0,11.558l-7.327,0l-0,4.382l7.327,-0l0,32.18l5.137,0Z" style="fill-rule:nonzero;"/><path d="M4545.16,198.017c8.612,-0 14.278,-4.155 16.242,-11.86l-4.986,-0c-1.36,4.834 -5.212,7.403 -11.18,7.403c-7.856,-0 -12.54,-5.137 -12.918,-14.051l29.084,-0l-0,-2.568c-0,-10.35 -6.723,-17.375 -16.619,-17.375c-10.425,0 -17.526,7.856 -17.526,19.263c0,11.482 7.177,19.188 17.903,19.188Zm-0.377,-33.994c6.874,0 11.406,4.684 11.406,11.709l-23.72,-0c0.907,-7.177 5.439,-11.709 12.314,-11.709Z" style="fill-rule:nonzero;"/><path d="M4588.83,160.095c-1.284,-0.302 -2.266,-0.378 -3.399,-0.378c-5.137,0 -8.99,2.569 -10.425,6.497l-0.378,-5.666l-4.91,0l0,36.562l5.213,0l-0,-20.849c-0,-6.95 4.305,-11.483 11.029,-11.483l2.87,0l0,-4.683Z" style="fill-rule:nonzero;"/><path d="M4598.35,150.501c2.115,0 3.928,-1.737 3.928,-3.852c0,-2.116 -1.813,-3.929 -3.928,-3.929c-2.115,0 -3.852,1.813 -3.852,3.929c-0,2.115 1.737,3.852 3.852,3.852Zm-2.568,46.609l5.212,0l0,-36.562l-5.212,0l-0,36.562Z" style="fill-rule:nonzero;"/><path d="M4627.2,198.017c8.612,-0 14.277,-4.155 16.241,-11.86l-4.985,-0c-1.36,4.834 -5.213,7.403 -11.18,7.403c-7.857,-0 -12.54,-5.137 -12.918,-14.051l29.083,-0l0,-2.568c0,-10.35 -6.723,-17.375 -16.619,-17.375c-10.424,0 -17.525,7.856 -17.525,19.263c-0,11.482 7.176,19.188 17.903,19.188Zm-0.378,-33.994c6.875,0 11.407,4.684 11.407,11.709l-23.72,-0c0.907,-7.177 5.439,-11.709 12.313,-11.709Z" style="fill-rule:nonzero;"/><path d="M4648.66,186.836c-0,6.799 5.137,11.181 13.37,11.181c8.31,-0 13.9,-4.306 13.9,-10.878c0,-5.288 -2.871,-8.234 -9.216,-9.821l-6.27,-1.586c-4.004,-0.982 -5.968,-2.946 -5.968,-5.741c0,-3.928 2.871,-6.119 8.008,-6.119c4.91,-0 7.856,2.493 8.007,6.723l5.061,0c-0.226,-6.799 -5.212,-11.029 -12.917,-11.029c-7.856,0 -13.22,4.079 -13.22,10.5c0,4.986 3.097,8.31 9.443,9.896l6.27,1.587c4.306,1.057 5.816,2.795 5.816,5.816c0,3.928 -3.323,6.346 -8.989,6.346c-5.137,-0 -8.31,-2.644 -8.31,-6.875l-4.985,0Z" style="fill-rule:nonzero;"/><path d="M4684.54,213.049l5.212,0l0,-22.964c2.568,5.288 7.479,7.932 13.673,7.932c10.802,-0 16.921,-8.31 16.921,-19.339c0,-11.029 -6.345,-19.112 -16.921,-19.112c-6.119,0 -11.256,2.72 -13.824,8.385l-0.529,-7.403l-4.532,0l-0,52.501Zm5.288,-34.22c-0,-8.461 4.683,-14.504 12.691,-14.504c7.931,0 12.539,6.043 12.539,14.504c0,8.385 -4.608,14.504 -12.539,14.504c-8.008,-0 -12.691,-6.119 -12.691,-14.504Z" style="fill-rule:nonzero;"/><path d="M4743.99,198.017c8.611,-0 14.277,-4.155 16.241,-11.86l-4.986,-0c-1.36,4.834 -5.212,7.403 -11.18,7.403c-7.856,-0 -12.54,-5.137 -12.917,-14.051l29.083,-0l-0,-2.568c-0,-10.35 -6.723,-17.375 -16.619,-17.375c-10.425,0 -17.526,7.856 -17.526,19.263c0,11.482 7.177,19.188 17.904,19.188Zm-0.378,-33.994c6.874,0 11.407,4.684 11.407,11.709l-23.72,-0c0.906,-7.177 5.439,-11.709 12.313,-11.709Z" style="fill-rule:nonzero;"/><path d="M4771.11,150.501c2.115,0 3.928,-1.737 3.928,-3.852c-0,-2.116 -1.813,-3.929 -3.928,-3.929c-2.115,0 -3.853,1.813 -3.853,3.929c0,2.115 1.738,3.852 3.853,3.852Zm-2.569,46.609l5.213,0l-0,-36.562l-5.213,0l0,36.562Z" style="fill-rule:nonzero;"/><path d="M4782.06,178.905c0,11.482 7.026,19.112 17.375,19.112c8.309,-0 14.806,-4.911 16.543,-12.389l-5.288,-0c-1.435,4.683 -5.816,7.705 -11.255,7.705c-7.403,-0 -12.238,-5.817 -12.238,-14.504c0,-8.989 5.212,-14.655 12.615,-14.655c5.062,0 9.443,2.795 10.803,7.856l5.212,0c-1.435,-7.554 -7.629,-12.464 -16.09,-12.464c-10.651,0 -17.677,7.856 -17.677,19.339Z" style="fill-rule:nonzero;"/><path d="M4829.12,197.034l0,-19.867c0,-7.025 4.08,-12.842 11.936,-12.842c5.666,0 9.669,3.022 9.669,11.558l0,21.227l5.213,0l-0,-22.36c-0,-9.216 -4.306,-15.184 -13.9,-15.184c-6.119,0 -10.576,2.946 -12.918,7.328l0,-24.853l-5.212,-0l0,54.993l5.212,0Z" style="fill-rule:nonzero;"/><path d="M4881.7,198.017c8.612,-0 14.277,-4.155 16.241,-11.86l-4.985,-0c-1.36,4.834 -5.213,7.403 -11.18,7.403c-7.857,-0 -12.54,-5.137 -12.918,-14.051l29.083,-0l0,-2.568c0,-10.35 -6.723,-17.375 -16.619,-17.375c-10.424,0 -17.525,7.856 -17.525,19.263c-0,11.482 7.176,19.188 17.903,19.188Zm-0.378,-33.994c6.875,0 11.407,4.684 11.407,11.709l-23.72,-0c0.907,-7.177 5.439,-11.709 12.313,-11.709Z" style="fill-rule:nonzero;"/><path d="M4925.36,160.095c-1.284,-0.302 -2.266,-0.378 -3.4,-0.378c-5.136,0 -8.989,2.569 -10.424,6.497l-0.378,-5.666l-4.91,0l-0,36.562l5.212,0l0,-20.849c0,-6.95 4.306,-11.483 11.029,-11.483l2.871,0l-0,-4.683Z" style="fill-rule:nonzero;"/><path d="M4176.9,487.865c0,-16.468 -10.575,-28.026 -25.759,-28.026c-15.108,-0 -25.76,11.633 -25.76,28.026c0,16.392 10.576,27.95 25.76,27.95c15.108,-0 25.759,-11.558 25.759,-27.95Zm-5.59,-0c0,13.446 -8.234,22.738 -20.169,22.738c-11.936,-0 -20.094,-9.216 -20.094,-22.738c-0,-13.522 8.158,-22.738 20.094,-22.738c11.935,-0 20.169,9.216 20.169,22.738Z" style="fill-rule:nonzero;"/><path d="M4190.88,514.833l-0,-19.867c-0,-7.026 4.079,-12.842 11.935,-12.842c5.666,-0 9.669,3.021 9.669,11.557l0,21.227l5.213,0l-0,-22.36c-0,-9.216 -4.306,-15.183 -13.9,-15.183c-6.119,-0 -10.576,2.946 -12.917,7.327l-0,-24.853l-5.213,-0l0,54.994l5.213,-0Z" style="fill-rule:nonzero;"/><path d="M4233.33,514.908l-0,-19.111c-0,-8.234 4.23,-13.673 11.709,-13.673c6.043,-0 9.895,3.021 9.895,11.557l0,21.227l5.213,0l-0,-22.36c-0,-9.216 -4.155,-15.183 -14.202,-15.183c-5.288,-0 -10.122,2.643 -12.54,7.327l-0.755,-6.345l-4.533,-0l0,36.561l5.213,0Z" style="fill-rule:nonzero;"/><path d="M4285.91,515.815c8.612,-0 14.278,-4.155 16.242,-11.86l-4.986,-0c-1.36,4.835 -5.212,7.403 -11.18,7.403c-7.856,0 -12.54,-5.137 -12.918,-14.051l29.084,0l-0,-2.568c-0,-10.349 -6.724,-17.374 -16.619,-17.374c-10.425,-0 -17.526,7.856 -17.526,19.263c0,11.482 7.176,19.187 17.903,19.187Zm-0.377,-33.994c6.874,0 11.406,4.684 11.406,11.709l-23.72,0c0.907,-7.176 5.439,-11.709 12.314,-11.709Z" style="fill-rule:nonzero;"/><path d="M4332.52,514.908l20.925,0c10.274,0 16.77,-5.514 16.77,-14.201c0,-6.648 -3.173,-11.029 -9.442,-13.069c5.59,-2.191 8.385,-6.496 8.385,-12.842c-0,-8.687 -6.421,-13.975 -16.846,-13.975l-19.792,0l0,54.087Zm19.716,-49.252c7.252,-0 11.332,3.55 11.332,9.593c-0,6.421 -3.853,10.198 -10.652,10.198l-14.957,0l0,-19.791l14.277,-0Zm1.209,24.551c7.025,-0 11.256,3.701 11.256,9.82c-0,6.27 -4.155,9.971 -11.256,9.971l-15.486,0l0,-19.791l15.486,-0Z" style="fill-rule:nonzero;"/><path d="M4389.4,515.815c6.194,-0 11.18,-2.72 13.446,-7.328l0.68,6.421l4.381,0l0,-23.644c0,-9.669 -6.194,-13.899 -14.655,-13.899c-8.989,-0 -15.032,4.759 -15.032,12.162l4.759,-0c-0,-4.911 3.777,-7.781 10.122,-7.781c5.364,-0 9.669,2.266 9.669,9.443l0,1.208l-12.086,0.982c-8.536,0.68 -13.673,4.91 -13.673,11.634c-0,6.421 4.608,10.802 12.389,10.802Zm1.208,-4.23c-4.985,-0 -8.309,-2.267 -8.309,-6.724c-0,-4.079 2.795,-7.1 9.669,-7.705l10.802,-0.831l0,1.964c0,7.932 -4.457,13.296 -12.162,13.296Z" style="fill-rule:nonzero;"/><path d="M4426.04,514.908l0,-32.18l7.328,-0l-0,-4.381l-7.328,-0l0,-11.558l-5.137,-0l0,11.558l-7.327,-0l-0,4.381l7.327,-0l0,32.18l5.137,0Z" style="fill-rule:nonzero;"/><path d="M4448.85,514.908l0,-32.18l7.328,-0l-0,-4.381l-7.328,-0l0,-11.558l-5.136,-0l-0,11.558l-7.328,-0l0,4.381l7.328,-0l-0,32.18l5.136,0Z" style="fill-rule:nonzero;"/><path d="M4477.93,515.815c8.611,-0 14.277,-4.155 16.241,-11.86l-4.986,-0c-1.359,4.835 -5.212,7.403 -11.18,7.403c-7.856,0 -12.539,-5.137 -12.917,-14.051l29.083,0l0,-2.568c0,-10.349 -6.723,-17.374 -16.619,-17.374c-10.425,-0 -17.525,7.856 -17.525,19.263c-0,11.482 7.176,19.187 17.903,19.187Zm-0.378,-33.994c6.874,0 11.407,4.684 11.407,11.709l-23.72,0c0.906,-7.176 5.439,-11.709 12.313,-11.709Z" style="fill-rule:nonzero;"/><path d="M4521.6,477.893c-1.285,-0.302 -2.267,-0.377 -3.4,-0.377c-5.137,-0 -8.989,2.568 -10.424,6.496l-0.378,-5.665l-4.91,-0l-0,36.561l5.212,0l-0,-20.849c-0,-6.95 4.306,-11.482 11.029,-11.482l2.871,-0l-0,-4.684Z" style="fill-rule:nonzero;"/><path d="M4531.11,468.3c2.115,-0 3.928,-1.738 3.928,-3.853c-0,-2.115 -1.813,-3.928 -3.928,-3.928c-2.115,-0 -3.853,1.813 -3.853,3.928c0,2.115 1.738,3.853 3.853,3.853Zm-2.569,46.608l5.213,0l-0,-36.561l-5.213,-0l0,36.561Z" style="fill-rule:nonzero;"/><path d="M4559.97,515.815c8.612,-0 14.278,-4.155 16.242,-11.86l-4.986,-0c-1.36,4.835 -5.212,7.403 -11.18,7.403c-7.856,0 -12.54,-5.137 -12.918,-14.051l29.084,0l-0,-2.568c-0,-10.349 -6.723,-17.374 -16.619,-17.374c-10.425,-0 -17.526,7.856 -17.526,19.263c0,11.482 7.177,19.187 17.903,19.187Zm-0.377,-33.994c6.874,0 11.406,4.684 11.406,11.709l-23.719,0c0.906,-7.176 5.438,-11.709 12.313,-11.709Z" style="fill-rule:nonzero;"/><path d="M4581.42,504.635c0,6.799 5.137,11.18 13.371,11.18c8.309,-0 13.899,-4.306 13.899,-10.878c0,-5.288 -2.87,-8.234 -9.216,-9.82l-6.269,-1.587c-4.004,-0.982 -5.968,-2.946 -5.968,-5.741c-0,-3.928 2.87,-6.119 8.007,-6.119c4.91,0 7.856,2.493 8.007,6.724l5.062,-0c-0.227,-6.799 -5.213,-11.029 -12.918,-11.029c-7.856,-0 -13.219,4.079 -13.219,10.5c-0,4.985 3.097,8.309 9.442,9.896l6.27,1.586c4.306,1.058 5.817,2.795 5.817,5.817c-0,3.928 -3.324,6.345 -8.99,6.345c-5.136,0 -8.309,-2.644 -8.309,-6.874l-4.986,-0Z" style="fill-rule:nonzero;"/><path d="M4617.31,530.848l5.212,-0l0,-22.965c2.569,5.288 7.479,7.932 13.673,7.932c10.803,-0 16.922,-8.31 16.922,-19.339c-0,-11.029 -6.346,-19.111 -16.922,-19.111c-6.118,-0 -11.255,2.719 -13.824,8.385l-0.528,-7.403l-4.533,-0l0,52.501Zm5.288,-34.22c0,-8.461 4.684,-14.504 12.691,-14.504c7.932,-0 12.54,6.043 12.54,14.504c-0,8.385 -4.608,14.503 -12.54,14.503c-8.007,0 -12.691,-6.118 -12.691,-14.503Z" style="fill-rule:nonzero;"/><path d="M4676.76,515.815c8.612,-0 14.277,-4.155 16.241,-11.86l-4.985,-0c-1.36,4.835 -5.213,7.403 -11.18,7.403c-7.857,0 -12.54,-5.137 -12.918,-14.051l29.083,0l0,-2.568c0,-10.349 -6.723,-17.374 -16.619,-17.374c-10.424,-0 -17.525,7.856 -17.525,19.263c-0,11.482 7.176,19.187 17.903,19.187Zm-0.378,-33.994c6.875,0 11.407,4.684 11.407,11.709l-23.72,0c0.907,-7.176 5.439,-11.709 12.313,-11.709Z" style="fill-rule:nonzero;"/><path d="M4703.88,468.3c2.115,-0 3.928,-1.738 3.928,-3.853c0,-2.115 -1.813,-3.928 -3.928,-3.928c-2.115,-0 -3.852,1.813 -3.852,3.928c-0,2.115 1.737,3.853 3.852,3.853Zm-2.568,46.608l5.212,0l0,-36.561l-5.212,-0l-0,36.561Z" style="fill-rule:nonzero;"/><path d="M4714.83,496.703c-0,11.482 7.025,19.112 17.374,19.112c8.31,-0 14.806,-4.91 16.544,-12.389l-5.288,0c-1.435,4.684 -5.817,7.705 -11.256,7.705c-7.403,0 -12.237,-5.816 -12.237,-14.503c-0,-8.99 5.212,-14.655 12.615,-14.655c5.061,-0 9.443,2.795 10.802,7.856l5.213,-0c-1.436,-7.554 -7.63,-12.464 -16.091,-12.464c-10.651,-0 -17.676,7.856 -17.676,19.338Z" style="fill-rule:nonzero;"/><path d="M4761.89,514.833l-0,-19.867c-0,-7.026 4.079,-12.842 11.935,-12.842c5.666,-0 9.67,3.021 9.67,11.557l-0,21.227l5.212,0l-0,-22.36c-0,-9.216 -4.306,-15.183 -13.9,-15.183c-6.118,-0 -10.575,2.946 -12.917,7.327l-0,-24.853l-5.213,-0l0,54.994l5.213,-0Z" style="fill-rule:nonzero;"/><path d="M4814.47,515.815c8.612,-0 14.278,-4.155 16.242,-11.86l-4.986,-0c-1.36,4.835 -5.212,7.403 -11.18,7.403c-7.856,0 -12.54,-5.137 -12.918,-14.051l29.084,0l-0,-2.568c-0,-10.349 -6.723,-17.374 -16.619,-17.374c-10.425,-0 -17.526,7.856 -17.526,19.263c0,11.482 7.177,19.187 17.903,19.187Zm-0.377,-33.994c6.874,0 11.406,4.684 11.406,11.709l-23.719,0c0.906,-7.176 5.439,-11.709 12.313,-11.709Z" style="fill-rule:nonzero;"/><path d="M4858.13,477.893c-1.284,-0.302 -2.266,-0.377 -3.399,-0.377c-5.137,-0 -8.99,2.568 -10.425,6.496l-0.378,-5.665l-4.91,-0l0,36.561l5.213,0l-0,-20.849c-0,-6.95 4.305,-11.482 11.029,-11.482l2.87,-0l0,-4.684Z" style="fill-rule:nonzero;"/><circle cx="4066.1" cy="389.874" r="29.377" style="fill:#215250;"/><circle cx="4066.1" cy="283.709" r="29.377" style="fill:#cecece;"/><circle cx="4066.1" cy="177.507" r="29.377" style="fill:#4b5563;"/><circle cx="4066.1" cy="495.343" r="29.377" style="fill:#facc15;"/></g><path d="M495.451,1941.39l0,53.298l7.89,0l0,-60.684l-20.648,-0l0,7.386l12.758,-0Z" style="fill-rule:nonzero;"/><path d="M972.005,1996.24l0,-7.638l-28.034,-0l12.59,-10.912c10.744,-9.316 15.025,-15.443 15.025,-24.089c-0,-11.667 -7.806,-19.053 -19.977,-19.053c-12.338,0 -20.564,8.478 -20.816,21.487l8.226,0c0.168,-8.645 5.036,-14.101 12.506,-14.101c7.303,0 11.667,4.533 11.667,12.171c0,6.463 -2.77,10.576 -12.59,19.053l-19.557,16.871l0,6.295l40.96,-0.084Z" style="fill-rule:nonzero;"/><path d="M1940.89,1982.43l-0,-7.303l-7.219,0l0,-41.127l-10.659,-0l-28.622,41.127l0,7.303l31.392,-0l-0,12.254l7.889,0l0,-12.254l7.219,-0Zm-37.603,-7.303l22.495,-32.398l-0,32.398l-22.495,0Z" style="fill-rule:nonzero;"/><path d="M2874.02,1953.22c-6.211,8.477 -8.393,13.513 -8.393,20.731c-0,12.255 9.736,21.739 22.326,21.739c12.507,0 22.075,-9.064 22.075,-21.739c0,-12.002 -8.477,-21.067 -21.067,-21.067c-2.099,-0 -4.281,0.419 -6.379,1.259l15.192,-20.144l-9.569,-0l-14.185,19.221Zm0,20.815c0,-8.309 5.708,-14.185 13.933,-14.185c8.058,0 13.766,5.876 13.766,14.185c-0,8.31 -5.708,14.269 -13.766,14.269c-8.225,0 -13.933,-5.959 -13.933,-14.269Z" style="fill-rule:nonzero;"/><path d="M3834.39,1979.45c0,10.744 8.814,17.878 22.327,17.878c13.43,0 22.327,-7.134 22.327,-17.794c-0,-7.47 -4.365,-13.513 -11.164,-15.696c5.708,-2.266 8.897,-7.05 8.897,-13.261c0,-9.569 -8.057,-16.032 -19.976,-16.032c-12.087,0 -20.228,6.463 -20.228,15.948c-0,6.127 3.105,10.911 8.813,13.345c-6.715,2.434 -10.996,8.31 -10.996,15.612Zm9.737,-28.454c-0,-5.623 4.952,-9.316 12.506,-9.316c7.638,-0 12.422,3.693 12.422,9.484c0,5.876 -4.784,9.653 -12.422,9.653c-7.554,-0 -12.506,-3.861 -12.506,-9.821Zm-1.679,27.867c0,-6.715 5.54,-10.996 14.185,-10.996c8.729,0 14.269,4.281 14.269,10.996c-0,6.798 -5.624,11.163 -14.185,11.163c-8.645,-0 -14.269,-4.365 -14.269,-11.163Z" style="fill-rule:nonzero;"/><path d="M4819.94,1943.15l-0,53.299l7.89,-0l-0,-60.685l-20.648,0l-0,7.386l12.758,0Z" style="fill-rule:nonzero;"/><path d="M4838.91,1966.15c0,18.886 9.317,31.392 25.013,31.392c15.612,0 24.928,-12.506 24.928,-31.392c0,-18.801 -9.736,-31.559 -24.928,-31.559c-15.276,0 -25.013,12.758 -25.013,31.559Zm8.142,0c-0,-15.108 6.211,-24.173 16.871,-24.173c10.659,0 16.787,9.065 16.787,24.173c-0,14.941 -6.128,24.006 -16.787,24.006c-10.66,-0 -16.871,-9.065 -16.871,-24.006Z" style="fill-rule:nonzero;"/><path d="M1430.47,1963.3c9.653,-0 14.689,4.868 14.689,12.17c-0,7.806 -5.12,12.842 -13.01,12.842c-7.638,0 -12.506,-4.616 -12.506,-12.506l-8.142,-0c0,12.59 8.561,19.892 20.48,19.892c12.339,0 21.571,-7.805 21.571,-20.06c0,-10.911 -7.806,-17.878 -18.13,-19.137l16.619,-15.864l0,-6.63l-37.686,-0l-0,7.302l27.279,-0l-17.207,16.535l0,5.456l6.043,-0Z" style="fill-rule:nonzero;"/><path d="M2402.63,1995.69c13.094,0 22.075,-8.813 22.075,-21.403c0,-11.667 -7.974,-20.312 -20.312,-20.312c-4.533,-0 -8.561,1.259 -11.751,3.693l4.029,-16.115l24.425,-0l-0,-7.554l-30.384,-0l-7.387,31.139l6.967,1.763c2.77,-3.441 7.47,-5.876 12.59,-5.876c8.477,0 13.43,5.792 13.43,13.598c-0,8.225 -5.288,13.681 -13.514,13.681c-7.722,0 -12.506,-4.784 -12.506,-12.59l-8.142,0c0,12.087 8.058,19.976 20.48,19.976Z" style="fill-rule:nonzero;"/><path d="M3353.47,1934l-0,7.554l34.077,-0l-23.25,53.13l8.562,0l22.998,-53.13l-0,-7.554l-42.387,-0Z" style="fill-rule:nonzero;"/><path d="M4356.36,1977.1c6.211,-8.477 8.393,-13.597 8.393,-20.732c0,-12.338 -9.736,-21.823 -22.326,-21.823c-12.506,0 -22.075,9.149 -22.075,21.739c0,12.087 8.477,21.152 21.068,21.152c2.098,-0 4.28,-0.42 6.379,-1.259l-15.193,20.144l9.569,-0l14.185,-19.221Zm-0,-20.816c-0,8.31 -5.708,14.185 -13.933,14.185c-8.058,0 -13.765,-5.875 -13.765,-14.185c-0,-8.309 5.707,-14.353 13.765,-14.353c8.225,0 13.933,6.044 13.933,14.353Z" style="fill-rule:nonzero;"/><path d="M159.3,925.746l-7.638,0l-0,28.79l-19.221,-0l-0,-25.936l-7.302,-0l-0,25.936l-18.97,-0l0,-28.79l-7.554,0l0,37.015l60.685,0l-0,-37.015Z" style="fill-rule:nonzero;"/><path d="M108.519,911.309c0,-2.853 -2.35,-5.204 -5.203,-5.204c-2.938,0 -5.204,2.351 -5.204,5.204c-0,2.854 2.266,5.204 5.204,5.204c2.853,0 5.203,-2.35 5.203,-5.204Zm50.781,3.861l-0,-7.89l-41.044,0l-0,7.89l41.044,0Z" style="fill-rule:nonzero;"/><path d="M137.729,898.467c11.499,0 20.48,-7.386 20.48,-19.053c-0,-6.463 -2.854,-11.835 -7.638,-14.521l8.225,0c7.806,0 12.842,5.037 12.842,12.759c0,6.882 -3.525,11.415 -9.568,12.422l-0,7.89c10.408,-1.511 16.703,-9.149 16.703,-20.312c-0,-12.591 -8.226,-20.564 -21.152,-20.564l-39.365,-0l-0,7.05l6.966,0.588c-5.12,2.602 -8.141,7.722 -8.141,14.352c-0,11.919 9.065,19.389 20.648,19.389Zm-0.168,-7.89c-7.554,0 -13.598,-4.7 -13.598,-12.59c0,-8.057 5.708,-12.758 13.598,-12.758c8.058,0 13.765,4.868 13.765,12.842c0,7.722 -6.043,12.506 -13.765,12.506Z" style="fill-rule:nonzero;"/><path d="M160.307,827.962c0,-10.156 -4.952,-17.038 -13.765,-19.053l-0,7.386c4.7,1.343 7.218,5.372 7.218,11.499c0,7.806 -4.784,12.339 -13.429,12.926l-0.084,-31.727l-2.938,0c-12.17,0 -20.228,7.638 -20.228,19.305c-0,11.919 8.897,20.06 21.739,20.06c12.758,0 21.487,-8.309 21.487,-20.396Zm-36.595,0.336c-0,-6.967 4.532,-11.415 11.331,-11.415l-0,23.669c-7.219,-1.007 -11.331,-5.371 -11.331,-12.254Z" style="fill-rule:nonzero;"/><path d="M159.3,792.29l-21.739,0c-7.974,0 -13.262,-4.281 -13.262,-11.667c0,-6.043 3.358,-9.904 11.667,-9.904l23.334,-0l-0,-7.89l-25.097,0c-10.491,0 -17.122,4.952 -17.122,15.78c-0,5.791 2.77,10.995 7.47,13.597l-6.295,0.839l-0,7.135l41.044,-0l-0,-7.89Z" style="fill-rule:nonzero;"/><path d="M159.3,741.258l-0,-7.806l-41.044,-17.123l-0,8.226l22.914,9.149c3.609,1.427 7.134,2.77 9.82,3.441c-2.518,0.672 -5.959,1.847 -9.82,3.274l-22.914,8.981l-0,8.393l41.044,-16.535Z" style="fill-rule:nonzero;"/><path d="M160.307,694.171c0,-10.157 -4.952,-17.039 -13.765,-19.054l-0,7.387c4.7,1.343 7.218,5.371 7.218,11.499c0,7.806 -4.784,12.338 -13.429,12.926l-0.084,-31.728l-2.938,0c-12.17,0 -20.228,7.638 -20.228,19.305c-0,11.919 8.897,20.061 21.739,20.061c12.758,-0 21.487,-8.31 21.487,-20.396Zm-36.595,0.335c-0,-6.966 4.532,-11.415 11.331,-11.415l-0,23.67c-7.219,-1.007 -11.331,-5.372 -11.331,-12.255Z" style="fill-rule:nonzero;"/><path d="M117.92,642.887c-0.336,1.594 -0.503,2.769 -0.503,4.196c-0,5.624 2.853,9.737 7.134,11.415l-6.211,0.504l-0,7.386l40.96,0l-0,-7.89l-21.739,0c-7.89,0 -12.422,-4.616 -12.422,-12.086l-0,-3.525l-7.219,-0Z" style="fill-rule:nonzero;"/><path d="M159.3,628.366l-7.47,-0.588c5.623,-2.686 8.477,-8.141 8.477,-14.604c0,-11.919 -8.897,-19.305 -21.319,-19.305c-12.674,-0 -21.907,7.05 -21.907,18.801c-0,6.715 2.854,12.255 8.225,14.94l-27.782,0l0,7.89l61.776,0l-0,-7.134Zm-20.648,-0.839c-8.393,-0 -14.437,-4.869 -14.437,-12.926c0,-8.058 6.044,-12.842 14.437,-12.842c8.477,-0 14.521,4.784 14.521,12.842c-0,8.057 -5.96,12.926 -14.521,12.926Z" style="fill-rule:nonzero;"/><path d="M117.92,561.638c-0.336,1.595 -0.503,2.77 -0.503,4.197c-0,5.623 2.853,9.736 7.134,11.415l-6.211,0.503l-0,7.387l40.96,-0l-0,-7.89l-21.739,-0c-7.89,-0 -12.422,-4.617 -12.422,-12.087l-0,-3.525l-7.219,-0Z" style="fill-rule:nonzero;"/><path d="M160.307,543.928c0,-6.631 -2.938,-12.255 -7.638,-14.353l6.631,-0.839l-0,-6.715l-25.768,-0c-11.079,-0 -16.451,6.882 -16.451,17.038c-0,10.576 5.623,17.627 14.185,17.627l-0,-6.883c-4.952,0 -7.89,-3.777 -7.89,-10.408c-0,-5.539 2.434,-9.652 9.317,-9.652l1.175,-0l1.007,12.926c0.755,9.652 5.456,15.276 13.01,15.276c7.47,-0 12.422,-5.204 12.422,-14.017Zm-6.127,-2.267c-0,5.12 -2.182,8.31 -6.547,8.31c-4.029,-0 -6.715,-2.854 -7.386,-9.82l-0.84,-10.492l2.183,-0c7.722,-0 12.59,4.532 12.59,12.002Z" style="fill-rule:nonzero;"/><path d="M118.256,482.739l21.655,0c8.813,0 13.43,3.945 13.43,11.164c-0,6.043 -3.358,9.82 -12.171,9.82l-22.914,0l-0,7.89l25.516,-0c10.072,-0 16.535,-5.372 16.535,-14.94c0,-6.044 -2.938,-11.5 -7.218,-13.85l6.211,-0.839l-0,-7.051l-41.044,0l-0,7.806Z" style="fill-rule:nonzero;"/><path d="M138.82,467.044c12.926,-0 21.487,-7.974 21.487,-20.061c0,-9.904 -5.959,-17.542 -14.856,-19.137l-0,7.89c4.868,1.427 7.806,5.624 7.806,11.247c-0,7.47 -5.708,12.255 -14.521,12.255c-8.897,-0 -14.605,-5.12 -14.605,-12.591c0,-5.287 2.77,-9.484 7.974,-10.827l0,-7.89c-9.149,1.427 -15.024,8.645 -15.024,18.969c-0,12.003 8.897,20.145 21.739,20.145Z" style="fill-rule:nonzero;"/><path d="M159.216,411.647l-22.327,-0c-7.05,-0 -12.59,-4.113 -12.59,-11.751c0,-5.875 3.358,-9.82 11.667,-9.82l23.334,-0l-0,-7.89l-25.097,-0c-10.491,-0 -17.122,5.036 -17.122,15.528c-0,6.379 3.021,11.331 7.47,13.933l-27.027,-0l0,7.89l61.692,-0l-0,-7.89Z" style="fill-rule:nonzero;"/><path d="M147.381,375.135c7.806,0 12.926,-6.127 12.926,-15.779c0,-9.737 -4.952,-16.452 -12.758,-16.452c-6.127,0 -9.317,3.442 -10.995,10.408l-1.763,7.219c-1.007,4.028 -2.854,6.043 -5.624,6.043c-3.777,-0 -5.959,-2.77 -5.959,-7.722c0,-4.784 2.602,-7.554 6.715,-7.722l-0,-7.554c-7.806,0.168 -12.842,6.043 -12.842,15.024c-0,9.065 4.784,15.444 12.338,15.444c6.043,0 9.653,-3.441 11.415,-10.744l1.679,-7.218c1.091,-4.281 2.77,-5.624 5.54,-5.624c3.777,0 6.043,3.19 6.043,8.73c-0,5.204 -2.518,8.393 -6.715,8.393l0,7.554Z" style="fill-rule:nonzero;"/><path d="M160.307,322.173c0,-6.631 -2.938,-12.255 -7.638,-14.353l6.631,-0.84l-0,-6.714l-25.768,-0c-11.079,-0 -16.451,6.882 -16.451,17.038c-0,10.576 5.623,17.627 14.185,17.627l-0,-6.883c-4.952,-0 -7.89,-3.777 -7.89,-10.408c-0,-5.54 2.434,-9.652 9.317,-9.652l1.175,-0l1.007,12.926c0.755,9.652 5.456,15.276 13.01,15.276c7.47,-0 12.422,-5.204 12.422,-14.017Zm-6.127,-2.267c-0,5.12 -2.182,8.31 -6.547,8.31c-4.029,-0 -6.715,-2.854 -7.386,-9.821l-0.84,-10.491l2.183,-0c7.722,-0 12.59,4.532 12.59,12.002Z" style="fill-rule:nonzero;"/><path d="M159.3,281.464l-21.739,0c-7.974,0 -13.262,-4.28 -13.262,-11.667c0,-6.043 3.358,-9.904 11.667,-9.904l23.334,0l-0,-7.89l-25.097,0c-10.491,0 -17.122,4.952 -17.122,15.78c-0,5.791 2.77,10.995 7.47,13.597l-6.295,0.84l-0,7.134l41.044,0l-0,-7.89Z" style="fill-rule:nonzero;"/><path d="M159.3,229.509l-34.413,-0l-0,-8.058l-6.631,0l-0,8.058l-12.842,-0l-0,7.89l12.842,-0l-0,8.057l6.631,0l-0,-8.057l34.413,-0l-0,-7.89Z" style="fill-rule:nonzero;"/><path d="M160.307,197.11c0,-10.156 -4.952,-17.039 -13.765,-19.053l-0,7.386c4.7,1.343 7.218,5.372 7.218,11.499c0,7.806 -4.784,12.339 -13.429,12.926l-0.084,-31.727l-2.938,-0c-12.17,-0 -20.228,7.638 -20.228,19.305c-0,11.918 8.897,20.06 21.739,20.06c12.758,0 21.487,-8.309 21.487,-20.396Zm-36.595,0.336c-0,-6.967 4.532,-11.415 11.331,-11.415l-0,23.669c-7.219,-1.007 -11.331,-5.372 -11.331,-12.254Z" style="fill-rule:nonzero;"/><path d="M108.519,165.467c0,-2.854 -2.35,-5.204 -5.203,-5.204c-2.938,-0 -5.204,2.35 -5.204,5.204c-0,2.853 2.266,5.204 5.204,5.204c2.853,-0 5.203,-2.351 5.203,-5.204Zm50.781,3.861l-0,-7.89l-41.044,-0l-0,7.89l41.044,-0Z" style="fill-rule:nonzero;"/><path d="M159.3,141.965l-61.776,0l0,7.89l61.776,-0l-0,-7.89Z" style="fill-rule:nonzero;"/><path d="M4215.19,2108.57c11.835,-0 19.557,-8.226 19.557,-19.557c0,-11.667 -7.638,-19.473 -19.557,-19.473l-23.585,0l-0,60.685l8.225,-0l0,-21.655l15.36,-0Zm-1.426,-31.644c7.721,0 12.338,4.365 12.338,12.003c-0,7.47 -4.533,12.254 -12.674,12.254l-13.598,0l0,-24.257l13.934,0Z" style="fill-rule:nonzero;"/><path d="M4260.94,2130.23l8.561,-0l22.83,-60.685l-8.561,0l-14.689,38.694c-1.007,2.686 -2.434,6.715 -3.861,11.499c-1.259,-4.532 -2.434,-7.974 -3.777,-11.415l-14.772,-38.778l-8.813,0l23.082,60.685Z" style="fill-rule:nonzero;"/><rect x="4292.66" y="2104.46" width="25.6" height="7.051" style="fill-rule:nonzero;"/><path d="M4338.83,2069.54l-8.226,0l0,60.685l34.917,-0l0,-7.638l-26.691,-0l0,-53.047Z" style="fill-rule:nonzero;"/><path d="M4389.94,2131.24c10.156,0 17.039,-4.952 19.053,-13.765l-7.386,-0c-1.343,4.7 -5.372,7.218 -11.499,7.218c-7.806,0 -12.338,-4.784 -12.926,-13.429l31.727,-0.084l0,-2.938c0,-12.171 -7.638,-20.228 -19.305,-20.228c-11.918,-0 -20.06,8.897 -20.06,21.739c0,12.758 8.31,21.487 20.396,21.487Zm-0.336,-36.595c6.967,-0 11.416,4.532 11.416,11.331l-23.67,-0c1.007,-7.219 5.372,-11.331 12.254,-11.331Z" style="fill-rule:nonzero;"/><path d="M4421.59,2079.45c2.853,0 5.203,-2.35 5.203,-5.204c0,-2.937 -2.35,-5.203 -5.203,-5.203c-2.854,-0 -5.204,2.266 -5.204,5.203c-0,2.854 2.35,5.204 5.204,5.204Zm-3.861,50.781l7.889,-0l0,-41.044l-7.889,-0l-0,41.044Z" style="fill-rule:nonzero;"/><path d="M4433.67,2118.31c0,7.806 6.127,12.926 15.78,12.926c9.736,0 16.451,-4.952 16.451,-12.758c-0,-6.127 -3.441,-9.317 -10.408,-10.995l-7.218,-1.763c-4.029,-1.007 -6.044,-2.854 -6.044,-5.624c0,-3.777 2.77,-5.959 7.722,-5.959c4.785,-0 7.555,2.602 7.722,6.715l7.554,-0c-0.167,-7.806 -6.043,-12.842 -15.024,-12.842c-9.065,-0 -15.444,4.784 -15.444,12.338c0,6.043 3.442,9.653 10.744,11.415l7.218,1.679c4.281,1.091 5.624,2.77 5.624,5.54c-0,3.777 -3.19,6.043 -8.729,6.043c-5.204,-0 -8.394,-2.518 -8.394,-6.715l-7.554,0Z" style="fill-rule:nonzero;"/><path d="M4486.22,2130.23l0,-34.413l8.058,-0l-0,-6.631l-8.058,-0l0,-12.842l-7.89,-0l0,12.842l-8.057,-0l-0,6.631l8.057,-0l0,34.413l7.89,-0Z" style="fill-rule:nonzero;"/><path d="M4529.69,2089.18l0,21.655c0,8.813 -3.945,13.429 -11.163,13.429c-6.043,0 -9.82,-3.357 -9.82,-12.17l-0,-22.914l-7.89,-0l-0,25.516c-0,10.072 5.372,16.535 14.94,16.535c6.043,0 11.499,-2.938 13.849,-7.218l0.84,6.211l7.05,-0l0,-41.044l-7.806,-0Z" style="fill-rule:nonzero;"/><path d="M4556.81,2130.23l0,-21.739c0,-7.974 4.281,-13.262 11.667,-13.262c6.043,0 9.904,3.358 9.904,11.667l0,23.334l7.89,-0l0,-25.097c0,-10.491 -4.952,-17.122 -15.78,-17.122c-5.791,-0 -10.995,2.77 -13.597,7.47l-0.839,-6.295l-7.135,-0l0,41.044l7.89,-0Z" style="fill-rule:nonzero;"/><path d="M4594.58,2108.66c-0,11.499 7.386,20.48 19.053,20.48c6.463,-0 11.835,-2.854 14.52,-7.638l0,8.225c0,7.806 -5.036,12.842 -12.758,12.842c-6.882,0 -11.415,-3.525 -12.422,-9.568l-7.89,-0c1.511,10.408 9.149,16.703 20.312,16.703c12.591,-0 20.564,-8.226 20.564,-21.152l0,-39.365l-7.05,-0l-0.588,6.966c-2.602,-5.12 -7.722,-8.141 -14.352,-8.141c-11.919,-0 -19.389,9.065 -19.389,20.648Zm7.89,-0.168c-0,-7.554 4.7,-13.598 12.59,-13.598c8.057,0 12.758,5.708 12.758,13.598c-0,8.058 -4.868,13.765 -12.842,13.765c-7.722,0 -12.506,-6.043 -12.506,-13.765Z" style="fill-rule:nonzero;"/><path d="M4674.15,2079.45c2.853,0 5.204,-2.35 5.204,-5.204c-0,-2.937 -2.351,-5.203 -5.204,-5.203c-2.854,-0 -5.204,2.266 -5.204,5.203c-0,2.854 2.35,5.204 5.204,5.204Zm-3.861,50.781l7.889,-0l0,-41.044l-7.889,-0l-0,41.044Z" style="fill-rule:nonzero;"/><path d="M4697.48,2130.23l0,-21.739c0,-7.974 4.281,-13.262 11.667,-13.262c6.044,0 9.905,3.358 9.905,11.667l-0,23.334l7.889,-0l0,-25.097c0,-10.491 -4.952,-17.122 -15.779,-17.122c-5.792,-0 -10.996,2.77 -13.598,7.47l-0.839,-6.295l-7.134,-0l-0,41.044l7.889,-0Z" style="fill-rule:nonzero;"/><path d="M4768.82,2130.23l-0,-11.667l6.966,-7.302l12.003,18.969l9.065,-0l-15.612,-24.677l15.696,-16.367l-9.904,-0l-18.214,19.305l-0,-40.037l-7.89,-0l-0,61.776l7.89,-0Z" style="fill-rule:nonzero;"/><path d="M4816.25,2130.23l8.058,-0l14.856,-48.011l14.689,48.011l7.889,-0l18.298,-60.685l-8.393,0l-11.164,37.183c-0.839,2.686 -1.678,5.792 -2.686,10.912c-0.923,-4.533 -1.762,-7.722 -2.769,-10.996l-11.415,-37.099l-8.898,0l-11.499,37.099c-0.923,3.19 -1.846,6.127 -2.853,10.996c-0.84,-4.617 -1.679,-7.806 -2.518,-10.996l-11.08,-37.099l-8.561,0l18.046,60.685Z" style="fill-rule:nonzero;"/><path d="M4883.73,2148.61l7.89,-0l0,-25.097c2.686,5.036 8.142,7.806 14.689,7.806c12.17,-0 19.053,-9.401 19.053,-21.907c-0,-12.59 -7.302,-21.403 -19.053,-21.403c-6.547,-0 -12.087,2.937 -14.857,8.561l-0.587,-7.386l-7.135,-0l0,59.426Zm7.974,-38.862c0,-8.562 4.868,-14.521 12.926,-14.521c8.058,0 12.842,6.043 12.842,14.521c-0,8.393 -4.784,14.437 -12.842,14.437c-8.058,-0 -12.926,-6.044 -12.926,-14.437Z" style="fill-rule:nonzero;"/><path d="M4925.36,1877.15l-0.015,-8.393l-4441.19,7.908l0.015,8.393l4441.19,-7.908Z"/><path d="M499.888,653.45c-0,-0 155.285,112.467 247.88,179.531c44.828,32.467 92.253,61.19 141.794,85.876c70.167,34.964 171.067,85.243 216.082,107.674c15.465,7.706 31.259,14.737 47.335,21.071c58.709,23.133 209.52,82.558 282.222,111.205c26.891,10.596 54.427,19.478 82.441,26.593c88.008,22.351 289.597,73.548 364.427,92.552c19.094,4.849 38.37,8.95 57.784,12.291c85.856,14.777 335.749,57.787 397.532,68.421c9.29,1.599 18.609,3.025 27.953,4.278c70.526,9.458 385.603,51.708 446.692,59.9c6.851,0.919 13.714,1.746 20.588,2.482c69.76,7.464 471.655,50.466 530.234,56.734c4.748,0.508 9.501,0.967 14.258,1.376c59.71,5.139 474.867,40.867 512.049,44.067c1.774,0.152 3.549,0.298 5.325,0.437c36.887,2.879 446.478,34.847 572.141,44.655c24.287,1.896 48.629,2.997 72.988,3.302c103.422,1.295 390.695,4.893 390.695,4.893" style="fill:none;stroke:#facc15;stroke-width:10.42px;"/><path d="M492.391,653.45l7.497,-0" style="fill:none;stroke:#facc15;stroke-width:10.42px;stroke-linecap:butt;"/><path d="M974.735,152.063c-0,-0 83.281,0.758 143.493,1.307c40.256,0.366 80.184,7.279 118.22,20.467c27.095,9.395 55.21,19.144 63.086,21.874c1.441,0.5 2.887,0.986 4.337,1.46c13.042,4.254 81.747,26.668 124.716,40.686c23.362,7.622 46.154,16.892 68.204,27.739c46.74,22.993 130.991,64.44 172.644,84.93c16.44,8.088 33.413,15.045 50.799,20.823c68.026,22.607 247.276,82.179 273.759,90.98c2.192,0.729 4.38,1.469 6.564,2.221c35.228,12.129 343.643,118.313 391.891,134.924c4.224,1.455 8.466,2.857 12.725,4.206c45.723,14.486 323.705,102.559 404.374,128.117c14.612,4.63 29.401,8.683 44.333,12.15c87.666,20.355 405.304,94.105 460.273,106.868c5.421,1.259 10.86,2.442 16.315,3.548c70.692,14.339 578.071,117.255 682.528,138.443c12.514,2.538 25.109,4.657 37.764,6.354c129.667,17.385 879.548,117.924 879.548,117.924" style="fill:none;stroke:#4b5563;stroke-width:10.42px;"/><rect x="484.162" y="141.965" width="8.229" height="1743.09"/></g></svg>