<svg xmlns="http://www.w3.org/2000/svg" fill="#FACC15" viewBox="23 -850 953 1000" data-icon="ico-chart-histogram-alt" preserveAspectRatio="xMidYMid" style="overflow: hidden;"><path d="M973.9 -642.2C896.1 -710.1 818.2 -778 740.3 -845.9c-6.2 -5.4 -4.3 -5.7 -11 0.2L506.7 -651.6l-14 12.3 0.5 1.3h5.5c40 -0 79.9 0.1 119.9 -0.1 4.4 -0 6 0.4 5.1 5.6 -4 22 -9.1 43.7 -15.6 65C557.6 -400.8 426.6 -261.7 257.6 -209.8 200.3 -192.2 141.7 -185.3 81.8 -189.2c-15.4 -1 -30.6 -2.8 -45.9 -5 -8 -1.1 -14.1 5.1 -12.5 12.3 1.1 4.9 4.9 6.7 9.1 8.2C137 -138.1 243.8 -128.8 352.9 -146.1c93.4 -14.8 180.2 -47.2 258.8 -100.1 138.7 -93.3 224.7 -221.6 253.6 -387 0.7 -4.2 2.5 -5.1 6.5 -5.1 33.2 0.2 66.4 0.1 99.7 0.1 1.8 -0 3.7 0.6 5.4 -0.7 -0.3 -1.7 -1.9 -2.4 -3 -3.3zM895.4 -228.5v-376.3c0 -1 -0.1 -2.1 -1.5 -2.2 -1.3 -0.1 -1.9 0.7 -2.2 1.8 -0.2 0.8 -0.4 1.7 -0.5 2.5C871.4 -510.2 832 -427 773.3 -352.9c-1.9 2.5 -2.8 4.9 -2.8 8 0.1 163.2 0.1 326.3 0 489.5 0 4.5 1.4 5.4 5.6 5.4 37.5 -0.2 75.1 -0.1 112.6 -0.1 7.5 -0 6.6 0.8 6.6 -6.7 0.1 -123.9 0.1 -247.8 0.1 -371.7zm-186.9 -53.7c-2 1.6 -3 2.3 -3.9 3.1 -35.9 32.6 -75 60.7 -117.2 84.4 -3.1 1.7 -3.8 3.8 -3.8 7.1 0.1 110.7 0.1 221.4 0 332.1 0 4.2 1 5.5 5.4 5.5 37.7 -0.2 75.4 -0.2 113.1 -0 5.4 -0 6.5 -1.6 6.4 -6.6 -0.1 -139.6 -0.1 -279.2 -0.1 -418.8v-6.8h0.1zM521.7 -155.7c0 -6.3 0 -6.3 -6 -3.8C478.9 -144.3 441 -132.2 402.1 -123.7c-3.9 0.9 -5.3 2.3 -5.3 6.4 0.1 87.2 0.1 174.3 0 261.5 0 4.5 1 5.8 5.7 5.8 37.9 -0.2 75.8 -0.2 113.6 -0 4.7 -0 5.7 -1.3 5.7 -5.8 -0.2 -50 -0.1 -100 -0.1 -150v-149.9zM143.1 -115.1c-39 -6 -77.4 -14.9 -114.8 -27.7 -4.2 -1.5 -5.2 -0.6 -5.2 3.8 0.1 47.2 0.1 94.4 0.1 141.6 0 47 0.1 94.1 -0.1 141.1 0 5.1 1.4 6.2 6.4 6.2 37.7 -0.2 75.4 -0.2 113.1 -0 4.2 -0 5.6 -0.9 5.6 -5.4 -0.1 -84.6 -0.1 -169.1 0 -253.7 -0.2 -3.7 -1.1 -5.3 -5.1 -5.9zm191.8 8.3c0 -4 -0.9 -5.4 -5.2 -4.9 -38 4.6 -76.2 5.9 -114.4 3.8 -4.6 -0.2 -5.4 1.3 -5.4 5.5 0.1 82.3 0.1 164.6 0 246.9 0 4.5 1.4 5.4 5.6 5.4 37.9 -0.1 75.7 -0.2 113.6 -0 5.1 -0 5.8 -1.8 5.8 -6.2 -0.1 -41.5 -0.1 -83 -0.1 -124.5 0 -41.9 0 -83.9 0.1 -126z"></path></svg>