<?xml version="1.0" encoding="UTF-8" standalone="no"?><!DOCTYPE svg PUBLIC "-//W3C//DTD SVG 1.1//EN" "http://www.w3.org/Graphics/SVG/1.1/DTD/svg11.dtd"><svg width="100%" height="100%" viewBox="0 0 5000 1792" version="1.1" xmlns="http://www.w3.org/2000/svg" xmlns:xlink="http://www.w3.org/1999/xlink" xml:space="preserve" xmlns:serif="http://www.serif.com/" style="fill-rule:evenodd;clip-rule:evenodd;stroke-linejoin:round;stroke-miterlimit:2;"><g><path d="M1976.6,1025.37c53.126,-108.89 142.096,-220.082 192.021,-278.472c21.684,-25.277 45.354,-48.78 70.782,-70.286c16.74,-14.247 37.954,-32.189 59.296,-50.239c64.132,-54.241 137.497,-96.504 216.591,-124.773c11.504,-4.112 22.799,-8.149 33.338,-11.916c39.88,-14.254 81.02,-24.7 122.869,-31.201c8.483,-1.317 17.359,-2.696 26.319,-4.088c68.615,-10.657 138.438,-10.99 207.152,-0.987c5.153,0.75 10.331,1.504 15.489,2.255c69.971,10.186 138.088,30.49 202.217,60.274c1.075,0.499 2.148,0.998 3.219,1.495c49.539,23.008 96.39,51.407 139.706,84.682c10.292,7.906 21.098,16.207 31.858,24.473c60.871,46.76 115.349,101.299 162.043,162.221c25.414,33.158 48.962,63.881 53.234,69.455c0.458,0.598 0.916,1.197 1.373,1.797c7.105,9.332 67.697,88.914 96.91,127.282c10.413,13.677 20.292,27.752 29.614,42.195l49.366,76.478l-47.523,200.564c-8.963,37.83 -44.59,63.146 -83.263,59.166c-4.13,-0.425 -6.663,-0.686 -6.663,-0.686l-48.585,-111.753l-57.621,143.037c-0,-0 -60.446,1.794 -75.728,2.248c-2.316,0.069 -4.627,0.256 -6.925,0.56c-19.91,2.639 -119.798,15.878 -134.695,17.853c-1.24,0.164 -2.475,0.356 -3.706,0.574c-8.169,1.45 -41.75,7.409 -66.692,11.836c-18.105,3.213 -36.735,-1.131 -51.551,-12.021c-3.814,-2.803 -6.551,-4.815 -6.551,-4.815l-82.289,-36.518c-0,0 -46.168,13.596 -73.242,21.569c-12.415,3.656 -25.704,2.983 -37.687,-1.908c-15.81,-6.453 -37.641,-15.364 -48.338,-19.731c-4.283,-1.748 -8.427,-3.819 -12.395,-6.196c-8.44,-5.055 -24.316,-14.564 -37.539,-22.483c-14.033,-8.405 -24.194,-21.995 -28.287,-37.832c-5.931,-22.953 -14.317,-55.404 -17.538,-67.867c-0.886,-3.43 -1.577,-6.908 -2.069,-10.417c-3.832,-27.355 -21.404,-152.784 -24.444,-174.482c-0.299,-2.134 -0.675,-4.257 -1.126,-6.364c-5.163,-24.068 -38.232,-178.257 -44.954,-209.598c-0.792,-3.69 -2.018,-7.273 -3.653,-10.674c-4.766,-9.911 -15.525,-32.285 -23.966,-49.838c-1.743,-3.625 -5.579,-5.761 -9.579,-5.334c-3.999,0.427 -7.298,3.325 -8.236,7.236c-7.502,31.267 -19.398,80.852 -21.85,91.073c-0.301,1.253 -0.563,2.515 -0.786,3.783c-2.972,16.881 -24.772,140.714 -27.635,156.983c-0.207,1.174 -0.385,2.353 -0.533,3.536c-1.954,15.6 -16.201,129.315 -19.192,153.185c-0.366,2.925 -0.632,5.861 -0.797,8.804c-1.185,21.134 -6.317,112.697 -8.731,155.759c-0.802,14.306 -7.827,27.543 -19.225,36.226c-7.173,5.464 -15.256,11.621 -21.764,16.578c-7.276,5.543 -17.422,5.305 -24.431,-0.574c-11.527,-9.669 -27.216,-22.829 -27.216,-22.829c0,0 -7.45,5.786 -15.241,11.837c-11.197,8.696 -25.379,12.611 -39.451,10.89c-16.425,-2.009 -36.054,-4.41 -36.054,-4.41l-19.695,34.412l-26.806,-31.768c-0,0 -13.749,-5.397 -24.175,-9.49c-7.486,-2.939 -15.686,-3.543 -23.522,-1.732c-17.023,3.934 -47.565,10.992 -61.016,14.1c-4.432,1.025 -8.967,1.542 -13.516,1.542c-9.709,-0 -27.572,-0 -39.089,-0c-7.175,-0 -14.305,-1.132 -21.128,-3.353c-0.001,-0.001 -0.003,-0.001 -0.004,-0.002c-22.119,-7.202 -39.482,-24.514 -46.75,-46.612c-7.654,-23.271 -16.47,-50.078 -17.514,-53.251c-0.068,-0.208 -0.136,-0.416 -0.202,-0.625c-1.839,-5.79 -28.667,-90.229 -34.374,-108.192c-0.709,-2.23 -1.363,-4.476 -1.964,-6.737c-4.669,-17.574 -26.14,-98.391 -32.557,-122.546c-1.208,-4.549 -2.805,-8.986 -4.771,-13.263c-1.961,-4.266 -4.715,-10.254 -7.685,-16.713c-3.707,-8.063 -11.353,-13.608 -20.168,-14.627c-3.685,-0.426 -7.35,-0.036 -10.71,1.245Z" style="fill:#facc15;"/><g><path d="M463.629,227.314l0,-45.527l30.174,45.527l5.423,-0l0,-54.694l-5.423,0l-0,45.527l-30.097,-45.527l-5.576,0l-0,54.694l5.499,-0Z" style="fill-rule:nonzero;"/><path d="M526.955,228.231c8.708,-0 14.437,-4.202 16.423,-11.993l-5.041,-0c-1.375,4.888 -5.271,7.486 -11.306,7.486c-7.944,-0 -12.68,-5.195 -13.062,-14.208l29.409,-0l0,-2.598c0,-10.465 -6.798,-17.569 -16.805,-17.569c-10.542,0 -17.722,7.945 -17.722,19.479c-0,11.611 7.257,19.403 18.104,19.403Zm-0.382,-34.375c6.951,0 11.534,4.736 11.534,11.84l-23.985,0c0.916,-7.257 5.5,-11.84 12.451,-11.84Z" style="fill-rule:nonzero;"/><path d="M559.878,227.314l0,-32.541l7.41,-0l-0,-4.431l-7.41,0l0,-11.687l-5.194,-0l-0,11.687l-7.41,0l0,4.431l7.41,-0l-0,32.541l5.194,-0Z" style="fill-rule:nonzero;"/><path d="M599.523,227.314l0,-4.431l-21.465,0l21.465,-28.263l0,-4.278l-27.881,0l-0,4.431l21.388,-0l-21.388,28.34l-0,4.201l27.881,-0Z" style="fill-rule:nonzero;"/><path d="M612.586,227.314l0.534,-7.562c2.597,5.729 7.715,8.479 13.903,8.479c10.771,-0 17.187,-8.25 17.187,-19.327c0,-11.152 -6.264,-19.555 -17.034,-19.555c-6.264,0 -11.306,2.75 -13.903,8.174l0,-25.896l-5.271,0l0,55.687l4.584,-0Zm0.763,-18.562c0,-8.479 4.736,-14.667 12.834,-14.667c8.02,0 12.68,6.188 12.68,14.667c-0,8.555 -4.66,14.666 -12.68,14.666c-8.098,0 -12.834,-6.111 -12.834,-14.666Z" style="fill-rule:nonzero;"/><path d="M668.119,228.231c8.709,-0 14.438,-4.202 16.424,-11.993l-5.042,-0c-1.375,4.888 -5.271,7.486 -11.305,7.486c-7.944,-0 -12.681,-5.195 -13.062,-14.208l29.409,-0l-0,-2.598c-0,-10.465 -6.799,-17.569 -16.805,-17.569c-10.542,0 -17.722,7.945 -17.722,19.479c-0,11.611 7.256,19.403 18.103,19.403Zm-0.381,-34.375c6.951,0 11.534,4.736 11.534,11.84l-23.986,0c0.917,-7.257 5.5,-11.84 12.452,-11.84Z" style="fill-rule:nonzero;"/><path d="M717.542,227.314l0,-4.431l-21.465,0l21.465,-28.263l0,-4.278l-27.881,0l-0,4.431l21.388,-0l-21.388,28.34l-0,4.201l27.881,-0Z" style="fill-rule:nonzero;"/><path d="M751.993,190.342l0,19.632c0,8.784 -4.201,13.521 -11.305,13.521c-5.882,-0 -9.778,-3.132 -9.778,-11.917l0,-21.312l-5.347,-0l0,22.993c0,9.013 4.736,14.972 13.444,14.972c5.806,-0 10.924,-2.903 12.986,-7.181l0.688,6.264l4.583,-0l-0,-36.972l-5.271,0Z" style="fill-rule:nonzero;"/><path d="M765.743,207.759c0,10.083 6.417,18.409 16.958,18.409c6.34,0 11.458,-3.055 13.979,-8.25l0,8.785c0,7.715 -5.042,12.833 -12.604,12.833c-6.646,-0 -11.229,-3.514 -12.375,-9.472l-5.27,-0c1.451,8.937 8.097,14.284 17.569,14.284c10.847,0 17.874,-7.18 17.874,-18.18l0,-35.826l-4.583,0l-0.535,7.41c-2.368,-5.424 -7.256,-8.403 -13.673,-8.403c-10.847,0 -17.34,8.326 -17.34,18.41Zm5.271,-0.077c-0,-7.486 4.583,-13.673 12.527,-13.673c8.097,-0 12.681,5.805 12.681,13.673c-0,7.945 -4.736,13.75 -12.757,13.75c-7.792,0 -12.451,-6.187 -12.451,-13.75Z" style="fill-rule:nonzero;"/><circle cx="394.823" cy="199.929" r="29.706" style="fill:#4b5563;"/></g><g><path d="M490.9,324.299l-0,-5.041l-27.271,-0l0,-19.937l24.674,-0l-0,-4.966l-24.674,0l0,-19.708l27.194,0l0,-5.041l-32.693,-0l-0,54.693l32.77,0Z" style="fill-rule:nonzero;"/><path d="M503.504,277.168c2.139,0 3.972,-1.757 3.972,-3.896c-0,-2.138 -1.833,-3.972 -3.972,-3.972c-2.139,0 -3.896,1.834 -3.896,3.972c0,2.139 1.757,3.896 3.896,3.896Zm-2.597,47.131l5.27,0l0,-36.971l-5.27,-0l-0,36.971Z" style="fill-rule:nonzero;"/><path d="M522.448,324.299l0,-19.326c0,-8.326 4.278,-13.826 11.84,-13.826c6.111,0 10.007,3.056 10.007,11.687l-0,21.465l5.271,0l-0,-22.61c-0,-9.32 -4.202,-15.354 -14.361,-15.354c-5.347,-0 -10.236,2.673 -12.681,7.409l-0.763,-6.416l-4.584,-0l0,36.971l5.271,0Z" style="fill-rule:nonzero;"/><path d="M556.517,313.911c-0,6.875 5.194,11.305 13.521,11.305c8.402,0 14.055,-4.354 14.055,-11c-0,-5.347 -2.903,-8.326 -9.319,-9.93l-6.341,-1.604c-4.048,-0.993 -6.034,-2.979 -6.034,-5.806c-0,-3.972 2.903,-6.187 8.097,-6.187c4.965,-0 7.944,2.521 8.097,6.798l5.118,0c-0.229,-6.875 -5.271,-11.152 -13.062,-11.152c-7.945,-0 -13.368,4.125 -13.368,10.618c-0,5.041 3.132,8.402 9.548,10.006l6.34,1.605c4.355,1.069 5.882,2.826 5.882,5.881c0,3.973 -3.361,6.417 -9.09,6.417c-5.194,-0 -8.402,-2.674 -8.402,-6.951l-5.042,-0Z" style="fill-rule:nonzero;"/><path d="M592.801,340.417l5.271,0l-0,-23.222c2.597,5.347 7.562,8.021 13.826,8.021c10.924,0 17.111,-8.403 17.111,-19.555c-0,-11.153 -6.417,-19.326 -17.111,-19.326c-6.187,-0 -11.382,2.75 -13.979,8.479l-0.535,-7.486l-4.583,-0l0,53.089Zm5.347,-34.603c0,-8.556 4.736,-14.667 12.833,-14.667c8.021,0 12.681,6.111 12.681,14.667c-0,8.479 -4.66,14.666 -12.681,14.666c-8.097,0 -12.833,-6.187 -12.833,-14.666Z" style="fill-rule:nonzero;"/><path d="M652.918,325.216c8.709,0 14.438,-4.201 16.424,-11.993l-5.042,0c-1.375,4.889 -5.271,7.486 -11.305,7.486c-7.945,0 -12.681,-5.194 -13.063,-14.208l29.41,0l-0,-2.597c-0,-10.465 -6.799,-17.569 -16.806,-17.569c-10.541,-0 -17.722,7.944 -17.722,19.479c0,11.61 7.257,19.402 18.104,19.402Zm-0.382,-34.374c6.952,-0 11.535,4.736 11.535,11.84l-23.986,-0c0.917,-7.257 5.5,-11.84 12.451,-11.84Z" style="fill-rule:nonzero;"/><path d="M680.342,277.168c2.138,0 3.972,-1.757 3.972,-3.896c-0,-2.138 -1.834,-3.972 -3.972,-3.972c-2.139,0 -3.896,1.834 -3.896,3.972c-0,2.139 1.757,3.896 3.896,3.896Zm-2.598,47.131l5.271,0l0,-36.971l-5.271,-0l0,36.971Z" style="fill-rule:nonzero;"/><path d="M690.883,313.911c0,6.875 5.194,11.305 13.521,11.305c8.402,0 14.055,-4.354 14.055,-11c0,-5.347 -2.903,-8.326 -9.319,-9.93l-6.34,-1.604c-4.049,-0.993 -6.035,-2.979 -6.035,-5.806c-0,-3.972 2.903,-6.187 8.097,-6.187c4.965,-0 7.944,2.521 8.097,6.798l5.118,0c-0.229,-6.875 -5.271,-11.152 -13.062,-11.152c-7.945,-0 -13.368,4.125 -13.368,10.618c-0,5.041 3.132,8.402 9.548,10.006l6.341,1.605c4.354,1.069 5.881,2.826 5.881,5.881c0,3.973 -3.361,6.417 -9.09,6.417c-5.194,-0 -8.402,-2.674 -8.402,-6.951l-5.042,-0Z" style="fill-rule:nonzero;"/><path d="M753.139,287.328l0,19.631c0,8.785 -4.201,13.521 -11.305,13.521c-5.882,0 -9.778,-3.132 -9.778,-11.916l0,-21.313l-5.347,0l-0,22.993c-0,9.014 4.736,14.972 13.444,14.972c5.806,0 10.924,-2.903 12.986,-7.18l0.688,6.263l4.583,0l-0,-36.971l-5.271,-0Z" style="fill-rule:nonzero;"/><path d="M774.68,324.299l0,-19.326c0,-8.326 4.278,-13.826 11.84,-13.826c6.112,0 10.007,3.056 10.007,11.687l0,21.465l5.271,0l0,-22.61c0,-9.32 -4.201,-15.354 -14.361,-15.354c-5.347,-0 -10.236,2.673 -12.68,7.409l-0.764,-6.416l-4.583,-0l-0,36.971l5.27,0Z" style="fill-rule:nonzero;"/><path d="M809.819,304.744c-0,10.083 6.416,18.41 16.958,18.41c6.34,-0 11.458,-3.056 13.979,-8.25l-0,8.784c-0,7.715 -5.042,12.833 -12.604,12.833c-6.646,0 -11.229,-3.513 -12.375,-9.472l-5.271,0c1.452,8.938 8.097,14.285 17.569,14.285c10.848,-0 17.875,-7.181 17.875,-18.18l0,-35.826l-4.583,-0l-0.535,7.409c-2.368,-5.423 -7.257,-8.402 -13.673,-8.402c-10.847,-0 -17.34,8.326 -17.34,18.409Zm5.271,-0.076c-0,-7.486 4.583,-13.674 12.527,-13.674c8.097,0 12.68,5.806 12.68,13.674c0,7.944 -4.736,13.75 -12.756,13.75c-7.792,-0 -12.451,-6.188 -12.451,-13.75Z" style="fill-rule:nonzero;"/><path d="M875.971,283.814c-0,7.486 4.506,12.375 13.062,14.437l9.243,2.292c5.882,1.375 8.632,4.583 8.632,9.472c-0,6.264 -5.118,10.159 -13.139,10.159c-7.486,0 -12.528,-3.743 -12.833,-9.472l-5.653,0c0.688,8.938 7.868,14.514 18.486,14.514c11.305,0 18.639,-6.035 18.639,-15.507c-0,-7.409 -4.431,-12.298 -12.986,-14.361l-9.396,-2.291c-5.729,-1.452 -8.556,-4.507 -8.556,-9.32c0,-6.187 5.042,-10.159 12.757,-10.159c6.875,-0 11.076,3.514 11.688,9.701l5.576,0c-0.84,-9.166 -7.333,-14.666 -17.187,-14.666c-11,-0 -18.333,6.034 -18.333,15.201Z" style="fill-rule:nonzero;"/><path d="M918.519,305.814c-0,11.229 7.944,19.402 18.791,19.402c10.847,0 18.791,-8.173 18.791,-19.402c0,-11.306 -7.944,-19.479 -18.791,-19.479c-10.847,-0 -18.791,8.173 -18.791,19.479Zm5.347,-0.077c-0,-8.555 5.5,-14.666 13.444,-14.666c7.868,-0 13.444,6.111 13.444,14.666c0,8.708 -5.576,14.743 -13.444,14.743c-7.944,0 -13.444,-6.035 -13.444,-14.743Z" style="fill-rule:nonzero;"/><rect x="964.733" y="268.613" width="5.271" height="55.687" style="fill-rule:nonzero;"/><path d="M991.851,325.216c6.264,0 11.305,-2.75 13.597,-7.41l0.687,6.493l4.431,0l-0,-23.909c-0,-9.778 -6.264,-14.055 -14.819,-14.055c-9.091,-0 -15.202,4.812 -15.202,12.298l4.813,0c-0,-4.965 3.819,-7.868 10.236,-7.868c5.423,0 9.777,2.292 9.777,9.549l0,1.222l-12.222,0.993c-8.631,0.687 -13.826,4.965 -13.826,11.764c0,6.493 4.66,10.923 12.528,10.923Zm1.222,-4.278c-5.042,0 -8.403,-2.291 -8.403,-6.798c0,-4.125 2.827,-7.181 9.778,-7.792l10.923,-0.84l0,1.986c0,8.021 -4.506,13.444 -12.298,13.444Z" style="fill-rule:nonzero;"/><path d="M1040.43,286.869c-1.298,-0.305 -2.291,-0.382 -3.437,-0.382c-5.194,0 -9.09,2.598 -10.542,6.57l-0.381,-5.729l-4.966,-0l0,36.971l5.271,0l0,-21.083c0,-7.027 4.354,-11.611 11.153,-11.611l2.902,0l0,-4.736Z" style="fill-rule:nonzero;"/><path d="M1044.33,313.911c0,6.875 5.195,11.305 13.521,11.305c8.402,0 14.055,-4.354 14.055,-11c0,-5.347 -2.903,-8.326 -9.319,-9.93l-6.34,-1.604c-4.049,-0.993 -6.035,-2.979 -6.035,-5.806c0,-3.972 2.903,-6.187 8.097,-6.187c4.965,-0 7.944,2.521 8.097,6.798l5.118,0c-0.229,-6.875 -5.271,-11.152 -13.062,-11.152c-7.944,-0 -13.368,4.125 -13.368,10.618c0,5.041 3.132,8.402 9.549,10.006l6.34,1.605c4.354,1.069 5.882,2.826 5.882,5.881c-0,3.973 -3.361,6.417 -9.091,6.417c-5.194,-0 -8.402,-2.674 -8.402,-6.951l-5.042,-0Z" style="fill-rule:nonzero;"/><path d="M1089.09,324.299l0,-32.541l7.41,0l0,-4.43l-7.41,-0l0,-11.688l-5.194,0l0,11.688l-7.41,-0l0,4.43l7.41,0l0,32.541l5.194,0Z" style="fill-rule:nonzero;"/><path d="M1122.7,286.869c-1.299,-0.305 -2.292,-0.382 -3.437,-0.382c-5.195,0 -9.091,2.598 -10.542,6.57l-0.382,-5.729l-4.965,-0l-0,36.971l5.271,0l-0,-21.083c-0,-7.027 4.354,-11.611 11.152,-11.611l2.903,0l0,-4.736Z" style="fill-rule:nonzero;"/><path d="M1125.68,305.814c0,11.229 7.944,19.402 18.792,19.402c10.847,0 18.791,-8.173 18.791,-19.402c-0,-11.306 -7.944,-19.479 -18.791,-19.479c-10.848,-0 -18.792,8.173 -18.792,19.479Zm5.347,-0.077c0,-8.555 5.5,-14.666 13.445,-14.666c7.868,-0 13.444,6.111 13.444,14.666c-0,8.708 -5.576,14.743 -13.444,14.743c-7.945,0 -13.445,-6.035 -13.445,-14.743Z" style="fill-rule:nonzero;"/><path d="M1176.94,324.299l0,-22.916c0,-5.653 3.743,-10.236 9.931,-10.236c5.576,0 9.166,3.667 9.166,9.931l0,23.221l5.195,0l-0,-22.84c-0,-5.729 3.666,-10.388 9.854,-10.388c5.652,-0 9.166,3.743 9.166,10.083l0,23.145l5.118,0l0,-24.215c0,-8.555 -5.271,-13.749 -13.291,-13.749c-5.959,-0 -10.465,3.055 -12.146,7.868c-1.757,-4.813 -6.111,-7.868 -11.916,-7.868c-5.195,-0 -9.32,2.368 -11.153,6.263l-0.611,-5.27l-4.583,-0l-0,36.971l5.27,0Z" style="fill-rule:nonzero;"/><circle cx="394.823" cy="296.914" r="29.706" style="fill:#facc15;"/></g><g><path d="M490.9,421.285l-0,-5.042l-27.271,0l0,-19.937l24.674,0l-0,-4.965l-24.674,-0l0,-19.708l27.194,-0l0,-5.042l-32.693,0l-0,54.694l32.77,-0Z" style="fill-rule:nonzero;"/><path d="M503.504,374.154c2.139,-0 3.972,-1.757 3.972,-3.896c-0,-2.139 -1.833,-3.972 -3.972,-3.972c-2.139,-0 -3.896,1.833 -3.896,3.972c0,2.139 1.757,3.896 3.896,3.896Zm-2.597,47.131l5.27,-0l0,-36.972l-5.27,0l-0,36.972Z" style="fill-rule:nonzero;"/><path d="M514.656,401.73c0,10.083 6.417,18.409 16.959,18.409c6.34,0 11.458,-3.055 13.978,-8.25l0,8.785c0,7.715 -5.041,12.833 -12.603,12.833c-6.646,-0 -11.229,-3.514 -12.375,-9.472l-5.271,-0c1.451,8.937 8.097,14.284 17.569,14.284c10.847,0 17.875,-7.18 17.875,-18.18l-0,-35.826l-4.583,0l-0.535,7.41c-2.368,-5.424 -7.257,-8.403 -13.674,-8.403c-10.847,0 -17.34,8.326 -17.34,18.41Zm5.271,-0.077c0,-7.486 4.583,-13.673 12.528,-13.673c8.097,-0 12.68,5.805 12.68,13.673c0,7.945 -4.736,13.75 -12.757,13.75c-7.791,0 -12.451,-6.187 -12.451,-13.75Z" style="fill-rule:nonzero;"/><path d="M577.294,422.202c8.709,-0 14.438,-4.202 16.424,-11.993l-5.042,-0c-1.375,4.888 -5.271,7.486 -11.305,7.486c-7.945,-0 -12.681,-5.195 -13.063,-14.208l29.41,-0l-0,-2.598c-0,-10.465 -6.799,-17.569 -16.806,-17.569c-10.541,0 -17.721,7.944 -17.721,19.479c-0,11.611 7.256,19.403 18.103,19.403Zm-0.382,-34.375c6.952,0 11.535,4.736 11.535,11.84l-23.986,0c0.917,-7.257 5.5,-11.84 12.451,-11.84Z" style="fill-rule:nonzero;"/><path d="M607.391,421.285l0,-19.326c0,-8.326 4.278,-13.826 11.84,-13.826c6.111,-0 10.007,3.055 10.007,11.687l0,21.465l5.271,-0l-0,-22.611c-0,-9.319 -4.201,-15.354 -14.361,-15.354c-5.347,0 -10.236,2.674 -12.68,7.41l-0.764,-6.417l-4.584,0l0,36.972l5.271,-0Z" style="fill-rule:nonzero;"/><path d="M654.599,421.285l5.271,-0l15.354,-36.972l-5.424,0l-9.701,23.833c-1.07,2.674 -2.063,5.118 -2.75,7.639c-0.688,-2.444 -1.681,-4.965 -2.674,-7.639l-9.548,-23.833l-5.653,0l15.125,36.972Z" style="fill-rule:nonzero;"/><path d="M695.314,422.202c8.708,-0 14.437,-4.202 16.423,-11.993l-5.042,-0c-1.375,4.888 -5.27,7.486 -11.305,7.486c-7.944,-0 -12.68,-5.195 -13.062,-14.208l29.409,-0l-0,-2.598c-0,-10.465 -6.799,-17.569 -16.805,-17.569c-10.542,0 -17.722,7.944 -17.722,19.479c-0,11.611 7.256,19.403 18.104,19.403Zm-0.382,-34.375c6.951,0 11.534,4.736 11.534,11.84l-23.986,0c0.917,-7.257 5.5,-11.84 12.452,-11.84Z" style="fill-rule:nonzero;"/><path d="M739.466,383.855c-1.299,-0.306 -2.292,-0.382 -3.438,-0.382c-5.194,-0 -9.09,2.597 -10.541,6.569l-0.382,-5.729l-4.965,0l-0,36.972l5.27,-0l0,-21.083c0,-7.028 4.354,-11.611 11.153,-11.611l2.903,-0l-0,-4.736Z" style="fill-rule:nonzero;"/><path d="M751.077,421.285l0.534,-7.562c2.597,5.729 7.715,8.479 13.903,8.479c10.771,-0 17.187,-8.25 17.187,-19.327c0,-11.152 -6.264,-19.555 -17.034,-19.555c-6.264,0 -11.306,2.75 -13.903,8.174l0,-25.896l-5.271,0l0,55.687l4.584,-0Zm0.763,-18.562c0,-8.479 4.736,-14.667 12.834,-14.667c8.02,0 12.68,6.188 12.68,14.667c-0,8.555 -4.66,14.666 -12.68,14.666c-8.098,0 -12.834,-6.111 -12.834,-14.666Z" style="fill-rule:nonzero;"/><path d="M810.43,383.855c-1.299,-0.306 -2.292,-0.382 -3.438,-0.382c-5.194,-0 -9.09,2.597 -10.541,6.569l-0.382,-5.729l-4.965,0l-0,36.972l5.271,-0l-0,-21.083c-0,-7.028 4.354,-11.611 11.152,-11.611l2.903,-0l-0,-4.736Z" style="fill-rule:nonzero;"/><path d="M826.548,422.202c6.263,-0 11.305,-2.75 13.597,-7.41l0.687,6.493l4.431,-0l-0,-23.909c-0,-9.778 -6.264,-14.056 -14.82,-14.056c-9.09,0 -15.201,4.813 -15.201,12.299l4.813,-0c-0,-4.966 3.819,-7.868 10.236,-7.868c5.423,-0 9.777,2.291 9.777,9.548l0,1.222l-12.222,0.993c-8.632,0.688 -13.826,4.966 -13.826,11.764c0,6.493 4.66,10.924 12.528,10.924Zm1.222,-4.278c-5.042,-0 -8.403,-2.292 -8.403,-6.799c0,-4.125 2.827,-7.18 9.778,-7.791l10.923,-0.841l0,1.987c0,8.02 -4.507,13.444 -12.298,13.444Z" style="fill-rule:nonzero;"/><path d="M881.776,384.313l0,19.632c0,8.784 -4.201,13.521 -11.305,13.521c-5.882,-0 -9.778,-3.132 -9.778,-11.917l0,-21.312l-5.347,-0l-0,22.993c-0,9.013 4.736,14.972 13.444,14.972c5.806,-0 10.924,-2.903 12.986,-7.181l0.688,6.264l4.583,-0l-0,-36.972l-5.271,0Z" style="fill-rule:nonzero;"/><path d="M894.686,402.875c-0,11.611 7.104,19.327 17.569,19.327c8.402,-0 14.972,-4.966 16.729,-12.528l-5.347,-0c-1.452,4.736 -5.882,7.792 -11.382,7.792c-7.486,-0 -12.375,-5.882 -12.375,-14.667c-0,-9.09 5.271,-14.819 12.757,-14.819c5.118,-0 9.548,2.826 10.923,7.944l5.271,0c-1.451,-7.639 -7.715,-12.604 -16.271,-12.604c-10.77,0 -17.874,7.944 -17.874,19.555Z" style="fill-rule:nonzero;"/><path d="M942.275,421.209l0,-20.09c0,-7.105 4.125,-12.986 12.069,-12.986c5.729,-0 9.778,3.055 9.778,11.687l0,21.465l5.271,-0l-0,-22.611c-0,-9.319 -4.354,-15.354 -14.056,-15.354c-6.187,0 -10.694,2.979 -13.062,7.41l0,-25.132l-5.271,0l0,55.611l5.271,-0Z" style="fill-rule:nonzero;"/><g><path d="M373.818,422.964c-11.593,-11.593 -11.593,-30.417 -0,-42.011c11.593,-11.593 30.418,-11.593 42.011,0l-42.011,42.011Z" style="fill:#c6ecf9;"/><path d="M415.829,380.953c11.593,11.594 11.593,30.418 0,42.011c-11.593,11.594 -30.418,11.594 -42.011,0l42.011,-42.011Z" style="fill:#e5e7eb;"/></g></g><g><circle cx="394.823" cy="587.865" r="29.706" style="fill:#c6ecf9;"/><path d="M458.13,615.256l21.159,-0c10.389,-0 16.958,-5.576 16.958,-14.361c-0,-6.722 -3.208,-11.153 -9.548,-13.215c5.652,-2.215 8.479,-6.569 8.479,-12.986c-0,-8.785 -6.493,-14.132 -17.035,-14.132l-20.013,0l-0,54.694Zm19.937,-49.805c7.333,0 11.458,3.59 11.458,9.701c-0,6.493 -3.896,10.313 -10.771,10.313l-15.125,-0l0,-20.014l14.438,0Zm1.222,24.826c7.104,0 11.382,3.743 11.382,9.93c-0,6.341 -4.202,10.084 -11.382,10.084l-15.66,-0l0,-20.014l15.66,0Z" style="fill-rule:nonzero;"/><path d="M515.649,616.173c6.264,-0 11.306,-2.75 13.598,-7.41l0.687,6.493l4.43,-0l0,-23.909c0,-9.778 -6.263,-14.056 -14.819,-14.056c-9.09,0 -15.201,4.813 -15.201,12.299l4.813,-0c-0,-4.966 3.819,-7.868 10.235,-7.868c5.424,-0 9.778,2.291 9.778,9.548l0,1.222l-12.222,0.993c-8.632,0.688 -13.826,4.966 -13.826,11.764c-0,6.493 4.66,10.924 12.527,10.924Zm1.223,-4.278c-5.042,-0 -8.403,-2.292 -8.403,-6.799c0,-4.125 2.826,-7.18 9.778,-7.791l10.923,-0.841l0,1.987c0,8.02 -4.507,13.444 -12.298,13.444Z" style="fill-rule:nonzero;"/><path d="M552.698,615.256l-0,-32.541l7.409,-0l0,-4.431l-7.409,0l-0,-11.687l-5.195,-0l0,11.687l-7.409,0l-0,4.431l7.409,-0l0,32.541l5.195,-0Z" style="fill-rule:nonzero;"/><path d="M575.767,615.256l-0,-32.541l7.409,-0l0,-4.431l-7.409,0l-0,-11.687l-5.195,-0l0,11.687l-7.409,0l-0,4.431l7.409,-0l0,32.541l5.195,-0Z" style="fill-rule:nonzero;"/><path d="M605.176,616.173c8.708,-0 14.437,-4.202 16.423,-11.993l-5.041,-0c-1.375,4.888 -5.271,7.486 -11.306,7.486c-7.944,-0 -12.68,-5.195 -13.062,-14.208l29.409,-0l0,-2.598c0,-10.465 -6.798,-17.569 -16.805,-17.569c-10.542,0 -17.722,7.944 -17.722,19.479c0,11.611 7.257,19.403 18.104,19.403Zm-0.382,-34.375c6.951,0 11.535,4.736 11.535,11.84l-23.986,0c0.916,-7.257 5.5,-11.84 12.451,-11.84Z" style="fill-rule:nonzero;"/><path d="M649.328,577.826c-1.299,-0.306 -2.292,-0.382 -3.437,-0.382c-5.195,-0 -9.091,2.597 -10.542,6.569l-0.382,-5.729l-4.965,0l-0,36.972l5.271,-0l-0,-21.083c-0,-7.028 4.354,-11.611 11.152,-11.611l2.903,-0l0,-4.736Z" style="fill-rule:nonzero;"/><path d="M658.953,568.125c2.139,-0 3.972,-1.757 3.972,-3.896c0,-2.139 -1.833,-3.972 -3.972,-3.972c-2.139,-0 -3.896,1.833 -3.896,3.972c0,2.139 1.757,3.896 3.896,3.896Zm-2.597,47.131l5.271,-0l-0,-36.972l-5.271,0l-0,36.972Z" style="fill-rule:nonzero;"/><path d="M688.133,616.173c8.708,-0 14.437,-4.202 16.423,-11.993l-5.041,-0c-1.375,4.888 -5.271,7.486 -11.306,7.486c-7.944,-0 -12.68,-5.195 -13.062,-14.208l29.409,-0l0,-2.598c0,-10.465 -6.798,-17.569 -16.805,-17.569c-10.541,0 -17.722,7.944 -17.722,19.479c0,11.611 7.257,19.403 18.104,19.403Zm-0.382,-34.375c6.951,0 11.535,4.736 11.535,11.84l-23.986,0c0.917,-7.257 5.5,-11.84 12.451,-11.84Z" style="fill-rule:nonzero;"/><path d="M728.466,616.173c8.708,-0 14.437,-4.202 16.423,-11.993l-5.041,-0c-1.375,4.888 -5.271,7.486 -11.306,7.486c-7.944,-0 -12.68,-5.195 -13.062,-14.208l29.409,-0l0,-2.598c0,-10.465 -6.798,-17.569 -16.805,-17.569c-10.542,0 -17.722,7.944 -17.722,19.479c-0,11.611 7.257,19.403 18.104,19.403Zm-0.382,-34.375c6.951,0 11.534,4.736 11.534,11.84l-23.985,0c0.916,-7.257 5.5,-11.84 12.451,-11.84Z" style="fill-rule:nonzero;"/><path d="M758.563,615.256l-0,-19.326c-0,-8.326 4.277,-13.826 11.84,-13.826c6.111,-0 10.006,3.055 10.006,11.687l0,21.465l5.271,-0l0,-22.611c0,-9.319 -4.201,-15.354 -14.361,-15.354c-5.347,0 -10.236,2.674 -12.68,7.41l-0.764,-6.417l-4.583,0l-0,36.972l5.271,-0Z" style="fill-rule:nonzero;"/><path d="M804.701,615.256l-0,-32.541l7.409,-0l0,-4.431l-7.409,0l-0,-11.687l-5.195,-0l0,11.687l-7.409,0l-0,4.431l7.409,-0l0,32.541l5.195,-0Z" style="fill-rule:nonzero;"/><rect x="819.214" y="559.569" width="5.271" height="55.687" style="fill-rule:nonzero;"/><path d="M846.332,616.173c6.264,-0 11.306,-2.75 13.597,-7.41l0.688,6.493l4.43,-0l0,-23.909c0,-9.778 -6.264,-14.056 -14.819,-14.056c-9.09,0 -15.201,4.813 -15.201,12.299l4.812,-0c0,-4.966 3.82,-7.868 10.236,-7.868c5.424,-0 9.778,2.291 9.778,9.548l-0,1.222l-12.222,0.993c-8.632,0.688 -13.826,4.966 -13.826,11.764c-0,6.493 4.659,10.924 12.527,10.924Zm1.222,-4.278c-5.041,-0 -8.402,-2.292 -8.402,-6.799c-0,-4.125 2.826,-7.18 9.777,-7.791l10.924,-0.841l-0,1.987c-0,8.02 -4.507,13.444 -12.299,13.444Z" style="fill-rule:nonzero;"/><path d="M890.102,616.173c6.188,-0 11.382,-2.75 13.979,-8.48l0.535,7.563l4.583,-0l0,-55.687l-5.271,0l0,25.743c-2.597,-5.347 -7.486,-8.021 -13.597,-8.021c-10.999,0 -17.34,8.403 -17.34,19.555c0,11.077 6.341,19.327 17.111,19.327Zm0.917,-4.813c-8.021,0 -12.68,-6.111 -12.68,-14.666c-0,-8.479 4.659,-14.667 12.68,-14.667c8.097,0 12.833,6.188 12.833,14.667c0,8.555 -4.736,14.666 -12.833,14.666Z" style="fill-rule:nonzero;"/><path d="M946.171,578.284l-0,19.632c-0,8.784 -4.201,13.52 -11.305,13.52c-5.882,0 -9.778,-3.131 -9.778,-11.916l-0,-21.312l-5.347,-0l-0,22.993c-0,9.013 4.736,14.972 13.444,14.972c5.805,-0 10.923,-2.903 12.986,-7.181l0.687,6.264l4.584,-0l-0,-36.972l-5.271,0Z" style="fill-rule:nonzero;"/><path d="M967.712,615.256l0,-19.326c0,-8.326 4.278,-13.826 11.84,-13.826c6.111,-0 10.007,3.055 10.007,11.687l0,21.465l5.271,-0l-0,-22.611c-0,-9.319 -4.201,-15.354 -14.361,-15.354c-5.347,0 -10.236,2.674 -12.68,7.41l-0.764,-6.417l-4.583,0l-0,36.972l5.27,-0Z" style="fill-rule:nonzero;"/><path d="M1002.85,595.701c-0,10.083 6.416,18.409 16.958,18.409c6.34,0 11.458,-3.055 13.979,-8.25l-0,8.785c-0,7.715 -5.042,12.833 -12.604,12.833c-6.646,-0 -11.229,-3.514 -12.375,-9.472l-5.271,-0c1.452,8.937 8.097,14.284 17.569,14.284c10.847,0 17.875,-7.18 17.875,-18.18l0,-35.826l-4.583,0l-0.535,7.41c-2.368,-5.424 -7.257,-8.403 -13.673,-8.403c-10.847,0 -17.34,8.326 -17.34,18.41Zm5.27,-0.077c0,-7.486 4.584,-13.673 12.528,-13.673c8.097,-0 12.68,5.805 12.68,13.673c0,7.945 -4.736,13.75 -12.756,13.75c-7.792,0 -12.452,-6.187 -12.452,-13.75Z" style="fill-rule:nonzero;"/></g><g><path d="M458.13,518.27l21.159,0c10.389,0 16.958,-5.576 16.958,-14.361c-0,-6.722 -3.208,-11.152 -9.548,-13.215c5.652,-2.215 8.479,-6.569 8.479,-12.986c-0,-8.784 -6.493,-14.131 -17.035,-14.131l-20.013,-0l-0,54.693Zm19.937,-49.804c7.333,-0 11.458,3.59 11.458,9.701c-0,6.493 -3.896,10.312 -10.771,10.312l-15.125,0l0,-20.013l14.438,-0Zm1.222,24.826c7.104,-0 11.382,3.743 11.382,9.93c-0,6.34 -4.202,10.083 -11.382,10.083l-15.66,0l0,-20.013l15.66,-0Z" style="fill-rule:nonzero;"/><path d="M515.649,519.187c6.264,0 11.306,-2.75 13.598,-7.41l0.687,6.493l4.43,0l0,-23.909c0,-9.778 -6.263,-14.055 -14.819,-14.055c-9.09,-0 -15.201,4.812 -15.201,12.298l4.813,0c-0,-4.965 3.819,-7.868 10.235,-7.868c5.424,0 9.778,2.292 9.778,9.549l0,1.222l-12.222,0.993c-8.632,0.687 -13.826,4.965 -13.826,11.764c-0,6.493 4.66,10.923 12.527,10.923Zm1.223,-4.278c-5.042,0 -8.403,-2.291 -8.403,-6.798c0,-4.125 2.826,-7.181 9.778,-7.792l10.923,-0.84l0,1.986c0,8.021 -4.507,13.444 -12.298,13.444Z" style="fill-rule:nonzero;"/><path d="M552.698,518.27l-0,-32.541l7.409,0l0,-4.43l-7.409,-0l-0,-11.688l-5.195,0l0,11.688l-7.409,-0l-0,4.43l7.409,0l0,32.541l5.195,0Z" style="fill-rule:nonzero;"/><path d="M575.767,518.27l-0,-32.541l7.409,0l0,-4.43l-7.409,-0l-0,-11.688l-5.195,0l0,11.688l-7.409,-0l-0,4.43l7.409,0l0,32.541l5.195,0Z" style="fill-rule:nonzero;"/><path d="M605.176,519.187c8.708,0 14.437,-4.201 16.423,-11.993l-5.041,0c-1.375,4.889 -5.271,7.486 -11.306,7.486c-7.944,0 -12.68,-5.194 -13.062,-14.208l29.409,0l0,-2.597c0,-10.465 -6.798,-17.569 -16.805,-17.569c-10.542,-0 -17.722,7.944 -17.722,19.479c0,11.61 7.257,19.402 18.104,19.402Zm-0.382,-34.374c6.951,-0 11.535,4.736 11.535,11.84l-23.986,-0c0.916,-7.257 5.5,-11.84 12.451,-11.84Z" style="fill-rule:nonzero;"/><path d="M649.328,480.84c-1.299,-0.305 -2.292,-0.382 -3.437,-0.382c-5.195,0 -9.091,2.598 -10.542,6.57l-0.382,-5.729l-4.965,-0l-0,36.971l5.271,0l-0,-21.083c-0,-7.027 4.354,-11.611 11.152,-11.611l2.903,0l0,-4.736Z" style="fill-rule:nonzero;"/><path d="M658.953,471.139c2.139,0 3.972,-1.757 3.972,-3.896c0,-2.138 -1.833,-3.972 -3.972,-3.972c-2.139,0 -3.896,1.834 -3.896,3.972c0,2.139 1.757,3.896 3.896,3.896Zm-2.597,47.131l5.271,0l-0,-36.971l-5.271,-0l-0,36.971Z" style="fill-rule:nonzero;"/><path d="M688.133,519.187c8.708,0 14.437,-4.201 16.423,-11.993l-5.041,0c-1.375,4.889 -5.271,7.486 -11.306,7.486c-7.944,0 -12.68,-5.194 -13.062,-14.208l29.409,0l0,-2.597c0,-10.465 -6.798,-17.569 -16.805,-17.569c-10.541,-0 -17.722,7.944 -17.722,19.479c0,11.61 7.257,19.402 18.104,19.402Zm-0.382,-34.374c6.951,-0 11.535,4.736 11.535,11.84l-23.986,-0c0.917,-7.257 5.5,-11.84 12.451,-11.84Z" style="fill-rule:nonzero;"/><rect x="713.188" y="462.584" width="5.271" height="55.687" style="fill-rule:nonzero;"/><path d="M740.306,519.187c6.264,0 11.305,-2.75 13.597,-7.41l0.687,6.493l4.431,0l-0,-23.909c-0,-9.778 -6.264,-14.055 -14.819,-14.055c-9.09,-0 -15.201,4.812 -15.201,12.298l4.812,0c-0,-4.965 3.819,-7.868 10.236,-7.868c5.423,0 9.778,2.292 9.778,9.549l-0,1.222l-12.223,0.993c-8.631,0.687 -13.826,4.965 -13.826,11.764c0,6.493 4.66,10.923 12.528,10.923Zm1.222,-4.278c-5.041,0 -8.403,-2.291 -8.403,-6.798c0,-4.125 2.827,-7.181 9.778,-7.792l10.924,-0.84l-0,1.986c-0,8.021 -4.507,13.444 -12.299,13.444Z" style="fill-rule:nonzero;"/><path d="M784.076,519.187c6.187,0 11.382,-2.75 13.979,-8.479l0.535,7.562l4.583,0l0,-55.686l-5.271,-0l0,25.742c-2.597,-5.347 -7.486,-8.02 -13.597,-8.02c-11,-0 -17.34,8.402 -17.34,19.555c0,11.076 6.34,19.326 17.111,19.326Zm0.917,-4.812c-8.021,-0 -12.681,-6.111 -12.681,-14.667c0,-8.479 4.66,-14.666 12.681,-14.666c8.097,-0 12.833,6.187 12.833,14.666c-0,8.556 -4.736,14.667 -12.833,14.667Z" style="fill-rule:nonzero;"/><path d="M840.145,481.299l-0,19.631c-0,8.785 -4.202,13.521 -11.306,13.521c-5.882,-0 -9.777,-3.132 -9.777,-11.916l-0,-21.313l-5.347,0l-0,22.993c-0,9.014 4.736,14.972 13.444,14.972c5.805,0 10.923,-2.903 12.986,-7.18l0.687,6.263l4.583,0l0,-36.971l-5.27,-0Z" style="fill-rule:nonzero;"/><path d="M861.686,518.27l0,-19.326c0,-8.326 4.278,-13.826 11.84,-13.826c6.111,0 10.007,3.056 10.007,11.687l-0,21.465l5.271,0l-0,-22.61c-0,-9.32 -4.202,-15.354 -14.361,-15.354c-5.347,-0 -10.236,2.673 -12.681,7.409l-0.763,-6.416l-4.584,-0l0,36.971l5.271,0Z" style="fill-rule:nonzero;"/><path d="M896.824,498.715c0,10.083 6.417,18.41 16.959,18.41c6.34,-0 11.458,-3.056 13.978,-8.25l0,8.784c0,7.715 -5.041,12.833 -12.604,12.833c-6.645,0 -11.229,-3.513 -12.374,-9.472l-5.271,0c1.451,8.938 8.097,14.285 17.569,14.285c10.847,-0 17.875,-7.181 17.875,-18.18l-0,-35.826l-4.583,-0l-0.535,7.409c-2.368,-5.423 -7.257,-8.402 -13.674,-8.402c-10.847,-0 -17.34,8.326 -17.34,18.409Zm5.271,-0.076c0,-7.486 4.583,-13.674 12.528,-13.674c8.097,0 12.68,5.806 12.68,13.674c0,7.944 -4.736,13.75 -12.757,13.75c-7.791,-0 -12.451,-6.188 -12.451,-13.75Z" style="fill-rule:nonzero;"/><circle cx="394.823" cy="490.885" r="29.706" style="fill:#1e4e5f;"/></g><path d="M1976.6,1028.93c71.473,-165.815 243.519,-334.864 243.519,-334.864c0,0 36.335,-25.708 72.229,-51.105c39.456,-27.917 93.684,-21.18 125.11,15.543c27.418,32.04 58.85,68.77 78.94,92.246c13.517,15.796 22.685,34.841 26.601,55.259c16.603,86.562 62.423,325.467 67.789,353.444c0.344,1.79 0.668,3.584 0.974,5.381c5.813,34.187 64.973,382.086 64.973,382.086l-1140.79,8.242c0,-0 373.34,-323.663 460.655,-526.232Z" style="fill:#1e4e5f;"/><path d="M94.16,499.323c12.731,0 21.389,-8.657 21.389,-20.879c-0,-11.373 -7.809,-20.455 -20.455,-20.455c-4.753,-0 -9.167,1.528 -12.562,4.244l4.584,-19.097l24.953,-0l-0,-5.602l-29.367,0l-7.299,30.555l4.838,1.528c3.31,-3.65 8.402,-6.196 14.004,-6.196c9.591,-0 15.108,6.705 15.108,15.193c-0,8.996 -5.941,15.107 -15.108,15.107c-8.657,0 -14.004,-5.262 -14.004,-14.004l-6.111,0c-0,11.967 7.808,19.606 20.03,19.606Z" style="fill-rule:nonzero;"/><path d="M123.697,467.919c-0,18.928 9.081,31.489 24.359,31.489c15.193,0 24.274,-12.561 24.274,-31.489c0,-18.842 -9.251,-31.573 -24.274,-31.573c-15.108,-0 -24.359,12.731 -24.359,31.573Zm6.026,0c-0,-15.871 6.705,-25.971 18.333,-25.971c11.628,-0 18.333,10.1 18.333,25.971c0,15.787 -6.705,25.972 -18.333,25.972c-11.628,0 -18.333,-10.185 -18.333,-25.972Z" style="fill-rule:nonzero;"/><path d="M181.667,467.919c-0,18.928 9.081,31.489 24.359,31.489c15.192,0 24.274,-12.561 24.274,-31.489c0,-18.842 -9.251,-31.573 -24.274,-31.573c-15.108,-0 -24.359,12.731 -24.359,31.573Zm6.026,0c-0,-15.871 6.705,-25.971 18.333,-25.971c11.628,-0 18.333,10.1 18.333,25.971c-0,15.787 -6.705,25.972 -18.333,25.972c-11.628,0 -18.333,-10.185 -18.333,-25.972Z" style="fill-rule:nonzero;"/><path d="M239.636,467.919c0,18.928 9.082,31.489 24.36,31.489c15.192,0 24.274,-12.561 24.274,-31.489c-0,-18.842 -9.251,-31.573 -24.274,-31.573c-15.108,-0 -24.36,12.731 -24.36,31.573Zm6.027,0c-0,-15.871 6.705,-25.971 18.333,-25.971c11.628,-0 18.333,10.1 18.333,25.971c-0,15.787 -6.705,25.972 -18.333,25.972c-11.628,0 -18.333,-10.185 -18.333,-25.972Z" style="fill-rule:nonzero;"/><path d="M124.206,1036.28l0,-5.687l-30.64,0l14.174,-12.392c12.137,-10.609 16.127,-16.466 16.127,-25.293c-0,-11.118 -7.639,-18.502 -19.097,-18.502c-11.968,-0 -20.031,8.402 -20.37,21.134l6.111,-0c0.254,-9.422 5.771,-15.533 14.174,-15.533c8.063,0 12.986,5.008 12.986,13.241c-0,7.214 -2.886,11.458 -14.09,21.219l-19.436,16.975l-0,4.838l40.061,-0Z" style="fill-rule:nonzero;"/><path d="M152.13,1037.3c12.731,0 21.389,-8.657 21.389,-20.879c-0,-11.373 -7.809,-20.455 -20.455,-20.455c-4.753,-0 -9.167,1.528 -12.562,4.244l4.583,-19.097l24.954,-0l-0,-5.602l-29.367,0l-7.299,30.555l4.837,1.528c3.311,-3.65 8.403,-6.196 14.005,-6.196c9.591,-0 15.108,6.705 15.108,15.193c-0,8.996 -5.942,15.107 -15.108,15.107c-8.657,0 -14.005,-5.262 -14.005,-14.004l-6.111,0c0,11.967 7.809,19.606 20.031,19.606Z" style="fill-rule:nonzero;"/><path d="M181.667,1005.9c-0,18.928 9.081,31.489 24.359,31.489c15.192,0 24.274,-12.561 24.274,-31.489c0,-18.842 -9.251,-31.573 -24.274,-31.573c-15.108,-0 -24.359,12.731 -24.359,31.573Zm6.026,0c-0,-15.871 6.705,-25.971 18.333,-25.971c11.628,-0 18.333,10.1 18.333,25.971c-0,15.787 -6.705,25.972 -18.333,25.972c-11.628,0 -18.333,-10.185 -18.333,-25.972Z" style="fill-rule:nonzero;"/><path d="M239.636,1005.9c0,18.928 9.082,31.489 24.36,31.489c15.192,0 24.274,-12.561 24.274,-31.489c-0,-18.842 -9.251,-31.573 -24.274,-31.573c-15.108,-0 -24.36,12.731 -24.36,31.573Zm6.027,0c-0,-15.871 6.705,-25.971 18.333,-25.971c11.628,-0 18.333,10.1 18.333,25.971c-0,15.787 -6.705,25.972 -18.333,25.972c-11.628,0 -18.333,-10.185 -18.333,-25.972Z" style="fill-rule:nonzero;"/><path d="M115.973,734.364c10.864,0 16.805,5.178 16.805,13.496c0,8.827 -5.856,14.598 -14.938,14.598c-8.572,0 -14.004,-5.262 -14.004,-14.004l-6.026,-0c-0,12.137 8.063,19.521 20.03,19.521c12.307,0 21.134,-7.893 21.134,-19.946c0,-11.033 -8.148,-18.248 -19.521,-18.842l18.163,-18.078l0,-4.923l-36.836,-0l0,5.432l29.113,-0l-18.758,18.503l0,4.243l4.838,0Z" style="fill-rule:nonzero;"/><path d="M145,706.186l0,5.602l35.139,-0l-24.02,55.169l6.281,-0l23.935,-55.169l-0,-5.602l-41.335,-0Z" style="fill-rule:nonzero;"/><path d="M210.1,767.975c12.731,0 21.388,-8.657 21.388,-20.879c0,-11.374 -7.808,-20.455 -20.455,-20.455c-4.753,-0 -9.166,1.528 -12.561,4.244l4.583,-19.097l24.954,-0l-0,-5.602l-29.367,-0l-7.3,30.555l4.838,1.528c3.31,-3.65 8.403,-6.196 14.005,-6.196c9.591,-0 15.108,6.705 15.108,15.193c-0,8.996 -5.942,15.107 -15.108,15.107c-8.658,0 -14.005,-5.262 -14.005,-14.004l-6.111,-0c0,11.967 7.809,19.606 20.031,19.606Z" style="fill-rule:nonzero;"/><path d="M239.636,736.571c0,18.927 9.082,31.489 24.36,31.489c15.192,-0 24.274,-12.562 24.274,-31.489c-0,-18.842 -9.251,-31.573 -24.274,-31.573c-15.108,-0 -24.36,12.731 -24.36,31.573Zm6.027,0c-0,-15.871 6.705,-25.972 18.333,-25.972c11.628,0 18.333,10.101 18.333,25.972c-0,15.787 -6.705,25.972 -18.333,25.972c-11.628,0 -18.333,-10.185 -18.333,-25.972Z" style="fill-rule:nonzero;"/><path d="M125.309,1250.08l0,55.254l5.857,0l-0,-60.771l-18.248,0l-0,5.517l12.391,0Z" style="fill-rule:nonzero;"/><path d="M182.176,1305.34l-0,-5.686l-30.64,-0l14.174,-12.392c12.137,-10.61 16.126,-16.466 16.126,-25.293c0,-11.119 -7.638,-18.503 -19.097,-18.503c-11.967,0 -20.03,8.403 -20.37,21.134l6.111,0c0.255,-9.421 5.772,-15.532 14.175,-15.532c8.063,-0 12.985,5.007 12.985,13.24c0,7.215 -2.885,11.459 -14.089,21.219l-19.436,16.975l-0,4.838l40.061,0Z" style="fill-rule:nonzero;"/><path d="M210.1,1306.35c12.731,-0 21.388,-8.658 21.388,-20.88c0,-11.373 -7.808,-20.455 -20.455,-20.455c-4.753,0 -9.166,1.528 -12.561,4.244l4.583,-19.097l24.954,0l-0,-5.602l-29.367,0l-7.3,30.556l4.838,1.527c3.31,-3.649 8.403,-6.196 14.005,-6.196c9.591,0 15.108,6.706 15.108,15.193c-0,8.997 -5.942,15.108 -15.108,15.108c-8.658,-0 -14.005,-5.262 -14.005,-14.005l-6.111,0c0,11.968 7.809,19.607 20.031,19.607Z" style="fill-rule:nonzero;"/><path d="M239.636,1274.95c0,18.927 9.082,31.489 24.36,31.489c15.192,-0 24.274,-12.562 24.274,-31.489c-0,-18.843 -9.251,-31.574 -24.274,-31.574c-15.108,0 -24.36,12.731 -24.36,31.574Zm6.027,-0c-0,-15.872 6.705,-25.972 18.333,-25.972c11.628,-0 18.333,10.1 18.333,25.972c-0,15.787 -6.705,25.972 -18.333,25.972c-11.628,-0 -18.333,-10.185 -18.333,-25.972Z" style="fill-rule:nonzero;"/><path d="M196.605,1629.51c-0,18.927 9.081,31.489 24.359,31.489c15.193,-0 24.274,-12.562 24.274,-31.489c0,-18.842 -9.251,-31.574 -24.274,-31.574c-15.108,0 -24.359,12.732 -24.359,31.574Zm6.026,-0c-0,-15.872 6.705,-25.972 18.333,-25.972c11.628,0 18.333,10.1 18.333,25.972c-0,15.787 -6.705,25.972 -18.333,25.972c-11.628,-0 -18.333,-10.185 -18.333,-25.972Z" style="fill-rule:nonzero;"/><path d="M254.574,1629.51c0,18.927 9.082,31.489 24.36,31.489c15.192,-0 24.274,-12.562 24.274,-31.489c0,-18.842 -9.251,-31.574 -24.274,-31.574c-15.108,0 -24.36,12.732 -24.36,31.574Zm6.027,-0c-0,-15.872 6.705,-25.972 18.333,-25.972c11.628,0 18.333,10.1 18.333,25.972c-0,15.787 -6.705,25.972 -18.333,25.972c-11.628,-0 -18.333,-10.185 -18.333,-25.972Z" style="fill-rule:nonzero;"/><path d="M319.844,1628.33c2.885,-0 5.347,-2.462 5.347,-5.263c-0,-2.885 -2.462,-5.262 -5.347,-5.262c-2.886,0 -5.348,2.377 -5.348,5.262c0,2.801 2.462,5.263 5.348,5.263Zm-0,32.507c2.885,-0 5.347,-2.377 5.347,-5.177c-0,-2.886 -2.462,-5.348 -5.347,-5.348c-2.886,0 -5.348,2.462 -5.348,5.348c0,2.8 2.462,5.177 5.348,5.177Z" style="fill-rule:nonzero;"/><path d="M336.479,1629.51c0,18.927 9.082,31.489 24.359,31.489c15.193,-0 24.275,-12.562 24.275,-31.489c-0,-18.842 -9.252,-31.574 -24.275,-31.574c-15.107,0 -24.359,12.732 -24.359,31.574Zm6.026,-0c0,-15.872 6.705,-25.972 18.333,-25.972c11.628,0 18.333,10.1 18.333,25.972c0,15.787 -6.705,25.972 -18.333,25.972c-11.628,-0 -18.333,-10.185 -18.333,-25.972Z" style="fill-rule:nonzero;"/><path d="M394.449,1629.51c-0,18.927 9.082,31.489 24.359,31.489c15.193,-0 24.275,-12.562 24.275,-31.489c-0,-18.842 -9.252,-31.574 -24.275,-31.574c-15.108,0 -24.359,12.732 -24.359,31.574Zm6.026,-0c0,-15.872 6.705,-25.972 18.333,-25.972c11.628,0 18.333,10.1 18.333,25.972c0,15.787 -6.705,25.972 -18.333,25.972c-11.628,-0 -18.333,-10.185 -18.333,-25.972Z" style="fill-rule:nonzero;"/><path d="M765.264,1629.51c0,18.927 9.082,31.489 24.359,31.489c15.193,-0 24.275,-12.562 24.275,-31.489c-0,-18.842 -9.252,-31.574 -24.275,-31.574c-15.108,0 -24.359,12.732 -24.359,31.574Zm6.026,-0c0,-15.872 6.705,-25.972 18.333,-25.972c11.628,0 18.333,10.1 18.333,25.972c0,15.787 -6.705,25.972 -18.333,25.972c-11.628,-0 -18.333,-10.185 -18.333,-25.972Z" style="fill-rule:nonzero;"/><path d="M839.36,1627.31c10.864,0 16.806,5.178 16.806,13.495c-0,8.827 -5.857,14.599 -14.939,14.599c-8.572,-0 -14.004,-5.262 -14.004,-14.004l-6.026,-0c-0,12.137 8.063,19.521 20.03,19.521c12.307,-0 21.134,-7.894 21.134,-19.946c0,-11.034 -8.148,-18.248 -19.521,-18.842l18.163,-18.079l0,-4.922l-36.835,-0l-0,5.432l29.112,-0l-18.758,18.502l0,4.244l4.838,0Z" style="fill-rule:nonzero;"/><path d="M878.063,1628.33c2.886,-0 5.347,-2.462 5.347,-5.263c0,-2.885 -2.461,-5.262 -5.347,-5.262c-2.885,0 -5.347,2.377 -5.347,5.262c0,2.801 2.462,5.263 5.347,5.263Zm0,32.507c2.886,-0 5.347,-2.377 5.347,-5.177c0,-2.886 -2.461,-5.348 -5.347,-5.348c-2.885,0 -5.347,2.462 -5.347,5.348c0,2.8 2.462,5.177 5.347,5.177Z" style="fill-rule:nonzero;"/><path d="M894.699,1629.51c-0,18.927 9.082,31.489 24.359,31.489c15.193,-0 24.274,-12.562 24.274,-31.489c0,-18.842 -9.251,-31.574 -24.274,-31.574c-15.108,0 -24.359,12.732 -24.359,31.574Zm6.026,-0c0,-15.872 6.705,-25.972 18.333,-25.972c11.628,0 18.333,10.1 18.333,25.972c0,15.787 -6.705,25.972 -18.333,25.972c-11.628,-0 -18.333,-10.185 -18.333,-25.972Z" style="fill-rule:nonzero;"/><path d="M952.669,1629.51c-0,18.927 9.081,31.489 24.359,31.489c15.193,-0 24.274,-12.562 24.274,-31.489c0,-18.842 -9.251,-31.574 -24.274,-31.574c-15.108,0 -24.359,12.732 -24.359,31.574Zm6.026,-0c-0,-15.872 6.705,-25.972 18.333,-25.972c11.628,0 18.333,10.1 18.333,25.972c0,15.787 -6.705,25.972 -18.333,25.972c-11.628,-0 -18.333,-10.185 -18.333,-25.972Z" style="fill-rule:nonzero;"/><path d="M1326.8,1629.51c0,18.927 9.082,31.489 24.359,31.489c15.193,-0 24.275,-12.562 24.275,-31.489c-0,-18.842 -9.252,-31.574 -24.275,-31.574c-15.107,0 -24.359,12.732 -24.359,31.574Zm6.026,-0c0,-15.872 6.706,-25.972 18.333,-25.972c11.628,0 18.333,10.1 18.333,25.972c0,15.787 -6.705,25.972 -18.333,25.972c-11.627,-0 -18.333,-10.185 -18.333,-25.972Z" style="fill-rule:nonzero;"/><path d="M1391.64,1619.58c-5.687,7.808 -7.639,12.731 -7.639,19.776c0,12.137 9.591,21.558 21.813,21.558c12.137,-0 21.558,-9.082 21.558,-21.558c0,-11.883 -8.402,-21.134 -21.049,-21.134c-2.801,-0 -5.432,0.594 -8.317,2.037l15.956,-21.134l-7.129,-0l-15.193,20.455Zm-1.443,19.86c0,-9.251 6.366,-15.871 15.617,-15.871c8.997,-0 15.447,6.62 15.447,15.871c0,9.252 -6.45,15.957 -15.447,15.957c-9.251,-0 -15.617,-6.705 -15.617,-15.957Z" style="fill-rule:nonzero;"/><path d="M1443.25,1628.33c2.886,-0 5.347,-2.462 5.347,-5.263c0,-2.885 -2.461,-5.262 -5.347,-5.262c-2.886,0 -5.347,2.377 -5.347,5.262c-0,2.801 2.461,5.263 5.347,5.263Zm0,32.507c2.886,-0 5.347,-2.377 5.347,-5.177c0,-2.886 -2.461,-5.348 -5.347,-5.348c-2.886,0 -5.347,2.462 -5.347,5.348c-0,2.8 2.461,5.177 5.347,5.177Z" style="fill-rule:nonzero;"/><path d="M1459.88,1629.51c-0,18.927 9.081,31.489 24.359,31.489c15.193,-0 24.274,-12.562 24.274,-31.489c0,-18.842 -9.251,-31.574 -24.274,-31.574c-15.108,0 -24.359,12.732 -24.359,31.574Zm6.026,-0c-0,-15.872 6.705,-25.972 18.333,-25.972c11.628,0 18.333,10.1 18.333,25.972c-0,15.787 -6.705,25.972 -18.333,25.972c-11.628,-0 -18.333,-10.185 -18.333,-25.972Z" style="fill-rule:nonzero;"/><path d="M1517.85,1629.51c-0,18.927 9.081,31.489 24.359,31.489c15.192,-0 24.274,-12.562 24.274,-31.489c0,-18.842 -9.251,-31.574 -24.274,-31.574c-15.108,0 -24.359,12.732 -24.359,31.574Zm6.026,-0c-0,-15.872 6.705,-25.972 18.333,-25.972c11.628,0 18.333,10.1 18.333,25.972c-0,15.787 -6.705,25.972 -18.333,25.972c-11.628,-0 -18.333,-10.185 -18.333,-25.972Z" style="fill-rule:nonzero;"/><path d="M1887.84,1629.51c-0,18.927 9.081,31.489 24.359,31.489c15.193,-0 24.274,-12.562 24.274,-31.489c0,-18.842 -9.251,-31.574 -24.274,-31.574c-15.108,0 -24.359,12.732 -24.359,31.574Zm6.026,-0c-0,-15.872 6.705,-25.972 18.333,-25.972c11.628,0 18.333,10.1 18.333,25.972c-0,15.787 -6.705,25.972 -18.333,25.972c-11.628,-0 -18.333,-10.185 -18.333,-25.972Z" style="fill-rule:nonzero;"/><path d="M1980.78,1639.36c5.772,-7.724 7.639,-12.647 7.639,-19.692c-0,-12.222 -9.591,-21.643 -21.813,-21.643c-12.137,0 -21.558,9.167 -21.558,21.559c-0,11.882 8.402,21.134 21.049,21.134c2.885,-0 5.517,-0.51 8.318,-2.037l-15.957,21.218l7.129,0l15.193,-20.539Zm1.528,-19.776c-0,9.166 -6.451,15.786 -15.702,15.786c-8.997,0 -15.447,-6.62 -15.447,-15.786c-0,-9.252 6.45,-15.957 15.447,-15.957c9.251,0 15.702,6.705 15.702,15.957Z" style="fill-rule:nonzero;"/><path d="M2004.29,1628.33c2.885,-0 5.347,-2.462 5.347,-5.263c-0,-2.885 -2.462,-5.262 -5.347,-5.262c-2.886,0 -5.348,2.377 -5.348,5.262c0,2.801 2.462,5.263 5.348,5.263Zm-0,32.507c2.885,-0 5.347,-2.377 5.347,-5.177c-0,-2.886 -2.462,-5.348 -5.347,-5.348c-2.886,0 -5.348,2.462 -5.348,5.348c0,2.8 2.462,5.177 5.348,5.177Z" style="fill-rule:nonzero;"/><path d="M2020.93,1629.51c0,18.927 9.082,31.489 24.359,31.489c15.193,-0 24.275,-12.562 24.275,-31.489c-0,-18.842 -9.252,-31.574 -24.275,-31.574c-15.107,0 -24.359,12.732 -24.359,31.574Zm6.026,-0c0,-15.872 6.705,-25.972 18.333,-25.972c11.628,0 18.333,10.1 18.333,25.972c0,15.787 -6.705,25.972 -18.333,25.972c-11.628,-0 -18.333,-10.185 -18.333,-25.972Z" style="fill-rule:nonzero;"/><path d="M2078.9,1629.51c-0,18.927 9.082,31.489 24.359,31.489c15.193,-0 24.275,-12.562 24.275,-31.489c-0,-18.842 -9.252,-31.574 -24.275,-31.574c-15.108,0 -24.359,12.732 -24.359,31.574Zm6.026,-0c0,-15.872 6.705,-25.972 18.333,-25.972c11.628,0 18.333,10.1 18.333,25.972c0,15.787 -6.705,25.972 -18.333,25.972c-11.628,-0 -18.333,-10.185 -18.333,-25.972Z" style="fill-rule:nonzero;"/><path d="M2459.66,1604.65l0,55.253l5.856,0l0,-60.77l-18.248,-0l0,5.517l12.392,-0Z" style="fill-rule:nonzero;"/><path d="M2516.52,1659.9l0,-5.686l-30.64,-0l14.175,-12.392c12.137,-10.61 16.126,-16.466 16.126,-25.293c-0,-11.119 -7.639,-18.503 -19.097,-18.503c-11.967,0 -20.031,8.403 -20.37,21.134l6.111,0c0.255,-9.421 5.771,-15.532 14.174,-15.532c8.063,0 12.986,5.008 12.986,13.241c0,7.214 -2.886,11.458 -14.089,21.218l-19.437,16.975l0,4.838l40.061,0Z" style="fill-rule:nonzero;"/><path d="M2532.31,1628.33c2.886,-0 5.347,-2.462 5.347,-5.263c0,-2.885 -2.461,-5.262 -5.347,-5.262c-2.886,0 -5.347,2.377 -5.347,5.262c0,2.801 2.461,5.263 5.347,5.263Zm0,32.507c2.886,-0 5.347,-2.377 5.347,-5.177c0,-2.886 -2.461,-5.348 -5.347,-5.348c-2.886,0 -5.347,2.462 -5.347,5.348c0,2.8 2.461,5.177 5.347,5.177Z" style="fill-rule:nonzero;"/><path d="M2548.95,1629.51c-0,18.927 9.081,31.489 24.359,31.489c15.193,-0 24.274,-12.562 24.274,-31.489c0,-18.842 -9.251,-31.574 -24.274,-31.574c-15.108,0 -24.359,12.732 -24.359,31.574Zm6.026,-0c-0,-15.872 6.705,-25.972 18.333,-25.972c11.628,0 18.333,10.1 18.333,25.972c0,15.787 -6.705,25.972 -18.333,25.972c-11.628,-0 -18.333,-10.185 -18.333,-25.972Z" style="fill-rule:nonzero;"/><path d="M2606.92,1629.51c-0,18.927 9.081,31.489 24.359,31.489c15.193,-0 24.274,-12.562 24.274,-31.489c0,-18.842 -9.251,-31.574 -24.274,-31.574c-15.108,0 -24.359,12.732 -24.359,31.574Zm6.026,-0c-0,-15.872 6.705,-25.972 18.333,-25.972c11.628,0 18.333,10.1 18.333,25.972c-0,15.787 -6.705,25.972 -18.333,25.972c-11.628,-0 -18.333,-10.185 -18.333,-25.972Z" style="fill-rule:nonzero;"/><path d="M3020.29,1604.65l-0,55.253l5.856,0l-0,-60.77l-18.248,-0l-0,5.517l12.392,-0Z" style="fill-rule:nonzero;"/><path d="M3057.72,1660.92c12.731,-0 21.388,-8.657 21.388,-20.879c0,-11.374 -7.808,-20.455 -20.455,-20.455c-4.753,-0 -9.166,1.527 -12.561,4.243l4.583,-19.097l24.953,0l0,-5.601l-29.367,-0l-7.299,30.555l4.838,1.527c3.31,-3.649 8.403,-6.195 14.004,-6.195c9.591,-0 15.108,6.705 15.108,15.192c0,8.997 -5.941,15.108 -15.108,15.108c-8.657,0 -14.004,-5.262 -14.004,-14.004l-6.111,-0c0,11.967 7.809,19.606 20.031,19.606Z" style="fill-rule:nonzero;"/><path d="M3094.55,1628.33c2.886,-0 5.348,-2.462 5.348,-5.263c-0,-2.885 -2.462,-5.262 -5.348,-5.262c-2.885,0 -5.347,2.377 -5.347,5.262c0,2.801 2.462,5.263 5.347,5.263Zm0,32.507c2.886,-0 5.348,-2.377 5.348,-5.177c-0,-2.886 -2.462,-5.348 -5.348,-5.348c-2.885,0 -5.347,2.462 -5.347,5.348c0,2.8 2.462,5.177 5.347,5.177Z" style="fill-rule:nonzero;"/><path d="M3111.19,1629.51c0,18.927 9.082,31.489 24.359,31.489c15.193,-0 24.275,-12.562 24.275,-31.489c-0,-18.842 -9.252,-31.574 -24.275,-31.574c-15.108,0 -24.359,12.732 -24.359,31.574Zm6.026,-0c0,-15.872 6.705,-25.972 18.333,-25.972c11.628,0 18.333,10.1 18.333,25.972c0,15.787 -6.705,25.972 -18.333,25.972c-11.628,-0 -18.333,-10.185 -18.333,-25.972Z" style="fill-rule:nonzero;"/><path d="M3169.16,1629.51c-0,18.927 9.082,31.489 24.359,31.489c15.193,-0 24.274,-12.562 24.274,-31.489c0,-18.842 -9.251,-31.574 -24.274,-31.574c-15.108,0 -24.359,12.732 -24.359,31.574Zm6.026,-0c0,-15.872 6.705,-25.972 18.333,-25.972c11.628,0 18.333,10.1 18.333,25.972c0,15.787 -6.705,25.972 -18.333,25.972c-11.628,-0 -18.333,-10.185 -18.333,-25.972Z" style="fill-rule:nonzero;"/><path d="M3584.06,1604.65l-0,55.253l5.856,0l-0,-60.77l-18.248,-0l-0,5.517l12.392,-0Z" style="fill-rule:nonzero;"/><path d="M3601.21,1643.35c0,10.439 8.742,17.569 21.644,17.569c12.901,-0 21.643,-7.13 21.643,-17.484c-0,-7.639 -4.668,-13.75 -11.713,-15.957c6.026,-2.292 9.421,-7.299 9.421,-13.665c0,-9.421 -7.724,-15.787 -19.267,-15.787c-11.628,0 -19.606,6.366 -19.606,15.702c0,6.281 3.48,11.289 9.591,13.75c-7.214,2.461 -11.713,8.403 -11.713,15.872Zm7.894,-29.452c-0,-6.366 5.432,-10.44 13.75,-10.44c8.232,0 13.58,4.074 13.58,10.61c-0,6.705 -5.348,11.033 -13.58,11.033c-8.318,0 -13.75,-4.498 -13.75,-11.203Zm-1.868,28.942c0,-7.469 6.112,-12.307 15.533,-12.307c9.591,0 15.702,4.838 15.702,12.307c-0,7.554 -6.281,12.562 -15.533,12.562c-9.421,-0 -15.702,-5.008 -15.702,-12.562Z" style="fill-rule:nonzero;"/><path d="M3660.79,1628.33c2.886,-0 5.347,-2.462 5.347,-5.263c-0,-2.885 -2.461,-5.262 -5.347,-5.262c-2.886,0 -5.347,2.377 -5.347,5.262c-0,2.801 2.461,5.263 5.347,5.263Zm-0,32.507c2.886,-0 5.347,-2.377 5.347,-5.177c-0,-2.886 -2.461,-5.348 -5.347,-5.348c-2.886,0 -5.347,2.462 -5.347,5.348c-0,2.8 2.461,5.177 5.347,5.177Z" style="fill-rule:nonzero;"/><path d="M3677.43,1629.51c0,18.927 9.082,31.489 24.36,31.489c15.192,-0 24.274,-12.562 24.274,-31.489c-0,-18.842 -9.252,-31.574 -24.274,-31.574c-15.108,0 -24.36,12.732 -24.36,31.574Zm6.026,-0c0,-15.872 6.706,-25.972 18.334,-25.972c11.627,0 18.333,10.1 18.333,25.972c-0,15.787 -6.706,25.972 -18.333,25.972c-11.628,-0 -18.334,-10.185 -18.334,-25.972Z" style="fill-rule:nonzero;"/><path d="M3735.4,1629.51c0,18.927 9.082,31.489 24.359,31.489c15.193,-0 24.275,-12.562 24.275,-31.489c-0,-18.842 -9.252,-31.574 -24.275,-31.574c-15.107,0 -24.359,12.732 -24.359,31.574Zm6.026,-0c0,-15.872 6.705,-25.972 18.333,-25.972c11.628,0 18.333,10.1 18.333,25.972c0,15.787 -6.705,25.972 -18.333,25.972c-11.628,-0 -18.333,-10.185 -18.333,-25.972Z" style="fill-rule:nonzero;"/><path d="M4172.12,1659.9l-0,-5.686l-30.64,-0l14.174,-12.392c12.137,-10.61 16.126,-16.466 16.126,-25.293c0,-11.119 -7.639,-18.503 -19.097,-18.503c-11.967,0 -20.03,8.403 -20.37,21.134l6.111,0c0.255,-9.421 5.772,-15.532 14.174,-15.532c8.063,0 12.986,5.008 12.986,13.241c0,7.214 -2.886,11.458 -14.089,21.218l-19.437,16.975l0,4.838l40.062,0Z" style="fill-rule:nonzero;"/><path d="M4191.47,1604.65l0,55.253l5.857,0l-0,-60.77l-18.249,-0l0,5.517l12.392,-0Z" style="fill-rule:nonzero;"/><path d="M4216.42,1628.33c2.886,-0 5.348,-2.462 5.348,-5.263c-0,-2.885 -2.462,-5.262 -5.348,-5.262c-2.885,0 -5.347,2.377 -5.347,5.262c0,2.801 2.462,5.263 5.347,5.263Zm0,32.507c2.886,-0 5.348,-2.377 5.348,-5.177c-0,-2.886 -2.462,-5.348 -5.348,-5.348c-2.885,0 -5.347,2.462 -5.347,5.348c0,2.8 2.462,5.177 5.347,5.177Z" style="fill-rule:nonzero;"/><path d="M4233.06,1629.51c0,18.927 9.082,31.489 24.359,31.489c15.193,-0 24.275,-12.562 24.275,-31.489c-0,-18.842 -9.252,-31.574 -24.275,-31.574c-15.108,0 -24.359,12.732 -24.359,31.574Zm6.026,-0c0,-15.872 6.705,-25.972 18.333,-25.972c11.628,0 18.333,10.1 18.333,25.972c0,15.787 -6.705,25.972 -18.333,25.972c-11.628,-0 -18.333,-10.185 -18.333,-25.972Z" style="fill-rule:nonzero;"/><path d="M4291.03,1629.51c-0,18.927 9.081,31.489 24.359,31.489c15.193,-0 24.274,-12.562 24.274,-31.489c0,-18.842 -9.251,-31.574 -24.274,-31.574c-15.108,0 -24.359,12.732 -24.359,31.574Zm6.026,-0c-0,-15.872 6.705,-25.972 18.333,-25.972c11.628,0 18.333,10.1 18.333,25.972c0,15.787 -6.705,25.972 -18.333,25.972c-11.628,-0 -18.333,-10.185 -18.333,-25.972Z" style="fill-rule:nonzero;"/><path d="M4736,1659.9l0,-5.686l-30.64,-0l14.175,-12.392c12.137,-10.61 16.126,-16.466 16.126,-25.293c-0,-11.119 -7.639,-18.503 -19.097,-18.503c-11.967,0 -20.031,8.403 -20.37,21.134l6.111,0c0.254,-9.421 5.771,-15.532 14.174,-15.532c8.063,0 12.986,5.008 12.986,13.241c-0,7.214 -2.886,11.458 -14.089,21.218l-19.437,16.975l0,4.838l40.061,0Z" style="fill-rule:nonzero;"/><path d="M4785.83,1647l0,-5.432l-7.129,0l-0,-42.437l-8.148,-0l-29.707,42.437l0,5.432l31.913,0l0,12.901l5.942,0l-0,-12.901l7.129,0Zm-38.363,-5.432l25.292,-36.157l0,36.157l-25.292,0Z" style="fill-rule:nonzero;"/><path d="M4802.63,1628.33c2.886,-0 5.348,-2.462 5.348,-5.263c-0,-2.885 -2.462,-5.262 -5.348,-5.262c-2.885,0 -5.347,2.377 -5.347,5.262c0,2.801 2.462,5.263 5.347,5.263Zm0,32.507c2.886,-0 5.348,-2.377 5.348,-5.177c-0,-2.886 -2.462,-5.348 -5.348,-5.348c-2.885,0 -5.347,2.462 -5.347,5.348c0,2.8 2.462,5.177 5.347,5.177Z" style="fill-rule:nonzero;"/><path d="M4819.27,1629.51c0,18.927 9.082,31.489 24.359,31.489c15.193,-0 24.275,-12.562 24.275,-31.489c-0,-18.842 -9.252,-31.574 -24.275,-31.574c-15.108,0 -24.359,12.732 -24.359,31.574Zm6.026,-0c0,-15.872 6.705,-25.972 18.333,-25.972c11.628,0 18.333,10.1 18.333,25.972c0,15.787 -6.705,25.972 -18.333,25.972c-11.628,-0 -18.333,-10.185 -18.333,-25.972Z" style="fill-rule:nonzero;"/><path d="M4877.24,1629.51c-0,18.927 9.082,31.489 24.359,31.489c15.193,-0 24.274,-12.562 24.274,-31.489c0,-18.842 -9.251,-31.574 -24.274,-31.574c-15.108,0 -24.359,12.732 -24.359,31.574Zm6.026,-0c-0,-15.872 6.705,-25.972 18.333,-25.972c11.628,0 18.333,10.1 18.333,25.972c0,15.787 -6.705,25.972 -18.333,25.972c-11.628,-0 -18.333,-10.185 -18.333,-25.972Z" style="fill-rule:nonzero;"/><path d="M288.5,324.112l-0,-8.148l-48.549,-15.023l48.549,-14.853l-0,-7.979l-61.365,-18.503l0,8.488l37.6,11.288c2.716,0.849 5.856,1.698 11.034,2.716c-4.584,0.934 -7.809,1.783 -11.119,2.801l-37.515,11.543l0,8.997l37.515,11.628c3.225,0.934 6.196,1.867 11.119,2.886c-4.669,0.849 -7.894,1.697 -11.119,2.546l-37.515,11.204l0,8.657l61.365,-18.248Z" style="fill-rule:nonzero;"/><path d="M289.518,246.281c0,-6.705 -2.97,-12.392 -7.723,-14.514l6.705,-0.848l-0,-6.79l-26.057,-0c-11.203,-0 -16.635,6.959 -16.635,17.229c-0,10.695 5.686,17.824 14.344,17.824l-0,-6.96c-5.008,0 -7.979,-3.819 -7.979,-10.524c0,-5.602 2.462,-9.761 9.421,-9.761l1.189,0l1.018,13.071c0.764,9.761 5.517,15.447 13.156,15.447c7.554,0 12.561,-5.262 12.561,-14.174Zm-6.195,-2.292c-0,5.178 -2.207,8.403 -6.621,8.403c-4.074,0 -6.79,-2.886 -7.469,-9.93l-0.849,-10.61l2.207,0c7.809,0 12.732,4.584 12.732,12.137Z" style="fill-rule:nonzero;"/><path d="M288.5,202.061l-34.799,0l0,-8.148l-6.705,0l-0,8.148l-12.986,0l-0,7.978l12.986,0l-0,8.148l6.705,0l0,-8.148l34.799,0l-0,-7.978Z" style="fill-rule:nonzero;"/><path d="M288.5,174.307l-34.799,-0l0,-8.148l-6.705,-0l-0,8.148l-12.986,-0l-0,7.978l12.986,0l-0,8.148l6.705,0l0,-8.148l34.799,0l-0,-7.978Z" style="fill-rule:nonzero;"/><path d="M1506.41,1563.4l9.531,-8.242l1260.14,0l-1269.67,8.242Z" style="fill:#facc15;"/><path d="M3726.22,1162.14l34.499,53.446c6.829,10.579 14.303,20.727 22.379,30.387l47.513,56.829l-18.591,75.324c-2.205,8.934 -8.772,16.149 -17.459,19.182c-0.002,0.001 -0.005,0.002 -0.008,0.003c-9.058,3.163 -19.06,2.064 -27.215,-2.991c-8.155,-5.054 -13.59,-13.522 -14.789,-23.041l-26.329,-209.139Z" style="fill:#facc15;"/><path d="M1515.94,1555.16l-1185.68,0l-0,-167.496c-0,-0 0.003,0.001 0.008,0.003c9.397,4.263 20.16,4.35 29.625,0.241c9.465,-4.11 16.75,-12.033 20.052,-21.809c7.094,-21.004 15.853,-46.936 22.883,-67.75c1.848,-5.473 6.962,-9.174 12.738,-9.22c5.777,-0.046 10.948,3.573 12.883,9.016c4.367,12.281 9.333,26.248 14.091,39.627c13.001,36.564 34.247,69.644 62.089,96.677c3.704,3.596 7.359,7.145 10.825,10.51c15.359,14.912 35.131,24.455 56.361,27.204c40.912,5.298 109.99,14.243 146.254,18.939c15.895,2.058 31.902,3.142 47.929,3.246c118.542,0.771 639.105,4.155 749.249,4.871c13.572,0.088 27.055,-2.21 39.833,-6.788c6.624,-2.374 14.331,-5.136 22.086,-7.914c26.87,-9.628 46.412,-33.061 51.06,-61.223c6.175,-37.426 14.386,-87.184 17.483,-105.952c0.835,-5.062 1.535,-10.145 2.1,-15.244c2.999,-27.079 13.157,-118.805 17.39,-157.031c1.244,-11.226 4.23,-22.19 8.851,-32.496c4.99,-11.127 11.837,-26.397 17.724,-39.526c8.002,-17.842 20.61,-33.233 36.529,-44.589c12.021,-8.574 25.961,-18.518 35.519,-25.337c7.589,-5.413 16.1,-9.399 25.117,-11.764c3.897,-1.022 8.314,-2.18 12.816,-3.361c19.346,-5.073 39.884,1.439 52.771,16.733l18.266,21.681c0.865,1.04 5.335,6.421 11.28,13.577c9.486,11.418 23.637,17.921 38.48,17.684c14.843,-0.238 28.778,-7.191 37.894,-18.908c1.307,-1.679 2.606,-3.349 3.888,-4.998c3.172,-4.077 7.449,-7.019 12.265,-8.393l-13.893,29.118c-90.495,181.318 -249.475,323.725 -397.276,457.882l-49.486,42.79Z" style="fill:#c6ecf9;"/><path d="M1515.94,1555.16l-525.642,-8.242c0,-0 -308.497,-60.512 -272.233,-55.816c15.895,2.058 31.902,3.142 47.929,3.246c118.542,0.771 639.105,4.155 749.249,4.871c13.572,0.088 27.055,-2.21 39.833,-6.788c6.624,-2.374 14.331,-5.136 22.086,-7.914c26.87,-9.628 46.412,-33.061 51.06,-61.223c6.175,-37.426 14.386,-87.184 17.483,-105.952c0.835,-5.062 1.535,-10.145 2.1,-15.244c2.999,-27.079 13.157,-118.805 17.39,-157.031c1.244,-11.226 4.23,-22.19 8.851,-32.496c4.99,-11.127 11.837,-26.397 17.724,-39.526c8.002,-17.842 20.61,-33.233 36.529,-44.589c12.021,-8.574 25.961,-18.518 35.519,-25.337c7.589,-5.413 16.1,-9.399 25.117,-11.764c3.897,-1.022 8.314,-2.18 12.816,-3.361c19.346,-5.073 39.884,1.439 52.771,16.733l18.266,21.681c0.865,1.04 5.335,6.421 11.28,13.577c9.486,11.418 23.637,17.921 38.48,17.684c14.843,-0.238 28.778,-7.191 37.894,-18.908c1.307,-1.679 2.606,-3.349 3.888,-4.998c3.172,-4.077 7.449,-7.019 12.265,-8.393l-13.893,29.118c-90.495,181.318 -249.475,323.725 -397.276,457.882l-49.486,42.79Z" style="fill:#4b5563;"/><path d="M3830.61,1302.8l173.281,-702.069c-0,-0 87.854,609.472 113.119,784.743c4.034,27.982 25.163,50.44 52.848,56.171c0.671,0.139 1.329,0.275 1.973,0.408c9.104,1.885 18.446,2.349 27.693,1.376c15.79,-1.66 42.405,-4.459 66.143,-6.956c32.497,-3.418 63.435,-15.684 89.444,-35.464c24.143,-18.36 50.34,-38.283 50.34,-38.283c-0,0 50.539,42.321 58.158,48.701c0.638,0.534 1.284,1.058 1.937,1.573c4.773,3.756 26.13,20.563 45.632,35.911c22.915,18.034 49.382,31.024 77.666,38.12c12.421,3.116 25.397,6.371 35.707,8.958c13.352,3.35 27.056,5.092 40.821,5.191c44.975,0.323 147.526,1.058 147.526,1.058l0,52.924l-2036.82,0l1269.69,-8.242c0,-0 -97.454,-105.611 -115.056,-124.686c-1.805,-1.956 -3.562,-3.955 -5.269,-5.997l-94.841,-113.437Z" style="fill:#c6ecf9;"/><path d="M3689.99,1106.02l10.106,-42.652c0.782,-3.299 3.812,-5.566 7.198,-5.384c3.386,0.182 6.157,2.761 6.58,6.125l12.341,98.032l-36.225,-56.121Z" style="fill:#c6ecf9;"/><path d="M1976.6,1025.37c3.36,-1.281 7.025,-1.671 10.71,-1.245c8.815,1.019 16.461,6.564 20.168,14.627c2.97,6.459 5.724,12.447 7.685,16.713c1.966,4.277 3.563,8.714 4.771,13.263c6.417,24.155 27.888,104.972 32.557,122.546c0.601,2.261 1.255,4.507 1.964,6.737c5.707,17.963 32.535,102.402 34.374,108.192c0.066,0.209 0.134,0.417 0.202,0.625c1.044,3.173 9.86,29.98 17.514,53.251c7.268,22.098 24.631,39.41 46.75,46.612c0.001,0.001 0.003,0.001 0.004,0.002c6.823,2.221 13.953,3.353 21.128,3.353c11.517,-0 29.38,-0 39.089,-0c4.549,-0 9.084,-0.517 13.516,-1.542c13.451,-3.108 43.993,-10.166 61.016,-14.1c7.836,-1.811 16.036,-1.207 23.522,1.732c10.426,4.093 24.175,9.49 24.175,9.49l26.806,31.768l19.695,-34.412c-0,-0 19.629,2.401 36.054,4.41c14.072,1.721 28.254,-2.194 39.451,-10.89c7.791,-6.051 15.241,-11.837 15.241,-11.837c0,0 15.689,13.16 27.216,22.829c7.009,5.879 17.155,6.117 24.431,0.574c6.508,-4.957 14.591,-11.114 21.764,-16.578c11.398,-8.683 18.423,-21.92 19.225,-36.226c2.414,-43.062 7.546,-134.625 8.731,-155.759c0.165,-2.943 0.431,-5.879 0.797,-8.804c2.991,-23.87 17.238,-137.585 19.192,-153.185c0.148,-1.183 0.326,-2.362 0.533,-3.536c2.863,-16.269 24.663,-140.102 27.635,-156.983c0.223,-1.268 0.485,-2.53 0.786,-3.783c2.452,-10.221 14.348,-59.806 21.85,-91.073c0.938,-3.911 4.237,-6.809 8.236,-7.236c4,-0.427 7.836,1.709 9.579,5.334c8.441,17.553 19.2,39.927 23.966,49.838c1.635,3.401 2.861,6.984 3.653,10.674c6.722,31.341 39.791,185.53 44.954,209.598c0.451,2.107 0.827,4.23 1.126,6.364c3.04,21.698 20.612,147.127 24.444,174.482c0.492,3.509 1.183,6.987 2.069,10.417c3.221,12.463 11.607,44.914 17.538,67.867c4.093,15.837 14.254,29.427 28.287,37.832c13.223,7.919 29.099,17.428 37.539,22.483c3.968,2.377 8.112,4.448 12.395,6.196c10.697,4.367 32.528,13.278 48.338,19.731c11.983,4.891 25.272,5.564 37.687,1.908c27.074,-7.973 73.242,-21.569 73.242,-21.569l82.289,36.518c-0,0 2.737,2.012 6.551,4.815c14.816,10.89 33.446,15.234 51.551,12.021c24.942,-4.427 58.523,-10.386 66.692,-11.836c1.231,-0.218 2.466,-0.41 3.706,-0.574c14.897,-1.975 114.785,-15.214 134.695,-17.853c2.298,-0.304 4.609,-0.491 6.925,-0.56c15.282,-0.454 75.728,-2.248 75.728,-2.248l57.621,-143.037l48.585,111.753c-0,0 2.533,0.261 6.663,0.686c38.673,3.98 74.3,-21.336 83.263,-59.166l47.523,-200.564l36.225,56.121l26.329,209.139c1.199,9.519 6.634,17.987 14.789,23.041c8.155,5.055 18.157,6.154 27.215,2.991c0.003,-0.001 0.006,-0.002 0.008,-0.003c8.687,-3.033 15.254,-10.248 17.459,-19.182l18.591,-75.324l94.841,113.437c1.707,2.042 3.464,4.041 5.269,5.997c17.602,19.075 115.056,124.686 115.056,124.686l-1269.69,8.242l-1260.14,0c58.785,-49.679 367.838,-317.57 446.762,-500.672l13.893,-29.118Z" style="fill:#e5e7eb;"/><rect x="321.937" y="130.664" width="8.321" height="1432.74"/><path d="M4812.91,1555.41l-0.015,-8.487l-4490.96,7.996l0.015,8.488l4490.96,-7.997Z"/></g></svg>