<?xml version="1.0" encoding="UTF-8" standalone="no"?><!DOCTYPE svg PUBLIC "-//W3C//DTD SVG 1.1//EN" "http://www.w3.org/Graphics/SVG/1.1/DTD/svg11.dtd"><svg width="100%" height="100%" viewBox="0 0 5000 1792" version="1.1" xmlns="http://www.w3.org/2000/svg" xmlns:xlink="http://www.w3.org/1999/xlink" xml:space="preserve" xmlns:serif="http://www.serif.com/" style="fill-rule:evenodd;clip-rule:evenodd;stroke-linejoin:round;stroke-miterlimit:2;"><g><path d="M95.669,495.07c12.867,-0 21.618,-8.751 21.618,-21.104c-0,-11.495 -7.893,-20.674 -20.675,-20.674c-4.804,-0 -9.265,1.544 -12.696,4.289l4.632,-19.302l25.221,0l0,-5.662l-29.681,0l-7.378,30.883l4.89,1.545c3.345,-3.689 8.493,-6.263 14.154,-6.263c9.694,0 15.27,6.777 15.27,15.356c0,9.093 -6.005,15.27 -15.27,15.27c-8.75,-0 -14.154,-5.319 -14.154,-14.155l-6.177,0c0,12.096 7.892,19.817 20.246,19.817Z" style="fill-rule:nonzero;"/><path d="M125.522,463.329c0,19.13 9.179,31.826 24.621,31.826c15.355,0 24.534,-12.696 24.534,-31.826c0,-19.045 -9.35,-31.913 -24.534,-31.913c-15.27,0 -24.621,12.868 -24.621,31.913Zm6.091,-0c-0,-16.042 6.777,-26.251 18.53,-26.251c11.752,0 18.529,10.209 18.529,26.251c0,15.956 -6.777,26.25 -18.529,26.25c-11.753,0 -18.53,-10.294 -18.53,-26.25Z" style="fill-rule:nonzero;"/><path d="M184.114,463.329c-0,19.13 9.179,31.826 24.62,31.826c15.356,0 24.535,-12.696 24.535,-31.826c0,-19.045 -9.351,-31.913 -24.535,-31.913c-15.27,0 -24.62,12.868 -24.62,31.913Zm6.091,-0c-0,-16.042 6.777,-26.251 18.529,-26.251c11.753,0 18.53,10.209 18.53,26.251c0,15.956 -6.777,26.25 -18.53,26.25c-11.752,0 -18.529,-10.294 -18.529,-26.25Z" style="fill-rule:nonzero;"/><path d="M242.705,463.329c0,19.13 9.18,31.826 24.621,31.826c15.356,0 24.535,-12.696 24.535,-31.826c-0,-19.045 -9.351,-31.913 -24.535,-31.913c-15.27,0 -24.621,12.868 -24.621,31.913Zm6.091,-0c0,-16.042 6.777,-26.251 18.53,-26.251c11.753,0 18.53,10.209 18.53,26.251c-0,15.956 -6.777,26.25 -18.53,26.25c-11.753,0 -18.53,-10.294 -18.53,-26.25Z" style="fill-rule:nonzero;"/><g><path d="M469.101,164.862l-5.558,-0l-0,55.28l30.96,0l-0,-5.095l-25.402,-0l0,-50.185Z" style="fill-rule:nonzero;"/><path d="M512.415,221.069c6.331,-0 11.426,-2.78 13.743,-7.489l0.694,6.562l4.478,0l0,-24.166c0,-9.882 -6.331,-14.206 -14.978,-14.206c-9.187,0 -15.364,4.864 -15.364,12.431l4.864,-0c0,-5.019 3.86,-7.953 10.346,-7.953c5.482,0 9.882,2.316 9.882,9.651l0,1.235l-12.353,1.004c-8.724,0.695 -13.974,5.019 -13.974,11.89c-0,6.563 4.709,11.041 12.662,11.041Zm1.235,-4.324c-5.096,0 -8.493,-2.316 -8.493,-6.871c0,-4.17 2.857,-7.258 9.883,-7.876l11.04,-0.849l0,2.008c0,8.106 -4.555,13.588 -12.43,13.588Z" style="fill-rule:nonzero;"/><path d="M538.82,209.642c-0,6.949 5.25,11.427 13.665,11.427c8.493,-0 14.206,-4.401 14.206,-11.118c0,-5.405 -2.933,-8.416 -9.419,-10.037l-6.408,-1.621c-4.092,-1.004 -6.099,-3.012 -6.099,-5.868c-0,-4.015 2.933,-6.254 8.183,-6.254c5.019,-0 8.03,2.548 8.184,6.871l5.173,0c-0.231,-6.948 -5.327,-11.272 -13.202,-11.272c-8.03,0 -13.511,4.169 -13.511,10.732c-0,5.096 3.165,8.493 9.651,10.114l6.408,1.621c4.401,1.081 5.945,2.857 5.945,5.945c-0,4.015 -3.397,6.486 -9.188,6.486c-5.25,-0 -8.493,-2.702 -8.493,-7.026l-5.095,-0Z" style="fill-rule:nonzero;"/><path d="M584.063,220.142l0,-32.89l7.489,-0l0,-4.478l-7.489,-0l0,-11.813l-5.25,0l-0,11.813l-7.489,-0l-0,4.478l7.489,-0l-0,32.89l5.25,0Z" style="fill-rule:nonzero;"/><path d="M604.06,220.142l-0,-11.195l7.257,-7.489l11.89,18.684l6.177,0l-14.438,-22.467l14.36,-14.901l-6.717,-0l-18.529,19.302l-0,-38.218l-5.328,0l0,56.284l5.328,0Z" style="fill-rule:nonzero;"/><path d="M661.965,182.774l0,19.842c0,8.879 -4.246,13.666 -11.427,13.666c-5.945,-0 -9.882,-3.166 -9.882,-12.045l-0,-21.54l-5.405,-0l0,23.239c0,9.111 4.787,15.133 13.589,15.133c5.868,-0 11.041,-2.934 13.125,-7.258l0.695,6.331l4.632,0l0,-37.368l-5.327,-0Z" style="fill-rule:nonzero;"/><path d="M697.944,182.311c-1.313,-0.309 -2.317,-0.386 -3.475,-0.386c-5.25,-0 -9.187,2.625 -10.654,6.639l-0.386,-5.79l-5.019,-0l0,37.368l5.328,0l-0,-21.309c-0,-7.103 4.4,-11.736 11.272,-11.736l2.934,0l-0,-4.786Z" style="fill-rule:nonzero;"/><path d="M716.628,220.142l5.327,0l15.519,-37.368l-5.482,-0l-9.805,24.089c-1.081,2.702 -2.085,5.172 -2.78,7.72c-0.695,-2.47 -1.698,-5.018 -2.702,-7.72l-9.651,-24.089l-5.713,-0l15.287,37.368Z" style="fill-rule:nonzero;"/><path d="M757.779,221.069c8.802,-0 14.592,-4.247 16.6,-12.122l-5.096,0c-1.39,4.941 -5.327,7.566 -11.427,7.566c-8.029,0 -12.816,-5.25 -13.202,-14.36l29.725,-0l-0,-2.625c-0,-10.578 -6.872,-17.758 -16.986,-17.758c-10.654,0 -17.912,8.03 -17.912,19.688c0,11.736 7.335,19.611 18.298,19.611Zm-0.386,-34.744c7.026,0 11.659,4.787 11.659,11.968l-24.244,-0c0.927,-7.335 5.559,-11.968 12.585,-11.968Z" style="fill-rule:nonzero;"/><path d="M469.101,259.817l-5.558,0l-0,55.281l30.96,-0l-0,-5.096l-25.402,0l0,-50.185Z" style="fill-rule:nonzero;"/><path d="M516.584,316.024c8.802,0 14.592,-4.246 16.599,-12.121l-5.095,-0c-1.39,4.941 -5.328,7.566 -11.427,7.566c-8.029,0 -12.816,-5.25 -13.202,-14.36l29.724,-0l0,-2.626c0,-10.577 -6.871,-17.757 -16.985,-17.757c-10.655,-0 -17.912,8.029 -17.912,19.688c-0,11.735 7.334,19.61 18.298,19.61Zm-0.386,-34.743c7.026,0 11.658,4.787 11.658,11.967l-24.243,0c0.927,-7.335 5.559,-11.967 12.585,-11.967Z" style="fill-rule:nonzero;"/><path d="M544.301,267.461c2.162,-0 4.015,-1.776 4.015,-3.938c0,-2.161 -1.853,-4.014 -4.015,-4.014c-2.162,-0 -3.937,1.853 -3.937,4.014c-0,2.162 1.775,3.938 3.937,3.938Zm-2.625,47.637l5.328,-0l-0,-37.368l-5.328,-0l0,37.368Z" style="fill-rule:nonzero;"/><path d="M554.956,304.598c-0,6.948 5.25,11.426 13.666,11.426c8.492,0 14.206,-4.4 14.206,-11.118c-0,-5.404 -2.934,-8.415 -9.42,-10.036l-6.408,-1.622c-4.092,-1.004 -6.099,-3.011 -6.099,-5.868c-0,-4.014 2.934,-6.253 8.184,-6.253c5.018,-0 8.029,2.547 8.184,6.871l5.173,0c-0.232,-6.949 -5.328,-11.272 -13.203,-11.272c-8.029,-0 -13.511,4.169 -13.511,10.732c-0,5.095 3.165,8.492 9.651,10.114l6.408,1.621c4.401,1.081 5.945,2.857 5.945,5.945c0,4.015 -3.397,6.486 -9.188,6.486c-5.25,-0 -8.492,-2.703 -8.492,-7.026l-5.096,-0Z" style="fill-rule:nonzero;"/><path d="M600.199,315.098l0,-32.89l7.489,-0l0,-4.478l-7.489,-0l0,-11.813l-5.25,-0l0,11.813l-7.489,-0l0,4.478l7.489,-0l0,32.89l5.25,-0Z" style="fill-rule:nonzero;"/><path d="M640.888,277.73l-0,19.842c-0,8.879 -4.247,13.665 -11.427,13.665c-5.945,0 -9.883,-3.165 -9.883,-12.044l0,-21.541l-5.404,0l-0,23.24c-0,9.11 4.787,15.132 13.588,15.132c5.868,0 11.041,-2.934 13.126,-7.257l0.694,6.331l4.633,-0l-0,-37.368l-5.327,-0Z" style="fill-rule:nonzero;"/><path d="M662.66,315.098l-0,-19.534c-0,-8.415 4.324,-13.974 11.967,-13.974c6.177,-0 10.114,3.088 10.114,11.813l0,21.695l5.328,-0l-0,-22.854c-0,-9.419 -4.247,-15.518 -14.515,-15.518c-5.405,-0 -10.346,2.702 -12.817,7.489l-0.772,-6.485l-4.632,-0l-0,37.368l5.327,-0Z" style="fill-rule:nonzero;"/><path d="M698.175,295.333c0,10.191 6.486,18.607 17.14,18.607c6.409,-0 11.581,-3.089 14.129,-8.339l0,8.879c0,7.798 -5.095,12.971 -12.739,12.971c-6.717,-0 -11.349,-3.552 -12.508,-9.574l-5.327,0c1.467,9.034 8.184,14.438 17.758,14.438c10.963,0 18.066,-7.257 18.066,-18.375l0,-36.21l-4.632,-0l-0.541,7.489c-2.393,-5.482 -7.334,-8.493 -13.82,-8.493c-10.963,-0 -17.526,8.415 -17.526,18.607Zm5.328,-0.077c-0,-7.567 4.632,-13.821 12.662,-13.821c8.184,0 12.816,5.868 12.816,13.821c-0,8.029 -4.787,13.897 -12.894,13.897c-7.875,-0 -12.584,-6.254 -12.584,-13.897Z" style="fill-rule:nonzero;"/><path d="M742.647,304.598c-0,6.948 5.25,11.426 13.665,11.426c8.493,0 14.206,-4.4 14.206,-11.118c0,-5.404 -2.933,-8.415 -9.419,-10.036l-6.408,-1.622c-4.092,-1.004 -6.099,-3.011 -6.099,-5.868c-0,-4.014 2.933,-6.253 8.184,-6.253c5.018,-0 8.029,2.547 8.184,6.871l5.172,0c-0.231,-6.949 -5.327,-11.272 -13.202,-11.272c-8.03,-0 -13.511,4.169 -13.511,10.732c-0,5.095 3.165,8.492 9.651,10.114l6.408,1.621c4.401,1.081 5.945,2.857 5.945,5.945c-0,4.015 -3.397,6.486 -9.188,6.486c-5.25,-0 -8.493,-2.703 -8.493,-7.026l-5.095,-0Z" style="fill-rule:nonzero;"/><path d="M784.879,315.098l0,-11.195l7.257,-7.489l11.89,18.684l6.177,-0l-14.438,-22.467l14.361,-14.901l-6.717,-0l-18.53,19.301l0,-38.217l-5.327,-0l-0,56.284l5.327,-0Z" style="fill-rule:nonzero;"/><path d="M842.784,277.73l0,19.842c0,8.879 -4.246,13.665 -11.426,13.665c-5.945,0 -9.883,-3.165 -9.883,-12.044l0,-21.541l-5.404,0l-0,23.24c-0,9.11 4.787,15.132 13.588,15.132c5.868,0 11.041,-2.934 13.125,-7.257l0.695,6.331l4.633,-0l-0,-37.368l-5.328,-0Z" style="fill-rule:nonzero;"/><path d="M878.763,277.266c-1.313,-0.309 -2.316,-0.386 -3.474,-0.386c-5.25,0 -9.188,2.625 -10.655,6.64l-0.386,-5.79l-5.018,-0l-0,37.368l5.327,-0l-0,-21.309c-0,-7.103 4.401,-11.736 11.272,-11.736l2.934,0l0,-4.787Z" style="fill-rule:nonzero;"/><path d="M897.447,315.098l5.327,-0l15.519,-37.368l-5.482,-0l-9.805,24.088c-1.081,2.702 -2.085,5.173 -2.779,7.721c-0.695,-2.471 -1.699,-5.019 -2.703,-7.721l-9.651,-24.088l-5.713,-0l15.287,37.368Z" style="fill-rule:nonzero;"/><path d="M938.599,316.024c8.801,0 14.592,-4.246 16.599,-12.121l-5.096,-0c-1.389,4.941 -5.327,7.566 -11.426,7.566c-8.03,0 -12.817,-5.25 -13.203,-14.36l29.725,-0l0,-2.626c0,-10.577 -6.871,-17.757 -16.985,-17.757c-10.655,-0 -17.912,8.029 -17.912,19.688c-0,11.735 7.334,19.61 18.298,19.61Zm-0.386,-34.743c7.025,0 11.658,4.787 11.658,11.967l-24.243,0c0.926,-7.335 5.559,-11.967 12.585,-11.967Z" style="fill-rule:nonzero;"/><path d="M1007.31,294.792c10.577,0 17.372,-7.566 17.372,-17.603c-0,-10.423 -6.717,-17.372 -17.372,-17.372l-21.078,0l0,55.281l5.559,-0l0,-20.306l15.519,0Zm-0.772,-29.956c7.644,-0 12.353,4.632 12.353,12.276c0,7.566 -4.632,12.662 -12.662,12.662l-14.438,-0l0,-24.938l14.747,-0Z" style="fill-rule:nonzero;"/><path d="M1048.85,315.098l5.79,-0l21,-55.281l-5.713,0l-14.669,38.372c-0.85,2.085 -2.239,5.945 -3.397,9.96c-1.236,-3.86 -2.317,-6.871 -3.475,-9.882l-14.746,-38.45l-5.945,0l21.155,55.281Z" style="fill-rule:nonzero;"/><circle cx="399.557" cy="192.463" r="30.025" style="fill:#4b5563;"/><circle cx="399.557" cy="287.419" r="30.025" style="fill:#facc15;"/></g><path d="M126.037,1037.79l-0,-5.747l-30.969,-0l14.326,-12.525c12.268,-10.723 16.3,-16.642 16.3,-25.564c-0,-11.238 -7.721,-18.701 -19.302,-18.701c-12.096,-0 -20.246,8.492 -20.589,21.36l6.177,0c0.257,-9.522 5.833,-15.699 14.326,-15.699c8.15,0 13.125,5.062 13.125,13.383c0,7.292 -2.916,11.581 -14.24,21.446l-19.645,17.158l-0,4.889l40.491,0Z" style="fill-rule:nonzero;"/><path d="M154.26,1038.82c12.868,-0 21.618,-8.75 21.618,-21.103c0,-11.496 -7.892,-20.675 -20.674,-20.675c-4.804,0 -9.265,1.544 -12.696,4.289l4.632,-19.301l25.221,-0l0,-5.662l-29.682,-0l-7.377,30.883l4.889,1.544c3.346,-3.689 8.493,-6.263 14.155,-6.263c9.694,0 15.27,6.778 15.27,15.356c-0,9.093 -6.005,15.27 -15.27,15.27c-8.75,0 -14.155,-5.319 -14.155,-14.155l-6.176,0c-0,12.096 7.892,19.817 20.245,19.817Z" style="fill-rule:nonzero;"/><path d="M184.114,1007.08c-0,19.13 9.179,31.827 24.62,31.827c15.356,-0 24.535,-12.697 24.535,-31.827c0,-19.044 -9.351,-31.912 -24.535,-31.912c-15.27,-0 -24.62,12.868 -24.62,31.912Zm6.091,0c-0,-16.042 6.777,-26.25 18.529,-26.25c11.753,-0 18.53,10.208 18.53,26.25c0,15.956 -6.777,26.251 -18.53,26.251c-11.752,-0 -18.529,-10.295 -18.529,-26.251Z" style="fill-rule:nonzero;"/><path d="M242.705,1007.08c0,19.13 9.18,31.827 24.621,31.827c15.356,-0 24.535,-12.697 24.535,-31.827c-0,-19.044 -9.351,-31.912 -24.535,-31.912c-15.27,-0 -24.621,12.868 -24.621,31.912Zm6.091,0c0,-16.042 6.777,-26.25 18.53,-26.25c11.753,-0 18.53,10.208 18.53,26.25c-0,15.956 -6.777,26.251 -18.53,26.251c-11.753,-0 -18.53,-10.295 -18.53,-26.251Z" style="fill-rule:nonzero;"/><path d="M117.716,732.632c10.98,0 16.985,5.233 16.985,13.64c0,8.922 -5.919,14.755 -15.098,14.755c-8.665,0 -14.155,-5.318 -14.155,-14.154l-6.091,-0c0,12.267 8.15,19.73 20.246,19.73c12.439,0 21.361,-7.978 21.361,-20.159c-0,-11.152 -8.236,-18.444 -19.731,-19.045l18.358,-18.272l-0,-4.976l-37.231,0l-0,5.491l29.424,-0l-18.958,18.701l-0,4.289l4.89,0Z" style="fill-rule:nonzero;"/><path d="M147.054,704.151l0,5.662l35.516,0l-24.278,55.761l6.348,0l24.192,-55.761l0,-5.662l-41.778,0Z" style="fill-rule:nonzero;"/><path d="M212.852,766.603c12.868,0 21.618,-8.75 21.618,-21.103c0,-11.495 -7.892,-20.674 -20.674,-20.674c-4.804,-0 -9.265,1.544 -12.697,4.289l4.633,-19.302l25.221,0l-0,-5.662l-29.682,0l-7.378,30.883l4.89,1.544c3.346,-3.688 8.493,-6.262 14.155,-6.262c9.694,0 15.27,6.777 15.27,15.356c-0,9.093 -6.005,15.27 -15.27,15.27c-8.75,-0 -14.155,-5.319 -14.155,-14.155l-6.176,-0c-0,12.096 7.892,19.816 20.245,19.816Z" style="fill-rule:nonzero;"/><path d="M242.705,734.863c0,19.13 9.18,31.826 24.621,31.826c15.356,0 24.535,-12.696 24.535,-31.826c-0,-19.045 -9.351,-31.913 -24.535,-31.913c-15.27,0 -24.621,12.868 -24.621,31.913Zm6.091,-0c0,-16.042 6.777,-26.251 18.53,-26.251c11.753,0 18.53,10.209 18.53,26.251c-0,15.956 -6.777,26.25 -18.53,26.25c-11.753,0 -18.53,-10.294 -18.53,-26.25Z" style="fill-rule:nonzero;"/><path d="M127.152,1253.88l0,55.846l5.919,0l0,-61.422l-18.444,-0l0,5.576l12.525,-0Z" style="fill-rule:nonzero;"/><path d="M184.628,1309.73l0,-5.747l-30.968,-0l14.326,-12.525c12.267,-10.723 16.299,-16.643 16.299,-25.564c0,-11.238 -7.72,-18.702 -19.301,-18.702c-12.096,0 -20.246,8.493 -20.589,21.361l6.177,0c0.257,-9.522 5.833,-15.699 14.326,-15.699c8.149,0 13.125,5.062 13.125,13.383c-0,7.292 -2.917,11.581 -14.24,21.446l-19.645,17.157l-0,4.89l40.49,0Z" style="fill-rule:nonzero;"/><path d="M212.852,1310.76c12.868,-0 21.618,-8.751 21.618,-21.104c0,-11.495 -7.892,-20.674 -20.674,-20.674c-4.804,-0 -9.265,1.544 -12.697,4.289l4.633,-19.302l25.221,0l-0,-5.661l-29.682,-0l-7.378,30.882l4.89,1.545c3.346,-3.689 8.493,-6.263 14.155,-6.263c9.694,0 15.27,6.777 15.27,15.356c-0,9.093 -6.005,15.27 -15.27,15.27c-8.75,-0 -14.155,-5.319 -14.155,-14.155l-6.176,0c-0,12.096 7.892,19.817 20.245,19.817Z" style="fill-rule:nonzero;"/><path d="M242.705,1279.02c0,19.13 9.18,31.826 24.621,31.826c15.356,0 24.535,-12.696 24.535,-31.826c-0,-19.045 -9.351,-31.912 -24.535,-31.912c-15.27,-0 -24.621,12.867 -24.621,31.912Zm6.091,-0c0,-16.042 6.777,-26.251 18.53,-26.251c11.753,0 18.53,10.209 18.53,26.251c-0,15.956 -6.777,26.25 -18.53,26.25c-11.753,0 -18.53,-10.294 -18.53,-26.25Z" style="fill-rule:nonzero;"/><path d="M199.212,1637.38c0,19.13 9.179,31.826 24.621,31.826c15.355,0 24.534,-12.696 24.534,-31.826c0,-19.045 -9.35,-31.913 -24.534,-31.913c-15.27,0 -24.621,12.868 -24.621,31.913Zm6.091,-0c-0,-16.042 6.777,-26.251 18.53,-26.251c11.752,0 18.529,10.209 18.529,26.251c0,15.956 -6.777,26.25 -18.529,26.25c-11.753,0 -18.53,-10.294 -18.53,-26.25Z" style="fill-rule:nonzero;"/><path d="M257.804,1637.38c-0,19.13 9.179,31.826 24.62,31.826c15.356,0 24.535,-12.696 24.535,-31.826c0,-19.045 -9.351,-31.913 -24.535,-31.913c-15.27,0 -24.62,12.868 -24.62,31.913Zm6.091,-0c-0,-16.042 6.777,-26.251 18.529,-26.251c11.753,0 18.53,10.209 18.53,26.251c0,15.956 -6.777,26.25 -18.53,26.25c-11.752,0 -18.529,-10.294 -18.529,-26.25Z" style="fill-rule:nonzero;"/><path d="M323.773,1636.18c2.917,-0 5.405,-2.488 5.405,-5.319c-0,-2.917 -2.488,-5.319 -5.405,-5.319c-2.917,0 -5.404,2.402 -5.404,5.319c-0,2.831 2.487,5.319 5.404,5.319Zm0,32.856c2.917,-0 5.405,-2.402 5.405,-5.233c-0,-2.917 -2.488,-5.405 -5.405,-5.405c-2.917,0 -5.404,2.488 -5.404,5.405c-0,2.831 2.487,5.233 5.404,5.233Z" style="fill-rule:nonzero;"/><path d="M340.587,1637.38c0,19.13 9.179,31.826 24.621,31.826c15.355,0 24.534,-12.696 24.534,-31.826c0,-19.045 -9.35,-31.913 -24.534,-31.913c-15.27,0 -24.621,12.868 -24.621,31.913Zm6.091,-0c-0,-16.042 6.777,-26.251 18.53,-26.251c11.752,0 18.529,10.209 18.529,26.251c0,15.956 -6.777,26.25 -18.529,26.25c-11.753,0 -18.53,-10.294 -18.53,-26.25Z" style="fill-rule:nonzero;"/><path d="M399.179,1637.38c-0,19.13 9.179,31.826 24.62,31.826c15.356,0 24.535,-12.696 24.535,-31.826c0,-19.045 -9.351,-31.913 -24.535,-31.913c-15.27,0 -24.62,12.868 -24.62,31.913Zm6.091,-0c-0,-16.042 6.777,-26.251 18.529,-26.251c11.753,0 18.53,10.209 18.53,26.251c0,15.956 -6.777,26.25 -18.53,26.25c-11.752,0 -18.529,-10.294 -18.529,-26.25Z" style="fill-rule:nonzero;"/><path d="M773.972,1637.38c-0,19.13 9.179,31.826 24.62,31.826c15.356,0 24.535,-12.696 24.535,-31.826c0,-19.045 -9.35,-31.913 -24.535,-31.913c-15.269,0 -24.62,12.868 -24.62,31.913Zm6.091,-0c-0,-16.042 6.777,-26.251 18.529,-26.251c11.753,0 18.53,10.209 18.53,26.251c0,15.956 -6.777,26.25 -18.53,26.25c-11.752,0 -18.529,-10.294 -18.529,-26.25Z" style="fill-rule:nonzero;"/><path d="M848.863,1635.15c10.981,0 16.986,5.233 16.986,13.64c-0,8.922 -5.92,14.755 -15.099,14.755c-8.664,0 -14.154,-5.318 -14.154,-14.154l-6.091,-0c-0,12.267 8.149,19.73 20.245,19.73c12.439,0 21.361,-7.978 21.361,-20.159c-0,-11.152 -8.236,-18.444 -19.731,-19.045l18.358,-18.272l0,-4.976l-37.231,0l0,5.491l29.425,-0l-18.959,18.701l0,4.289l4.89,0Z" style="fill-rule:nonzero;"/><path d="M887.981,1636.18c2.917,-0 5.405,-2.488 5.405,-5.319c-0,-2.917 -2.488,-5.319 -5.405,-5.319c-2.916,0 -5.404,2.402 -5.404,5.319c-0,2.831 2.488,5.319 5.404,5.319Zm0,32.856c2.917,-0 5.405,-2.402 5.405,-5.233c-0,-2.917 -2.488,-5.405 -5.405,-5.405c-2.916,0 -5.404,2.488 -5.404,5.405c-0,2.831 2.488,5.233 5.404,5.233Z" style="fill-rule:nonzero;"/><path d="M904.795,1637.38c0,19.13 9.179,31.826 24.621,31.826c15.356,0 24.535,-12.696 24.535,-31.826c-0,-19.045 -9.351,-31.913 -24.535,-31.913c-15.27,0 -24.621,12.868 -24.621,31.913Zm6.091,-0c0,-16.042 6.777,-26.251 18.53,-26.251c11.753,0 18.53,10.209 18.53,26.251c-0,15.956 -6.777,26.25 -18.53,26.25c-11.753,0 -18.53,-10.294 -18.53,-26.25Z" style="fill-rule:nonzero;"/><path d="M963.387,1637.38c0,19.13 9.179,31.826 24.621,31.826c15.355,0 24.534,-12.696 24.534,-31.826c0,-19.045 -9.35,-31.913 -24.534,-31.913c-15.27,0 -24.621,12.868 -24.621,31.913Zm6.091,-0c-0,-16.042 6.777,-26.251 18.53,-26.251c11.752,0 18.529,10.209 18.529,26.251c0,15.956 -6.777,26.25 -18.529,26.25c-11.753,0 -18.53,-10.294 -18.53,-26.25Z" style="fill-rule:nonzero;"/><path d="M1341.53,1637.38c0,19.13 9.179,31.826 24.621,31.826c15.355,0 24.534,-12.696 24.534,-31.826c0,-19.045 -9.35,-31.913 -24.534,-31.913c-15.27,0 -24.621,12.868 -24.621,31.913Zm6.091,-0c-0,-16.042 6.777,-26.251 18.53,-26.251c11.752,0 18.529,10.209 18.529,26.251c0,15.956 -6.777,26.25 -18.529,26.25c-11.753,0 -18.53,-10.294 -18.53,-26.25Z" style="fill-rule:nonzero;"/><path d="M1407.07,1627.35c-5.747,7.892 -7.72,12.868 -7.72,19.988c-0,12.267 9.694,21.789 22.047,21.789c12.267,0 21.789,-9.179 21.789,-21.789c0,-12.01 -8.493,-21.361 -21.275,-21.361c-2.831,0 -5.49,0.601 -8.407,2.059l16.128,-21.361l-7.206,0l-15.356,20.675Zm-1.458,20.074c0,-9.351 6.434,-16.042 15.785,-16.042c9.093,-0 15.613,6.691 15.613,16.042c-0,9.35 -6.52,16.127 -15.613,16.127c-9.351,0 -15.785,-6.777 -15.785,-16.127Z" style="fill-rule:nonzero;"/><path d="M1459.23,1636.18c2.917,-0 5.405,-2.488 5.405,-5.319c-0,-2.917 -2.488,-5.319 -5.405,-5.319c-2.916,0 -5.404,2.402 -5.404,5.319c-0,2.831 2.488,5.319 5.404,5.319Zm0,32.856c2.917,-0 5.405,-2.402 5.405,-5.233c-0,-2.917 -2.488,-5.405 -5.405,-5.405c-2.916,0 -5.404,2.488 -5.404,5.405c-0,2.831 2.488,5.233 5.404,5.233Z" style="fill-rule:nonzero;"/><path d="M1476.04,1637.38c0,19.13 9.179,31.826 24.621,31.826c15.355,0 24.535,-12.696 24.535,-31.826c-0,-19.045 -9.351,-31.913 -24.535,-31.913c-15.27,0 -24.621,12.868 -24.621,31.913Zm6.091,-0c0,-16.042 6.777,-26.251 18.53,-26.251c11.752,0 18.53,10.209 18.53,26.251c-0,15.956 -6.778,26.25 -18.53,26.25c-11.753,0 -18.53,-10.294 -18.53,-26.25Z" style="fill-rule:nonzero;"/><path d="M1534.63,1637.38c-0,19.13 9.179,31.826 24.62,31.826c15.356,0 24.535,-12.696 24.535,-31.826c0,-19.045 -9.35,-31.913 -24.535,-31.913c-15.269,0 -24.62,12.868 -24.62,31.913Zm6.091,-0c-0,-16.042 6.777,-26.251 18.529,-26.251c11.753,0 18.53,10.209 18.53,26.251c0,15.956 -6.777,26.25 -18.53,26.25c-11.752,0 -18.529,-10.294 -18.529,-26.25Z" style="fill-rule:nonzero;"/><path d="M1908.59,1637.38c0,19.13 9.179,31.826 24.621,31.826c15.356,0 24.535,-12.696 24.535,-31.826c-0,-19.045 -9.351,-31.913 -24.535,-31.913c-15.27,0 -24.621,12.868 -24.621,31.913Zm6.091,-0c0,-16.042 6.777,-26.251 18.53,-26.251c11.753,0 18.53,10.209 18.53,26.251c-0,15.956 -6.777,26.25 -18.53,26.25c-11.753,0 -18.53,-10.294 -18.53,-26.25Z" style="fill-rule:nonzero;"/><path d="M2002.53,1647.34c5.833,-7.807 7.721,-12.782 7.721,-19.902c-0,-12.354 -9.694,-21.876 -22.047,-21.876c-12.268,0 -21.79,9.265 -21.79,21.79c-0,12.01 8.493,21.36 21.275,21.36c2.917,0 5.576,-0.514 8.407,-2.058l-16.128,21.446l7.206,0l15.356,-20.76Zm1.544,-19.988c-0,9.265 -6.52,15.956 -15.87,15.956c-9.094,-0 -15.613,-6.691 -15.613,-15.956c-0,-9.351 6.519,-16.128 15.613,-16.128c9.35,0 15.87,6.777 15.87,16.128Z" style="fill-rule:nonzero;"/><path d="M2026.29,1636.18c2.917,-0 5.405,-2.488 5.405,-5.319c-0,-2.917 -2.488,-5.319 -5.405,-5.319c-2.916,0 -5.404,2.402 -5.404,5.319c-0,2.831 2.488,5.319 5.404,5.319Zm0,32.856c2.917,-0 5.405,-2.402 5.405,-5.233c-0,-2.917 -2.488,-5.405 -5.405,-5.405c-2.916,0 -5.404,2.488 -5.404,5.405c-0,2.831 2.488,5.233 5.404,5.233Z" style="fill-rule:nonzero;"/><path d="M2043.1,1637.38c0,19.13 9.18,31.826 24.621,31.826c15.356,0 24.535,-12.696 24.535,-31.826c-0,-19.045 -9.351,-31.913 -24.535,-31.913c-15.27,0 -24.621,12.868 -24.621,31.913Zm6.091,-0c0,-16.042 6.777,-26.251 18.53,-26.251c11.753,0 18.53,10.209 18.53,26.251c-0,15.956 -6.777,26.25 -18.53,26.25c-11.753,0 -18.53,-10.294 -18.53,-26.25Z" style="fill-rule:nonzero;"/><path d="M2101.7,1637.38c0,19.13 9.179,31.826 24.621,31.826c15.355,0 24.534,-12.696 24.534,-31.826c0,-19.045 -9.35,-31.913 -24.534,-31.913c-15.27,0 -24.621,12.868 -24.621,31.913Zm6.091,-0c-0,-16.042 6.777,-26.251 18.53,-26.251c11.752,0 18.529,10.209 18.529,26.251c0,15.956 -6.777,26.25 -18.529,26.25c-11.753,0 -18.53,-10.294 -18.53,-26.25Z" style="fill-rule:nonzero;"/><path d="M2486.54,1612.25l-0,55.847l5.919,0l0,-61.423l-18.444,0l0,5.576l12.525,0Z" style="fill-rule:nonzero;"/><path d="M2544.02,1668.1l0,-5.748l-30.968,0l14.326,-12.524c12.267,-10.724 16.299,-16.643 16.299,-25.564c0,-11.238 -7.72,-18.702 -19.302,-18.702c-12.095,0 -20.245,8.493 -20.588,21.361l6.176,-0c0.258,-9.522 5.834,-15.699 14.327,-15.699c8.149,0 13.125,5.061 13.125,13.383c-0,7.291 -2.917,11.581 -14.241,21.446l-19.644,17.157l-0,4.89l40.49,0Z" style="fill-rule:nonzero;"/><path d="M2559.98,1636.18c2.916,-0 5.404,-2.488 5.404,-5.319c0,-2.917 -2.488,-5.319 -5.404,-5.319c-2.917,0 -5.405,2.402 -5.405,5.319c0,2.831 2.488,5.319 5.405,5.319Zm-0,32.856c2.916,-0 5.404,-2.402 5.404,-5.233c0,-2.917 -2.488,-5.405 -5.404,-5.405c-2.917,0 -5.405,2.488 -5.405,5.405c0,2.831 2.488,5.233 5.405,5.233Z" style="fill-rule:nonzero;"/><path d="M2576.79,1637.38c-0,19.13 9.179,31.826 24.62,31.826c15.356,0 24.535,-12.696 24.535,-31.826c-0,-19.045 -9.351,-31.913 -24.535,-31.913c-15.27,0 -24.62,12.868 -24.62,31.913Zm6.09,-0c0,-16.042 6.777,-26.251 18.53,-26.251c11.753,0 18.53,10.209 18.53,26.251c-0,15.956 -6.777,26.25 -18.53,26.25c-11.753,0 -18.53,-10.294 -18.53,-26.25Z" style="fill-rule:nonzero;"/><path d="M2635.38,1637.38c0,19.13 9.179,31.826 24.621,31.826c15.356,0 24.535,-12.696 24.535,-31.826c-0,-19.045 -9.351,-31.913 -24.535,-31.913c-15.27,0 -24.621,12.868 -24.621,31.913Zm6.091,-0c0,-16.042 6.777,-26.251 18.53,-26.251c11.753,0 18.53,10.209 18.53,26.251c-0,15.956 -6.777,26.25 -18.53,26.25c-11.753,0 -18.53,-10.294 -18.53,-26.25Z" style="fill-rule:nonzero;"/><path d="M3053.19,1612.25l-0,55.847l5.919,0l0,-61.423l-18.444,0l0,5.576l12.525,0Z" style="fill-rule:nonzero;"/><path d="M3091.02,1669.12c12.868,0 21.618,-8.75 21.618,-21.103c0,-11.495 -7.892,-20.674 -20.674,-20.674c-4.804,-0 -9.265,1.544 -12.696,4.289l4.632,-19.302l25.221,0l0,-5.662l-29.682,0l-7.377,30.883l4.89,1.544c3.345,-3.688 8.492,-6.262 14.154,-6.262c9.694,0 15.27,6.777 15.27,15.356c0,9.093 -6.005,15.27 -15.27,15.27c-8.75,-0 -14.154,-5.319 -14.154,-14.155l-6.177,-0c-0,12.096 7.892,19.816 20.245,19.816Z" style="fill-rule:nonzero;"/><path d="M3128.25,1636.18c2.917,-0 5.405,-2.488 5.405,-5.319c-0,-2.917 -2.488,-5.319 -5.405,-5.319c-2.916,0 -5.404,2.402 -5.404,5.319c-0,2.831 2.488,5.319 5.404,5.319Zm0,32.856c2.917,-0 5.405,-2.402 5.405,-5.233c-0,-2.917 -2.488,-5.405 -5.405,-5.405c-2.916,0 -5.404,2.488 -5.404,5.405c-0,2.831 2.488,5.233 5.404,5.233Z" style="fill-rule:nonzero;"/><path d="M3145.06,1637.38c0,19.13 9.18,31.826 24.621,31.826c15.356,0 24.535,-12.696 24.535,-31.826c-0,-19.045 -9.351,-31.913 -24.535,-31.913c-15.27,0 -24.621,12.868 -24.621,31.913Zm6.091,-0c0,-16.042 6.777,-26.251 18.53,-26.251c11.753,0 18.53,10.209 18.53,26.251c-0,15.956 -6.777,26.25 -18.53,26.25c-11.753,0 -18.53,-10.294 -18.53,-26.25Z" style="fill-rule:nonzero;"/><path d="M3203.65,1637.38c0,19.13 9.179,31.826 24.621,31.826c15.355,0 24.534,-12.696 24.534,-31.826c0,-19.045 -9.35,-31.913 -24.534,-31.913c-15.27,0 -24.621,12.868 -24.621,31.913Zm6.091,-0c-0,-16.042 6.777,-26.251 18.53,-26.251c11.752,0 18.529,10.209 18.529,26.251c0,15.956 -6.777,26.25 -18.529,26.25c-11.753,0 -18.53,-10.294 -18.53,-26.25Z" style="fill-rule:nonzero;"/><path d="M3623.01,1612.25l-0,55.847l5.919,0l0,-61.423l-18.444,0l0,5.576l12.525,0Z" style="fill-rule:nonzero;"/><path d="M3640.34,1651.37c-0,10.551 8.836,17.757 21.875,17.757c13.039,0 21.875,-7.206 21.875,-17.671c0,-7.721 -4.718,-13.898 -11.838,-16.128c6.091,-2.316 9.522,-7.378 9.522,-13.812c0,-9.522 -7.806,-15.956 -19.473,-15.956c-11.753,0 -19.817,6.434 -19.817,15.871c0,6.348 3.517,11.409 9.694,13.897c-7.292,2.488 -11.838,8.493 -11.838,16.042Zm7.978,-29.768c-0,-6.434 5.49,-10.552 13.897,-10.552c8.321,0 13.726,4.118 13.726,10.724c-0,6.777 -5.405,11.152 -13.726,11.152c-8.407,-0 -13.897,-4.547 -13.897,-11.324Zm-1.888,29.253c0,-7.549 6.177,-12.439 15.699,-12.439c9.694,0 15.871,4.89 15.871,12.439c-0,7.635 -6.349,12.696 -15.699,12.696c-9.522,0 -15.871,-5.061 -15.871,-12.696Z" style="fill-rule:nonzero;"/><path d="M3700.56,1636.18c2.917,-0 5.405,-2.488 5.405,-5.319c-0,-2.917 -2.488,-5.319 -5.405,-5.319c-2.917,0 -5.404,2.402 -5.404,5.319c-0,2.831 2.487,5.319 5.404,5.319Zm0,32.856c2.917,-0 5.405,-2.402 5.405,-5.233c-0,-2.917 -2.488,-5.405 -5.405,-5.405c-2.917,0 -5.404,2.488 -5.404,5.405c-0,2.831 2.487,5.233 5.404,5.233Z" style="fill-rule:nonzero;"/><path d="M3717.38,1637.38c0,19.13 9.179,31.826 24.621,31.826c15.355,0 24.534,-12.696 24.534,-31.826c0,-19.045 -9.35,-31.913 -24.534,-31.913c-15.27,0 -24.621,12.868 -24.621,31.913Zm6.091,-0c0,-16.042 6.777,-26.251 18.53,-26.251c11.752,0 18.529,10.209 18.529,26.251c0,15.956 -6.777,26.25 -18.529,26.25c-11.753,0 -18.53,-10.294 -18.53,-26.25Z" style="fill-rule:nonzero;"/><path d="M3775.97,1637.38c-0,19.13 9.179,31.826 24.62,31.826c15.356,0 24.535,-12.696 24.535,-31.826c0,-19.045 -9.35,-31.913 -24.535,-31.913c-15.269,0 -24.62,12.868 -24.62,31.913Zm6.091,-0c-0,-16.042 6.777,-26.251 18.529,-26.251c11.753,0 18.53,10.209 18.53,26.251c0,15.956 -6.777,26.25 -18.53,26.25c-11.752,0 -18.529,-10.294 -18.529,-26.25Z" style="fill-rule:nonzero;"/><path d="M4217.37,1668.1l0,-5.748l-30.968,0l14.326,-12.524c12.267,-10.724 16.299,-16.643 16.299,-25.564c0,-11.238 -7.721,-18.702 -19.302,-18.702c-12.095,0 -20.245,8.493 -20.588,21.361l6.176,-0c0.258,-9.522 5.834,-15.699 14.327,-15.699c8.149,0 13.125,5.061 13.125,13.383c-0,7.291 -2.917,11.581 -14.241,21.446l-19.645,17.157l0,4.89l40.491,0Z" style="fill-rule:nonzero;"/><path d="M4236.93,1612.25l-0,55.847l5.919,0l-0,-61.423l-18.444,0l-0,5.576l12.525,0Z" style="fill-rule:nonzero;"/><path d="M4262.15,1636.18c2.916,-0 5.404,-2.488 5.404,-5.319c0,-2.917 -2.488,-5.319 -5.404,-5.319c-2.917,0 -5.405,2.402 -5.405,5.319c0,2.831 2.488,5.319 5.405,5.319Zm-0,32.856c2.916,-0 5.404,-2.402 5.404,-5.233c0,-2.917 -2.488,-5.405 -5.404,-5.405c-2.917,0 -5.405,2.488 -5.405,5.405c0,2.831 2.488,5.233 5.405,5.233Z" style="fill-rule:nonzero;"/><path d="M4278.97,1637.38c-0,19.13 9.179,31.826 24.62,31.826c15.356,0 24.535,-12.696 24.535,-31.826c-0,-19.045 -9.351,-31.913 -24.535,-31.913c-15.27,0 -24.62,12.868 -24.62,31.913Zm6.09,-0c0,-16.042 6.777,-26.251 18.53,-26.251c11.753,0 18.53,10.209 18.53,26.251c-0,15.956 -6.777,26.25 -18.53,26.25c-11.753,0 -18.53,-10.294 -18.53,-26.25Z" style="fill-rule:nonzero;"/><path d="M4337.56,1637.38c0,19.13 9.179,31.826 24.621,31.826c15.355,0 24.535,-12.696 24.535,-31.826c-0,-19.045 -9.351,-31.913 -24.535,-31.913c-15.27,0 -24.621,12.868 -24.621,31.913Zm6.091,-0c0,-16.042 6.777,-26.251 18.53,-26.251c11.752,0 18.53,10.209 18.53,26.251c-0,15.956 -6.778,26.25 -18.53,26.25c-11.753,0 -18.53,-10.294 -18.53,-26.25Z" style="fill-rule:nonzero;"/><path d="M4787.31,1668.1l0,-5.748l-30.968,0l14.326,-12.524c12.267,-10.724 16.299,-16.643 16.299,-25.564c0,-11.238 -7.72,-18.702 -19.302,-18.702c-12.095,0 -20.245,8.493 -20.588,21.361l6.176,-0c0.258,-9.522 5.834,-15.699 14.327,-15.699c8.149,0 13.125,5.061 13.125,13.383c-0,7.291 -2.917,11.581 -14.241,21.446l-19.644,17.157l-0,4.89l40.49,0Z" style="fill-rule:nonzero;"/><path d="M4837.67,1655.06l-0,-5.491l-7.206,0l-0,-42.893l-8.236,0l-30.025,42.893l0,5.491l32.256,-0l-0,13.039l6.005,0l-0,-13.039l7.206,-0Zm-38.776,-5.491l25.565,-36.544l-0,36.544l-25.565,0Z" style="fill-rule:nonzero;"/><path d="M4854.65,1636.18c2.917,-0 5.405,-2.488 5.405,-5.319c-0,-2.917 -2.488,-5.319 -5.405,-5.319c-2.916,0 -5.404,2.402 -5.404,5.319c-0,2.831 2.488,5.319 5.404,5.319Zm0,32.856c2.917,-0 5.405,-2.402 5.405,-5.233c-0,-2.917 -2.488,-5.405 -5.405,-5.405c-2.916,0 -5.404,2.488 -5.404,5.405c-0,2.831 2.488,5.233 5.404,5.233Z" style="fill-rule:nonzero;"/><path d="M4871.47,1637.38c0,19.13 9.179,31.826 24.621,31.826c15.355,0 24.535,-12.696 24.535,-31.826c-0,-19.045 -9.351,-31.913 -24.535,-31.913c-15.27,0 -24.621,12.868 -24.621,31.913Zm6.091,-0c0,-16.042 6.777,-26.251 18.53,-26.251c11.752,0 18.53,10.209 18.53,26.251c-0,15.956 -6.778,26.25 -18.53,26.25c-11.753,0 -18.53,-10.294 -18.53,-26.25Z" style="fill-rule:nonzero;"/><path d="M4930.06,1637.38c0,19.13 9.179,31.826 24.621,31.826c15.355,0 24.534,-12.696 24.534,-31.826c0,-19.045 -9.35,-31.913 -24.534,-31.913c-15.27,0 -24.621,12.868 -24.621,31.913Zm6.091,-0c-0,-16.042 6.777,-26.251 18.53,-26.251c11.752,0 18.529,10.209 18.529,26.251c0,15.956 -6.777,26.25 -18.529,26.25c-11.753,0 -18.53,-10.294 -18.53,-26.25Z" style="fill-rule:nonzero;"/><path d="M292.093,317.978l0,-8.235l-49.069,-15.184l49.069,-15.013l0,-8.063l-62.023,-18.702l0,8.579l38.003,11.409c2.745,0.858 5.919,1.716 11.152,2.745c-4.632,0.944 -7.892,1.802 -11.238,2.831l-37.917,11.667l0,9.094l37.917,11.752c3.26,0.944 6.263,1.887 11.238,2.917c-4.718,0.858 -7.978,1.716 -11.238,2.573l-37.917,11.324l0,8.75l62.023,-18.444Z" style="fill-rule:nonzero;"/><path d="M293.123,239.313c-0,-6.777 -3.003,-12.525 -7.807,-14.67l6.777,-0.857l0,-6.863l-26.336,-0c-11.324,-0 -16.814,7.034 -16.814,17.414c-0,10.809 5.748,18.015 14.498,18.015l-0,-7.034c-5.062,-0 -8.064,-3.861 -8.064,-10.638c-0,-5.661 2.488,-9.865 9.522,-9.865l1.201,0l1.03,13.211c0.772,9.865 5.576,15.613 13.296,15.613c7.635,0 12.697,-5.319 12.697,-14.326Zm-6.263,-2.316c0,5.233 -2.23,8.492 -6.691,8.492c-4.118,0 -6.863,-2.916 -7.549,-10.037l-0.858,-10.723l2.23,0c7.893,0 12.868,4.633 12.868,12.268Z" style="fill-rule:nonzero;"/><path d="M292.093,194.618l-35.172,0l0,-8.235l-6.777,-0l-0,8.235l-13.125,0l-0,8.064l13.125,0l-0,8.236l6.777,-0l0,-8.236l35.172,0l0,-8.064Z" style="fill-rule:nonzero;"/><path d="M292.093,166.566l-35.172,0l0,-8.235l-6.777,0l-0,8.235l-13.125,0l-0,8.064l13.125,0l-0,8.236l6.777,-0l0,-8.236l35.172,0l0,-8.064Z" style="fill-rule:nonzero;"/><path d="M1984.26,1056.19c59.573,-138.207 187.783,-288.56 230.913,-337.038c9.278,-10.299 19.244,-19.958 29.828,-28.909c27.612,-23.422 86.943,-73.601 129.268,-109.398c31.484,-26.627 67.5,-47.375 106.328,-61.253c41.174,-14.716 94.475,-33.767 127.035,-45.404c19.577,-6.997 39.774,-12.126 60.318,-15.317c30.366,-4.716 77.247,-11.998 113.106,-17.568c33.684,-5.232 67.962,-5.395 101.694,-0.485c37.067,5.396 87.104,12.681 124.381,18.107c34.35,5.001 67.79,14.968 99.272,29.59c28.996,13.467 65.515,30.428 92.265,42.852c24.319,11.295 47.319,25.237 68.584,41.572c31.149,23.928 78.777,60.516 113.743,87.377c29.883,22.955 56.627,49.729 79.55,79.637c35.464,46.27 86.125,112.368 90.727,118.373c0.226,0.294 0.45,0.588 0.674,0.882c5.681,7.462 81.751,107.372 106.428,139.784c5.113,6.714 9.962,13.624 14.539,20.714c25.177,39.006 112.094,173.657 133.979,207.563c3.352,5.193 7.021,10.175 10.986,14.917c27.145,32.468 138.435,165.579 151.516,181.224c0.838,1.002 1.7,1.984 2.586,2.944c13.045,14.136 117.699,127.549 117.699,127.549l-2566.61,16.661c0,-0 372.937,-309.632 461.189,-514.374Z" style="fill:#facc15;"/><path d="M334.299,1562.24l0,-169.293c0,-0 9.623,4.365 19.075,8.652c4.624,2.098 9.919,2.141 14.577,0.118c4.657,-2.022 8.242,-5.92 9.866,-10.731c9.434,-27.929 27.025,-80.012 36.335,-107.576c0.907,-2.686 3.418,-4.503 6.253,-4.526c2.836,-0.022 5.375,1.754 6.325,4.426c8.066,22.684 21.967,61.78 31.327,88.103c6.383,17.95 16.813,34.19 30.481,47.46c14.498,14.077 33.314,32.345 45.24,43.924c7.54,7.321 17.246,12.006 27.669,13.355c39.828,5.157 142.461,18.447 177.227,22.949c7.803,1.01 15.661,1.543 23.529,1.594c92.185,0.599 694.99,4.518 780.46,5.073c6.664,0.043 13.283,-1.085 19.555,-3.332c13.168,-4.718 37.357,-13.386 54.991,-19.705c13.191,-4.727 22.785,-16.23 25.067,-30.056c6.432,-38.979 19.281,-116.85 22.235,-134.751c0.41,-2.485 0.754,-4.981 1.031,-7.484c2.488,-22.463 15.411,-139.159 18.993,-171.499c0.61,-5.511 2.076,-10.894 4.345,-15.953c6.341,-14.141 19.985,-44.569 27.891,-62.198c3.928,-8.759 10.117,-16.315 17.933,-21.89c15.744,-11.23 42.822,-30.546 54.503,-38.879c3.726,-2.657 7.904,-4.614 12.33,-5.775c8.826,-2.315 24.622,-6.457 36.507,-9.574c9.497,-2.49 19.58,0.707 25.906,8.215c11.295,13.405 27.947,33.167 29.201,34.654c0.05,0.06 0.1,0.12 0.15,0.179c1.244,1.499 17.83,21.462 31.724,38.188c4.657,5.605 11.604,8.798 18.891,8.681c7.286,-0.117 14.127,-3.53 18.603,-9.282c11.644,-14.967 26.402,-33.936 36.731,-47.211c2.675,-3.439 6.951,-5.233 11.278,-4.732c4.328,0.5 8.082,3.222 9.902,7.181c6.562,14.272 15.036,32.703 18.382,39.981c0.966,2.099 1.749,4.277 2.343,6.511c5.116,19.256 30.638,115.326 34.318,129.177c0.295,1.11 0.617,2.212 0.964,3.307c4.316,13.582 33.981,106.952 35.348,111.254c0.032,0.102 0.065,0.205 0.099,0.307c0.957,2.911 15.341,46.646 23.642,71.886c3.645,11.082 12.353,19.764 23.445,23.376c8.157,2.656 17.264,5.621 22.897,7.455c3.601,1.173 7.364,1.77 11.151,1.77c11.861,0 38.829,0 48.297,0c2.233,0 4.459,-0.254 6.635,-0.757c12.254,-2.831 55.508,-12.827 71.391,-16.497c3.847,-0.889 7.872,-0.593 11.547,0.85c10.142,3.981 30.408,11.937 30.408,11.937l27.094,32.109l19.906,-34.782c-0,0 30.924,3.783 47.861,5.854c6.909,0.845 13.871,-1.076 19.368,-5.345c9.799,-7.611 24.491,-19.022 24.491,-19.022c0,0 22.703,19.043 33.739,28.3c3.44,2.886 8.421,3.003 11.993,0.282c9.31,-7.092 27.094,-20.639 37.803,-28.796c5.595,-4.263 9.044,-10.761 9.438,-17.784c2.065,-36.849 8.635,-154.045 9.61,-171.443c0.081,-1.445 0.212,-2.887 0.392,-4.322c2.283,-18.226 18.32,-146.23 19.798,-158.032c0.073,-0.581 0.16,-1.16 0.262,-1.737c2.135,-12.13 26.05,-147.977 28.267,-160.571c0.11,-0.623 0.238,-1.242 0.386,-1.857c2.102,-8.761 18.615,-77.589 25.559,-106.535c0.461,-1.92 2.08,-3.343 4.044,-3.553c1.963,-0.209 3.847,0.839 4.702,2.619c9.193,19.117 26.772,55.674 31.523,65.553c0.802,1.669 1.404,3.428 1.793,5.24c5.138,23.955 42.486,198.091 46.408,216.377c0.221,1.035 0.406,2.077 0.553,3.125c2.327,16.611 22.372,159.69 25.323,180.756c0.241,1.722 0.58,3.43 1.015,5.114c3.022,11.694 15.753,60.956 21.739,84.119c2.009,7.775 6.997,14.446 13.886,18.572c15.531,9.302 43.376,25.979 52.424,31.398c1.948,1.167 3.982,2.184 6.085,3.042c10.603,4.328 45.194,18.448 61.822,25.235c5.883,2.402 12.407,2.732 18.502,0.937c23.709,-6.982 83.996,-24.736 83.996,-24.736l83.172,36.91c-0,-0 10.17,7.475 18.681,13.73c7.274,5.346 16.419,7.479 25.307,5.901c25.025,-4.441 75.715,-13.437 83.104,-14.748c0.604,-0.107 1.211,-0.201 1.82,-0.282c11.287,-1.496 123.718,-16.398 138.899,-18.41c1.128,-0.149 2.262,-0.241 3.4,-0.275c11.595,-0.344 78.346,-2.326 78.346,-2.326l58.24,-144.571l49.106,112.952c-0,0 21.778,2.241 41.872,4.309c18.985,1.954 36.475,-10.474 40.875,-29.045c17.061,-72.006 57.627,-243.208 71.036,-299.802c0.384,-1.62 1.872,-2.733 3.534,-2.643c1.662,0.089 3.022,1.355 3.23,3.006c8.003,63.57 33.985,269.95 43.246,343.515c0.81,6.433 4.483,12.155 9.994,15.571c5.511,3.416 12.271,4.158 18.392,2.021c2.483,-0.867 4.975,-1.737 7.384,-2.578c11.929,-4.166 20.948,-14.075 23.976,-26.343c30.341,-122.93 192.649,-780.541 192.649,-780.541c-0,0 98.421,682.779 117.826,817.397c1.98,13.737 12.353,24.762 25.944,27.575c11.732,2.428 25.219,5.22 33.113,6.854c4.47,0.925 9.056,1.153 13.595,0.676c18.341,-1.929 69.245,-7.283 99.931,-10.51c15.954,-1.678 31.141,-7.7 43.91,-17.41c26.757,-20.349 71.549,-54.412 71.549,-54.412c-0,0 53.684,44.955 59.279,49.64c0.313,0.262 0.63,0.519 0.951,0.772c4.665,3.671 42.136,33.159 64.7,50.917c11.25,8.853 24.243,15.23 38.128,18.714c21.18,5.314 52.912,13.274 68.841,17.27c6.554,1.645 13.282,2.5 20.039,2.549c36.665,0.263 159.88,1.147 159.88,1.147l0,53.491l-4530.73,0" style="fill:#4b5562;"/><rect x="325.888" y="122.455" width="8.411" height="1448.11"/><path d="M4865.04,1562.48l-0.015,-8.578l-4539.14,8.082l0.016,8.579l4539.14,-8.083Z"/></g></svg>