<?xml version="1.0" encoding="UTF-8" standalone="no"?><!DOCTYPE svg PUBLIC "-//W3C//DTD SVG 1.1//EN" "http://www.w3.org/Graphics/SVG/1.1/DTD/svg11.dtd"><svg width="100%" height="100%" viewBox="0 0 5000 1792" version="1.1" xmlns="http://www.w3.org/2000/svg" xmlns:xlink="http://www.w3.org/1999/xlink" xml:space="preserve" xmlns:serif="http://www.serif.com/" style="fill-rule:evenodd;clip-rule:evenodd;stroke-linejoin:round;stroke-miterlimit:2;"><g><g><path d="M459.619,179.275l-0,-45.616l30.232,45.616l5.435,0l-0,-54.801l-5.435,0l0,45.617l-30.156,-45.617l-5.587,0l0,54.801l5.511,0Z" style="fill-rule:nonzero;"/><path d="M523.069,180.194c8.725,-0 14.466,-4.21 16.456,-12.017l-5.052,0c-1.377,4.899 -5.281,7.501 -11.327,7.501c-7.96,0 -12.706,-5.204 -13.088,-14.236l29.467,0l-0,-2.602c-0,-10.486 -6.812,-17.604 -16.839,-17.604c-10.562,-0 -17.757,7.96 -17.757,19.517c0,11.634 7.272,19.441 18.14,19.441Zm-0.383,-34.442c6.965,-0 11.558,4.745 11.558,11.863l-24.033,0c0.918,-7.271 5.51,-11.863 12.475,-11.863Z" style="fill-rule:nonzero;"/><path d="M556.057,179.275l0,-32.605l7.424,0l0,-4.439l-7.424,-0l0,-11.71l-5.205,-0l0,11.71l-7.424,-0l0,4.439l7.424,0l0,32.605l5.205,0Z" style="fill-rule:nonzero;"/><path d="M595.78,179.275l0,-4.439l-21.507,0l21.507,-28.319l0,-4.286l-27.936,-0l-0,4.439l21.431,0l-21.431,28.396l-0,4.209l27.936,0Z" style="fill-rule:nonzero;"/><path d="M608.868,179.275l0.536,-7.577c2.602,5.741 7.731,8.496 13.93,8.496c10.792,-0 17.221,-8.266 17.221,-19.364c0,-11.175 -6.276,-19.594 -17.068,-19.594c-6.276,-0 -11.327,2.755 -13.93,8.19l0,-25.947l-5.281,0l0,55.796l4.592,0Zm0.766,-18.598c-0,-8.496 4.745,-14.696 12.858,-14.696c8.037,0 12.706,6.2 12.706,14.696c-0,8.572 -4.669,14.695 -12.706,14.695c-8.113,-0 -12.858,-6.123 -12.858,-14.695Z" style="fill-rule:nonzero;"/><path d="M664.512,180.194c8.725,-0 14.465,-4.21 16.455,-12.017l-5.051,0c-1.378,4.899 -5.281,7.501 -11.328,7.501c-7.96,0 -12.705,-5.204 -13.088,-14.236l29.467,0l0,-2.602c0,-10.486 -6.812,-17.604 -16.838,-17.604c-10.562,-0 -17.757,7.96 -17.757,19.517c0,11.634 7.271,19.441 18.14,19.441Zm-0.383,-34.442c6.965,-0 11.557,4.745 11.557,11.863l-24.033,0c0.919,-7.271 5.511,-11.863 12.476,-11.863Z" style="fill-rule:nonzero;"/><path d="M714.032,179.275l-0,-4.439l-21.507,0l21.507,-28.319l-0,-4.286l-27.937,-0l0,4.439l21.431,0l-21.431,28.396l0,4.209l27.937,0Z" style="fill-rule:nonzero;"/><path d="M748.551,142.231l-0,19.67c-0,8.802 -4.21,13.548 -11.328,13.548c-5.893,-0 -9.797,-3.139 -9.797,-11.94l0,-21.355l-5.358,0l0,23.038c0,9.032 4.746,15.002 13.471,15.002c5.817,-0 10.945,-2.909 13.012,-7.195l0.688,6.276l4.593,0l-0,-37.044l-5.281,-0Z" style="fill-rule:nonzero;"/><path d="M762.327,159.682c0,10.103 6.43,18.445 16.992,18.445c6.353,0 11.481,-3.061 14.006,-8.266l0,8.802c0,7.73 -5.051,12.859 -12.628,12.859c-6.659,-0 -11.251,-3.521 -12.4,-9.491l-5.281,-0c1.455,8.955 8.113,14.312 17.604,14.312c10.869,0 17.91,-7.194 17.91,-18.216l0,-35.896l-4.592,-0l-0.536,7.424c-2.373,-5.434 -7.271,-8.419 -13.7,-8.419c-10.869,-0 -17.375,8.343 -17.375,18.446Zm5.282,-0.077c-0,-7.501 4.592,-13.7 12.552,-13.7c8.113,-0 12.705,5.817 12.705,13.7c0,7.96 -4.745,13.777 -12.782,13.777c-7.807,-0 -12.475,-6.2 -12.475,-13.777Z" style="fill-rule:nonzero;"/><circle cx="390.677" cy="151.836" r="29.765" style="fill:#4b5563;"/></g><g><path d="M486.943,269.899l0,-5.052l-27.324,0l-0,-19.976l24.722,-0l-0,-4.975l-24.722,-0l-0,-19.747l27.247,-0l0,-5.052l-32.758,0l0,54.802l32.835,-0Z" style="fill-rule:nonzero;"/><path d="M499.572,222.675c2.143,-0 3.98,-1.761 3.98,-3.904c-0,-2.143 -1.837,-3.98 -3.98,-3.98c-2.143,0 -3.904,1.837 -3.904,3.98c0,2.143 1.761,3.904 3.904,3.904Zm-2.602,47.224l5.281,-0l-0,-37.045l-5.281,0l-0,37.045Z" style="fill-rule:nonzero;"/><path d="M518.553,269.899l0,-19.364c0,-8.343 4.286,-13.854 11.864,-13.854c6.123,0 10.026,3.062 10.026,11.711l0,21.507l5.281,-0l0,-22.656c0,-9.337 -4.209,-15.384 -14.389,-15.384c-5.358,0 -10.256,2.679 -12.705,7.425l-0.766,-6.43l-4.592,0l0,37.045l5.281,-0Z" style="fill-rule:nonzero;"/><path d="M552.689,259.49c0,6.888 5.205,11.327 13.548,11.327c8.419,0 14.083,-4.362 14.083,-11.021c-0,-5.358 -2.909,-8.343 -9.338,-9.95l-6.353,-1.608c-4.056,-0.995 -6.046,-2.985 -6.046,-5.816c-0,-3.98 2.908,-6.2 8.113,-6.2c4.975,-0 7.96,2.526 8.113,6.812l5.128,-0c-0.23,-6.889 -5.281,-11.175 -13.088,-11.175c-7.96,0 -13.394,4.133 -13.394,10.639c-0,5.052 3.138,8.419 9.567,10.027l6.353,1.607c4.362,1.071 5.893,2.832 5.893,5.893c0,3.98 -3.368,6.43 -9.108,6.43c-5.205,-0 -8.419,-2.679 -8.419,-6.965l-5.052,-0Z" style="fill-rule:nonzero;"/><path d="M589.045,286.048l5.281,0l0,-23.267c2.602,5.357 7.577,8.036 13.854,8.036c10.944,0 17.144,-8.419 17.144,-19.594c0,-11.174 -6.429,-19.364 -17.144,-19.364c-6.2,0 -11.405,2.756 -14.007,8.496l-0.536,-7.501l-4.592,0l-0,53.194Zm5.358,-34.671c-0,-8.573 4.745,-14.696 12.858,-14.696c8.037,0 12.705,6.123 12.705,14.696c0,8.495 -4.668,14.695 -12.705,14.695c-8.113,-0 -12.858,-6.2 -12.858,-14.695Z" style="fill-rule:nonzero;"/><path d="M649.281,270.817c8.725,0 14.465,-4.209 16.455,-12.016l-5.051,-0c-1.378,4.898 -5.281,7.5 -11.328,7.5c-7.96,0 -12.705,-5.204 -13.088,-14.236l29.467,0l0,-2.602c0,-10.486 -6.812,-17.604 -16.838,-17.604c-10.562,0 -17.757,7.96 -17.757,19.518c-0,11.633 7.271,19.44 18.14,19.44Zm-0.383,-34.442c6.965,0 11.557,4.745 11.557,11.863l-24.033,0c0.919,-7.271 5.511,-11.863 12.476,-11.863Z" style="fill-rule:nonzero;"/><path d="M676.758,222.675c2.143,-0 3.98,-1.761 3.98,-3.904c-0,-2.143 -1.837,-3.98 -3.98,-3.98c-2.143,0 -3.904,1.837 -3.904,3.98c0,2.143 1.761,3.904 3.904,3.904Zm-2.603,47.224l5.282,-0l-0,-37.045l-5.282,0l0,37.045Z" style="fill-rule:nonzero;"/><path d="M687.32,259.49c0,6.888 5.205,11.327 13.547,11.327c8.42,0 14.083,-4.362 14.083,-11.021c0,-5.358 -2.908,-8.343 -9.337,-9.95l-6.353,-1.608c-4.057,-0.995 -6.047,-2.985 -6.047,-5.816c0,-3.98 2.909,-6.2 8.114,-6.2c4.975,-0 7.96,2.526 8.113,6.812l5.128,-0c-0.23,-6.889 -5.281,-11.175 -13.088,-11.175c-7.96,0 -13.395,4.133 -13.395,10.639c0,5.052 3.138,8.419 9.568,10.027l6.352,1.607c4.363,1.071 5.894,2.832 5.894,5.893c-0,3.98 -3.368,6.43 -9.108,6.43c-5.205,-0 -8.419,-2.679 -8.419,-6.965l-5.052,-0Z" style="fill-rule:nonzero;"/><path d="M749.699,232.854l-0,19.671c-0,8.802 -4.21,13.547 -11.328,13.547c-5.893,-0 -9.797,-3.138 -9.797,-11.94l0,-21.354l-5.358,-0l0,23.038c0,9.031 4.746,15.001 13.471,15.001c5.817,0 10.945,-2.908 13.012,-7.194l0.689,6.276l4.592,-0l-0,-37.045l-5.281,0Z" style="fill-rule:nonzero;"/><path d="M771.282,269.899l0,-19.364c0,-8.343 4.287,-13.854 11.864,-13.854c6.123,0 10.026,3.062 10.026,11.711l0,21.507l5.282,-0l-0,-22.656c-0,-9.337 -4.21,-15.384 -14.39,-15.384c-5.357,0 -10.256,2.679 -12.705,7.425l-0.765,-6.43l-4.593,0l0,37.045l5.281,-0Z" style="fill-rule:nonzero;"/><path d="M806.49,250.305c0,10.103 6.429,18.446 16.992,18.446c6.352,-0 11.48,-3.062 14.006,-8.266l-0,8.801c-0,7.731 -5.052,12.859 -12.629,12.859c-6.659,-0 -11.251,-3.521 -12.399,-9.491l-5.281,0c1.454,8.955 8.113,14.313 17.604,14.313c10.868,-0 17.91,-7.195 17.91,-18.216l-0,-35.897l-4.593,0l-0.535,7.425c-2.373,-5.435 -7.272,-8.42 -13.701,-8.42c-10.868,0 -17.374,8.343 -17.374,18.446Zm5.281,-0.077c0,-7.5 4.592,-13.7 12.552,-13.7c8.113,0 12.706,5.817 12.706,13.7c-0,7.96 -4.746,13.777 -12.782,13.777c-7.807,0 -12.476,-6.199 -12.476,-13.777Z" style="fill-rule:nonzero;"/><path d="M872.772,229.334c0,7.5 4.516,12.399 13.088,14.465l9.261,2.296c5.894,1.378 8.649,4.593 8.649,9.491c0,6.276 -5.128,10.18 -13.164,10.18c-7.501,-0 -12.553,-3.751 -12.859,-9.491l-5.664,-0c0.689,8.955 7.884,14.542 18.523,14.542c11.327,0 18.675,-6.046 18.675,-15.537c-0,-7.424 -4.439,-12.323 -13.012,-14.389l-9.414,-2.296c-5.74,-1.455 -8.572,-4.516 -8.572,-9.338c-0,-6.2 5.051,-10.18 12.782,-10.18c6.888,0 11.098,3.521 11.71,9.721l5.587,-0c-0.842,-9.185 -7.347,-14.696 -17.221,-14.696c-11.021,0 -18.369,6.047 -18.369,15.232Z" style="fill-rule:nonzero;"/><path d="M915.404,251.377c-0,11.251 7.96,19.44 18.828,19.44c10.869,0 18.829,-8.189 18.829,-19.44c-0,-11.328 -7.96,-19.518 -18.829,-19.518c-10.868,0 -18.828,8.19 -18.828,19.518Zm5.358,-0.077c-0,-8.572 5.51,-14.695 13.47,-14.695c7.884,-0 13.471,6.123 13.471,14.695c0,8.725 -5.587,14.772 -13.471,14.772c-7.96,-0 -13.47,-6.047 -13.47,-14.772Z" style="fill-rule:nonzero;"/><rect x="961.71" y="214.102" width="5.281" height="55.796" style="fill-rule:nonzero;"/><path d="M988.881,270.817c6.276,0 11.327,-2.755 13.623,-7.424l0.689,6.506l4.439,-0l0,-23.957c0,-9.797 -6.276,-14.083 -14.848,-14.083c-9.108,0 -15.231,4.822 -15.231,12.323l4.822,-0c-0,-4.975 3.827,-7.883 10.256,-7.883c5.434,-0 9.797,2.296 9.797,9.567l-0,1.224l-12.246,0.995c-8.649,0.689 -13.854,4.975 -13.854,11.787c0,6.506 4.669,10.945 12.553,10.945Zm1.224,-4.286c-5.051,0 -8.419,-2.296 -8.419,-6.812c-0,-4.133 2.832,-7.194 9.797,-7.807l10.945,-0.842l-0,1.99c-0,8.037 -4.516,13.471 -12.323,13.471Z" style="fill-rule:nonzero;"/><path d="M1037.56,232.395c-1.301,-0.306 -2.296,-0.383 -3.444,-0.383c-5.205,0 -9.108,2.603 -10.563,6.583l-0.382,-5.741l-4.975,0l-0,37.045l5.281,-0l-0,-21.125c-0,-7.041 4.363,-11.634 11.174,-11.634l2.909,0l-0,-4.745Z" style="fill-rule:nonzero;"/><path d="M1041.46,259.49c0,6.888 5.205,11.327 13.548,11.327c8.419,0 14.083,-4.362 14.083,-11.021c-0,-5.358 -2.909,-8.343 -9.338,-9.95l-6.353,-1.608c-4.056,-0.995 -6.046,-2.985 -6.046,-5.816c-0,-3.98 2.908,-6.2 8.113,-6.2c4.975,-0 7.96,2.526 8.113,6.812l5.128,-0c-0.23,-6.889 -5.281,-11.175 -13.088,-11.175c-7.96,0 -13.394,4.133 -13.394,10.639c-0,5.052 3.138,8.419 9.567,10.027l6.353,1.607c4.362,1.071 5.893,2.832 5.893,5.893c0,3.98 -3.368,6.43 -9.108,6.43c-5.205,-0 -8.419,-2.679 -8.419,-6.965l-5.052,-0Z" style="fill-rule:nonzero;"/><path d="M1086.31,269.899l-0,-32.605l7.424,-0l-0,-4.44l-7.424,0l-0,-11.71l-5.205,-0l0,11.71l-7.424,0l-0,4.44l7.424,-0l0,32.605l5.205,-0Z" style="fill-rule:nonzero;"/><path d="M1119.99,232.395c-1.302,-0.306 -2.297,-0.383 -3.445,-0.383c-5.204,0 -9.108,2.603 -10.562,6.583l-0.383,-5.741l-4.975,0l0,37.045l5.281,-0l0,-21.125c0,-7.041 4.363,-11.634 11.175,-11.634l2.909,0l-0,-4.745Z" style="fill-rule:nonzero;"/><path d="M1122.98,251.377c-0,11.251 7.959,19.44 18.828,19.44c10.868,0 18.828,-8.189 18.828,-19.44c0,-11.328 -7.96,-19.518 -18.828,-19.518c-10.869,0 -18.828,8.19 -18.828,19.518Zm5.357,-0.077c0,-8.572 5.511,-14.695 13.471,-14.695c7.883,-0 13.471,6.123 13.471,14.695c-0,8.725 -5.588,14.772 -13.471,14.772c-7.96,-0 -13.471,-6.047 -13.471,-14.772Z" style="fill-rule:nonzero;"/><path d="M1174.33,269.899l-0,-22.962c-0,-5.663 3.75,-10.256 9.95,-10.256c5.587,0 9.184,3.674 9.184,9.95l0,23.268l5.205,-0l-0,-22.885c-0,-5.74 3.674,-10.409 9.873,-10.409c5.664,-0 9.185,3.75 9.185,10.103l-0,23.191l5.128,-0l-0,-24.263c-0,-8.572 -5.281,-13.777 -13.318,-13.777c-5.97,0 -10.486,3.062 -12.169,7.884c-1.761,-4.822 -6.123,-7.884 -11.94,-7.884c-5.205,0 -9.338,2.373 -11.175,6.276l-0.612,-5.281l-4.592,0l-0,37.045l5.281,-0Z" style="fill-rule:nonzero;"/><circle cx="390.677" cy="242.46" r="29.765" style="fill:#facc15;"/></g><g><path d="M486.943,364.563l0,-5.051l-27.324,-0l-0,-19.977l24.722,0l-0,-4.975l-24.722,0l-0,-19.747l27.247,0l0,-5.051l-32.758,-0l0,54.801l32.835,0Z" style="fill-rule:nonzero;"/><path d="M499.572,317.339c2.143,0 3.98,-1.76 3.98,-3.903c-0,-2.143 -1.837,-3.98 -3.98,-3.98c-2.143,-0 -3.904,1.837 -3.904,3.98c0,2.143 1.761,3.903 3.904,3.903Zm-2.602,47.224l5.281,0l-0,-37.044l-5.281,-0l-0,37.044Z" style="fill-rule:nonzero;"/><path d="M510.746,344.969c0,10.103 6.43,18.446 16.992,18.446c6.353,0 11.481,-3.061 14.006,-8.266l0,8.802c0,7.73 -5.051,12.858 -12.628,12.858c-6.659,0 -11.252,-3.52 -12.4,-9.49l-5.281,-0c1.454,8.955 8.113,14.312 17.604,14.312c10.868,0 17.91,-7.194 17.91,-18.216l-0,-35.896l-4.592,-0l-0.536,7.424c-2.373,-5.434 -7.271,-8.419 -13.7,-8.419c-10.869,-0 -17.375,8.342 -17.375,18.445Zm5.282,-0.076c-0,-7.501 4.592,-13.7 12.552,-13.7c8.113,-0 12.705,5.816 12.705,13.7c0,7.96 -4.745,13.777 -12.782,13.777c-7.807,-0 -12.475,-6.2 -12.475,-13.777Z" style="fill-rule:nonzero;"/><path d="M573.508,365.482c8.725,-0 14.465,-4.21 16.455,-12.017l-5.051,0c-1.378,4.899 -5.281,7.501 -11.328,7.501c-7.96,-0 -12.705,-5.205 -13.088,-14.236l29.467,-0l0,-2.602c0,-10.486 -6.811,-17.604 -16.838,-17.604c-10.562,-0 -17.757,7.96 -17.757,19.517c0,11.634 7.271,19.441 18.14,19.441Zm-0.383,-34.443c6.965,0 11.557,4.746 11.557,11.864l-24.033,-0c0.919,-7.271 5.511,-11.864 12.476,-11.864Z" style="fill-rule:nonzero;"/><path d="M603.664,364.563l-0,-19.364c-0,-8.343 4.286,-13.853 11.863,-13.853c6.123,-0 10.027,3.061 10.027,11.71l-0,21.507l5.281,0l-0,-22.655c-0,-9.338 -4.21,-15.384 -14.389,-15.384c-5.358,-0 -10.256,2.679 -12.706,7.424l-0.765,-6.429l-4.592,-0l-0,37.044l5.281,0Z" style="fill-rule:nonzero;"/><path d="M650.964,364.563l5.282,0l15.384,-37.044l-5.435,-0l-9.72,23.88c-1.071,2.678 -2.066,5.128 -2.755,7.653c-0.689,-2.449 -1.684,-4.975 -2.679,-7.653l-9.567,-23.88l-5.664,-0l15.154,37.044Z" style="fill-rule:nonzero;"/><path d="M691.759,365.482c8.726,-0 14.466,-4.21 16.456,-12.017l-5.052,0c-1.377,4.899 -5.281,7.501 -11.327,7.501c-7.96,-0 -12.706,-5.205 -13.088,-14.236l29.467,-0l-0,-2.602c-0,-10.486 -6.812,-17.604 -16.838,-17.604c-10.563,-0 -17.757,7.96 -17.757,19.517c-0,11.634 7.271,19.441 18.139,19.441Zm-0.382,-34.443c6.965,0 11.557,4.746 11.557,11.864l-24.033,-0c0.918,-7.271 5.511,-11.864 12.476,-11.864Z" style="fill-rule:nonzero;"/><path d="M735.998,327.059c-1.301,-0.306 -2.296,-0.382 -3.444,-0.382c-5.204,-0 -9.108,2.602 -10.562,6.582l-0.383,-5.74l-4.975,-0l0,37.044l5.281,0l0,-21.124c0,-7.042 4.363,-11.634 11.175,-11.634l2.908,-0l0,-4.746Z" style="fill-rule:nonzero;"/><path d="M747.632,364.563l0.536,-7.577c2.602,5.74 7.73,8.496 13.93,8.496c10.792,-0 17.221,-8.266 17.221,-19.364c-0,-11.175 -6.276,-19.594 -17.068,-19.594c-6.276,-0 -11.328,2.755 -13.93,8.189l-0,-25.946l-5.281,-0l-0,55.796l4.592,0Zm0.766,-18.599c-0,-8.495 4.745,-14.695 12.858,-14.695c8.036,0 12.705,6.2 12.705,14.695c0,8.573 -4.669,14.696 -12.705,14.696c-8.113,-0 -12.858,-6.123 -12.858,-14.696Z" style="fill-rule:nonzero;"/><path d="M807.102,327.059c-1.301,-0.306 -2.296,-0.382 -3.444,-0.382c-5.204,-0 -9.108,2.602 -10.562,6.582l-0.383,-5.74l-4.975,-0l0,37.044l5.281,0l0,-21.124c0,-7.042 4.363,-11.634 11.175,-11.634l2.908,-0l0,-4.746Z" style="fill-rule:nonzero;"/><path d="M823.252,365.482c6.276,-0 11.328,-2.756 13.624,-7.425l0.689,6.506l4.439,0l-0,-23.956c-0,-9.797 -6.276,-14.083 -14.849,-14.083c-9.108,-0 -15.231,4.822 -15.231,12.322l4.822,0c0,-4.975 3.827,-7.883 10.256,-7.883c5.434,-0 9.797,2.296 9.797,9.567l0,1.225l-12.246,0.995c-8.649,0.689 -13.853,4.975 -13.853,11.787c-0,6.505 4.668,10.945 12.552,10.945Zm1.225,-4.286c-5.052,-0 -8.42,-2.297 -8.42,-6.812c0,-4.133 2.832,-7.195 9.797,-7.807l10.945,-0.842l0,1.99c0,8.036 -4.516,13.471 -12.322,13.471Z" style="fill-rule:nonzero;"/><path d="M878.589,327.519l0,19.67c0,8.802 -4.21,13.547 -11.328,13.547c-5.893,0 -9.797,-3.138 -9.797,-11.94l0,-21.354l-5.357,0l-0,23.038c-0,9.032 4.745,15.002 13.471,15.002c5.816,-0 10.944,-2.909 13.011,-7.195l0.689,6.276l4.592,0l0,-37.044l-5.281,-0Z" style="fill-rule:nonzero;"/><path d="M891.524,346.118c-0,11.633 7.118,19.364 17.604,19.364c8.419,-0 15.001,-4.975 16.762,-12.553l-5.358,0c-1.454,4.746 -5.893,7.807 -11.404,7.807c-7.501,0 -12.399,-5.893 -12.399,-14.695c-0,-9.108 5.281,-14.848 12.781,-14.848c5.129,-0 9.568,2.831 10.945,7.96l5.282,-0c-1.455,-7.654 -7.731,-12.629 -16.303,-12.629c-10.792,-0 -17.91,7.96 -17.91,19.594Z" style="fill-rule:nonzero;"/><path d="M939.207,364.487l0,-20.13c0,-7.118 4.133,-13.011 12.093,-13.011c5.741,-0 9.797,3.061 9.797,11.71l0,21.507l5.281,0l0,-22.655c0,-9.338 -4.362,-15.384 -14.083,-15.384c-6.199,-0 -10.715,2.985 -13.088,7.424l0,-25.181l-5.281,-0l0,55.72l5.281,-0Z" style="fill-rule:nonzero;"/><circle cx="390.677" cy="337.124" r="29.765" style="fill:#e5e7eb;"/></g><path d="M89.422,451.82c12.756,0 21.431,-8.674 21.431,-20.92c-0,-11.396 -7.824,-20.495 -20.496,-20.495c-4.762,-0 -9.184,1.531 -12.586,4.252l4.592,-19.135l25.003,0l-0,-5.612l-29.425,-0l-7.313,30.615l4.847,1.531c3.317,-3.657 8.419,-6.208 14.032,-6.208c9.61,-0 15.138,6.718 15.138,15.222c-0,9.015 -5.953,15.138 -15.138,15.138c-8.674,-0 -14.032,-5.273 -14.032,-14.032l-6.123,-0c-0,11.991 7.824,19.644 20.07,19.644Z" style="fill-rule:nonzero;"/><path d="M119.017,420.355c-0,18.964 9.099,31.551 24.407,31.551c15.223,-0 24.322,-12.587 24.322,-31.551c0,-18.88 -9.27,-31.636 -24.322,-31.636c-15.138,-0 -24.407,12.756 -24.407,31.636Zm6.038,-0c-0,-15.903 6.718,-26.023 18.369,-26.023c11.651,-0 18.369,10.12 18.369,26.023c0,15.818 -6.718,26.023 -18.369,26.023c-11.651,-0 -18.369,-10.205 -18.369,-26.023Z" style="fill-rule:nonzero;"/><path d="M177.101,420.355c-0,18.964 9.099,31.551 24.407,31.551c15.223,-0 24.322,-12.587 24.322,-31.551c0,-18.88 -9.27,-31.636 -24.322,-31.636c-15.138,-0 -24.407,12.756 -24.407,31.636Zm6.038,-0c-0,-15.903 6.718,-26.023 18.369,-26.023c11.651,-0 18.369,10.12 18.369,26.023c0,15.818 -6.718,26.023 -18.369,26.023c-11.651,-0 -18.369,-10.205 -18.369,-26.023Z" style="fill-rule:nonzero;"/><path d="M235.185,420.355c-0,18.964 9.099,31.551 24.407,31.551c15.223,-0 24.322,-12.587 24.322,-31.551c0,-18.88 -9.27,-31.636 -24.322,-31.636c-15.138,-0 -24.407,12.756 -24.407,31.636Zm6.038,-0c-0,-15.903 6.718,-26.023 18.369,-26.023c11.651,-0 18.369,10.12 18.369,26.023c0,15.818 -6.718,26.023 -18.369,26.023c-11.651,-0 -18.369,-10.205 -18.369,-26.023Z" style="fill-rule:nonzero;"/><path d="M119.527,989.838l0,-5.697l-30.7,-0l14.202,-12.417c12.161,-10.63 16.158,-16.498 16.158,-25.342c-0,-11.141 -7.654,-18.539 -19.135,-18.539c-11.991,-0 -20.07,8.419 -20.41,21.175l6.123,0c0.255,-9.44 5.783,-15.563 14.202,-15.563c8.079,0 13.012,5.018 13.012,13.267c-0,7.229 -2.892,11.481 -14.117,21.261l-19.475,17.008l-0,4.847l40.14,0Z" style="fill-rule:nonzero;"/><path d="M147.506,990.859c12.756,-0 21.431,-8.674 21.431,-20.92c-0,-11.396 -7.824,-20.496 -20.496,-20.496c-4.762,0 -9.184,1.531 -12.586,4.252l4.592,-19.134l25.003,-0l-0,-5.613l-29.425,0l-7.313,30.615l4.847,1.531c3.317,-3.657 8.419,-6.208 14.032,-6.208c9.61,0 15.138,6.718 15.138,15.223c-0,9.014 -5.953,15.137 -15.138,15.137c-8.674,0 -14.032,-5.272 -14.032,-14.032l-6.123,0c-0,11.991 7.824,19.645 20.07,19.645Z" style="fill-rule:nonzero;"/><path d="M177.101,959.393c-0,18.965 9.099,31.551 24.407,31.551c15.223,0 24.322,-12.586 24.322,-31.551c0,-18.879 -9.27,-31.636 -24.322,-31.636c-15.138,0 -24.407,12.757 -24.407,31.636Zm6.038,0c-0,-15.903 6.718,-26.023 18.369,-26.023c11.651,0 18.369,10.12 18.369,26.023c0,15.818 -6.718,26.023 -18.369,26.023c-11.651,0 -18.369,-10.205 -18.369,-26.023Z" style="fill-rule:nonzero;"/><path d="M235.185,959.393c-0,18.965 9.099,31.551 24.407,31.551c15.223,0 24.322,-12.586 24.322,-31.551c0,-18.879 -9.27,-31.636 -24.322,-31.636c-15.138,0 -24.407,12.757 -24.407,31.636Zm6.038,0c-0,-15.903 6.718,-26.023 18.369,-26.023c11.651,0 18.369,10.12 18.369,26.023c0,15.818 -6.718,26.023 -18.369,26.023c-11.651,0 -18.369,-10.205 -18.369,-26.023Z" style="fill-rule:nonzero;"/><path d="M111.278,687.325c10.885,-0 16.838,5.187 16.838,13.521c0,8.845 -5.868,14.628 -14.967,14.628c-8.589,-0 -14.032,-5.273 -14.032,-14.032l-6.038,-0c-0,12.161 8.079,19.559 20.07,19.559c12.331,0 21.175,-7.909 21.175,-19.985c0,-11.055 -8.164,-18.284 -19.559,-18.879l18.199,-18.114l-0,-4.932l-36.909,-0l0,5.442l29.17,0l-18.795,18.539l0,4.253l4.848,-0Z" style="fill-rule:nonzero;"/><path d="M140.362,659.091l0,5.612l35.208,0l-24.067,55.278l6.293,-0l23.982,-55.278l0,-5.612l-41.416,-0Z" style="fill-rule:nonzero;"/><path d="M205.59,721.001c12.756,0 21.431,-8.674 21.431,-20.92c-0,-11.396 -7.824,-20.495 -20.496,-20.495c-4.762,-0 -9.184,1.53 -12.586,4.252l4.592,-19.135l25.003,0l-0,-5.612l-29.425,-0l-7.313,30.615l4.847,1.531c3.317,-3.657 8.419,-6.209 14.032,-6.209c9.61,0 15.138,6.719 15.138,15.223c-0,9.015 -5.953,15.138 -15.138,15.138c-8.674,-0 -14.032,-5.273 -14.032,-14.032l-6.123,-0c-0,11.991 7.824,19.644 20.07,19.644Z" style="fill-rule:nonzero;"/><path d="M235.185,689.536c-0,18.964 9.099,31.55 24.407,31.55c15.223,0 24.322,-12.586 24.322,-31.55c0,-18.88 -9.27,-31.636 -24.322,-31.636c-15.138,-0 -24.407,12.756 -24.407,31.636Zm6.038,-0c-0,-15.903 6.718,-26.023 18.369,-26.023c11.651,-0 18.369,10.12 18.369,26.023c0,15.818 -6.718,26.023 -18.369,26.023c-11.651,-0 -18.369,-10.205 -18.369,-26.023Z" style="fill-rule:nonzero;"/><path d="M120.633,1204.06l-0,55.363l5.867,-0l0,-60.891l-18.284,0l0,5.528l12.417,0Z" style="fill-rule:nonzero;"/><path d="M177.611,1259.42l-0,-5.698l-30.7,-0l14.202,-12.416c12.161,-10.631 16.158,-16.498 16.158,-25.343c-0,-11.14 -7.654,-18.539 -19.135,-18.539c-11.991,-0 -20.07,8.419 -20.41,21.175l6.123,0c0.255,-9.439 5.783,-15.562 14.202,-15.562c8.079,-0 13.012,5.017 13.012,13.266c-0,7.229 -2.892,11.481 -14.117,21.261l-19.475,17.008l-0,4.848l40.14,-0Z" style="fill-rule:nonzero;"/><path d="M205.59,1260.44c12.756,0 21.431,-8.674 21.431,-20.92c-0,-11.396 -7.824,-20.495 -20.496,-20.495c-4.762,-0 -9.184,1.53 -12.586,4.252l4.592,-19.135l25.003,0l-0,-5.613l-29.425,0l-7.313,30.616l4.847,1.53c3.317,-3.656 8.419,-6.208 14.032,-6.208c9.61,0 15.138,6.719 15.138,15.223c-0,9.014 -5.953,15.138 -15.138,15.138c-8.674,-0 -14.032,-5.273 -14.032,-14.032l-6.123,-0c-0,11.991 7.824,19.644 20.07,19.644Z" style="fill-rule:nonzero;"/><path d="M235.185,1228.98c-0,18.964 9.099,31.55 24.407,31.55c15.223,0 24.322,-12.586 24.322,-31.55c0,-18.88 -9.27,-31.636 -24.322,-31.636c-15.138,-0 -24.407,12.756 -24.407,31.636Zm6.038,-0c-0,-15.903 6.718,-26.023 18.369,-26.023c11.651,-0 18.369,10.12 18.369,26.023c0,15.818 -6.718,26.023 -18.369,26.023c-11.651,-0 -18.369,-10.205 -18.369,-26.023Z" style="fill-rule:nonzero;"/><path d="M192.068,1584.24c0,18.965 9.1,31.551 24.407,31.551c15.223,-0 24.323,-12.586 24.323,-31.551c-0,-18.879 -9.27,-31.636 -24.323,-31.636c-15.137,0 -24.407,12.757 -24.407,31.636Zm6.038,0c0,-15.903 6.719,-26.023 18.369,-26.023c11.651,0 18.37,10.12 18.37,26.023c-0,15.818 -6.719,26.023 -18.37,26.023c-11.65,0 -18.369,-10.205 -18.369,-26.023Z" style="fill-rule:nonzero;"/><path d="M250.152,1584.24c0,18.965 9.1,31.551 24.407,31.551c15.223,-0 24.323,-12.586 24.323,-31.551c-0,-18.879 -9.27,-31.636 -24.323,-31.636c-15.137,0 -24.407,12.757 -24.407,31.636Zm6.038,0c0,-15.903 6.719,-26.023 18.369,-26.023c11.651,0 18.37,10.12 18.37,26.023c-0,15.818 -6.719,26.023 -18.37,26.023c-11.65,0 -18.369,-10.205 -18.369,-26.023Z" style="fill-rule:nonzero;"/><path d="M315.55,1583.05c2.891,0 5.358,-2.466 5.358,-5.272c-0,-2.892 -2.467,-5.273 -5.358,-5.273c-2.892,0 -5.358,2.381 -5.358,5.273c0,2.806 2.466,5.272 5.358,5.272Zm-0,32.572c2.891,-0 5.358,-2.381 5.358,-5.188c-0,-2.891 -2.467,-5.358 -5.358,-5.358c-2.892,0 -5.358,2.467 -5.358,5.358c0,2.807 2.466,5.188 5.358,5.188Z" style="fill-rule:nonzero;"/><path d="M332.218,1584.24c0,18.965 9.1,31.551 24.407,31.551c15.223,-0 24.322,-12.586 24.322,-31.551c0,-18.879 -9.269,-31.636 -24.322,-31.636c-15.137,0 -24.407,12.757 -24.407,31.636Zm6.038,0c0,-15.903 6.719,-26.023 18.369,-26.023c11.651,0 18.37,10.12 18.37,26.023c-0,15.818 -6.719,26.023 -18.37,26.023c-11.65,0 -18.369,-10.205 -18.369,-26.023Z" style="fill-rule:nonzero;"/><path d="M390.302,1584.24c0,18.965 9.1,31.551 24.407,31.551c15.223,-0 24.322,-12.586 24.322,-31.551c0,-18.879 -9.269,-31.636 -24.322,-31.636c-15.137,0 -24.407,12.757 -24.407,31.636Zm6.038,0c0,-15.903 6.719,-26.023 18.369,-26.023c11.651,0 18.37,10.12 18.37,26.023c-0,15.818 -6.719,26.023 -18.37,26.023c-11.65,0 -18.369,-10.205 -18.369,-26.023Z" style="fill-rule:nonzero;"/><path d="M761.848,1584.24c-0,18.965 9.099,31.551 24.407,31.551c15.222,-0 24.322,-12.586 24.322,-31.551c-0,-18.879 -9.27,-31.636 -24.322,-31.636c-15.138,0 -24.407,12.757 -24.407,31.636Zm6.038,0c-0,-15.903 6.718,-26.023 18.369,-26.023c11.651,0 18.369,10.12 18.369,26.023c-0,15.818 -6.718,26.023 -18.369,26.023c-11.651,0 -18.369,-10.205 -18.369,-26.023Z" style="fill-rule:nonzero;"/><path d="M836.09,1582.03c10.885,-0 16.838,5.188 16.838,13.522c0,8.844 -5.868,14.627 -14.967,14.627c-8.59,0 -14.032,-5.273 -14.032,-14.032l-6.038,0c-0,12.161 8.079,19.56 20.07,19.56c12.331,-0 21.175,-7.909 21.175,-19.985c0,-11.056 -8.164,-18.284 -19.56,-18.88l18.199,-18.114l0,-4.932l-36.908,-0l0,5.443l29.17,-0l-18.795,18.539l0,4.252l4.848,-0Z" style="fill-rule:nonzero;"/><path d="M874.869,1583.05c2.891,0 5.358,-2.466 5.358,-5.272c-0,-2.892 -2.467,-5.273 -5.358,-5.273c-2.891,0 -5.358,2.381 -5.358,5.273c0,2.806 2.467,5.272 5.358,5.272Zm0,32.572c2.891,-0 5.358,-2.381 5.358,-5.188c-0,-2.891 -2.467,-5.358 -5.358,-5.358c-2.891,0 -5.358,2.467 -5.358,5.358c0,2.807 2.467,5.188 5.358,5.188Z" style="fill-rule:nonzero;"/><path d="M891.537,1584.24c0,18.965 9.1,31.551 24.408,31.551c15.222,-0 24.322,-12.586 24.322,-31.551c-0,-18.879 -9.27,-31.636 -24.322,-31.636c-15.138,0 -24.408,12.757 -24.408,31.636Zm6.038,0c0,-15.903 6.719,-26.023 18.37,-26.023c11.65,0 18.369,10.12 18.369,26.023c-0,15.818 -6.719,26.023 -18.369,26.023c-11.651,0 -18.37,-10.205 -18.37,-26.023Z" style="fill-rule:nonzero;"/><path d="M949.621,1584.24c0,18.965 9.1,31.551 24.408,31.551c15.222,-0 24.322,-12.586 24.322,-31.551c-0,-18.879 -9.27,-31.636 -24.322,-31.636c-15.138,0 -24.408,12.757 -24.408,31.636Zm6.038,0c0,-15.903 6.719,-26.023 18.37,-26.023c11.65,0 18.369,10.12 18.369,26.023c-0,15.818 -6.719,26.023 -18.369,26.023c-11.651,0 -18.37,-10.205 -18.37,-26.023Z" style="fill-rule:nonzero;"/><path d="M1324.49,1584.24c-0,18.965 9.099,31.551 24.407,31.551c15.222,-0 24.322,-12.586 24.322,-31.551c-0,-18.879 -9.27,-31.636 -24.322,-31.636c-15.138,0 -24.407,12.757 -24.407,31.636Zm6.038,0c-0,-15.903 6.718,-26.023 18.369,-26.023c11.651,0 18.369,10.12 18.369,26.023c0,15.818 -6.718,26.023 -18.369,26.023c-11.651,0 -18.369,-10.205 -18.369,-26.023Z" style="fill-rule:nonzero;"/><path d="M1389.46,1574.29c-5.698,7.824 -7.654,12.756 -7.654,19.815c0,12.161 9.61,21.601 21.856,21.601c12.161,-0 21.601,-9.1 21.601,-21.601c-0,-11.906 -8.419,-21.176 -21.091,-21.176c-2.806,0 -5.442,0.596 -8.334,2.041l15.988,-21.175l-7.143,-0l-15.223,20.495Zm-1.446,19.9c0,-9.27 6.379,-15.903 15.648,-15.903c9.015,0 15.478,6.633 15.478,15.903c-0,9.27 -6.463,15.988 -15.478,15.988c-9.269,0 -15.648,-6.718 -15.648,-15.988Z" style="fill-rule:nonzero;"/><path d="M1441.16,1583.05c2.891,0 5.358,-2.466 5.358,-5.272c-0,-2.892 -2.467,-5.273 -5.358,-5.273c-2.892,0 -5.358,2.381 -5.358,5.273c0,2.806 2.466,5.272 5.358,5.272Zm-0,32.572c2.891,-0 5.358,-2.381 5.358,-5.188c-0,-2.891 -2.467,-5.358 -5.358,-5.358c-2.892,0 -5.358,2.467 -5.358,5.358c0,2.807 2.466,5.188 5.358,5.188Z" style="fill-rule:nonzero;"/><path d="M1457.83,1584.24c0,18.965 9.1,31.551 24.407,31.551c15.223,-0 24.323,-12.586 24.323,-31.551c-0,-18.879 -9.27,-31.636 -24.323,-31.636c-15.137,0 -24.407,12.757 -24.407,31.636Zm6.038,0c0,-15.903 6.719,-26.023 18.369,-26.023c11.651,0 18.37,10.12 18.37,26.023c-0,15.818 -6.719,26.023 -18.37,26.023c-11.65,0 -18.369,-10.205 -18.369,-26.023Z" style="fill-rule:nonzero;"/><path d="M1515.92,1584.24c0,18.965 9.1,31.551 24.407,31.551c15.223,-0 24.323,-12.586 24.323,-31.551c-0,-18.879 -9.27,-31.636 -24.323,-31.636c-15.137,0 -24.407,12.757 -24.407,31.636Zm6.038,0c0,-15.903 6.719,-26.023 18.369,-26.023c11.651,0 18.37,10.12 18.37,26.023c-0,15.818 -6.719,26.023 -18.37,26.023c-11.65,0 -18.369,-10.205 -18.369,-26.023Z" style="fill-rule:nonzero;"/><path d="M1886.64,1584.24c0,18.965 9.1,31.551 24.407,31.551c15.223,-0 24.322,-12.586 24.322,-31.551c0,-18.879 -9.269,-31.636 -24.322,-31.636c-15.137,0 -24.407,12.757 -24.407,31.636Zm6.038,0c0,-15.903 6.718,-26.023 18.369,-26.023c11.651,0 18.369,10.12 18.369,26.023c0,15.818 -6.718,26.023 -18.369,26.023c-11.651,0 -18.369,-10.205 -18.369,-26.023Z" style="fill-rule:nonzero;"/><path d="M1979.76,1594.1c5.782,-7.739 7.653,-12.671 7.653,-19.73c0,-12.246 -9.609,-21.686 -21.856,-21.686c-12.161,0 -21.6,9.185 -21.6,21.601c-0,11.906 8.419,21.176 21.09,21.176c2.892,-0 5.528,-0.511 8.334,-2.041l-15.988,21.26l7.144,0l15.223,-20.58Zm1.53,-19.815c0,9.185 -6.463,15.818 -15.733,15.818c-9.014,0 -15.477,-6.633 -15.477,-15.818c-0,-9.27 6.463,-15.988 15.477,-15.988c9.27,0 15.733,6.718 15.733,15.988Z" style="fill-rule:nonzero;"/><path d="M2003.31,1583.05c2.892,0 5.358,-2.466 5.358,-5.272c0,-2.892 -2.466,-5.273 -5.358,-5.273c-2.891,0 -5.357,2.381 -5.357,5.273c-0,2.806 2.466,5.272 5.357,5.272Zm0,32.572c2.892,-0 5.358,-2.381 5.358,-5.188c0,-2.891 -2.466,-5.358 -5.358,-5.358c-2.891,0 -5.357,2.467 -5.357,5.358c-0,2.807 2.466,5.188 5.357,5.188Z" style="fill-rule:nonzero;"/><path d="M2019.98,1584.24c-0,18.965 9.099,31.551 24.407,31.551c15.222,-0 24.322,-12.586 24.322,-31.551c-0,-18.879 -9.27,-31.636 -24.322,-31.636c-15.138,0 -24.407,12.757 -24.407,31.636Zm6.038,0c-0,-15.903 6.718,-26.023 18.369,-26.023c11.651,0 18.369,10.12 18.369,26.023c0,15.818 -6.718,26.023 -18.369,26.023c-11.651,0 -18.369,-10.205 -18.369,-26.023Z" style="fill-rule:nonzero;"/><path d="M2078.07,1584.24c-0,18.965 9.099,31.551 24.407,31.551c15.222,-0 24.322,-12.586 24.322,-31.551c-0,-18.879 -9.27,-31.636 -24.322,-31.636c-15.138,0 -24.407,12.757 -24.407,31.636Zm6.038,0c-0,-15.903 6.718,-26.023 18.369,-26.023c11.651,0 18.369,10.12 18.369,26.023c-0,15.818 -6.718,26.023 -18.369,26.023c-11.651,0 -18.369,-10.205 -18.369,-26.023Z" style="fill-rule:nonzero;"/><path d="M2459.58,1559.32l-0,55.362l5.867,0l0,-60.89l-18.284,-0l0,5.528l12.417,-0Z" style="fill-rule:nonzero;"/><path d="M2516.56,1614.68l-0,-5.698l-30.7,0l14.202,-12.416c12.161,-10.63 16.158,-16.498 16.158,-25.342c-0,-11.141 -7.654,-18.54 -19.135,-18.54c-11.991,0 -20.07,8.42 -20.41,21.176l6.123,-0c0.255,-9.44 5.783,-15.563 14.202,-15.563c8.079,0 13.012,5.018 13.012,13.267c-0,7.228 -2.892,11.48 -14.117,21.26l-19.475,17.009l-0,4.847l40.14,0Z" style="fill-rule:nonzero;"/><path d="M2532.38,1583.05c2.891,0 5.358,-2.466 5.358,-5.272c-0,-2.892 -2.467,-5.273 -5.358,-5.273c-2.892,0 -5.358,2.381 -5.358,5.273c0,2.806 2.466,5.272 5.358,5.272Zm-0,32.572c2.891,-0 5.358,-2.381 5.358,-5.188c-0,-2.891 -2.467,-5.358 -5.358,-5.358c-2.892,0 -5.358,2.467 -5.358,5.358c0,2.807 2.466,5.188 5.358,5.188Z" style="fill-rule:nonzero;"/><path d="M2549.04,1584.24c0,18.965 9.1,31.551 24.407,31.551c15.223,-0 24.323,-12.586 24.323,-31.551c-0,-18.879 -9.27,-31.636 -24.323,-31.636c-15.137,0 -24.407,12.757 -24.407,31.636Zm6.038,0c0,-15.903 6.719,-26.023 18.369,-26.023c11.651,0 18.37,10.12 18.37,26.023c-0,15.818 -6.719,26.023 -18.37,26.023c-11.65,0 -18.369,-10.205 -18.369,-26.023Z" style="fill-rule:nonzero;"/><path d="M2607.13,1584.24c0,18.965 9.1,31.551 24.407,31.551c15.223,-0 24.323,-12.586 24.323,-31.551c-0,-18.879 -9.27,-31.636 -24.323,-31.636c-15.137,0 -24.407,12.757 -24.407,31.636Zm6.038,0c0,-15.903 6.719,-26.023 18.369,-26.023c11.651,0 18.37,10.12 18.37,26.023c-0,15.818 -6.719,26.023 -18.37,26.023c-11.65,0 -18.369,-10.205 -18.369,-26.023Z" style="fill-rule:nonzero;"/><path d="M3021.31,1559.32l0,55.362l5.868,0l0,-60.89l-18.284,-0l0,5.528l12.416,-0Z" style="fill-rule:nonzero;"/><path d="M3058.82,1615.7c12.756,-0 21.431,-8.675 21.431,-20.921c-0,-11.395 -7.824,-20.495 -20.496,-20.495c-4.762,0 -9.184,1.531 -12.586,4.252l4.592,-19.134l25.003,-0l-0,-5.613l-29.425,-0l-7.313,30.615l4.847,1.531c3.317,-3.657 8.419,-6.208 14.032,-6.208c9.61,-0 15.138,6.718 15.138,15.222c-0,9.015 -5.953,15.138 -15.138,15.138c-8.674,-0 -14.032,-5.273 -14.032,-14.032l-6.123,-0c-0,11.991 7.824,19.645 20.07,19.645Z" style="fill-rule:nonzero;"/><path d="M3095.72,1583.05c2.892,0 5.358,-2.466 5.358,-5.272c0,-2.892 -2.466,-5.273 -5.358,-5.273c-2.891,0 -5.357,2.381 -5.357,5.273c-0,2.806 2.466,5.272 5.357,5.272Zm0,32.572c2.892,-0 5.358,-2.381 5.358,-5.188c0,-2.891 -2.466,-5.358 -5.358,-5.358c-2.891,0 -5.357,2.467 -5.357,5.358c-0,2.807 2.466,5.188 5.357,5.188Z" style="fill-rule:nonzero;"/><path d="M3112.39,1584.24c-0,18.965 9.099,31.551 24.407,31.551c15.223,-0 24.322,-12.586 24.322,-31.551c0,-18.879 -9.27,-31.636 -24.322,-31.636c-15.138,0 -24.407,12.757 -24.407,31.636Zm6.038,0c-0,-15.903 6.718,-26.023 18.369,-26.023c11.651,0 18.369,10.12 18.369,26.023c0,15.818 -6.718,26.023 -18.369,26.023c-11.651,0 -18.369,-10.205 -18.369,-26.023Z" style="fill-rule:nonzero;"/><path d="M3170.48,1584.24c-0,18.965 9.099,31.551 24.407,31.551c15.223,-0 24.322,-12.586 24.322,-31.551c0,-18.879 -9.27,-31.636 -24.322,-31.636c-15.138,0 -24.407,12.757 -24.407,31.636Zm6.038,0c-0,-15.903 6.718,-26.023 18.369,-26.023c11.651,0 18.369,10.12 18.369,26.023c0,15.818 -6.718,26.023 -18.369,26.023c-11.651,0 -18.369,-10.205 -18.369,-26.023Z" style="fill-rule:nonzero;"/><path d="M3586.2,1559.32l-0,55.362l5.867,0l0,-60.89l-18.284,-0l0,5.528l12.417,-0Z" style="fill-rule:nonzero;"/><path d="M3603.38,1598.1c0,10.46 8.759,17.604 21.686,17.604c12.926,-0 21.686,-7.144 21.686,-17.519c-0,-7.654 -4.678,-13.777 -11.736,-15.988c6.038,-2.296 9.44,-7.314 9.44,-13.692c-0,-9.439 -7.739,-15.818 -19.305,-15.818c-11.651,0 -19.645,6.379 -19.645,15.733c0,6.293 3.487,11.311 9.61,13.777c-7.229,2.466 -11.736,8.419 -11.736,15.903Zm7.909,-29.51c0,-6.378 5.443,-10.46 13.777,-10.46c8.249,0 13.607,4.082 13.607,10.63c-0,6.719 -5.358,11.056 -13.607,11.056c-8.334,-0 -13.777,-4.507 -13.777,-11.226Zm-1.871,29c0,-7.484 6.123,-12.331 15.563,-12.331c9.61,-0 15.733,4.847 15.733,12.331c-0,7.569 -6.293,12.586 -15.563,12.586c-9.44,0 -15.733,-5.017 -15.733,-12.586Z" style="fill-rule:nonzero;"/><path d="M3663.08,1583.05c2.891,0 5.358,-2.466 5.358,-5.272c-0,-2.892 -2.467,-5.273 -5.358,-5.273c-2.892,0 -5.358,2.381 -5.358,5.273c0,2.806 2.466,5.272 5.358,5.272Zm-0,32.572c2.891,-0 5.358,-2.381 5.358,-5.188c-0,-2.891 -2.467,-5.358 -5.358,-5.358c-2.892,0 -5.358,2.467 -5.358,5.358c0,2.807 2.466,5.188 5.358,5.188Z" style="fill-rule:nonzero;"/><path d="M3679.74,1584.24c0,18.965 9.1,31.551 24.407,31.551c15.223,-0 24.323,-12.586 24.323,-31.551c-0,-18.879 -9.27,-31.636 -24.323,-31.636c-15.137,0 -24.407,12.757 -24.407,31.636Zm6.038,0c0,-15.903 6.719,-26.023 18.369,-26.023c11.651,0 18.37,10.12 18.37,26.023c-0,15.818 -6.719,26.023 -18.37,26.023c-11.65,0 -18.369,-10.205 -18.369,-26.023Z" style="fill-rule:nonzero;"/><path d="M3737.83,1584.24c0,18.965 9.1,31.551 24.407,31.551c15.223,-0 24.323,-12.586 24.323,-31.551c-0,-18.879 -9.27,-31.636 -24.323,-31.636c-15.137,0 -24.407,12.757 -24.407,31.636Zm6.038,0c0,-15.903 6.719,-26.023 18.369,-26.023c11.651,0 18.37,10.12 18.37,26.023c-0,15.818 -6.719,26.023 -18.37,26.023c-11.65,0 -18.369,-10.205 -18.369,-26.023Z" style="fill-rule:nonzero;"/><path d="M4175.41,1614.68l-0,-5.698l-30.701,0l14.202,-12.416c12.162,-10.63 16.159,-16.498 16.159,-25.342c-0,-11.141 -7.654,-18.54 -19.135,-18.54c-11.991,0 -20.07,8.42 -20.41,21.176l6.123,-0c0.255,-9.44 5.783,-15.563 14.202,-15.563c8.079,0 13.011,5.018 13.011,13.267c0,7.228 -2.891,11.48 -14.117,21.26l-19.474,17.009l-0,4.847l40.14,0Z" style="fill-rule:nonzero;"/><path d="M4194.8,1559.32l0,55.362l5.868,0l0,-60.89l-18.284,-0l0,5.528l12.416,-0Z" style="fill-rule:nonzero;"/><path d="M4219.8,1583.05c2.891,0 5.358,-2.466 5.358,-5.272c-0,-2.892 -2.467,-5.273 -5.358,-5.273c-2.892,0 -5.358,2.381 -5.358,5.273c0,2.806 2.466,5.272 5.358,5.272Zm-0,32.572c2.891,-0 5.358,-2.381 5.358,-5.188c-0,-2.891 -2.467,-5.358 -5.358,-5.358c-2.892,0 -5.358,2.467 -5.358,5.358c0,2.807 2.466,5.188 5.358,5.188Z" style="fill-rule:nonzero;"/><path d="M4236.47,1584.24c0,18.965 9.1,31.551 24.407,31.551c15.223,-0 24.323,-12.586 24.323,-31.551c-0,-18.879 -9.27,-31.636 -24.323,-31.636c-15.137,0 -24.407,12.757 -24.407,31.636Zm6.038,0c0,-15.903 6.719,-26.023 18.369,-26.023c11.651,0 18.37,10.12 18.37,26.023c-0,15.818 -6.719,26.023 -18.37,26.023c-11.65,0 -18.369,-10.205 -18.369,-26.023Z" style="fill-rule:nonzero;"/><path d="M4294.55,1584.24c0,18.965 9.1,31.551 24.407,31.551c15.223,-0 24.323,-12.586 24.323,-31.551c-0,-18.879 -9.27,-31.636 -24.323,-31.636c-15.137,0 -24.407,12.757 -24.407,31.636Zm6.038,0c0,-15.903 6.719,-26.023 18.369,-26.023c11.651,0 18.37,10.12 18.37,26.023c-0,15.818 -6.719,26.023 -18.37,26.023c-11.65,0 -18.369,-10.205 -18.369,-26.023Z" style="fill-rule:nonzero;"/><path d="M4740.41,1614.68l0,-5.698l-30.7,0l14.202,-12.416c12.161,-10.63 16.158,-16.498 16.158,-25.342c-0,-11.141 -7.654,-18.54 -19.135,-18.54c-11.991,0 -20.07,8.42 -20.41,21.176l6.123,-0c0.255,-9.44 5.783,-15.563 14.202,-15.563c8.079,0 13.012,5.018 13.012,13.267c-0,7.228 -2.892,11.48 -14.117,21.26l-19.475,17.009l0,4.847l40.14,0Z" style="fill-rule:nonzero;"/><path d="M4790.33,1601.76l-0,-5.443l-7.144,0l0,-42.521l-8.164,-0l-29.764,42.521l-0,5.443l31.975,-0l0,12.926l5.953,0l0,-12.926l7.144,-0Zm-38.439,-5.443l25.342,-36.228l0,36.228l-25.342,0Z" style="fill-rule:nonzero;"/><path d="M4807.17,1583.05c2.892,0 5.358,-2.466 5.358,-5.272c0,-2.892 -2.466,-5.273 -5.358,-5.273c-2.891,0 -5.357,2.381 -5.357,5.273c-0,2.806 2.466,5.272 5.357,5.272Zm0,32.572c2.892,-0 5.358,-2.381 5.358,-5.188c0,-2.891 -2.466,-5.358 -5.358,-5.358c-2.891,0 -5.357,2.467 -5.357,5.358c-0,2.807 2.466,5.188 5.357,5.188Z" style="fill-rule:nonzero;"/><path d="M4823.84,1584.24c-0,18.965 9.099,31.551 24.407,31.551c15.223,-0 24.322,-12.586 24.322,-31.551c0,-18.879 -9.27,-31.636 -24.322,-31.636c-15.138,0 -24.407,12.757 -24.407,31.636Zm6.038,0c-0,-15.903 6.718,-26.023 18.369,-26.023c11.651,0 18.369,10.12 18.369,26.023c0,15.818 -6.718,26.023 -18.369,26.023c-11.651,0 -18.369,-10.205 -18.369,-26.023Z" style="fill-rule:nonzero;"/><path d="M4881.92,1584.24c-0,18.965 9.099,31.551 24.407,31.551c15.223,-0 24.322,-12.586 24.322,-31.551c0,-18.879 -9.27,-31.636 -24.322,-31.636c-15.138,0 -24.407,12.757 -24.407,31.636Zm6.038,0c-0,-15.903 6.718,-26.023 18.369,-26.023c11.651,0 18.369,10.12 18.369,26.023c0,15.818 -6.718,26.023 -18.369,26.023c-11.651,0 -18.369,-10.205 -18.369,-26.023Z" style="fill-rule:nonzero;"/><path d="M284.144,276.264l0,-8.164l-48.644,-15.053l48.644,-14.882l0,-7.994l-61.485,-18.539l-0,8.504l37.674,11.311c2.721,0.85 5.868,1.7 11.055,2.721c-4.592,0.935 -7.824,1.786 -11.14,2.806l-37.589,11.566l-0,9.015l37.589,11.65c3.231,0.936 6.208,1.871 11.14,2.892c-4.677,0.85 -7.909,1.701 -11.14,2.551l-37.589,11.226l-0,8.674l61.485,-18.284Z" style="fill-rule:nonzero;"/><path d="M285.165,198.28c-0,-6.718 -2.977,-12.416 -7.739,-14.542l6.718,-0.851l0,-6.803l-26.108,-0c-11.225,-0 -16.668,6.973 -16.668,17.263c0,10.716 5.698,17.859 14.372,17.859l0,-6.973c-5.017,-0 -7.994,-3.827 -7.994,-10.545c0,-5.613 2.467,-9.78 9.44,-9.78l1.191,-0l1.02,13.096c0.766,9.78 5.528,15.478 13.182,15.478c7.568,0 12.586,-5.273 12.586,-14.202Zm-6.208,-2.296c-0,5.187 -2.211,8.419 -6.633,8.419c-4.082,0 -6.804,-2.891 -7.484,-9.95l-0.851,-10.63l2.212,-0c7.823,-0 12.756,4.592 12.756,12.161Z" style="fill-rule:nonzero;"/><path d="M284.144,153.973l-34.867,-0l0,-8.164l-6.718,-0l-0,8.164l-13.012,-0l0,7.994l13.012,-0l-0,8.164l6.718,-0l0,-8.164l34.867,-0l0,-7.994Z" style="fill-rule:nonzero;"/><path d="M284.144,126.164l-34.867,-0l0,-8.164l-6.718,-0l-0,8.164l-13.012,-0l0,7.994l13.012,-0l-0,8.164l6.718,0l0,-8.164l34.867,-0l0,-7.994Z" style="fill-rule:nonzero;"/><path d="M1504.45,1518l9.55,-8.258l1262.62,-0l-1272.17,8.258Z" style="fill:#facc15;"/><path d="M1975.57,978.906c53.231,-109.104 142.376,-220.516 192.399,-279.02c21.727,-25.327 45.443,-48.877 70.922,-70.425c16.773,-14.275 38.029,-32.252 59.413,-50.338c64.258,-54.347 137.768,-96.694 217.017,-125.019c11.527,-4.119 22.844,-8.164 33.404,-11.939c39.959,-14.281 81.18,-24.749 123.111,-31.262c8.499,-1.32 17.393,-2.701 26.37,-4.096c68.751,-10.678 138.711,-11.012 207.56,-0.989c5.164,0.751 10.352,1.507 15.52,2.259c70.108,10.206 138.36,30.55 202.616,60.393c1.077,0.5 2.152,1 3.225,1.498c49.636,23.053 96.58,51.508 139.981,84.848c10.312,7.922 21.139,16.24 31.92,24.522c60.991,46.852 115.577,101.498 162.363,162.54c25.464,33.223 49.058,64.008 53.338,69.592c0.46,0.599 0.918,1.199 1.376,1.8c7.12,9.351 67.831,89.09 97.101,127.533c10.433,13.704 20.332,27.807 29.673,42.278l49.462,76.629l-47.616,200.959c-8.981,37.904 -44.678,63.27 -83.427,59.283c-4.139,-0.426 -6.676,-0.687 -6.676,-0.687l-48.681,-111.974l-57.735,143.319c0,-0 -60.565,1.798 -75.876,2.252c-2.321,0.069 -4.637,0.257 -6.939,0.562c-19.949,2.644 -120.034,15.909 -134.96,17.887c-1.242,0.165 -2.48,0.357 -3.714,0.576c-8.185,1.452 -41.831,7.424 -66.823,11.859c-18.14,3.219 -36.807,-1.134 -51.652,-12.044c-3.822,-2.809 -6.564,-4.825 -6.564,-4.825l-82.452,-36.59c0,0 -46.258,13.623 -73.385,21.611c-12.44,3.664 -25.756,2.99 -37.762,-1.911c-15.841,-6.466 -37.715,-15.395 -48.433,-19.77c-4.292,-1.752 -8.443,-3.827 -12.42,-6.209c-8.456,-5.064 -24.364,-14.592 -37.612,-22.527c-14.061,-8.421 -24.242,-22.038 -28.343,-37.906c-5.943,-22.998 -14.345,-55.513 -17.573,-68.001c-0.888,-3.437 -1.58,-6.922 -2.072,-10.437c-3.84,-27.41 -21.447,-153.085 -24.493,-174.826c-0.299,-2.138 -0.676,-4.265 -1.129,-6.376c-5.172,-24.116 -38.307,-178.609 -45.042,-210.012c-0.793,-3.697 -2.021,-7.287 -3.66,-10.695c-4.775,-9.929 -15.555,-32.347 -24.013,-49.935c-1.746,-3.633 -5.59,-5.773 -9.598,-5.345c-4.007,0.428 -7.312,3.331 -8.252,7.251c-7.517,31.328 -19.436,81.01 -21.893,91.252c-0.301,1.255 -0.564,2.519 -0.788,3.79c-2.977,16.915 -24.82,140.991 -27.69,157.292c-0.207,1.176 -0.385,2.358 -0.533,3.544c-1.958,15.63 -16.233,129.569 -19.23,153.486c-0.367,2.931 -0.633,5.873 -0.798,8.821c-1.187,21.176 -6.33,112.919 -8.749,156.066c-0.803,14.334 -7.842,27.598 -19.263,36.297c-7.187,5.475 -15.286,11.644 -21.806,16.611c-7.291,5.554 -17.457,5.315 -24.479,-0.575c-11.551,-9.689 -27.27,-22.874 -27.27,-22.874c-0,-0 -7.465,5.798 -15.271,11.86c-11.219,8.714 -25.429,12.636 -39.529,10.911c-16.457,-2.013 -36.125,-4.418 -36.125,-4.418l-19.734,34.48l-26.859,-31.83c0,-0 -13.776,-5.409 -24.222,-9.509c-7.501,-2.945 -15.717,-3.55 -23.569,-1.736c-17.056,3.942 -47.658,11.014 -61.135,14.128c-4.442,1.026 -8.985,1.545 -13.544,1.545c-9.727,-0 -27.626,-0 -39.165,-0c-7.189,-0 -14.334,-1.134 -21.17,-3.36c-0.001,-0.001 -0.002,-0.001 -0.004,-0.001c-22.163,-7.217 -39.56,-24.563 -46.842,-46.704c-7.669,-23.317 -16.502,-50.177 -17.548,-53.357c-0.069,-0.208 -0.136,-0.417 -0.203,-0.626c-1.843,-5.801 -28.723,-90.406 -34.442,-108.405c-0.71,-2.234 -1.366,-4.484 -1.967,-6.75c-4.679,-17.609 -26.192,-98.585 -32.621,-122.787c-1.211,-4.558 -2.811,-9.004 -4.781,-13.289c-1.965,-4.274 -4.724,-10.275 -7.7,-16.747c-3.714,-8.079 -11.375,-13.634 -20.208,-14.656c-3.692,-0.426 -7.364,-0.036 -10.731,1.248Z" style="fill:#facc15;"/><path d="M3728.63,1115.94l34.567,53.551c6.842,10.6 14.331,20.768 22.423,30.447l47.607,56.941l-18.628,75.472c-2.209,8.951 -8.789,16.181 -17.493,19.22c-0.003,0.001 -0.006,0.002 -0.008,0.003c-9.076,3.169 -19.098,2.067 -27.269,-2.997c-8.171,-5.064 -13.617,-13.549 -14.818,-23.086l-26.381,-209.551Z" style="fill:#facc15;"/><path d="M1514,1509.74l-1188.02,-0l-0,-167.827c-0,0 0.002,0.002 0.008,0.004c9.416,4.271 20.199,4.359 29.683,0.241c9.484,-4.118 16.783,-12.056 20.091,-21.852c7.109,-21.045 15.885,-47.028 22.929,-67.883c1.852,-5.484 6.975,-9.192 12.763,-9.238c5.788,-0.046 10.969,3.58 12.909,9.033c4.375,12.306 9.351,26.3 14.118,39.706c13.027,36.636 34.314,69.781 62.212,96.867c3.711,3.603 7.373,7.159 10.846,10.53c15.389,14.942 35.199,24.504 56.472,27.259c40.992,5.308 110.206,14.27 146.542,18.975c15.926,2.063 31.964,3.149 48.023,3.253c118.775,0.772 640.363,4.163 750.724,4.88c13.6,0.089 27.109,-2.213 39.912,-6.801c6.637,-2.378 14.36,-5.146 22.129,-7.93c26.923,-9.647 46.504,-33.126 51.161,-61.343c6.187,-37.499 14.414,-87.355 17.517,-106.16c0.837,-5.072 1.539,-10.165 2.105,-15.275c3.005,-27.132 13.183,-119.038 17.424,-157.34c1.246,-11.248 4.238,-22.234 8.868,-32.56c5,-11.149 11.861,-26.449 17.76,-39.604c8.017,-17.877 20.65,-33.298 36.6,-44.676c12.044,-8.592 26.012,-18.555 35.59,-25.387c7.603,-5.424 16.131,-9.418 25.165,-11.788c3.905,-1.024 8.331,-2.184 12.842,-3.367c19.384,-5.084 39.962,1.442 52.875,16.766l18.302,21.723c0.866,1.043 5.345,6.434 11.302,13.604c9.505,11.441 23.683,17.957 38.556,17.719c14.872,-0.239 28.834,-7.205 37.968,-18.945c1.31,-1.683 2.611,-3.356 3.896,-5.008c3.179,-4.085 7.464,-7.033 12.289,-8.41l-13.92,29.175c-90.674,181.676 -249.967,324.363 -398.059,458.785l-49.583,42.874Z" style="fill:#4b5563;"/><path d="M3833.23,1256.88l173.621,-703.452c0,-0 88.028,610.672 113.343,786.288c4.041,28.038 25.212,50.54 52.952,56.282c0.672,0.139 1.331,0.275 1.976,0.409c9.123,1.888 18.483,2.353 27.748,1.379c15.822,-1.664 42.489,-4.469 66.273,-6.97c32.562,-3.424 63.56,-15.715 89.621,-35.534c24.19,-18.396 50.438,-38.358 50.438,-38.358c0,0 50.639,42.404 58.273,48.796c0.639,0.536 1.286,1.061 1.941,1.577c4.782,3.763 26.182,20.604 45.722,35.981c22.96,18.07 49.479,31.086 77.819,38.195c12.446,3.123 25.447,6.384 35.778,8.976c13.378,3.356 27.109,5.103 40.901,5.201c45.063,0.324 147.816,1.061 147.816,1.061l0,53.028l-2040.83,-0l1272.19,-8.259c-0,0 -97.647,-105.818 -115.283,-124.931c-1.809,-1.96 -3.569,-3.963 -5.28,-6.009l-95.027,-113.66Z" style="fill:#4b5563;"/><path d="M3692.34,1059.71l10.126,-42.736c0.784,-3.305 3.82,-5.577 7.213,-5.395c3.393,0.183 6.168,2.767 6.593,6.138l12.365,98.225l-36.297,-56.232Z" style="fill:#1e4e5f;"/><path d="M1975.57,978.906c3.367,-1.284 7.039,-1.674 10.731,-1.248c8.833,1.022 16.494,6.577 20.208,14.656c2.976,6.472 5.735,12.473 7.7,16.747c1.97,4.285 3.57,8.731 4.781,13.289c6.429,24.202 27.942,105.178 32.621,122.787c0.601,2.266 1.257,4.516 1.967,6.75c5.719,17.999 32.599,102.604 34.442,108.405c0.067,0.209 0.134,0.418 0.203,0.626c1.046,3.18 9.879,30.04 17.548,53.357c7.282,22.141 24.679,39.487 46.842,46.704c0.002,0 0.003,0 0.004,0.001c6.836,2.226 13.981,3.36 21.17,3.36c11.539,-0 29.438,-0 39.165,-0c4.559,-0 9.102,-0.519 13.544,-1.545c13.477,-3.114 44.079,-10.186 61.135,-14.128c7.852,-1.814 16.068,-1.209 23.569,1.736c10.446,4.1 24.222,9.509 24.222,9.509l26.859,31.83l19.734,-34.48c-0,-0 19.668,2.405 36.125,4.418c14.1,1.725 28.31,-2.197 39.529,-10.911c7.806,-6.062 15.271,-11.86 15.271,-11.86c-0,-0 15.719,13.185 27.27,22.874c7.022,5.89 17.188,6.129 24.479,0.575c6.52,-4.967 14.619,-11.136 21.806,-16.611c11.421,-8.699 18.46,-21.963 19.263,-36.297c2.419,-43.147 7.562,-134.89 8.749,-156.066c0.165,-2.948 0.431,-5.89 0.798,-8.821c2.997,-23.917 17.272,-137.856 19.23,-153.486c0.148,-1.186 0.326,-2.368 0.533,-3.544c2.87,-16.301 24.713,-140.377 27.69,-157.292c0.224,-1.271 0.487,-2.535 0.788,-3.79c2.457,-10.242 14.376,-59.924 21.893,-91.252c0.94,-3.92 4.245,-6.823 8.252,-7.251c4.008,-0.428 7.852,1.712 9.598,5.345c8.458,17.588 19.238,40.006 24.013,49.935c1.639,3.408 2.867,6.998 3.66,10.695c6.735,31.403 39.87,185.896 45.042,210.012c0.453,2.111 0.83,4.238 1.129,6.376c3.046,21.741 20.653,147.416 24.493,174.826c0.492,3.515 1.184,7 2.072,10.437c3.228,12.488 11.63,45.003 17.573,68.001c4.101,15.868 14.282,29.485 28.343,37.906c13.248,7.935 29.156,17.463 37.612,22.527c3.977,2.382 8.128,4.457 12.42,6.209c10.718,4.375 32.592,13.304 48.433,19.77c12.006,4.901 25.322,5.575 37.762,1.911c27.127,-7.988 73.385,-21.611 73.385,-21.611l82.452,36.59c-0,0 2.742,2.016 6.564,4.825c14.845,10.91 33.512,15.263 51.652,12.044c24.992,-4.435 58.638,-10.407 66.823,-11.859c1.234,-0.219 2.472,-0.411 3.714,-0.576c14.926,-1.978 115.011,-15.243 134.96,-17.887c2.302,-0.305 4.618,-0.493 6.939,-0.562c15.311,-0.454 75.876,-2.252 75.876,-2.252l57.735,-143.319l48.681,111.974c-0,-0 2.537,0.261 6.676,0.687c38.749,3.987 74.446,-21.379 83.427,-59.283l47.616,-200.959l36.297,56.232l26.381,209.551c1.201,9.537 6.647,18.022 14.818,23.086c8.171,5.064 18.193,6.166 27.269,2.997c0.002,-0.001 0.005,-0.002 0.008,-0.003c8.704,-3.039 15.284,-10.269 17.493,-19.22l18.628,-75.472l95.027,113.66c1.711,2.046 3.471,4.049 5.28,6.009c17.636,19.113 115.283,124.931 115.283,124.931l-1272.19,8.259l-1262.62,-0c58.901,-49.777 368.562,-318.196 447.642,-501.659l13.92,-29.175Z" style="fill:#e5e7eb;"/><rect x="317.647" y="82.435" width="8.338" height="1435.56"/><path d="M4817.47,1509.99l-0.015,-8.505l-4499.81,8.013l0.015,8.504l4499.81,-8.012Z"/></g></svg>