<svg xmlns="http://www.w3.org/2000/svg" fill="#FACC15" viewBox="62 -784 874 869" data-icon="ico-tools-alt-2" preserveAspectRatio="xMidYMid" style="overflow: hidden;"><path d="M670.9 -427.6c29.9 -31.2 58.9 -47.1 102.4 -39.7 42.1 7.2 81.4 0.8 114.6 -32.3 41.5 -41.3 62.7 -108.2 40.9 -162.1 -25.9 28.3 -49.9 54 -73.3 80.2 -10.1 11.4 -20.6 13.2 -35.4 9.4 -75.2 -19.5 -74.4 -19.3 -94.5 -91.5 -5.3 -19 -1.5 -30.9 12.1 -43.6 24.5 -22.9 47.6 -47.2 73.3 -73C700 -803.9 615.3 -733.4 620.3 -627.3c0.5 11.4 -0.6 23 1 34.3 3.3 22.7 -5.3 38.4 -21.6 54.6C500.6 -440.6 402.5 -341.9 304.7 -243c-12.2 12.3 -24.5 16.3 -41.3 15.7 -34.2 -1.3 -71.5 -9 -102.1 1.5C82.1 -198.5 43.3 -97.3 71.9 -33.7 97.6 -62 121.3 -88 145 -113.9c7 -7.6 13.2 -14.4 26.1 -12.6 73 10.2 82.1 19.3 102.8 90.4 6.6 22.8 2.4 37.2 -15 51.3 -24.6 20 -48.3 41.1 -72.4 61.7 111.4 33.8 202.9 -41.2 195.3 -144.5 -1.1 -14.5 -1.6 -29.1 -3.2 -43.5 -1.7 -15.6 3.4 -26.9 14.9 -38.4 93.2 -92 186.9 -183.5 277.4 -278.1zm16.8 125.2c-18.8 -19.4 -31.2 -23.4 -47.1 0.1 -2.8 4.2 -6.9 7.9 -11.1 10.8 -17.1 12.1 -15.2 22.1 -0.5 36.4C687.9 -198 745.4 -139.5 803.7 -81.8c14.2 14 28.2 29.6 9.3 47.2C796.4 -19 781.2 -30.9 767.6 -44.5 712.7 -99.7 656.2 -153.4 602.8 -210c-20.7 -22 -35.3 -28.3 -54 -0.9 -2.9 4.2 -6.7 8 -10.9 11.1 -13 9.8 -12.7 18.3 -0.9 29.9C612.4 -95.5 686.4 -19.7 762.6 53.9c30.7 29.7 69.1 36.6 109.5 18.8 38.1 -16.8 54.8 -48.5 58.4 -83.4 0.4 -37.1 -13.3 -62.6 -35.9 -84.8C825.3 -164 755.5 -232.3 687.7 -302.4zM119.2 -634.7c20 19.4 40.2 41.7 71.4 37.1 18.4 -2.7 28.8 4.8 40.1 16.1C278.3 -533.8 327 -487.1 373.8 -438.7c14.9 15.5 22.3 9.6 34.7 -2.1 13.5 -12.8 14.9 -20.9 0.6 -34.5 -45.7 -43.8 -90 -88.9 -134.9 -133.6 -15.1 -15 -36 -27.8 -23 -51.7 -0.5 -35.8 -24.3 -54.2 -45.5 -73.8 -44.3 -41.1 -44.5 -40.8 -88 2.4C69.2 -683.6 69 -683.4 119.2 -634.7z"></path></svg>